<svg xmlns="http://www.w3.org/2000/svg" width="600" height="428" fill="none" stroke-linecap="square" stroke-miterlimit="10"><path fill="#fff" d="M0 0h600v428H0V0Z"/><path stroke="#333" stroke-linecap="butt" d="M80.5 354.5h498"/><path stroke="#ccc" stroke-linecap="butt" d="M80.5 288.5h498m-498-66h498m-498-66h498m-498-66h498"/><clipPath id="a"><path d="M80.4 90.17h498.2V354.6H80.4V90.17Z"/></clipPath><path d="M159 355h-51V223c0-1.1.9-2 2-2h47a2 2 0 0 1 2 2Z" clip-path="url(#a)"/><path fill="#90f" d="M159 355h-51V223c0-1.1.9-2 2-2h47a2 2 0 0 1 2 2Z" clip-path="url(#a)"/><path d="M238 355h-51V216c0-1.1.9-2 2-2h47a2 2 0 0 1 2 2Z" clip-path="url(#a)"/><path fill="#ffd966" d="M238 355h-51V216c0-1.1.9-2 2-2h47a2 2 0 0 1 2 2Z" clip-path="url(#a)"/><path d="M316 355h-51V114c0-1.1.9-2 2-2h47a2 2 0 0 1 2 2Z" clip-path="url(#a)"/><path fill="#6aa84f" d="M316 355h-51V114c0-1.1.9-2 2-2h47a2 2 0 0 1 2 2Z" clip-path="url(#a)"/><path d="M395 355h-51V171c0-1.1.9-2 2-2h47a2 2 0 0 1 2 2Z" clip-path="url(#a)"/><path fill="red" d="M395 355h-51V171c0-1.1.9-2 2-2h47a2 2 0 0 1 2 2Z" clip-path="url(#a)"/><path d="M473 355h-51V181c0-1.1.9-2 2-2h47a2 2 0 0 1 2 2Z" clip-path="url(#a)"/><path fill="#4a86e8" d="M473 355h-51V181c0-1.1.9-2 2-2h47a2 2 0 0 1 2 2Z" clip-path="url(#a)"/><path d="M552 355h-51V226c0-1.1.9-2 2-2h47a2 2 0 0 1 2 2Z" clip-path="url(#a)"/><path fill="#666" d="M552 355h-51V226c0-1.1.9-2 2-2h47a2 2 0 0 1 2 2Z" clip-path="url(#a)"/><path stroke="#fff" stroke-linecap="round" stroke-linejoin="round" stroke-width="3" d="M100.38 205.86v-2.07h-3.72v-.97l3.92-5.56h.86v5.56h1.15v.97h-1.15v2.07h-1.06Zm0-3.04v-3.86l-2.7 3.86h2.7Zm4.21 3.04v-1.2h1.2v1.2h-1.2Zm2.41-4.24q0-1.53.31-2.45.31-.94.92-1.44.63-.5 1.57-.5.68 0 1.2.28.53.28.88.81.34.52.53 1.27.18.75.18 2.03 0 1.52-.3 2.44-.3.92-.93 1.44-.61.5-1.56.5-1.24 0-1.96-.9-.84-1.06-.84-3.48Zm1.08 0q0 2.11.5 2.81.5.7 1.22.7.73 0 1.22-.7.5-.7.5-2.8 0-2.13-.5-2.82-.49-.7-1.24-.7-.72 0-1.16.6-.54.79-.54 2.91Zm9.3 4.24v-2.07h-3.72v-.97l3.92-5.56h.86v5.56h1.15v.97h-1.15v2.07h-1.06Zm0-3.04v-3.86l-2.7 3.86h2.7Zm9.09-3.45-1.05.08q-.14-.63-.39-.9-.44-.46-1.06-.46-.5 0-.9.28-.48.38-.77 1.08-.28.69-.3 1.97.38-.58.92-.86.56-.28 1.17-.28 1.05 0 1.78.78.75.78.75 2 0 .81-.35 1.51t-.96 1.07q-.6.36-1.37.36-1.33 0-2.16-.97-.83-.97-.83-3.19 0-2.5.92-3.63.8-.98 2.16-.98 1.02 0 1.66.58.65.56.78 1.56Zm-4.3 3.7q0 .55.22 1.05.23.49.64.75.42.27.9.27.65 0 1.13-.53.49-.55.49-1.47 0-.9-.49-1.41-.47-.52-1.19-.52-.71 0-1.21.52-.49.52-.49 1.34Zm11.38 1.77v1.02h-5.7q0-.38.13-.74.22-.58.7-1.14.48-.56 1.38-1.3 1.4-1.15 1.9-1.82.5-.68.5-1.27 0-.63-.46-1.05-.45-.43-1.17-.43-.77 0-1.22.45-.45.45-.47 1.26l-1.08-.1q.11-1.22.83-1.85.74-.64 1.97-.64t1.95.69q.72.69.72 1.7 0 .52-.22 1.02-.2.48-.7 1.04-.49.55-1.61 1.5-.95.8-1.23 1.1-.27.28-.44.56h4.22Zm1.45-1.25 1.06-.14q.17.89.61 1.3.44.39 1.06.39.75 0 1.27-.52.52-.51.52-1.28 0-.72-.49-1.19-.47-.48-1.2-.48-.3 0-.75.12l.12-.93.18.01q.67 0 1.2-.34.54-.36.54-1.1 0-.57-.39-.95-.39-.39-1.01-.39-.61 0-1.03.39-.4.4-.52 1.16l-1.06-.2q.19-1.04.87-1.62.7-.59 1.7-.59.71 0 1.3.31.6.3.91.82.31.51.31 1.1 0 .55-.3 1.02-.3.45-.87.72.75.17 1.17.73.43.55.43 1.4 0 1.12-.83 1.9-.82.78-2.07.78-1.12 0-1.87-.67-.75-.69-.86-1.75Zm12.55 1.25v1.02h-5.7q0-.38.13-.74.22-.58.7-1.14.48-.56 1.38-1.3 1.4-1.15 1.9-1.82.5-.68.5-1.27 0-.63-.46-1.05-.45-.43-1.17-.43-.77 0-1.22.45-.45.45-.47 1.26l-1.08-.1q.11-1.22.83-1.85.74-.64 1.97-.64t1.95.69q.72.69.72 1.7 0 .52-.22 1.02-.2.48-.7 1.04-.49.55-1.61 1.5-.95.8-1.23 1.1-.27.28-.44.56h4.22Zm1.45-1.25 1.06-.14q.17.89.61 1.3.44.39 1.06.39.75 0 1.27-.52.52-.51.52-1.28 0-.72-.49-1.19-.47-.48-1.2-.48-.3 0-.75.12l.12-.93.18.01q.67 0 1.2-.34.54-.36.54-1.1 0-.57-.39-.95-.39-.39-1.01-.39-.61 0-1.03.39-.4.4-.52 1.16l-1.06-.2q.19-1.04.87-1.62.7-.59 1.7-.59.71 0 1.3.31.6.3.91.82.31.51.31 1.1 0 .55-.3 1.02-.3.45-.87.72.75.17 1.17.73.43.55.43 1.4 0 1.12-.83 1.9-.82.78-2.07.78-1.12 0-1.87-.67-.75-.69-.86-1.75Zm12.55 1.25v1.02h-5.7q0-.38.13-.74.22-.58.7-1.14.48-.56 1.38-1.3 1.4-1.15 1.9-1.82.5-.68.5-1.27 0-.63-.46-1.05-.45-.43-1.17-.43-.77 0-1.22.45-.45.45-.47 1.26l-1.08-.1q.11-1.22.83-1.85.74-.64 1.97-.64t1.95.69q.72.69.72 1.7 0 .52-.22 1.02-.2.48-.7 1.04-.49.55-1.61 1.5-.95.8-1.23 1.1-.27.28-.44.56h4.22Zm1.6-.97 1.02-.1q.13.73.49 1.05.37.32.93.32.49 0 .85-.22.37-.24.6-.6.24-.37.4-1 .15-.64.15-1.3v-.21q-.3.5-.86.83-.54.3-1.18.3-1.08 0-1.82-.76-.73-.78-.73-2.04 0-1.32.77-2.11.78-.8 1.93-.8.83 0 1.52.45.7.46 1.06 1.3.36.83.36 2.4 0 1.65-.36 2.63-.34.97-1.06 1.49-.7.5-1.64.5-1.02 0-1.66-.55-.64-.56-.76-1.58Zm4.32-3.8q0-.9-.49-1.43-.46-.53-1.15-.53-.7 0-1.24.57-.51.57-.51 1.49 0 .81.5 1.33.5.51 1.22.51.73 0 1.2-.51.47-.52.47-1.43Z"/><path fill="#90f" d="M100.38 205.86v-2.07h-3.72v-.97l3.92-5.56h.86v5.56h1.15v.97h-1.15v2.07h-1.06Zm0-3.04v-3.86l-2.7 3.86h2.7Zm4.21 3.04v-1.2h1.2v1.2h-1.2Zm2.41-4.24q0-1.53.31-2.45.31-.94.92-1.44.63-.5 1.57-.5.68 0 1.2.28.53.28.88.81.34.52.53 1.27.18.75.18 2.03 0 1.52-.3 2.44-.3.92-.93 1.44-.61.5-1.56.5-1.24 0-1.96-.9-.84-1.06-.84-3.48Zm1.08 0q0 2.11.5 2.81.5.7 1.22.7.73 0 1.22-.7.5-.7.5-2.8 0-2.13-.5-2.82-.49-.7-1.24-.7-.72 0-1.16.6-.54.79-.54 2.91Zm9.3 4.24v-2.07h-3.72v-.97l3.92-5.56h.86v5.56h1.15v.97h-1.15v2.07h-1.06Zm0-3.04v-3.86l-2.7 3.86h2.7Zm9.09-3.45-1.05.08q-.14-.63-.39-.9-.44-.46-1.06-.46-.5 0-.9.28-.48.38-.77 1.08-.28.69-.3 1.97.38-.58.92-.86.56-.28 1.17-.28 1.05 0 1.78.78.75.78.75 2 0 .81-.35 1.51t-.96 1.07q-.6.36-1.37.36-1.33 0-2.16-.97-.83-.97-.83-3.19 0-2.5.92-3.63.8-.98 2.16-.98 1.02 0 1.66.58.65.56.78 1.56Zm-4.3 3.7q0 .55.22 1.05.23.49.64.75.42.27.9.27.65 0 1.13-.53.49-.55.49-1.47 0-.9-.49-1.41-.47-.52-1.19-.52-.71 0-1.21.52-.49.52-.49 1.34Zm11.38 1.77v1.02h-5.7q0-.38.13-.74.22-.58.7-1.14.48-.56 1.38-1.3 1.4-1.15 1.9-1.82.5-.68.5-1.27 0-.63-.46-1.05-.45-.43-1.17-.43-.77 0-1.22.45-.45.45-.47 1.26l-1.08-.1q.11-1.22.83-1.85.74-.64 1.97-.64t1.95.69q.72.69.72 1.7 0 .52-.22 1.02-.2.48-.7 1.04-.49.55-1.61 1.5-.95.8-1.23 1.1-.27.28-.44.56h4.22Zm1.45-1.25 1.06-.14q.17.89.61 1.3.44.39 1.06.39.75 0 1.27-.52.52-.51.52-1.28 0-.72-.49-1.19-.47-.48-1.2-.48-.3 0-.75.12l.12-.93.18.01q.67 0 1.2-.34.54-.36.54-1.1 0-.57-.39-.95-.39-.39-1.01-.39-.61 0-1.03.39-.4.4-.52 1.16l-1.06-.2q.19-1.04.87-1.62.7-.59 1.7-.59.71 0 1.3.31.6.3.91.82.31.51.31 1.1 0 .55-.3 1.02-.3.45-.87.72.75.17 1.17.73.43.55.43 1.4 0 1.12-.83 1.9-.82.78-2.07.78-1.12 0-1.87-.67-.75-.69-.86-1.75Zm12.55 1.25v1.02h-5.7q0-.38.13-.74.22-.58.7-1.14.48-.56 1.38-1.3 1.4-1.15 1.9-1.82.5-.68.5-1.27 0-.63-.46-1.05-.45-.43-1.17-.43-.77 0-1.22.45-.45.45-.47 1.26l-1.08-.1q.11-1.22.83-1.85.74-.64 1.97-.64t1.95.69q.72.69.72 1.7 0 .52-.22 1.02-.2.48-.7 1.04-.49.55-1.61 1.5-.95.8-1.23 1.1-.27.28-.44.56h4.22Zm1.45-1.25 1.06-.14q.17.89.61 1.3.44.39 1.06.39.75 0 1.27-.52.52-.51.52-1.28 0-.72-.49-1.19-.47-.48-1.2-.48-.3 0-.75.12l.12-.93.18.01q.67 0 1.2-.34.54-.36.54-1.1 0-.57-.39-.95-.39-.39-1.01-.39-.61 0-1.03.39-.4.4-.52 1.16l-1.06-.2q.19-1.04.87-1.62.7-.59 1.7-.59.71 0 1.3.31.6.3.91.82.31.51.31 1.1 0 .55-.3 1.02-.3.45-.87.72.75.17 1.17.73.43.55.43 1.4 0 1.12-.83 1.9-.82.78-2.07.78-1.12 0-1.87-.67-.75-.69-.86-1.75Zm12.55 1.25v1.02h-5.7q0-.38.13-.74.22-.58.7-1.14.48-.56 1.38-1.3 1.4-1.15 1.9-1.82.5-.68.5-1.27 0-.63-.46-1.05-.45-.43-1.17-.43-.77 0-1.22.45-.45.45-.47 1.26l-1.08-.1q.11-1.22.83-1.85.74-.64 1.97-.64t1.95.69q.72.69.72 1.7 0 .52-.22 1.02-.2.48-.7 1.04-.49.55-1.61 1.5-.95.8-1.23 1.1-.27.28-.44.56h4.22Zm1.6-.97 1.02-.1q.13.73.49 1.05.37.32.93.32.49 0 .85-.22.37-.24.6-.6.24-.37.4-1 .15-.64.15-1.3v-.21q-.3.5-.86.83-.54.3-1.18.3-1.08 0-1.82-.76-.73-.78-.73-2.04 0-1.32.77-2.11.78-.8 1.93-.8.83 0 1.52.45.7.46 1.06 1.3.36.83.36 2.4 0 1.65-.36 2.63-.34.97-1.06 1.49-.7.5-1.64.5-1.02 0-1.66-.55-.64-.56-.76-1.58Zm4.32-3.8q0-.9-.49-1.43-.46-.53-1.15-.53-.7 0-1.24.57-.51.57-.51 1.49 0 .81.5 1.33.5.51 1.22.51.73 0 1.2-.51.47-.52.47-1.43Z"/><path fill="#ffd966" d="M179.38 198.99v-2.06h-3.72v-.97l3.92-5.56h.86v5.56h1.15v.97h-1.15v2.06h-1.06Zm0-3.03v-3.86l-2.7 3.86h2.7Zm4.21 3.03v-1.2h1.2v1.2h-1.2Zm7.96-1.02V199h-5.7q0-.38.13-.73.22-.58.7-1.15.48-.56 1.38-1.3 1.4-1.15 1.9-1.82.5-.67.5-1.27 0-.62-.46-1.04-.45-.44-1.17-.44-.77 0-1.22.45-.45.46-.47 1.27l-1.08-.11q.11-1.22.83-1.84.74-.65 1.97-.65t1.95.7q.72.68.72 1.7 0 .51-.22 1.01-.2.49-.7 1.05-.49.54-1.61 1.5-.95.8-1.23 1.1-.27.27-.44.55h4.22Zm1.45-1.23 1.1-.1q.13.82.57 1.22.46.41 1.1.41.75 0 1.28-.58t.53-1.51q0-.9-.52-1.42-.5-.54-1.33-.54-.5 0-.92.24-.4.23-.64.6l-.98-.13.83-4.4h4.28v1h-3.44l-.45 2.3q.76-.54 1.6-.54 1.13 0 1.9.78.78.78.78 2.01 0 1.16-.67 2.02-.83 1.03-2.25 1.03-1.18 0-1.93-.66-.73-.65-.84-1.73Zm7-.02 1.06-.14q.17.9.61 1.3.44.4 1.06.4.75 0 1.27-.52t.52-1.29q0-.71-.49-1.18-.47-.49-1.2-.49-.3 0-.75.13l.12-.94.18.02q.67 0 1.2-.35.54-.36.54-1.1 0-.57-.39-.95-.39-.39-1.01-.39-.61 0-1.03.4-.4.39-.52 1.15l-1.06-.19q.19-1.04.87-1.62.7-.6 1.7-.6.71 0 1.3.32.6.3.91.81.31.52.31 1.1 0 .56-.3 1.02-.3.46-.87.72.75.18 1.17.74.43.54.43 1.39 0 1.12-.83 1.9-.82.79-2.07.79-1.12 0-1.87-.68t-.86-1.75Zm7.16.29 1.01-.1q.13.72.49 1.05.37.31.93.31.49 0 .85-.22.37-.23.6-.6.24-.37.4-1 .15-.63.15-1.29v-.22q-.3.5-.86.83-.54.31-1.18.31-1.08 0-1.82-.76-.73-.78-.73-2.05 0-1.31.77-2.1.78-.8 1.93-.8.83 0 1.52.45.7.45 1.06 1.3.36.82.36 2.4 0 1.64-.36 2.63-.34.96-1.06 1.48-.7.5-1.64.5-1.02 0-1.66-.55-.64-.56-.76-1.57Zm4.3-3.8q0-.9-.48-1.44-.46-.53-1.15-.53-.7 0-1.24.58-.51.56-.51 1.48 0 .81.5 1.33t1.22.52q.73 0 1.2-.52t.47-1.42Zm8.09 4.76V199h-5.7q0-.38.13-.73.22-.58.7-1.15.48-.56 1.38-1.3 1.4-1.15 1.9-1.82.5-.67.5-1.27 0-.62-.46-1.04-.45-.44-1.17-.44-.77 0-1.22.45-.45.46-.47 1.27l-1.08-.11q.11-1.22.83-1.84.74-.65 1.97-.65t1.95.7q.72.68.72 1.7 0 .51-.22 1.01-.2.49-.7 1.05-.49.54-1.61 1.5-.95.8-1.23 1.1-.27.27-.44.55h4.22Zm3.07-3.64q-.65-.25-.98-.68-.31-.46-.31-1.07 0-.93.67-1.57.69-.65 1.8-.65 1.12 0 1.8.66.7.66.7 1.6 0 .59-.32 1.03-.3.43-.95.68.8.25 1.2.83.41.58.41 1.38 0 1.1-.78 1.84-.77.75-2.05.75-1.26 0-2.04-.75-.79-.75-.79-1.87 0-.85.43-1.41.43-.56 1.22-.77Zm-.21-1.8q0 .62.39 1 .4.4 1.03.4.6 0 1-.38.39-.39.39-.95 0-.58-.4-.97-.41-.4-1-.4-.62 0-1.02.38-.4.4-.4.93Zm-.33 3.98q0 .45.2.87.22.42.64.66.42.23.9.23.76 0 1.24-.48.5-.49.5-1.24 0-.76-.5-1.26t-1.26-.5q-.75 0-1.24.5-.48.48-.48 1.22Zm9.3 2.48v-2.06h-3.72v-.97l3.92-5.56h.86v5.56h1.15v.97h-1.15v2.06h-1.06Zm0-3.03v-3.86l-2.7 3.86h2.7Zm3.68-4.44v-1.01h5.56v.82q-.8.88-1.62 2.33-.8 1.44-1.23 2.97-.33 1.08-.41 2.36h-1.1q.02-1.02.4-2.45.39-1.44 1.09-2.77.72-1.33 1.53-2.25h-4.22Zm12.49 6.45V199h-5.7q0-.38.13-.73.22-.58.7-1.15.48-.56 1.38-1.3 1.4-1.15 1.9-1.82.5-.67.5-1.27 0-.62-.46-1.04-.45-.44-1.17-.44-.77 0-1.22.45-.45.46-.47 1.27l-1.08-.11q.11-1.22.83-1.84.74-.65 1.97-.65t1.95.7q.72.68.72 1.7 0 .51-.22 1.01-.2.49-.7 1.05-.49.54-1.61 1.5-.95.8-1.23 1.1-.27.27-.44.55h4.22Z"/><path stroke="#fff" stroke-linecap="round" stroke-linejoin="round" stroke-width="3" d="M254.06 89.92V88.9h5.56v.83q-.8.88-1.62 2.33-.8 1.44-1.23 2.97-.33 1.08-.41 2.36h-1.1q.02-1.02.4-2.46.39-1.43 1.09-2.76.72-1.33 1.53-2.25h-4.22Zm7.53 7.47v-1.2h1.2v1.2h-1.2Zm2.41-2.27 1.06-.14q.17.9.61 1.3.44.39 1.06.39.75 0 1.27-.52.52-.51.52-1.28 0-.72-.49-1.19-.47-.48-1.2-.48-.3 0-.75.12l.12-.93.18.01q.67 0 1.2-.34.55-.36.55-1.1 0-.57-.4-.95-.39-.39-1.01-.39-.61 0-1.03.4-.4.38-.52 1.15l-1.06-.19q.19-1.05.87-1.62.7-.6 1.7-.6.71 0 1.3.31.6.3.91.82.31.51.31 1.1 0 .55-.3 1.02-.3.45-.87.72.75.17 1.17.73.43.55.43 1.4 0 1.12-.83 1.9-.82.78-2.07.78-1.12 0-1.87-.67-.75-.69-.86-1.75Zm12.55 1.25v1.02h-5.7q0-.38.13-.74.22-.58.7-1.14.48-.56 1.38-1.3 1.4-1.15 1.9-1.82.5-.68.5-1.27 0-.62-.46-1.05-.45-.43-1.17-.43-.77 0-1.22.45-.45.45-.47 1.27l-1.08-.11q.11-1.22.83-1.85.74-.64 1.97-.64t1.95.69q.72.69.72 1.7 0 .52-.22 1.02-.2.48-.7 1.04-.49.55-1.61 1.5-.95.8-1.23 1.1-.27.28-.44.56h4.22Zm1.51-6.45V88.9h5.56v.83q-.8.88-1.62 2.33-.8 1.44-1.23 2.97-.33 1.08-.41 2.36h-1.1q.02-1.02.4-2.46.39-1.43 1.09-2.76.72-1.33 1.53-2.25h-4.22Zm7 0V88.9h5.56v.83q-.8.88-1.62 2.33-.8 1.44-1.23 2.97-.33 1.08-.41 2.36h-1.1q.02-1.02.4-2.46.39-1.43 1.09-2.76.72-1.33 1.53-2.25h-4.22Zm7 0V88.9h5.56v.83q-.8.88-1.62 2.33-.8 1.44-1.23 2.97-.33 1.08-.41 2.36h-1.1q.02-1.02.4-2.46.39-1.43 1.09-2.76.72-1.33 1.53-2.25h-4.22Zm7.1 5.48 1.01-.1q.13.73.49 1.06.37.3.93.3.49 0 .85-.21.37-.24.6-.6.24-.37.4-1 .15-.64.15-1.3v-.21q-.3.5-.86.83-.54.31-1.18.31-1.08 0-1.82-.77-.73-.78-.73-2.04 0-1.31.77-2.11.78-.8 1.93-.8.83 0 1.52.45.7.46 1.06 1.3.36.83.36 2.4 0 1.65-.36 2.63-.34.97-1.06 1.49-.7.5-1.64.5-1.02 0-1.66-.55-.64-.56-.76-1.58Zm4.3-3.8q0-.9-.48-1.43-.46-.53-1.15-.53-.7 0-1.24.57-.51.57-.51 1.49 0 .81.5 1.33.5.51 1.22.51.73 0 1.2-.51.47-.52.47-1.42Zm8-.7-1.04.08q-.14-.62-.39-.9-.44-.46-1.06-.46-.5 0-.9.28-.48.38-.77 1.08-.28.69-.3 1.97.38-.58.92-.86.56-.28 1.17-.28 1.05 0 1.79.78.75.78.75 2 0 .81-.36 1.52-.35.68-.96 1.06-.6.36-1.37.36-1.33 0-2.16-.97-.83-.97-.83-3.19 0-2.5.93-3.62.8-.99 2.15-.99 1.02 0 1.66.58.65.56.78 1.56Zm-4.29 3.7q0 .55.22 1.05.24.49.64.75.42.27.9.27.65 0 1.13-.53.49-.55.49-1.47 0-.9-.49-1.4-.47-.52-1.19-.52-.71 0-1.21.51-.49.52-.49 1.35Zm5.83.54 1.1-.1q.13.82.57 1.22.45.4 1.1.4.75 0 1.28-.57.53-.58.53-1.52 0-.9-.52-1.42-.5-.53-1.33-.53-.5 0-.92.24-.4.23-.64.59l-.98-.13.83-4.4h4.28v1h-3.44l-.45 2.31q.76-.55 1.6-.55 1.13 0 1.9.78.78.79.78 2.02 0 1.16-.67 2.02-.83 1.03-2.25 1.03-1.18 0-1.93-.66-.73-.66-.84-1.73Zm12.55 1.23v1.02h-5.7q0-.38.13-.74.22-.58.7-1.14.48-.56 1.38-1.3 1.4-1.15 1.9-1.82.5-.68.5-1.27 0-.62-.46-1.05-.45-.43-1.17-.43-.77 0-1.22.45-.45.45-.47 1.27l-1.08-.11q.11-1.22.83-1.85.74-.64 1.97-.64t1.95.69q.72.69.72 1.7 0 .52-.22 1.02-.2.48-.7 1.04-.49.55-1.61 1.5-.95.8-1.23 1.1-.27.28-.44.56h4.22Z"/><path fill="#6aa84f" d="M254.06 89.92V88.9h5.56v.83q-.8.88-1.62 2.33-.8 1.44-1.23 2.97-.33 1.08-.41 2.36h-1.1q.02-1.02.4-2.46.39-1.43 1.09-2.76.72-1.33 1.53-2.25h-4.22Zm7.53 7.47v-1.2h1.2v1.2h-1.2Zm2.41-2.27 1.06-.14q.17.9.61 1.3.44.39 1.06.39.75 0 1.27-.52.52-.51.52-1.28 0-.72-.49-1.19-.47-.48-1.2-.48-.3 0-.75.12l.12-.93.18.01q.67 0 1.2-.34.55-.36.55-1.1 0-.57-.4-.95-.39-.39-1.01-.39-.61 0-1.03.4-.4.38-.52 1.15l-1.06-.19q.19-1.05.87-1.62.7-.6 1.7-.6.71 0 1.3.31.6.3.91.82.31.51.31 1.1 0 .55-.3 1.02-.3.45-.87.72.75.17 1.17.73.43.55.43 1.4 0 1.12-.83 1.9-.82.78-2.07.78-1.12 0-1.87-.67-.75-.69-.86-1.75Zm12.55 1.25v1.02h-5.7q0-.38.13-.74.22-.58.7-1.14.48-.56 1.38-1.3 1.4-1.15 1.9-1.82.5-.68.5-1.27 0-.62-.46-1.05-.45-.43-1.17-.43-.77 0-1.22.45-.45.45-.47 1.27l-1.08-.11q.11-1.22.83-1.85.74-.64 1.97-.64t1.95.69q.72.69.72 1.7 0 .52-.22 1.02-.2.48-.7 1.04-.49.55-1.61 1.5-.95.8-1.23 1.1-.27.28-.44.56h4.22Zm1.51-6.45V88.9h5.56v.83q-.8.88-1.62 2.33-.8 1.44-1.23 2.97-.33 1.08-.41 2.36h-1.1q.02-1.02.4-2.46.39-1.43 1.09-2.76.72-1.33 1.53-2.25h-4.22Zm7 0V88.9h5.56v.83q-.8.88-1.62 2.33-.8 1.44-1.23 2.97-.33 1.08-.41 2.36h-1.1q.02-1.02.4-2.46.39-1.43 1.09-2.76.72-1.33 1.53-2.25h-4.22Zm7 0V88.9h5.56v.83q-.8.88-1.62 2.33-.8 1.44-1.23 2.97-.33 1.08-.41 2.36h-1.1q.02-1.02.4-2.46.39-1.43 1.09-2.76.72-1.33 1.53-2.25h-4.22Zm7.1 5.48 1.01-.1q.13.73.49 1.06.37.3.93.3.49 0 .85-.21.37-.24.6-.6.24-.37.4-1 .15-.64.15-1.3v-.21q-.3.5-.86.83-.54.31-1.18.31-1.08 0-1.82-.77-.73-.78-.73-2.04 0-1.31.77-2.11.78-.8 1.93-.8.83 0 1.52.45.7.46 1.06 1.3.36.83.36 2.4 0 1.65-.36 2.63-.34.97-1.06 1.49-.7.5-1.64.5-1.02 0-1.66-.55-.64-.56-.76-1.58Zm4.3-3.8q0-.9-.48-1.43-.46-.53-1.15-.53-.7 0-1.24.57-.51.57-.51 1.49 0 .81.5 1.33.5.51 1.22.51.73 0 1.2-.51.47-.52.47-1.42Zm8-.7-1.04.08q-.14-.62-.39-.9-.44-.46-1.06-.46-.5 0-.9.28-.48.38-.77 1.08-.28.69-.3 1.97.38-.58.92-.86.56-.28 1.17-.28 1.05 0 1.79.78.75.78.75 2 0 .81-.36 1.52-.35.68-.96 1.06-.6.36-1.37.36-1.33 0-2.16-.97-.83-.97-.83-3.19 0-2.5.93-3.62.8-.99 2.15-.99 1.02 0 1.66.58.65.56.78 1.56Zm-4.29 3.7q0 .55.22 1.05.24.49.64.75.42.27.9.27.65 0 1.13-.53.49-.55.49-1.47 0-.9-.49-1.4-.47-.52-1.19-.52-.71 0-1.21.51-.49.52-.49 1.35Zm5.83.54 1.1-.1q.13.82.57 1.22.45.4 1.1.4.75 0 1.28-.57.53-.58.53-1.52 0-.9-.52-1.42-.5-.53-1.33-.53-.5 0-.92.24-.4.23-.64.59l-.98-.13.83-4.4h4.28v1h-3.44l-.45 2.31q.76-.55 1.6-.55 1.13 0 1.9.78.78.79.78 2.02 0 1.16-.67 2.02-.83 1.03-2.25 1.03-1.18 0-1.93-.66-.73-.66-.84-1.73Zm12.55 1.23v1.02h-5.7q0-.38.13-.74.22-.58.7-1.14.48-.56 1.38-1.3 1.4-1.15 1.9-1.82.5-.68.5-1.27 0-.62-.46-1.05-.45-.43-1.17-.43-.77 0-1.22.45-.45.45-.47 1.27l-1.08-.11q.11-1.22.83-1.85.74-.64 1.97-.64t1.95.69q.72.69.72 1.7 0 .52-.22 1.02-.2.48-.7 1.04-.49.55-1.61 1.5-.95.8-1.23 1.1-.27.28-.44.56h4.22Z"/><path stroke="#fff" stroke-linecap="round" stroke-linejoin="round" stroke-width="3" d="m333 151.78 1.1-.1q.13.82.57 1.22.45.4 1.1.4.75 0 1.28-.57.53-.58.53-1.52 0-.9-.52-1.42-.5-.53-1.33-.53-.5 0-.92.24-.4.23-.64.59l-.98-.13.83-4.4h4.28v1h-3.44l-.45 2.31q.76-.55 1.6-.55 1.13 0 1.9.78.78.79.78 2.02 0 1.16-.67 2.02-.83 1.03-2.25 1.03-1.18 0-1.93-.66-.73-.66-.84-1.73Zm7.6 2.25v-1.2h1.2v1.2h-1.2Zm7.87-6.49-1.05.08q-.14-.62-.39-.9-.44-.46-1.06-.46-.5 0-.9.28-.48.38-.77 1.08-.28.69-.3 1.97.38-.58.92-.86.56-.28 1.17-.28 1.05 0 1.79.78.75.78.75 2 0 .81-.36 1.52-.35.68-.96 1.06-.6.36-1.37.36-1.33 0-2.16-.97-.83-.97-.83-3.19 0-2.5.93-3.62.8-.99 2.15-.99 1.02 0 1.66.58.65.56.78 1.56Zm-4.3 3.7q0 .55.22 1.05.24.49.64.75.42.27.9.27.65 0 1.13-.53.49-.55.49-1.47 0-.9-.49-1.4-.47-.52-1.19-.52-.71 0-1.21.51-.49.52-.49 1.35Zm9.8 2.79h-1.05v-6.72q-.39.36-1.01.73-.61.36-1.1.53v-1.01q.88-.42 1.53-1 .68-.6.96-1.16h.67v8.63Zm6.4 0v-2.07h-3.71V151l3.92-5.57h.86V151h1.15v.96h-1.15v2.07h-1.06Zm0-3.03v-3.86L357.7 151h2.69Zm9.18 2.01v1.02h-5.7q0-.38.13-.74.22-.58.7-1.14.48-.56 1.38-1.3 1.4-1.15 1.9-1.82.5-.68.5-1.27 0-.62-.46-1.05-.45-.43-1.17-.43-.77 0-1.22.45-.45.45-.47 1.27l-1.08-.11q.11-1.22.83-1.85.74-.64 1.97-.64t1.95.69q.72.69.72 1.7 0 .52-.22 1.02-.2.48-.7 1.04-.49.55-1.61 1.5-.95.8-1.23 1.1-.27.28-.44.56h4.22Zm7 0v1.02h-5.7q0-.38.13-.74.22-.58.7-1.14.48-.56 1.38-1.3 1.4-1.15 1.9-1.82.5-.68.5-1.27 0-.62-.46-1.05-.45-.43-1.17-.43-.77 0-1.22.45-.45.45-.47 1.27l-1.08-.11q.11-1.22.83-1.85.74-.64 1.97-.64t1.95.69q.72.69.72 1.7 0 .52-.22 1.02-.2.48-.7 1.04-.49.55-1.61 1.5-.95.8-1.23 1.1-.27.28-.44.56h4.22Zm1.45-1.25 1.06-.14q.17.9.61 1.3.44.39 1.06.39.75 0 1.27-.52.52-.51.52-1.28 0-.72-.49-1.19-.47-.48-1.2-.48-.3 0-.75.12l.12-.93.18.01q.67 0 1.2-.34.55-.36.55-1.1 0-.57-.4-.95-.39-.39-1.01-.39-.61 0-1.03.4-.4.38-.52 1.15l-1.06-.19q.19-1.05.87-1.62.7-.6 1.7-.6.71 0 1.3.31.6.3.91.82.31.51.31 1.1 0 .55-.3 1.02-.3.45-.87.72.75.17 1.17.73.43.55.43 1.4 0 1.12-.83 1.9-.82.78-2.07.78-1.12 0-1.87-.67-.75-.69-.86-1.75Zm10.38 2.27v-2.07h-3.72V151l3.92-5.57h.86V151h1.15v.96h-1.15v2.07h-1.06Zm0-3.03v-3.86l-2.7 3.86h2.7Zm9.09-3.46-1.05.08q-.14-.62-.39-.9-.44-.46-1.06-.46-.5 0-.9.28-.48.38-.77 1.08-.28.69-.3 1.97.38-.58.92-.86.56-.28 1.17-.28 1.05 0 1.79.78.75.78.75 2 0 .81-.36 1.52-.35.68-.96 1.06-.6.36-1.37.36-1.33 0-2.16-.97-.83-.97-.83-3.19 0-2.5.93-3.62.8-.99 2.15-.99 1.02 0 1.66.58.65.56.78 1.56Zm-4.3 3.7q0 .55.22 1.05.24.49.64.75.42.27.9.27.65 0 1.13-.53.49-.55.49-1.47 0-.9-.49-1.4-.47-.52-1.19-.52-.71 0-1.21.51-.49.52-.49 1.35Zm11.38 1.77v1.02h-5.7q0-.38.13-.74.22-.58.7-1.14.48-.56 1.38-1.3 1.4-1.15 1.9-1.82.5-.68.5-1.27 0-.62-.46-1.05-.45-.43-1.17-.43-.77 0-1.22.45-.45.45-.47 1.27l-1.08-.11q.11-1.22.83-1.85.74-.64 1.97-.64t1.95.69q.72.69.72 1.7 0 .52-.22 1.02-.2.48-.7 1.04-.49.55-1.61 1.5-.95.8-1.23 1.1-.27.28-.44.56h4.22Z"/><path fill="red" d="m333 151.78 1.1-.1q.13.82.57 1.22.45.4 1.1.4.75 0 1.28-.57.53-.58.53-1.52 0-.9-.52-1.42-.5-.53-1.33-.53-.5 0-.92.24-.4.23-.64.59l-.98-.13.83-4.4h4.28v1h-3.44l-.45 2.31q.76-.55 1.6-.55 1.13 0 1.9.78.78.79.78 2.02 0 1.16-.67 2.02-.83 1.03-2.25 1.03-1.18 0-1.93-.66-.73-.66-.84-1.73Zm7.6 2.25v-1.2h1.2v1.2h-1.2Zm7.87-6.49-1.05.08q-.14-.62-.39-.9-.44-.46-1.06-.46-.5 0-.9.28-.48.38-.77 1.08-.28.69-.3 1.97.38-.58.92-.86.56-.28 1.17-.28 1.05 0 1.79.78.75.78.75 2 0 .81-.36 1.52-.35.68-.96 1.06-.6.36-1.37.36-1.33 0-2.16-.97-.83-.97-.83-3.19 0-2.5.93-3.62.8-.99 2.15-.99 1.02 0 1.66.58.65.56.78 1.56Zm-4.3 3.7q0 .55.22 1.05.24.49.64.75.42.27.9.27.65 0 1.13-.53.49-.55.49-1.47 0-.9-.49-1.4-.47-.52-1.19-.52-.71 0-1.21.51-.49.52-.49 1.35Zm9.8 2.79h-1.05v-6.72q-.39.36-1.01.73-.61.36-1.1.53v-1.01q.88-.42 1.53-1 .68-.6.96-1.16h.67v8.63Zm6.4 0v-2.07h-3.71V151l3.92-5.57h.86V151h1.15v.96h-1.15v2.07h-1.06Zm0-3.03v-3.86L357.7 151h2.69Zm9.18 2.01v1.02h-5.7q0-.38.13-.74.22-.58.7-1.14.48-.56 1.38-1.3 1.4-1.15 1.9-1.82.5-.68.5-1.27 0-.62-.46-1.05-.45-.43-1.17-.43-.77 0-1.22.45-.45.45-.47 1.27l-1.08-.11q.11-1.22.83-1.85.74-.64 1.97-.64t1.95.69q.72.69.72 1.7 0 .52-.22 1.02-.2.48-.7 1.04-.49.55-1.61 1.5-.95.8-1.23 1.1-.27.28-.44.56h4.22Zm7 0v1.02h-5.7q0-.38.13-.74.22-.58.7-1.14.48-.56 1.38-1.3 1.4-1.15 1.9-1.82.5-.68.5-1.27 0-.62-.46-1.05-.45-.43-1.17-.43-.77 0-1.22.45-.45.45-.47 1.27l-1.08-.11q.11-1.22.83-1.85.74-.64 1.97-.64t1.95.69q.72.69.72 1.7 0 .52-.22 1.02-.2.48-.7 1.04-.49.55-1.61 1.5-.95.8-1.23 1.1-.27.28-.44.56h4.22Zm1.45-1.25 1.06-.14q.17.9.61 1.3.44.39 1.06.39.75 0 1.27-.52.52-.51.52-1.28 0-.72-.49-1.19-.47-.48-1.2-.48-.3 0-.75.12l.12-.93.18.01q.67 0 1.2-.34.55-.36.55-1.1 0-.57-.4-.95-.39-.39-1.01-.39-.61 0-1.03.4-.4.38-.52 1.15l-1.06-.19q.19-1.05.87-1.62.7-.6 1.7-.6.71 0 1.3.31.6.3.91.82.31.51.31 1.1 0 .55-.3 1.02-.3.45-.87.72.75.17 1.17.73.43.55.43 1.4 0 1.12-.83 1.9-.82.78-2.07.78-1.12 0-1.87-.67-.75-.69-.86-1.75Zm10.38 2.27v-2.07h-3.72V151l3.92-5.57h.86V151h1.15v.96h-1.15v2.07h-1.06Zm0-3.03v-3.86l-2.7 3.86h2.7Zm9.09-3.46-1.05.08q-.14-.62-.39-.9-.44-.46-1.06-.46-.5 0-.9.28-.48.38-.77 1.08-.28.69-.3 1.97.38-.58.92-.86.56-.28 1.17-.28 1.05 0 1.79.78.75.78.75 2 0 .81-.36 1.52-.35.68-.96 1.06-.6.36-1.37.36-1.33 0-2.16-.97-.83-.97-.83-3.19 0-2.5.93-3.62.8-.99 2.15-.99 1.02 0 1.66.58.65.56.78 1.56Zm-4.3 3.7q0 .55.22 1.05.24.49.64.75.42.27.9.27.65 0 1.13-.53.49-.55.49-1.47 0-.9-.49-1.4-.47-.52-1.19-.52-.71 0-1.21.51-.49.52-.49 1.35Zm11.38 1.77v1.02h-5.7q0-.38.13-.74.22-.58.7-1.14.48-.56 1.38-1.3 1.4-1.15 1.9-1.82.5-.68.5-1.27 0-.62-.46-1.05-.45-.43-1.17-.43-.77 0-1.22.45-.45.45-.47 1.27l-1.08-.11q.11-1.22.83-1.85.74-.64 1.97-.64t1.95.69q.72.69.72 1.7 0 .52-.22 1.02-.2.48-.7 1.04-.49.55-1.61 1.5-.95.8-1.23 1.1-.27.28-.44.56h4.22Z"/><path stroke="#fff" stroke-linecap="round" stroke-linejoin="round" stroke-width="3" d="m414.5 162.11 1.1-.09q.13.81.57 1.22.45.4 1.1.4.75 0 1.28-.57.53-.58.53-1.52 0-.9-.52-1.42-.5-.53-1.33-.53-.5 0-.92.23-.4.24-.64.6l-.98-.13.83-4.4h4.28v1h-3.44l-.45 2.3q.76-.54 1.6-.54 1.13 0 1.9.78.78.78.78 2.02 0 1.15-.67 2.01-.83 1.04-2.25 1.04-1.18 0-1.93-.66-.73-.66-.84-1.74Zm7.6 2.25v-1.2h1.2v1.2h-1.2Zm2.4-2.26 1.06-.14q.17.89.61 1.3.44.39 1.06.39.75 0 1.27-.52t.52-1.28q0-.72-.49-1.19-.47-.48-1.2-.48-.3 0-.75.12l.12-.94.18.02q.67 0 1.2-.34.55-.36.55-1.1 0-.58-.4-.95-.39-.4-1.01-.4-.61 0-1.03.4-.4.39-.52 1.16l-1.06-.2q.19-1.04.87-1.62.7-.6 1.7-.6.71 0 1.3.32.6.3.91.81.31.52.31 1.11 0 .55-.3 1.02-.3.45-.87.72.75.17 1.17.73.43.55.43 1.4 0 1.12-.83 1.9-.82.78-2.07.78-1.12 0-1.87-.67-.75-.69-.86-1.75Zm7-1.97q0-1.53.31-2.45.31-.94.92-1.44.63-.5 1.57-.5.68 0 1.2.28.53.28.88.81.34.52.53 1.27.18.75.18 2.03 0 1.52-.3 2.44-.3.92-.93 1.44-.61.5-1.56.5-1.24 0-1.96-.9-.84-1.06-.84-3.48Zm1.08 0q0 2.1.5 2.81.5.7 1.22.7.73 0 1.22-.7.5-.7.5-2.81 0-2.12-.5-2.81-.49-.7-1.24-.7-.72 0-1.15.6-.55.79-.55 2.91Zm9.89 4.23h-1.05v-6.71q-.39.36-1.01.73-.61.36-1.1.53v-1.01q.88-.43 1.53-1 .68-.6.96-1.16h.67v8.62Zm6.4 0v-2.06h-3.71v-.97l3.92-5.56h.86v5.56h1.15v.97h-1.15v2.06h-1.06Zm0-3.03v-3.86l-2.68 3.86h2.69Zm9.1-3.45-1.05.08q-.14-.63-.39-.9-.44-.46-1.06-.46-.5 0-.9.28-.48.38-.77 1.08-.28.69-.3 1.97.38-.58.92-.86.56-.28 1.17-.28 1.05 0 1.79.78.75.78.75 2 0 .81-.36 1.51-.35.7-.96 1.07-.6.36-1.37.36-1.33 0-2.16-.97-.83-.97-.83-3.2 0-2.5.93-3.62.8-.98 2.15-.98 1.02 0 1.66.58.65.56.78 1.56Zm-4.3 3.7q0 .55.22 1.05.24.48.64.75.42.27.9.27.65 0 1.13-.54.49-.54.49-1.46 0-.9-.49-1.41-.47-.52-1.19-.52-.71 0-1.21.52-.49.52-.49 1.34Zm5.83.53 1.1-.09q.13.81.57 1.22.45.4 1.1.4.75 0 1.28-.57.53-.58.53-1.52 0-.9-.52-1.42-.5-.53-1.33-.53-.5 0-.92.23-.4.24-.64.6l-.98-.13.83-4.4h4.28v1h-3.44l-.45 2.3q.76-.54 1.6-.54 1.13 0 1.9.78.78.78.78 2.02 0 1.15-.67 2.01-.83 1.04-2.25 1.04-1.18 0-1.93-.66-.73-.66-.84-1.74Zm10.97 2.25h-1.05v-6.71q-.39.36-1.01.73-.61.36-1.1.53v-1.01q.88-.43 1.53-1 .68-.6.96-1.16h.67v8.62Zm7 0h-1.05v-6.71q-.39.36-1.01.73-.61.36-1.1.53v-1.01q.88-.43 1.53-1 .68-.6.96-1.16h.67v8.62Z"/><path fill="#4a86e8" d="m414.5 162.11 1.1-.09q.13.81.57 1.22.45.4 1.1.4.75 0 1.28-.57.53-.58.53-1.52 0-.9-.52-1.42-.5-.53-1.33-.53-.5 0-.92.23-.4.24-.64.6l-.98-.13.83-4.4h4.28v1h-3.44l-.45 2.3q.76-.54 1.6-.54 1.13 0 1.9.78.78.78.78 2.02 0 1.15-.67 2.01-.83 1.04-2.25 1.04-1.18 0-1.93-.66-.73-.66-.84-1.74Zm7.6 2.25v-1.2h1.2v1.2h-1.2Zm2.4-2.26 1.06-.14q.17.89.61 1.3.44.39 1.06.39.75 0 1.27-.52t.52-1.28q0-.72-.49-1.19-.47-.48-1.2-.48-.3 0-.75.12l.12-.94.18.02q.67 0 1.2-.34.55-.36.55-1.1 0-.58-.4-.95-.39-.4-1.01-.4-.61 0-1.03.4-.4.39-.52 1.16l-1.06-.2q.19-1.04.87-1.62.7-.6 1.7-.6.71 0 1.3.32.6.3.91.81.31.52.31 1.11 0 .55-.3 1.02-.3.45-.87.72.75.17 1.17.73.43.55.43 1.4 0 1.12-.83 1.9-.82.78-2.07.78-1.12 0-1.87-.67-.75-.69-.86-1.75Zm7-1.97q0-1.53.31-2.45.31-.94.92-1.44.63-.5 1.57-.5.68 0 1.2.28.53.28.88.81.34.52.53 1.27.18.75.18 2.03 0 1.52-.3 2.44-.3.92-.93 1.44-.61.5-1.56.5-1.24 0-1.96-.9-.84-1.06-.84-3.48Zm1.08 0q0 2.1.5 2.81.5.7 1.22.7.73 0 1.22-.7.5-.7.5-2.81 0-2.12-.5-2.81-.49-.7-1.24-.7-.72 0-1.15.6-.55.79-.55 2.91Zm9.89 4.23h-1.05v-6.71q-.39.36-1.01.73-.61.36-1.1.53v-1.01q.88-.43 1.53-1 .68-.6.96-1.16h.67v8.62Zm6.4 0v-2.06h-3.71v-.97l3.92-5.56h.86v5.56h1.15v.97h-1.15v2.06h-1.06Zm0-3.03v-3.86l-2.68 3.86h2.69Zm9.1-3.45-1.05.08q-.14-.63-.39-.9-.44-.46-1.06-.46-.5 0-.9.28-.48.38-.77 1.08-.28.69-.3 1.97.38-.58.92-.86.56-.28 1.17-.28 1.05 0 1.79.78.75.78.75 2 0 .81-.36 1.51-.35.7-.96 1.07-.6.36-1.37.36-1.33 0-2.16-.97-.83-.97-.83-3.2 0-2.5.93-3.62.8-.98 2.15-.98 1.02 0 1.66.58.65.56.78 1.56Zm-4.3 3.7q0 .55.22 1.05.24.48.64.75.42.27.9.27.65 0 1.13-.54.49-.54.49-1.46 0-.9-.49-1.41-.47-.52-1.19-.52-.71 0-1.21.52-.49.52-.49 1.34Zm5.83.53 1.1-.09q.13.81.57 1.22.45.4 1.1.4.75 0 1.28-.57.53-.58.53-1.52 0-.9-.52-1.42-.5-.53-1.33-.53-.5 0-.92.23-.4.24-.64.6l-.98-.13.83-4.4h4.28v1h-3.44l-.45 2.3q.76-.54 1.6-.54 1.13 0 1.9.78.78.78.78 2.02 0 1.15-.67 2.01-.83 1.04-2.25 1.04-1.18 0-1.93-.66-.73-.66-.84-1.74Zm10.97 2.25h-1.05v-6.71q-.39.36-1.01.73-.61.36-1.1.53v-1.01q.88-.43 1.53-1 .68-.6.96-1.16h.67v8.62Zm7 0h-1.05v-6.71q-.39.36-1.01.73-.61.36-1.1.53v-1.01q.88-.43 1.53-1 .68-.6.96-1.16h.67v8.62Z"/><path stroke="#fff" stroke-linecap="round" stroke-linejoin="round" stroke-width="3" d="m490 206.34 1.06-.14q.17.89.61 1.3.44.39 1.06.39.75 0 1.27-.52t.52-1.28q0-.72-.49-1.19-.47-.48-1.2-.48-.3 0-.75.12l.12-.94.18.02q.67 0 1.2-.34.55-.36.55-1.1 0-.58-.4-.95-.39-.4-1.01-.4-.61 0-1.03.4-.4.39-.52 1.16l-1.06-.2q.19-1.04.87-1.62.7-.6 1.7-.6.71 0 1.3.32.6.3.91.81.31.52.31 1.11 0 .55-.3 1.02-.3.45-.87.72.75.17 1.17.73.43.55.43 1.4 0 1.12-.83 1.9-.82.78-2.07.78-1.12 0-1.87-.67-.75-.69-.86-1.75Zm7.6 2.26v-1.2h1.2v1.2h-1.2Zm2.56-1.98 1.01-.1q.13.72.49 1.05.37.32.93.32.49 0 .85-.22.37-.24.6-.6.24-.37.4-1 .15-.64.15-1.3v-.21q-.3.5-.86.83-.54.3-1.18.3-1.08 0-1.82-.76-.73-.78-.73-2.04 0-1.32.77-2.11.78-.8 1.93-.8.83 0 1.52.45.7.46 1.06 1.3.36.83.36 2.4 0 1.65-.36 2.63-.34.97-1.06 1.48-.7.5-1.64.5-1.02 0-1.66-.54-.64-.56-.76-1.58Zm4.3-3.8q0-.9-.48-1.43-.46-.54-1.15-.54-.7 0-1.24.58-.51.56-.51 1.49 0 .8.5 1.32t1.22.52q.73 0 1.2-.52.47-.51.47-1.42Zm8-.7-1.04.08q-.14-.63-.39-.9-.44-.46-1.06-.46-.5 0-.9.28-.48.37-.77 1.08-.28.69-.3 1.97.38-.58.92-.86.56-.28 1.17-.28 1.05 0 1.79.78.75.78.75 2 0 .81-.36 1.51-.35.7-.96 1.07-.6.35-1.37.35-1.33 0-2.16-.96-.83-.97-.83-3.2 0-2.5.93-3.62.8-.98 2.15-.98 1.02 0 1.66.58.65.56.78 1.56Zm-4.29 3.7q0 .55.22 1.05.24.48.64.75.42.27.9.27.65 0 1.13-.54.49-.54.49-1.46 0-.9-.49-1.41-.47-.52-1.19-.52-.71 0-1.21.52-.49.51-.49 1.34Zm5.83.52 1.06-.14q.17.89.61 1.3.44.39 1.06.39.75 0 1.27-.52t.52-1.28q0-.72-.49-1.19-.47-.48-1.2-.48-.3 0-.75.12l.12-.94.17.02q.68 0 1.2-.34.55-.36.55-1.1 0-.58-.39-.95-.39-.4-1.01-.4-.61 0-1.03.4-.4.39-.52 1.16l-1.06-.2q.19-1.04.87-1.62.7-.6 1.7-.6.71 0 1.3.32.6.3.91.81.31.52.31 1.11 0 .55-.3 1.02-.3.45-.87.72.75.17 1.17.73.42.55.42 1.4 0 1.12-.82 1.9-.82.78-2.07.78-1.12 0-1.87-.67-.75-.69-.86-1.75Zm7-1.97q0-1.53.31-2.45.32-.94.92-1.44.63-.5 1.57-.5.68 0 1.2.28.53.28.88.81.34.52.53 1.27.18.75.18 2.03 0 1.52-.3 2.44-.3.92-.93 1.43-.61.5-1.56.5-1.24 0-1.96-.89-.84-1.06-.84-3.48Zm1.08 0q0 2.1.5 2.81.5.7 1.22.7.73 0 1.22-.7.5-.7.5-2.81 0-2.13-.5-2.81-.49-.7-1.24-.7-.72 0-1.15.6-.55.78-.55 2.91Zm11.39-2.25-1.05.08q-.14-.63-.39-.9-.44-.46-1.06-.46-.5 0-.9.28-.48.37-.77 1.08-.28.69-.3 1.97.38-.58.92-.86.56-.28 1.17-.28 1.05 0 1.78.78.75.78.75 2 0 .81-.35 1.51t-.96 1.07q-.6.35-1.37.35-1.33 0-2.16-.96-.83-.97-.83-3.2 0-2.5.92-3.62.8-.98 2.16-.98 1.02 0 1.66.58.65.56.78 1.56Zm-4.3 3.7q0 .55.22 1.05.24.48.64.75.42.27.9.27.65 0 1.13-.54.49-.54.49-1.46 0-.9-.49-1.41-.47-.52-1.18-.52-.72 0-1.22.52-.49.51-.49 1.34Zm5.83-1.45q0-1.53.31-2.45.32-.94.92-1.44.63-.5 1.57-.5.68 0 1.2.28.53.28.88.81.34.52.53 1.27.18.75.18 2.03 0 1.52-.3 2.44-.3.92-.93 1.43-.61.5-1.56.5-1.24 0-1.96-.89-.84-1.06-.84-3.48Zm1.08 0q0 2.1.5 2.81.5.7 1.22.7.73 0 1.22-.7.5-.7.5-2.81 0-2.13-.5-2.81-.49-.7-1.24-.7-.72 0-1.15.6-.55.78-.55 2.91Zm5.92 1.98 1.1-.09q.13.81.57 1.22.46.4 1.1.4.75 0 1.28-.57.53-.58.53-1.52 0-.9-.52-1.42-.5-.53-1.33-.53-.5 0-.92.23-.4.24-.64.6l-.98-.13.83-4.4h4.28v1h-3.44l-.45 2.3q.76-.54 1.6-.54 1.13 0 1.9.78.78.78.78 2.02 0 1.15-.67 2.01-.83 1.03-2.25 1.03-1.18 0-1.93-.65-.73-.66-.84-1.74Zm12.55 1.24v1.01h-5.7q0-.37.13-.73.22-.58.7-1.14.48-.56 1.38-1.3 1.4-1.15 1.9-1.83.5-.67.5-1.26 0-.63-.46-1.05-.45-.44-1.17-.44-.77 0-1.22.46-.45.45-.47 1.26l-1.08-.1q.11-1.23.83-1.85.74-.64 1.97-.64t1.95.69q.72.68.72 1.7 0 .52-.22 1.02-.2.48-.7 1.04-.49.55-1.61 1.5-.95.8-1.23 1.1-.27.28-.44.56h4.22Zm1.45-1.25 1.06-.14q.17.89.61 1.3.44.39 1.06.39.75 0 1.27-.52t.52-1.28q0-.72-.49-1.19-.47-.48-1.2-.48-.3 0-.75.12l.12-.94.17.02q.68 0 1.2-.34.55-.36.55-1.1 0-.58-.39-.95-.39-.4-1.01-.4-.61 0-1.03.4-.4.39-.52 1.16l-1.06-.2q.19-1.04.87-1.62.7-.6 1.7-.6.71 0 1.3.32.6.3.91.81.31.52.31 1.11 0 .55-.3 1.02-.3.45-.87.72.75.17 1.17.73.42.55.42 1.4 0 1.12-.82 1.9-.82.78-2.07.78-1.12 0-1.87-.67-.75-.69-.86-1.75Z"/><path fill="#666" d="m490 206.34 1.06-.14q.17.89.61 1.3.44.39 1.06.39.75 0 1.27-.52t.52-1.28q0-.72-.49-1.19-.47-.48-1.2-.48-.3 0-.75.12l.12-.94.18.02q.67 0 1.2-.34.55-.36.55-1.1 0-.58-.4-.95-.39-.4-1.01-.4-.61 0-1.03.4-.4.39-.52 1.16l-1.06-.2q.19-1.04.87-1.62.7-.6 1.7-.6.71 0 1.3.32.6.3.91.81.31.52.31 1.11 0 .55-.3 1.02-.3.45-.87.72.75.17 1.17.73.43.55.43 1.4 0 1.12-.83 1.9-.82.78-2.07.78-1.12 0-1.87-.67-.75-.69-.86-1.75Zm7.6 2.26v-1.2h1.2v1.2h-1.2Zm2.56-1.98 1.01-.1q.13.72.49 1.05.37.32.93.32.49 0 .85-.22.37-.24.6-.6.24-.37.4-1 .15-.64.15-1.3v-.21q-.3.5-.86.83-.54.3-1.18.3-1.08 0-1.82-.76-.73-.78-.73-2.04 0-1.32.77-2.11.78-.8 1.93-.8.83 0 1.52.45.7.46 1.06 1.3.36.83.36 2.4 0 1.65-.36 2.63-.34.97-1.06 1.48-.7.5-1.64.5-1.02 0-1.66-.54-.64-.56-.76-1.58Zm4.3-3.8q0-.9-.48-1.43-.46-.54-1.15-.54-.7 0-1.24.58-.51.56-.51 1.49 0 .8.5 1.32t1.22.52q.73 0 1.2-.52.47-.51.47-1.42Zm8-.7-1.04.08q-.14-.63-.39-.9-.44-.46-1.06-.46-.5 0-.9.28-.48.37-.77 1.08-.28.69-.3 1.97.38-.58.92-.86.56-.28 1.17-.28 1.05 0 1.79.78.75.78.75 2 0 .81-.36 1.51-.35.7-.96 1.07-.6.35-1.37.35-1.33 0-2.16-.96-.83-.97-.83-3.2 0-2.5.93-3.62.8-.98 2.15-.98 1.02 0 1.66.58.65.56.78 1.56Zm-4.29 3.7q0 .55.22 1.05.24.48.64.75.42.27.9.27.65 0 1.13-.54.49-.54.49-1.46 0-.9-.49-1.41-.47-.52-1.19-.52-.71 0-1.21.52-.49.51-.49 1.34Zm5.83.52 1.06-.14q.17.89.61 1.3.44.39 1.06.39.75 0 1.27-.52t.52-1.28q0-.72-.49-1.19-.47-.48-1.2-.48-.3 0-.75.12l.12-.94.17.02q.68 0 1.2-.34.55-.36.55-1.1 0-.58-.39-.95-.39-.4-1.01-.4-.61 0-1.03.4-.4.39-.52 1.16l-1.06-.2q.19-1.04.87-1.62.7-.6 1.7-.6.71 0 1.3.32.6.3.91.81.31.52.31 1.11 0 .55-.3 1.02-.3.45-.87.72.75.17 1.17.73.42.55.42 1.4 0 1.12-.82 1.9-.82.78-2.07.78-1.12 0-1.87-.67-.75-.69-.86-1.75Zm7-1.97q0-1.53.31-2.45.32-.94.92-1.44.63-.5 1.57-.5.68 0 1.2.28.53.28.88.81.34.52.53 1.27.18.75.18 2.03 0 1.52-.3 2.44-.3.92-.93 1.43-.61.5-1.56.5-1.24 0-1.96-.89-.84-1.06-.84-3.48Zm1.08 0q0 2.1.5 2.81.5.7 1.22.7.73 0 1.22-.7.5-.7.5-2.81 0-2.13-.5-2.81-.49-.7-1.24-.7-.72 0-1.15.6-.55.78-.55 2.91Zm11.39-2.25-1.05.08q-.14-.63-.39-.9-.44-.46-1.06-.46-.5 0-.9.28-.48.37-.77 1.08-.28.69-.3 1.97.38-.58.92-.86.56-.28 1.17-.28 1.05 0 1.78.78.75.78.75 2 0 .81-.35 1.51t-.96 1.07q-.6.35-1.37.35-1.33 0-2.16-.96-.83-.97-.83-3.2 0-2.5.92-3.62.8-.98 2.16-.98 1.02 0 1.66.58.65.56.78 1.56Zm-4.3 3.7q0 .55.22 1.05.24.48.64.75.42.27.9.27.65 0 1.13-.54.49-.54.49-1.46 0-.9-.49-1.41-.47-.52-1.18-.52-.72 0-1.22.52-.49.51-.49 1.34Zm5.83-1.45q0-1.53.31-2.45.32-.94.92-1.44.63-.5 1.57-.5.68 0 1.2.28.53.28.88.81.34.52.53 1.27.18.75.18 2.03 0 1.52-.3 2.44-.3.92-.93 1.43-.61.5-1.56.5-1.24 0-1.96-.89-.84-1.06-.84-3.48Zm1.08 0q0 2.1.5 2.81.5.7 1.22.7.73 0 1.22-.7.5-.7.5-2.81 0-2.13-.5-2.81-.49-.7-1.24-.7-.72 0-1.15.6-.55.78-.55 2.91Zm5.92 1.98 1.1-.09q.13.81.57 1.22.46.4 1.1.4.75 0 1.28-.57.53-.58.53-1.52 0-.9-.52-1.42-.5-.53-1.33-.53-.5 0-.92.23-.4.24-.64.6l-.98-.13.83-4.4h4.28v1h-3.44l-.45 2.3q.76-.54 1.6-.54 1.13 0 1.9.78.78.78.78 2.02 0 1.15-.67 2.01-.83 1.03-2.25 1.03-1.18 0-1.93-.65-.73-.66-.84-1.74Zm12.55 1.24v1.01h-5.7q0-.37.13-.73.22-.58.7-1.14.48-.56 1.38-1.3 1.4-1.15 1.9-1.83.5-.67.5-1.26 0-.63-.46-1.05-.45-.44-1.17-.44-.77 0-1.22.46-.45.45-.47 1.26l-1.08-.1q.11-1.23.83-1.85.74-.64 1.97-.64t1.95.69q.72.68.72 1.7 0 .52-.22 1.02-.2.48-.7 1.04-.49.55-1.61 1.5-.95.8-1.23 1.1-.27.28-.44.56h4.22Zm1.45-1.25 1.06-.14q.17.89.61 1.3.44.39 1.06.39.75 0 1.27-.52t.52-1.28q0-.72-.49-1.19-.47-.48-1.2-.48-.3 0-.75.12l.12-.94.17.02q.68 0 1.2-.34.55-.36.55-1.1 0-.58-.39-.95-.39-.4-1.01-.4-.61 0-1.03.4-.4.39-.52 1.16l-1.06-.2q.19-1.04.87-1.62.7-.6 1.7-.6.71 0 1.3.32.6.3.91.81.31.52.31 1.11 0 .55-.3 1.02-.3.45-.87.72.75.17 1.17.73.42.55.42 1.4 0 1.12-.82 1.9-.82.78-2.07.78-1.12 0-1.87-.67-.75-.69-.86-1.75Z"/><path fill="#000" d="M307.45 403.6V395h6.2v1.02h-5.06v2.63h4.75v1.01h-4.75v2.92h5.27v1.02h-6.4Zm7.85 0v-6.22h.93v.88q.7-1.02 1.99-1.02.56 0 1.03.2.48.2.72.54.23.32.33.76.04.3.04 1.03v3.83h-1.04v-3.78q0-.66-.13-.97-.12-.31-.44-.5-.3-.2-.73-.2-.67 0-1.17.43-.49.43-.49 1.61v3.41h-1.04Zm11.06-2.28 1.03.14q-.17 1.06-.87 1.67-.7.61-1.72.61-1.28 0-2.07-.83-.76-.84-.76-2.4 0-1 .33-1.75.34-.77 1.01-1.14.69-.38 1.5-.38 1 0 1.64.52.66.5.85 1.45l-1.03.16q-.14-.63-.52-.94-.38-.33-.9-.33-.8 0-1.3.58-.5.56-.5 1.8 0 1.26.48 1.82.49.57 1.25.57.63 0 1.03-.38.42-.37.55-1.17Zm1.55-.83q0-1.73.95-2.56.8-.69 1.95-.69 1.28 0 2.1.84.82.83.82 2.32 0 1.2-.36 1.89-.35.69-1.06 1.08-.69.37-1.5.37-1.3 0-2.1-.83-.8-.84-.8-2.42Zm1.07 0q0 1.19.52 1.78.53.6 1.31.6.8 0 1.31-.6.52-.6.52-1.81 0-1.16-.53-1.75-.52-.6-1.3-.6t-1.31.6q-.52.58-.52 1.78Zm10.35 3.11v-.78q-.6.92-1.74.92-.75 0-1.37-.4-.63-.43-.97-1.16-.34-.74-.34-1.69 0-.92.3-1.69.32-.76.95-1.15.62-.4 1.39-.4.56 0 1 .23.43.23.72.6v-3.07h1.04v8.59h-.98Zm-3.33-3.1q0 1.2.5 1.79.5.58 1.19.58t1.17-.57q.48-.56.48-1.72 0-1.28-.5-1.87-.48-.6-1.2-.6-.7 0-1.17.58-.47.57-.47 1.8Zm10.55 1.1 1.1.13q-.26.95-.96 1.48t-1.78.53q-1.36 0-2.18-.84-.8-.85-.8-2.36 0-1.56.82-2.42.81-.88 2.1-.88 1.24 0 2.02.84.8.85.8 2.4v.28h-4.64q.06 1.03.58 1.57.51.54 1.3.54.57 0 .98-.3.42-.31.66-.97Zm-3.46-1.7h3.47q-.06-.8-.39-1.2-.51-.6-1.31-.6-.74 0-1.24.48-.48.49-.53 1.32Zm6.2 3.7v-6.22h.94v.94q.36-.66.66-.86.31-.22.69-.22.53 0 1.08.33l-.36.98q-.4-.23-.77-.23-.36 0-.64.22-.26.2-.37.58-.2.56-.2 1.21v3.27h-1.04ZM32.4 265.5h-8.6v-1.73l6.08-2.03q.86-.28 1.29-.4-.47-.14-1.38-.46l-5.98-2.06v-1.53h8.59v1.1h-7.19l7.19 2.5v1.02l-7.31 2.49h7.31v1.1Zm-2-13.16.13-1.1q.95.25 1.48.96.53.7.53 1.78 0 1.36-.84 2.17-.85.8-2.36.8-1.56 0-2.42-.82-.88-.8-.88-2.09 0-1.25.84-2.03.85-.8 2.4-.8h.28v4.64q1.03-.06 1.57-.58.54-.51.54-1.3 0-.57-.3-.98-.31-.42-.97-.65Zm-1.7 3.45v-3.47q-.8.06-1.2.4-.6.5-.6 1.3 0 .74.48 1.24.49.48 1.32.53Zm2.93-10.27q.5.6.7 1.14.21.54.21 1.16 0 1.03-.5 1.58t-1.28.55q-.45 0-.83-.2-.39-.21-.6-.55-.24-.35-.35-.77-.1-.3-.17-.94-.14-1.26-.36-1.87h-.27q-.65 0-.92.3-.34.4-.34 1.2 0 .73.26 1.1.25.35.9.52l-.13 1.03q-.66-.14-1.07-.46-.4-.33-.62-.94-.22-.61-.22-1.4 0-.8.19-1.3t.47-.74q.28-.23.72-.33.26-.04.96-.04h1.41q1.47 0 1.86-.07.4-.08.75-.28v1.11q-.33.16-.77.2Zm-2.35.1q.23.58.4 1.72.1.65.22.92.1.26.33.42.22.14.5.14.42 0 .7-.31.28-.33.28-.94 0-.6-.26-1.08-.27-.48-.74-.7-.36-.17-1.04-.17h-.4Zm3.12-3.03h-6.22v-.94h.88q-1.02-.69-1.02-1.99 0-.56.2-1.03.2-.48.54-.72.32-.23.76-.32.3-.05 1.03-.05h3.83v1.05h-3.78q-.66 0-.97.12-.31.13-.5.44-.2.31-.2.73 0 .68.43 1.18.43.48 1.61.48h3.41v1.05Zm-2.77-9.75-.09-1.07q.66-.07 1.06-.36.4-.28.68-.85.25-.6.25-1.33 0-.64-.2-1.14-.2-.5-.52-.74-.35-.25-.74-.25-.4 0-.7.24-.31.23-.52.76-.14.36-.42 1.55-.28 1.17-.53 1.64-.33.62-.8.92-.48.3-1.07.3-.65 0-1.2-.36-.59-.38-.87-1.08-.3-.72-.3-1.58 0-.95.32-1.68.3-.74.9-1.13.6-.39 1.35-.42l.08 1.1q-.82.09-1.22.6-.42.5-.42 1.49 0 1.03.37 1.5.38.46.9.46.48 0 .77-.32.3-.33.61-1.7.31-1.4.55-1.91.36-.75.89-1.11.52-.36 1.22-.36.69 0 1.3.39.59.39.93 1.12.33.74.33 1.66 0 1.17-.33 1.97-.34.78-1.03 1.23-.69.44-1.55.46Zm1.83-10.55.92-.16q.1.46.1.8 0 .58-.17.9-.2.3-.49.44-.3.13-1.25.13H27v.76h-.8v-.76h-1.56l-.62-1.05h2.17v-1.06H27v1.06h3.64q.46 0 .58-.04.13-.07.2-.2.08-.12.08-.35 0-.19-.03-.47Zm.94-4.73h-.78q.92.59.92 1.73 0 .75-.4 1.37-.43.63-1.16.97-.74.35-1.69.35-.92 0-1.69-.32-.76-.3-1.15-.93-.4-.63-.4-1.4 0-.56.23-1 .23-.43.6-.71h-3.07v-1.05h8.59v.99Zm-3.1 3.32q1.2 0 1.79-.5.58-.5.58-1.18 0-.7-.57-1.18-.56-.48-1.72-.48-1.28 0-1.87.5-.6.48-.6 1.2 0 .7.58 1.17.57.47 1.8.47Zm3.1-9.42h-8.6v-2.97q0-1 .13-1.53.17-.73.61-1.25.58-.69 1.49-1.01.89-.35 2.03-.35.98 0 1.73.24.75.22 1.25.57.5.36.78.8.28.42.44 1.02.14.6.14 1.37v3.11Zm-1.02-1.14v-1.83q0-.86-.15-1.34-.16-.49-.45-.77-.4-.4-1.08-.62-.7-.24-1.66-.24-1.34 0-2.06.46-.74.43-.99 1.06-.17.47-.17 1.47v1.81h6.56Zm-.98-11.98.13-1.1q.95.25 1.48.96.53.7.53 1.78 0 1.36-.84 2.17-.85.8-2.36.8-1.56 0-2.42-.82-.88-.8-.88-2.09 0-1.25.84-2.03.85-.8 2.4-.8h.28v4.64q1.03-.06 1.57-.58.54-.51.54-1.3 0-.57-.3-.98-.31-.42-.97-.65Zm-1.7 3.45v-3.47q-.8.06-1.2.4-.6.5-.6 1.3 0 .74.48 1.24.49.48 1.32.53Zm3.7-7.92-6.22 2.36v-1.11l3.72-1.35q.6-.2 1.25-.39-.48-.14-1.17-.39l-3.8-1.39v-1.08l6.22 2.36v.99Zm35.5 160.5q0-1.54.31-2.46.32-.94.92-1.44.63-.5 1.57-.5.68 0 1.2.29.53.28.88.8.34.52.53 1.27.18.75.18 2.04 0 1.51-.3 2.43-.3.93-.93 1.44-.61.5-1.56.5-1.24 0-1.96-.89-.84-1.06-.84-3.48Zm1.08 0q0 2.1.5 2.8.5.71 1.22.71.73 0 1.22-.7.5-.7.5-2.81 0-2.13-.5-2.82-.49-.7-1.24-.7-.72 0-1.16.6-.54.8-.54 2.92Zm4.47-62.89v1.01h-5.7q0-.37.13-.73.22-.58.7-1.14.48-.57 1.38-1.3 1.4-1.16 1.9-1.83.5-.67.5-1.26 0-.63-.46-1.05-.45-.44-1.17-.44-.77 0-1.22.45-.45.46-.47 1.27l-1.08-.1q.11-1.23.83-1.85.73-.64 1.97-.64 1.23 0 1.95.68.72.7.72 1.7 0 .52-.22 1.02-.2.49-.7 1.05-.48.55-1.61 1.5-.95.8-1.23 1.1-.27.27-.44.56h4.22Zm-2.17-65.1v-2.06h-3.72v-.97l3.92-5.56h.86v5.56h1.15v.97h-1.15v2.06h-1.06Zm0-3.03v-3.86l-2.7 3.86h2.7Zm2.09-69.55-1.05.07q-.14-.63-.39-.9-.44-.46-1.06-.46-.5 0-.9.28-.48.38-.77 1.08-.28.69-.3 1.97.38-.58.92-.86.56-.28 1.17-.28 1.05 0 1.79.78.75.78.75 2 0 .81-.36 1.51-.35.7-.96 1.07-.6.36-1.37.36-1.33 0-2.16-.97-.83-.97-.83-3.2 0-2.5.93-3.62.8-.98 2.15-.98 1.02 0 1.66.58.65.56.78 1.56Zm-4.3 3.7q0 .54.22 1.04.23.49.64.75.42.27.9.27.65 0 1.13-.53.49-.55.49-1.47 0-.9-.49-1.41-.47-.52-1.18-.52-.72 0-1.22.52-.49.52-.49 1.34Zm.46-67.99q-.66-.25-.99-.69-.31-.45-.31-1.06 0-.94.67-1.58.69-.64 1.8-.64 1.12 0 1.8.66.7.65.7 1.6 0 .59-.32 1.02-.3.44-.95.69.8.25 1.2.83.41.58.41 1.37 0 1.1-.78 1.85-.77.75-2.05.75-1.26 0-2.04-.75-.79-.75-.79-1.88 0-.84.43-1.4.43-.57 1.22-.77Zm-.22-1.8q0 .61.39 1 .4.4 1.03.4.6 0 1-.38.39-.4.39-.95 0-.58-.4-.97-.41-.4-1-.4-.62 0-1.02.38-.4.4-.4.92Zm-.33 3.97q0 .46.2.88.22.42.64.65.42.24.9.24.76 0 1.24-.49.5-.48.5-1.23 0-.77-.5-1.27t-1.26-.5q-.75 0-1.24.5-.48.49-.48 1.22Zm38.5 279.92V363h1.13v8.6h-1.13Zm2.66 0v-6.22h.95v.94q.36-.66.66-.86.31-.22.69-.22.53 0 1.07.33l-.35.98q-.4-.23-.77-.23-.36 0-.64.22-.27.2-.38.58-.18.56-.18 1.21v3.27h-1.05Zm4.02-7.38v-1.21h1.06v1.22h-1.06Zm0 7.38v-6.22h1.06v6.22h-1.06Zm2.57-1.86 1.03-.16q.1.63.49.96.4.33 1.14.33.72 0 1.06-.29.36-.3.36-.7 0-.36-.31-.56-.22-.14-1.08-.36-1.16-.3-1.6-.5-.45-.22-.68-.6-.23-.37-.23-.84 0-.4.18-.76.19-.36.52-.6.25-.17.67-.3.42-.12.92-.12.72 0 1.27.22.56.2.83.56.26.36.36.96l-1.04.14q-.06-.47-.4-.74-.33-.28-.96-.28-.71 0-1.03.25-.3.23-.3.56 0 .2.12.36.14.17.4.28.16.07.94.27 1.12.31 1.56.5.44.19.69.55.25.36.25.9 0 .53-.31 1-.3.46-.88.72-.58.25-1.31.25-1.22 0-1.86-.5-.62-.51-.8-1.5Zm7-.72v-1.06h3.25v1.06h-3.25Zm6.05 2.58-2.28-8.6h1.17l1.31 5.65q.2.87.36 1.75.33-1.38.4-1.6l1.62-5.8h1.37l1.24 4.35q.45 1.63.67 3.05.16-.82.42-1.88l1.35-5.51h1.14l-2.35 8.59h-1.1l-1.8-6.55-.29-1q-.12.58-.25 1l-1.8 6.55h-1.18Zm13.63-2 1.09.13q-.25.95-.95 1.48t-1.79.53q-1.35 0-2.17-.84-.8-.85-.8-2.36 0-1.56.82-2.42.81-.88 2.1-.88 1.24 0 2.02.84.8.85.8 2.4v.28h-4.64q.06 1.03.58 1.57.51.54 1.3.54.57 0 .98-.3.42-.31.66-.97Zm-3.46-1.7h3.47q-.06-.8-.39-1.2-.52-.6-1.31-.6-.74 0-1.24.48-.48.49-.53 1.32Zm7.17 3.7h-.98V363h1.06v3.07q.67-.83 1.7-.83.58 0 1.08.24.52.21.85.64.34.42.53 1.01.19.6.19 1.27 0 1.6-.8 2.47-.8.87-1.9.87-1.1 0-1.73-.92v.78Zm-.01-3.16q0 1.11.31 1.61.5.82 1.34.82.7 0 1.2-.6t.5-1.8q0-1.21-.48-1.8-.48-.57-1.17-.57t-1.2.6q-.5.6-.5 1.74Zm6.17 3.16V363h3.25q.84 0 1.3.08.64.11 1.06.41.44.3.69.83.26.53.26 1.17 0 1.1-.7 1.86-.69.75-2.52.75h-2.2v3.5h-1.14Zm1.14-4.5h2.22q1.1 0 1.56-.4.47-.43.47-1.18 0-.53-.28-.9-.27-.4-.7-.52-.3-.08-1.07-.08h-2.2v3.08Zm36.66 4.5V363h1.06v8.6h-1.06Zm3.03-7.38v-1.21h1.06v1.22h-1.06Zm0 7.38v-6.22h1.06v6.22h-1.06Zm3.97 0h-.98V363h1.06v3.07q.67-.83 1.7-.83.58 0 1.08.24.52.21.84.64.35.42.53 1.01.2.6.2 1.27 0 1.6-.8 2.47-.8.87-1.9.87-1.1 0-1.73-.92v.78Zm-.02-3.16q0 1.11.32 1.61.5.82 1.34.82.69 0 1.19-.6.51-.6.51-1.8 0-1.21-.48-1.8-.48-.57-1.17-.57t-1.2.6q-.5.6-.5 1.74Zm6.04-4.2v-1.23h1.06v1.23h-1.06Zm-1.33 9.78.19-.9q.32.07.5.07.32 0 .48-.21.16-.2.16-1.07v-6.53h1.06v6.56q0 1.14-.3 1.6-.39.6-1.26.6-.44 0-.83-.12Zm4.34-.03v-8.6h.95v.79q.35-.47.77-.7.44-.24 1.05-.24.8 0 1.4.4.61.41.91 1.16.31.75.31 1.64 0 .96-.34 1.72-.33.77-.99 1.17-.65.41-1.37.41-.53 0-.95-.22-.43-.23-.7-.56v3.03h-1.04Zm.95-5.47q0 1.2.49 1.78.48.57 1.17.57.7 0 1.2-.6t.5-1.84q0-1.19-.48-1.77-.48-.6-1.17-.6-.67 0-1.19.63-.52.63-.52 1.83Zm10.3 1.08 1.1.13q-.25.95-.96 1.48-.7.53-1.78.53-1.36 0-2.17-.84-.8-.85-.8-2.36 0-1.56.81-2.42.82-.88 2.1-.88 1.25 0 2.03.84.8.85.8 2.4v.28h-4.64q.06 1.03.57 1.57.52.54 1.3.54.58 0 .99-.3.42-.31.65-.97Zm-3.45-1.7h3.47q-.07-.8-.4-1.2-.5-.6-1.3-.6-.74 0-1.24.48-.48.49-.53 1.32Zm6 4.22 1.03.15q.06.47.36.69.39.3 1.06.3.74 0 1.13-.3.4-.3.54-.81.1-.33.08-1.36-.69.81-1.72.81-1.28 0-1.98-.92-.7-.94-.7-2.22 0-.9.3-1.64.34-.77.95-1.17.6-.4 1.43-.4 1.11 0 1.83.88v-.75h.97v5.38q0 1.45-.3 2.06-.3.6-.93.95-.65.36-1.58.36-1.11 0-1.8-.5t-.67-1.51Zm.87-3.74q0 1.22.49 1.78.48.56 1.22.56.73 0 1.22-.56.5-.56.5-1.75 0-1.14-.52-1.72-.5-.57-1.22-.57-.7 0-1.2.57-.49.57-.49 1.7Zm6.3 3.22V363h1.06v8.6h-1.06Zm3.03-7.38v-1.21h1.06v1.22h-1.06Zm0 7.38v-6.22h1.06v6.22h-1.06Zm47.93 0V363h1.06v8.6h-1.06Zm3.03-7.38v-1.21h1.06v1.22h-1.06Zm0 7.38v-6.22h1.06v6.22h-1.06Zm3.97 0h-.99V363h1.07v3.07q.67-.83 1.7-.83.58 0 1.08.24.51.21.84.64.34.42.53 1.01.19.6.19 1.27 0 1.6-.8 2.47-.8.87-1.89.87-1.1 0-1.73-.92v.78Zm-.02-3.16q0 1.11.31 1.61.5.82 1.35.82.69 0 1.19-.6.51-.6.51-1.8 0-1.21-.48-1.8-.49-.57-1.18-.57-.68 0-1.2.6-.5.6-.5 1.74Zm6.03-4.2v-1.23h1.07v1.23h-1.07Zm-1.33 9.78.2-.9q.32.07.5.07.32 0 .48-.21.15-.2.15-1.07v-6.53h1.07v6.56q0 1.14-.3 1.6-.4.6-1.27.6-.43 0-.83-.12Zm3.65-2.42 2.26-3.23-2.1-2.99h1.32l.95 1.45.44.7q.25-.38.47-.68l1.05-1.47h1.26l-2.15 2.92 2.3 3.3h-1.27l-1.28-1.94-.35-.51-1.64 2.45h-1.26Zm5.67 0V363h1.06v8.6h-1.06Zm50.46 0V363h1.06v8.6h-1.07Zm3.03-7.38v-1.21h1.06v1.22h-1.06Zm0 7.38v-6.22h1.06v6.22h-1.06Zm3.96 0h-.98V363h1.06v3.07q.67-.83 1.7-.83.58 0 1.08.24.52.21.85.64.34.42.53 1.01.19.6.19 1.27 0 1.6-.8 2.47-.8.87-1.9.87-1.1 0-1.73-.92v.78Zm-.01-3.16q0 1.11.31 1.61.5.82 1.34.82.7 0 1.2-.6t.5-1.8q0-1.21-.48-1.8-.48-.57-1.17-.57t-1.2.6q-.5.6-.5 1.74Zm10.1 2.4q-.59.5-1.13.7-.53.2-1.16.2-1.03 0-1.58-.5-.54-.5-.54-1.28 0-.45.2-.83.2-.39.55-.6.34-.24.76-.35.3-.1.94-.17 1.26-.14 1.87-.36v-.27q0-.65-.3-.92-.4-.34-1.2-.34-.73 0-1.09.26-.36.25-.53.9l-1.03-.13q.14-.66.47-1.07.32-.4.93-.62.61-.22 1.41-.22.8 0 1.3.19t.73.47q.24.28.33.72.05.26.05.96V369q0 1.47.06 1.86.08.4.28.75h-1.1q-.17-.33-.21-.77Zm-.09-2.36q-.57.23-1.71.4-.66.1-.93.22-.26.1-.42.33-.14.22-.14.5 0 .42.31.7.33.28.94.28.61 0 1.08-.26.48-.27.7-.74.17-.36.17-1.04v-.4Zm2.64.01q0-1.73.96-2.56.8-.69 1.95-.69 1.28 0 2.1.84.82.83.82 2.32 0 1.2-.36 1.89t-1.06 1.08q-.69.37-1.5.37-1.3 0-2.1-.83-.8-.84-.8-2.42Zm1.08 0q0 1.19.52 1.78.53.6 1.31.6.8 0 1.31-.6.52-.6.52-1.81 0-1.16-.53-1.75-.52-.6-1.3-.6t-1.31.6q-.52.58-.52 1.78Zm6.32 3.11v-6.22h.93v.88q.3-.47.78-.74.49-.28 1.11-.28.7 0 1.13.28.45.28.62.8.75-1.08 1.93-1.08.93 0 1.42.52.5.5.5 1.57v4.27h-1.05v-3.92q0-.63-.1-.9-.1-.29-.37-.46-.26-.17-.64-.17-.66 0-1.1.43-.41.44-.41 1.41v3.61h-1.07v-4.05q0-.7-.26-1.04-.25-.36-.83-.36-.45 0-.83.23-.37.24-.55.69-.17.45-.17 1.3v3.23h-1.04Zm48.92 0V363h1.06v8.6h-1.06Zm3.03-7.38v-1.21h1.06v1.22h-1.06Zm0 7.38v-6.22h1.06v6.22h-1.06Zm3.97 0h-.98V363h1.06v3.07q.67-.83 1.7-.83.58 0 1.08.24.52.21.84.64.35.42.54 1.01.18.6.18 1.27 0 1.6-.8 2.47-.8.87-1.88.87-1.11 0-1.74-.92v.78Zm-.01-3.16q0 1.11.3 1.61.5.82 1.35.82.69 0 1.19-.6.51-.6.51-1.8 0-1.21-.48-1.8-.48-.57-1.17-.57t-1.2.6q-.5.6-.5 1.74Zm7.18 3.16-1.9-6.22h1.09l.98 3.6.38 1.32.33-1.28.98-3.64h1.08l.94 3.61.31 1.19.36-1.2 1.06-3.6h1.03l-1.95 6.22h-1.1l-.98-3.73-.25-1.05-1.25 4.78h-1.1Zm12.11-2 1.1.13q-.25.95-.96 1.48-.7.53-1.78.53-1.36 0-2.17-.84-.8-.85-.8-2.36 0-1.56.82-2.42.8-.88 2.09-.88 1.25 0 2.03.84.8.85.8 2.4v.28h-4.64q.06 1.03.57 1.57.52.54 1.3.54.58 0 .99-.3.42-.31.65-.97Zm-3.45-1.7h3.47q-.06-.8-.4-1.2-.5-.6-1.3-.6-.74 0-1.24.48-.48.49-.53 1.32Zm7.17 3.7h-.98V363h1.06v3.07q.67-.83 1.7-.83.58 0 1.08.24.52.21.84.64.35.42.54 1.01.18.6.18 1.27 0 1.6-.8 2.47-.8.87-1.88.87-1.11 0-1.74-.92v.78Zm-.01-3.16q0 1.11.3 1.61.5.82 1.35.82.69 0 1.19-.6.51-.6.51-1.8 0-1.21-.48-1.8-.48-.57-1.17-.57t-1.2.6q-.5.6-.5 1.74Zm6.04 5.55v-8.6h.96v.79q.34-.47.76-.7.44-.24 1.05-.24.8 0 1.4.4.61.41.91 1.16.31.75.31 1.64 0 .96-.34 1.72-.33.77-.99 1.17-.65.41-1.37.41-.53 0-.95-.22-.43-.23-.7-.56v3.03h-1.04Zm.96-5.47q0 1.2.48 1.78.48.57 1.17.57.7 0 1.2-.6t.5-1.84q0-1.19-.48-1.77-.48-.6-1.17-.6-.67 0-1.19.63-.51.63-.51 1.83Zm28.46 3.08V363h1.07v8.6h-1.06Zm3.04-7.38v-1.21H496v1.22h-1.06Zm0 7.38v-6.22H496v6.22h-1.06Zm3.97 0h-.99V363H499v3.07q.67-.83 1.7-.83.58 0 1.08.24.51.21.84.64.34.42.53 1.01.19.6.19 1.27 0 1.6-.8 2.47-.8.87-1.89.87-1.1 0-1.73-.92v.78Zm-.02-3.16q0 1.11.31 1.61.5.82 1.35.82.69 0 1.19-.6.51-.6.51-1.8 0-1.21-.48-1.8-.49-.57-1.18-.57-.68 0-1.2.6-.5.6-.5 1.74Zm6.03-4.2v-1.23H506v1.23h-1.07Zm-1.33 9.78.2-.9q.32.07.5.07.32 0 .48-.21.15-.2.15-1.07v-6.53H506v6.56q0 1.14-.3 1.6-.4.6-1.27.6-.43 0-.83-.12Zm4.35-.03v-8.6h.95v.79q.35-.47.77-.7.43-.24 1.04-.24.8 0 1.41.4.61.41.9 1.16.32.75.32 1.64 0 .96-.34 1.72-.33.77-.99 1.17-.66.41-1.37.41-.54 0-.96-.22-.42-.23-.68-.56v3.03h-1.05Zm.95-5.47q0 1.2.49 1.78.48.57 1.17.57.7 0 1.2-.6t.5-1.84q0-1.19-.48-1.77-.49-.6-1.18-.6-.67 0-1.18.63-.52.63-.52 1.83Zm10.3 1.08 1.1.13q-.26.95-.96 1.48t-1.78.53q-1.36 0-2.17-.84-.8-.85-.8-2.36 0-1.56.81-2.42.81-.88 2.1-.88 1.25 0 2.03.84.8.85.8 2.4v.28h-4.65q.07 1.03.58 1.57.52.54 1.3.54.58 0 .98-.3.42-.31.66-.97Zm-3.45-1.7h3.46q-.06-.8-.39-1.2-.51-.6-1.3-.6-.74 0-1.24.48-.49.49-.53 1.32Zm6 4.22 1.03.15q.06.47.36.69.39.3 1.06.3.73 0 1.12-.3.41-.3.55-.81.1-.33.08-1.36-.69.81-1.72.81-1.28 0-1.98-.92-.7-.94-.7-2.22 0-.9.3-1.64.33-.77.94-1.17.61-.4 1.44-.4 1.1 0 1.83.88v-.75h.97v5.38q0 1.45-.3 2.06-.3.6-.94.95-.64.36-1.58.36-1.1 0-1.8-.5-.68-.5-.66-1.51Zm.87-3.74q0 1.22.48 1.78.49.56 1.22.56.74 0 1.22-.56.5-.56.5-1.75 0-1.14-.51-1.72-.5-.57-1.22-.57-.7 0-1.2.57-.49.57-.49 1.7Zm5.9.64v-1.06h3.26v1.06h-3.25Zm6.73 1.64.15.92q-.45.1-.8.1-.57 0-.89-.17-.3-.2-.45-.49-.12-.3-.12-1.25v-3.58h-.77v-.8h.77v-1.56l1.04-.62v2.17h1.07v.81h-1.07v3.64q0 .46.05.58.06.13.19.2.12.08.36.08.18 0 .47-.03Zm4.78.94v-.92q-.74 1.06-1.99 1.06-.54 0-1.03-.2-.47-.22-.7-.53-.24-.33-.33-.8-.06-.3-.06-.98v-3.85h1.06v3.45q0 .82.06 1.11.1.41.4.66.34.23.82.23.47 0 .88-.23.42-.25.59-.67.19-.42.19-1.22v-3.33h1.04v6.22h-.93Zm2.9 0v-6.22h.96v.94q.36-.66.65-.86.31-.22.69-.22.53 0 1.08.33l-.36.98q-.4-.23-.77-.23-.36 0-.64.22-.26.2-.37.58-.19.56-.19 1.21v3.27h-1.05Zm4.99 0h-.99V363H548v3.07q.67-.83 1.7-.83.58 0 1.08.24.51.21.84.64.34.42.53 1.01.19.6.19 1.27 0 1.6-.8 2.47-.8.87-1.89.87-1.1 0-1.73-.92v.78Zm-.02-3.16q0 1.11.31 1.61.5.82 1.35.82.69 0 1.19-.6.51-.6.51-1.8 0-1.21-.48-1.8-.49-.57-1.18-.57-.68 0-1.2.6-.5.6-.5 1.74Zm5.66.05q0-1.73.95-2.56.8-.69 1.95-.69 1.29 0 2.1.84.83.83.83 2.32 0 1.2-.36 1.89t-1.07 1.08q-.68.37-1.5.37-1.3 0-2.1-.83-.8-.84-.8-2.42Zm1.08 0q0 1.19.51 1.78.53.6 1.31.6.8 0 1.32-.6.51-.6.51-1.81 0-1.16-.53-1.75-.51-.6-1.3-.6-.78 0-1.3.6-.52.58-.52 1.78Z"/><path fill="#999" d="M22.45 65.9V55.88h1.98l2.38 7.1.48 1.48.53-1.6 2.4-6.98H32V65.9h-1.28v-8.4l-2.92 8.4h-1.2l-2.9-8.53v8.53h-1.26Zm15.84-2.34 1.28.15q-.31 1.13-1.12 1.75-.82.61-2.08.61-1.6 0-2.53-.98-.92-.99-.92-2.75 0-1.85.93-2.85.96-1.01 2.46-1.01 1.45 0 2.37 1 .92.98.92 2.78v.33h-5.42q.08 1.18.67 1.83.61.64 1.53.64.68 0 1.14-.36.49-.36.77-1.14Zm-4.03-1.99h4.05q-.08-.92-.47-1.37-.58-.7-1.52-.7-.86 0-1.44.56-.56.56-.62 1.51Zm11.8 3.44q-.68.58-1.32.83-.62.23-1.36.23-1.18 0-1.84-.58-.64-.59-.64-1.51 0-.53.23-.97.25-.44.64-.7.41-.27.9-.41.35-.1 1.09-.19 1.5-.17 2.2-.42v-.31q0-.77-.34-1.06-.47-.43-1.4-.43-.87 0-1.29.32-.4.3-.6 1.06l-1.21-.16q.16-.78.53-1.25.4-.47 1.1-.72.71-.26 1.65-.26.92 0 1.5.22t.84.54q.28.33.4.85.06.31.06 1.12v1.64q0 1.72.07 2.18.08.45.32.87H46.3q-.2-.4-.25-.9Zm-.1-2.75q-.67.27-2.01.47-.75.1-1.08.25-.31.12-.49.39-.17.26-.17.58 0 .5.38.83.37.32 1.1.32.71 0 1.26-.3.54-.32.8-.87.21-.4.21-1.22v-.45Zm3.36 3.64v-7.27h1.11v1.04q.8-1.2 2.31-1.2.66 0 1.2.24.55.24.82.63.28.37.39.9.08.35.08 1.2v4.46h-1.24v-4.42q0-.75-.14-1.11-.14-.38-.51-.6-.36-.23-.86-.23-.78 0-1.36.5-.56.5-.56 1.9v3.96h-1.24Zm11.52-2.17 1.2-.19q.11.74.58 1.13.47.39 1.31.39.85 0 1.25-.35.42-.34.42-.81 0-.42-.37-.66-.25-.17-1.25-.42-1.36-.34-1.9-.6-.5-.24-.77-.68-.27-.44-.27-.97 0-.48.22-.89.22-.42.6-.7.29-.2.77-.35.5-.15 1.08-.15.85 0 1.49.25.65.23.97.65.3.43.42 1.13l-1.2.17q-.08-.56-.49-.87-.4-.32-1.1-.32-.85 0-1.21.28-.36.27-.36.66 0 .24.14.42.16.2.48.33.17.06 1.08.31 1.31.36 1.83.58.52.22.8.64.3.42.3 1.05 0 .62-.37 1.17-.34.53-1.03.84-.67.3-1.53.3-1.4 0-2.16-.6-.73-.59-.93-1.74ZM71 64.8l.17 1.07q-.51.11-.92.11-.67 0-1.05-.2-.36-.22-.51-.56-.14-.35-.14-1.46V59.6h-.91v-.97h.9v-1.8l1.23-.73v2.53H71v.97h-1.23v4.24q0 .53.06.69.06.14.2.23.16.1.42.1.22 0 .55-.05Zm6.03 1.09v-.92q-.7 1.1-2.03 1.1-.88 0-1.61-.5-.72-.48-1.13-1.34-.39-.86-.39-1.96 0-1.08.36-1.97.36-.9 1.08-1.36.74-.47 1.63-.47.65 0 1.17.28.51.27.83.72v-3.6h1.23V65.9h-1.14Zm-3.89-3.63q0 1.4.58 2.1.6.69 1.39.69.81 0 1.37-.66.57-.67.57-2.02 0-1.5-.58-2.18-.58-.7-1.4-.7-.84 0-1.38.67-.55.67-.55 2.1Zm11.9 3.63v-.92q-.71 1.1-2.04 1.1-.88 0-1.61-.5-.72-.48-1.13-1.34-.39-.86-.39-1.96 0-1.08.36-1.97.36-.9 1.08-1.36.74-.47 1.63-.47.65 0 1.17.28.51.27.83.72v-3.6h1.23V65.9h-1.14Zm-3.9-3.63q0 1.4.58 2.1.6.69 1.39.69.81 0 1.37-.66.57-.67.57-2.02 0-1.5-.58-2.18-.58-.7-1.4-.7-.84 0-1.38.67-.55.67-.55 2.1Zm12.14 1.29 1.28.15q-.31 1.13-1.12 1.75-.82.61-2.08.61-1.6 0-2.53-.98-.92-.99-.92-2.75 0-1.85.93-2.85.96-1.01 2.46-1.01 1.45 0 2.37 1 .92.98.92 2.78v.33h-5.42q.08 1.18.67 1.83.61.64 1.53.64.68 0 1.15-.36.48-.36.76-1.14Zm-4.03-1.99h4.05q-.08-.92-.47-1.37-.58-.7-1.52-.7-.86 0-1.44.56-.56.56-.62 1.51Zm9.08 4.33-2.77-7.27h1.31L98.43 63q.25.7.47 1.46.17-.58.45-1.38l1.63-4.44h1.26L99.5 65.9h-1.15Zm13.72-.9q-.68.59-1.32.84-.62.23-1.36.23-1.18 0-1.84-.58-.64-.59-.64-1.51 0-.53.23-.97.25-.44.65-.7.4-.27.89-.41.36-.1 1.09-.19 1.5-.17 2.2-.42v-.31q0-.77-.34-1.06-.47-.43-1.4-.43-.87 0-1.29.32-.4.3-.6 1.06l-1.21-.16q.16-.78.53-1.25.4-.47 1.1-.72.71-.26 1.65-.26.92 0 1.5.22t.84.54q.29.33.4.85.06.31.06 1.12v1.64q0 1.72.08 2.18.07.45.3.87h-1.27q-.2-.4-.25-.9Zm-.1-2.74q-.67.27-2.01.47-.75.1-1.08.25-.31.12-.49.39-.17.26-.17.58 0 .5.38.83.37.32 1.1.32.71 0 1.26-.3.54-.32.8-.87.21-.4.21-1.22v-.45Zm8.1.98 1.22.16q-.2 1.25-1.04 1.97-.8.7-2 .7-1.48 0-2.39-.97-.9-.98-.9-2.8 0-1.18.39-2.06.39-.89 1.19-1.32.8-.44 1.73-.44 1.17 0 1.92.6.77.59.97 1.7l-1.19.18q-.17-.73-.6-1.1-.44-.37-1.05-.37-.94 0-1.52.68-.58.65-.58 2.09 0 1.47.57 2.14.56.66 1.45.66.73 0 1.22-.44.48-.45.6-1.38Zm2.25 2.66v-7.27h1.1v1.11q.43-.78.79-1.01.36-.25.8-.25.62 0 1.26.39l-.42 1.14q-.46-.27-.9-.27-.41 0-.74.25-.32.24-.46.68-.2.65-.2 1.43v3.8h-1.23Zm4.56-3.63q0-2.01 1.12-3 .93-.8 2.29-.8 1.48 0 2.43 1 .96.96.96 2.7 0 1.4-.43 2.21-.42.8-1.23 1.25-.8.44-1.73.44-1.54 0-2.47-.98-.94-.99-.94-2.82Zm1.26 0q0 1.4.61 2.1.61.69 1.53.69.91 0 1.52-.7.61-.71.61-2.13 0-1.35-.6-2.03-.62-.7-1.53-.7-.92 0-1.53.68-.6.69-.6 2.1Zm6.7 1.46 1.21-.19q.11.74.58 1.13.47.39 1.31.39.84 0 1.25-.35.42-.34.42-.81 0-.42-.37-.66-.25-.17-1.25-.42-1.36-.34-1.9-.6-.5-.24-.77-.68-.27-.44-.27-.97 0-.48.22-.89.22-.42.6-.7.29-.2.77-.35.5-.15 1.08-.15.85 0 1.49.25.65.23.97.65.3.43.42 1.13l-1.2.17q-.08-.56-.49-.87-.4-.32-1.1-.32-.85 0-1.21.28-.36.27-.36.66 0 .24.14.42.16.2.48.33l1.08.31q1.31.36 1.83.58.52.22.8.64.3.42.3 1.05 0 .62-.37 1.17-.34.53-1.03.84-.67.3-1.53.3-1.4 0-2.16-.6-.73-.59-.93-1.74Zm7 0 1.21-.19q.11.74.58 1.13.47.39 1.31.39.84 0 1.25-.35.42-.34.42-.81 0-.42-.37-.66-.25-.17-1.25-.42-1.36-.34-1.9-.6-.5-.24-.77-.68-.27-.44-.27-.97 0-.48.22-.89.22-.42.6-.7.29-.2.77-.35.5-.15 1.08-.15.85 0 1.49.25.65.23.97.65.3.43.42 1.13l-1.2.17q-.08-.56-.49-.87-.4-.32-1.1-.32-.85 0-1.21.28-.36.27-.36.66 0 .24.14.42.16.2.48.33l1.08.31q1.31.36 1.83.58.52.22.8.64.3.42.3 1.05 0 .62-.37 1.17-.34.53-1.03.84-.67.3-1.53.3-1.4 0-2.16-.6-.73-.59-.93-1.74Zm11.2-1.05 1.25-.1q.09.74.42 1.23.33.48 1 .78.68.3 1.54.3.75 0 1.33-.22.6-.24.88-.63t.28-.86q0-.47-.28-.81-.27-.36-.9-.61-.4-.16-1.8-.48-1.37-.33-1.91-.63-.72-.38-1.08-.92-.34-.56-.34-1.27 0-.75.42-1.4.44-.68 1.26-1 .83-.35 1.85-.35 1.1 0 1.95.36.86.36 1.31 1.06.46.7.5 1.57l-1.28.1q-.1-.95-.69-1.43-.59-.5-1.75-.5-1.2 0-1.75.45-.54.44-.54 1.06 0 .54.39.9.37.34 1.98.71 1.63.36 2.22.63.88.4 1.3 1.03.42.6.42 1.42 0 .8-.47 1.52-.45.7-1.31 1.1-.86.38-1.92.38-1.36 0-2.28-.39-.93-.4-1.46-1.2-.51-.8-.54-1.8Zm9 0 1.25-.1q.09.74.42 1.23.33.48 1 .78.68.3 1.54.3.75 0 1.33-.22.6-.24.88-.63t.28-.86q0-.47-.28-.81-.27-.36-.9-.61-.4-.16-1.8-.48-1.37-.33-1.91-.63-.72-.38-1.08-.92-.34-.56-.34-1.27 0-.75.42-1.4.44-.68 1.26-1 .83-.35 1.85-.35 1.1 0 1.95.36.86.36 1.31 1.06.46.7.5 1.57l-1.28.1q-.1-.95-.69-1.43-.59-.5-1.75-.5-1.2 0-1.75.45-.54.44-.54 1.06 0 .54.39.9.37.34 1.98.71 1.63.36 2.22.63.88.4 1.3 1.03.42.6.42 1.42 0 .8-.47 1.52-.45.7-1.31 1.1-.86.38-1.92.38-1.36 0-2.28-.39-.93-.4-1.46-1.2-.51-.8-.54-1.8Zm9.68 3.22V55.88h1.31V65.9h-1.3Zm2.74 0V55.88h1.98l2.38 7.1.48 1.48.53-1.6 2.4-6.98H184V65.9h-1.28v-8.4l-2.92 8.4h-1.2l-2.9-8.53v8.53h-1.26Zm17.6-10.02h1.33v5.79q0 1.51-.34 2.4-.34.9-1.23 1.46-.9.54-2.35.54-1.4 0-2.31-.48-.9-.49-1.28-1.4-.38-.93-.38-2.52v-5.79h1.33v5.79q0 1.3.24 1.92.25.6.84.95.6.33 1.45.33 1.46 0 2.08-.66.63-.67.63-2.54v-5.79Zm8.4 8.83v1.19h-6.63q-.01-.44.14-.86.27-.67.81-1.33.57-.65 1.61-1.51 1.65-1.35 2.2-2.13.59-.78.59-1.48 0-.74-.54-1.24-.51-.5-1.34-.5-.89 0-1.44.53-.53.54-.53 1.49l-1.26-.14q.12-1.4.97-2.14.85-.75 2.28-.75 1.45 0 2.28.8.84.8.84 1.98 0 .6-.25 1.19-.23.57-.81 1.21-.56.65-1.9 1.77-1.1.92-1.41 1.27-.32.32-.52.65h4.9Zm5.54-1.45 1.22-.17q.22 1.04.72 1.51.52.46 1.25.46.88 0 1.47-.6.6-.6.6-1.5 0-.84-.57-1.39-.55-.55-1.39-.55-.36 0-.87.13l.14-1.08.18.02q.8 0 1.43-.4.62-.41.62-1.27 0-.68-.45-1.11-.46-.46-1.19-.46-.72 0-1.2.46-.47.43-.61 1.34l-1.22-.22q.22-1.23 1.01-1.9.8-.7 1.99-.7.83 0 1.51.37.7.34 1.05.95.38.6.38 1.3 0 .64-.35 1.17-.34.53-1.03.86.9.2 1.38.84.5.64.5 1.63 0 1.3-.97 2.22-.96.9-2.4.9-1.34 0-2.21-.78-.86-.78-.99-2.03Zm7.99-2.3q0-1.78.36-2.86.37-1.1 1.1-1.67.71-.6 1.8-.6.82 0 1.43.34.6.32 1 .93.4.61.62 1.49.22.87.22 2.37 0 1.77-.36 2.85-.36 1.07-1.08 1.67-.72.6-1.83.6-1.43 0-2.26-1.05-1-1.26-1-4.07Zm1.26 0q0 2.47.58 3.28.58.82 1.42.82.86 0 1.44-.82t.58-3.28q0-2.48-.58-3.3-.58-.8-1.45-.8-.85 0-1.35.71-.64.92-.64 3.4Zm6.6 1.92v-1.23h3.78v1.23h-3.78Zm7.03-2.42q-.77-.28-1.14-.8-.36-.51-.36-1.24 0-1.1.78-1.83.8-.75 2.1-.75t2.1.76q.82.77.82 1.86 0 .69-.38 1.2-.36.52-1.1.8.91.3 1.4.97.48.67.48 1.61 0 1.28-.9 2.16-.91.87-2.4.87-1.48 0-2.4-.87-.9-.9-.9-2.2 0-.98.5-1.63.5-.67 1.4-.9Zm-.24-2.08q0 .7.46 1.16.45.45 1.19.45.71 0 1.17-.43.45-.46.45-1.11 0-.68-.47-1.13-.47-.47-1.17-.47t-1.17.46q-.46.43-.46 1.07Zm-.4 4.63q0 .53.25 1.03.25.48.73.75.5.27 1.08.27.88 0 1.44-.57.58-.56.58-1.43 0-.9-.6-1.47-.58-.6-1.47-.6-.87 0-1.45.58-.56.58-.56 1.44Zm6.75-2.05q0-1.78.36-2.86.37-1.1 1.1-1.67.71-.6 1.8-.6.82 0 1.43.34.6.32 1 .93.4.61.62 1.49.22.87.22 2.37 0 1.77-.36 2.85-.36 1.07-1.08 1.67-.72.6-1.83.6-1.43 0-2.26-1.05-1-1.26-1-4.07Zm1.26 0q0 2.47.58 3.28.58.82 1.42.82.86 0 1.44-.82t.58-3.28q0-2.48-.58-3.3-.58-.8-1.45-.8-.85 0-1.35.71-.64.92-.64 3.4Zm10.63 1.31q0-2.01 1.12-3 .93-.8 2.28-.8 1.49 0 2.44 1 .96.96.96 2.7 0 1.4-.43 2.21-.42.8-1.23 1.25-.8.44-1.73.44-1.54 0-2.47-.98-.94-.99-.94-2.82Zm1.26 0q0 1.4.61 2.1.61.69 1.53.69.91 0 1.52-.7.61-.71.61-2.13 0-1.35-.6-2.03-.62-.7-1.53-.7-.92 0-1.53.68-.6.69-.6 2.1Zm7.2 3.63v-7.27h1.1v1.04q.8-1.2 2.31-1.2.66 0 1.2.24.55.24.82.63.28.37.39.9.08.35.08 1.2v4.46h-1.24v-4.42q0-.75-.14-1.11-.14-.38-.51-.6-.36-.23-.86-.23-.78 0-1.36.5-.56.5-.56 1.9v3.96h-1.24Zm12.15 0V55.88h3.45q1.17 0 1.78.14.86.2 1.47.72.8.68 1.19 1.72.39 1.03.39 2.38 0 1.14-.27 2.03-.26.87-.68 1.45-.41.58-.91.9-.5.34-1.2.5-.7.18-1.6.18h-3.62Zm1.33-1.19h2.14q.98 0 1.54-.17.58-.19.91-.53.47-.47.73-1.27.27-.8.27-1.93 0-1.57-.52-2.41-.51-.84-1.25-1.14-.54-.2-1.71-.2h-2.11v7.65Zm13.25.3q-.68.58-1.32.83-.62.23-1.36.23-1.18 0-1.84-.58-.64-.59-.64-1.51 0-.53.23-.97.25-.44.64-.7.41-.27.9-.41.35-.1 1.09-.19 1.5-.17 2.2-.42v-.31q0-.77-.34-1.06-.47-.43-1.4-.43-.87 0-1.29.32-.4.3-.6 1.06l-1.21-.16q.15-.78.53-1.25.4-.47 1.1-.72.71-.26 1.65-.26.92 0 1.5.22t.84.54q.28.33.4.85.06.31.06 1.12v1.64q0 1.72.07 2.18.08.45.32.87h-1.28q-.2-.4-.25-.9Zm-.1-2.75q-.67.27-2.01.47-.75.1-1.08.25-.31.12-.49.39-.17.26-.17.58 0 .5.38.83.37.32 1.1.32.71 0 1.26-.3.54-.32.8-.87.21-.4.21-1.22v-.45Zm8.1 2.75q-.68.58-1.32.83-.62.23-1.36.23-1.18 0-1.84-.58-.64-.59-.64-1.51 0-.53.23-.97.25-.44.64-.7.41-.27.9-.41.35-.1 1.09-.19 1.5-.17 2.2-.42v-.31q0-.77-.34-1.06-.47-.43-1.4-.43-.87 0-1.29.32-.4.3-.6 1.06l-1.21-.16q.15-.78.53-1.25.4-.47 1.1-.72.71-.26 1.65-.26.92 0 1.5.22t.84.54q.28.33.4.85.06.31.06 1.12v1.64q0 1.72.07 2.18.08.45.32.87h-1.28q-.2-.4-.25-.9Zm-.1-2.75q-.67.27-2.01.47-.75.1-1.08.25-.31.12-.49.39-.17.26-.17.58 0 .5.38.83.37.32 1.1.32.71 0 1.26-.3.54-.32.8-.87.21-.4.21-1.22v-.45Zm3.33 3.64V55.88h1.23V65.9h-1.23Zm7.77-.9q-.68.59-1.32.84-.62.23-1.36.23-1.18 0-1.84-.58-.64-.59-.64-1.51 0-.53.23-.97.25-.44.64-.7.41-.27.9-.41.35-.1 1.09-.19 1.5-.17 2.2-.42v-.31q0-.77-.34-1.06-.47-.43-1.4-.43-.87 0-1.29.32-.4.3-.6 1.06l-1.21-.16q.15-.78.53-1.25.4-.47 1.1-.72.71-.26 1.65-.26.92 0 1.5.22t.84.54q.28.33.4.85.06.31.06 1.12v1.64q0 1.72.07 2.18.08.45.32.87h-1.28q-.2-.4-.25-.9Zm-.1-2.74q-.67.27-2.01.47-.75.1-1.08.25-.31.12-.49.39-.17.26-.17.58 0 .5.38.83.37.32 1.1.32.71 0 1.26-.3.54-.32.8-.87.21-.4.21-1.22v-.45Zm6.88 1.47 1.2-.19q.11.74.58 1.13.47.39 1.31.39.84 0 1.25-.35.42-.34.42-.81 0-.42-.37-.66-.25-.17-1.25-.42-1.36-.34-1.9-.6-.5-.24-.77-.68-.27-.44-.27-.97 0-.48.22-.89.22-.42.6-.7.29-.2.77-.35.5-.15 1.08-.15.85 0 1.49.25.65.23.97.65.3.43.42 1.13l-1.2.17q-.08-.56-.49-.87-.4-.32-1.1-.32-.85 0-1.21.28-.36.27-.36.66 0 .24.14.42.15.2.48.33.17.06 1.08.31 1.31.36 1.83.58.51.22.8.64.3.42.3 1.05 0 .62-.37 1.17-.34.53-1.03.84-.67.3-1.53.3-1.4 0-2.16-.6-.73-.59-.93-1.74Zm12.25 2.17v-1.06q-.86 1.23-2.31 1.23-.65 0-1.2-.25-.56-.25-.84-.62-.26-.38-.37-.9-.08-.37-.08-1.17v-4.5h1.23v4.04q0 .96.08 1.3.11.48.49.76.37.28.94.28.54 0 1.03-.28.48-.3.68-.78.2-.49.2-1.43v-3.89h1.24v7.27h-1.1Zm4.37 0h-1.14V55.88h1.22v3.57q.78-.97 2-.97.67 0 1.27.26.59.27.98.77.4.48.61 1.17.22.69.22 1.49 0 1.86-.94 2.89-.92 1.01-2.2 1.01-1.28 0-2.02-1.08v.91Zm-.01-3.69q0 1.31.36 1.9.57.95 1.56.95.81 0 1.39-.7.6-.71.6-2.1 0-1.42-.57-2.1-.56-.67-1.36-.67-.81 0-1.4.7-.58.7-.58 2.02Zm6.39 1.52 1.2-.19q.11.74.58 1.13.47.39 1.31.39.84 0 1.25-.35.42-.34.42-.81 0-.42-.37-.66-.25-.17-1.25-.42-1.36-.34-1.9-.6-.5-.24-.77-.68-.27-.44-.27-.97 0-.48.22-.89.22-.42.6-.7.29-.2.77-.35.5-.15 1.08-.15.85 0 1.49.25.65.23.97.65.3.43.42 1.13l-1.2.17q-.08-.56-.49-.87-.4-.32-1.1-.32-.85 0-1.21.28-.36.27-.36.66 0 .24.14.42.15.2.48.33.17.06 1.08.31 1.31.36 1.83.58.51.22.8.64.3.42.3 1.05 0 .62-.37 1.17-.34.53-1.03.84-.67.3-1.53.3-1.4 0-2.16-.6-.73-.59-.93-1.74Zm12.45-.17 1.28.15q-.31 1.13-1.12 1.75-.82.61-2.08.61-1.6 0-2.53-.98-.92-.99-.92-2.75 0-1.85.93-2.85.96-1.01 2.46-1.01 1.45 0 2.37 1 .92.98.92 2.78v.33h-5.42q.08 1.18.67 1.83.61.64 1.53.64.68 0 1.14-.36.49-.36.77-1.14Zm-4.03-1.99h4.05q-.08-.92-.47-1.37-.58-.7-1.52-.7-.86 0-1.44.56-.56.56-.62 1.51ZM349 64.8l.17 1.07q-.51.11-.92.11-.67 0-1.05-.2-.36-.22-.51-.56-.14-.35-.14-1.46V59.6h-.91v-.97h.9v-1.8l1.22-.73v2.53H349v.97h-1.24v4.24q0 .53.07.69.06.14.2.23.16.1.42.1.22 0 .55-.05Zm5.6 1.09h-1.23v-7.84q-.43.42-1.17.86-.72.42-1.28.62v-1.19q1.03-.48 1.8-1.17.78-.69 1.1-1.34h.79V65.9Z"/><path fill="#757575" d="M22.98 40.4V26.09h10.36v1.69h-8.46v4.37h7.91v1.69h-7.9v4.87h8.78v1.69h-10.7Zm12.73 0V30.03h1.6v1.48q1.14-1.72 3.3-1.72.93 0 1.71.34.8.33 1.19.88.39.55.55 1.3.09.5.09 1.71v6.38h-1.77v-6.31q0-1.08-.2-1.61t-.73-.85q-.52-.3-1.22-.3-1.13 0-1.94.71-.81.7-.81 2.69v5.67H35.7Zm16.78-3.8 1.72.22q-.28 1.8-1.45 2.81-1.16 1-2.86 1-2.13 0-3.42-1.39-1.3-1.39-1.3-3.98 0-1.69.55-2.94.56-1.26 1.7-1.89 1.14-.64 2.49-.64 1.68 0 2.75.86t1.39 2.42l-1.72.27q-.24-1.05-.86-1.56-.63-.54-1.5-.54-1.33 0-2.16.96-.83.95-.83 3 0 2.1.8 3.04t2.1.94q1.03 0 1.71-.62.7-.64.9-1.96Zm2.58-1.39q0-2.87 1.6-4.26 1.34-1.16 3.26-1.16 2.14 0 3.49 1.4 1.36 1.41 1.36 3.88 0 2-.6 3.16-.6 1.14-1.75 1.78-1.14.62-2.5.62-2.19 0-3.53-1.39-1.33-1.4-1.33-4.03Zm1.8 0q0 2 .86 2.99.87.98 2.2.98 1.31 0 2.17-.98.88-1 .88-3.05 0-1.92-.88-2.9-.87-1-2.17-1-1.33 0-2.2 1-.86.98-.86 2.96Zm16.58 5.19v-1.31q-.99 1.54-2.9 1.54-1.24 0-2.3-.68-1.02-.7-1.6-1.9-.56-1.23-.56-2.82 0-1.56.51-2.83.52-1.27 1.55-1.94 1.05-.67 2.31-.67.94 0 1.67.4.74.4 1.2 1.02V26.1h1.74v14.3h-1.62Zm-5.57-5.17q0 1.98.85 2.97.84.98 1.98.98 1.16 0 1.96-.94.8-.93.8-2.87 0-2.13-.82-3.13-.81-1-2.02-1-1.17 0-1.96.97-.79.96-.79 3.02Zm16.94 1.83 1.81.23q-.42 1.58-1.59 2.47-1.16.87-2.97.87-2.26 0-3.6-1.39-1.34-1.4-1.34-3.93 0-2.63 1.35-4.07 1.34-1.45 3.5-1.45 2.08 0 3.39 1.42 1.33 1.4 1.33 3.99l-.02.47h-7.73q.1 1.7.97 2.6.87.91 2.17.91.97 0 1.64-.5.69-.51 1.1-1.62Zm-5.78-2.85h5.8q-.11-1.3-.66-1.95-.84-1.02-2.19-1.02-1.2 0-2.03.82-.83.8-.92 2.15Zm9.66 6.19V30.03h1.58v1.57q.6-1.1 1.12-1.45.52-.36 1.13-.36.89 0 1.8.56l-.6 1.64q-.64-.39-1.28-.39-.58 0-1.05.36-.45.35-.66.96-.28.93-.28 2.04v5.44H88.7Zm23.47-5.02 1.89.47q-.6 2.35-2.14 3.58-1.55 1.22-3.8 1.22-2.31 0-3.77-.94-1.43-.95-2.2-2.73-.75-1.8-.75-3.85 0-2.23.84-3.89.86-1.67 2.44-2.53 1.58-.87 3.47-.87 2.16 0 3.6 1.1 1.48 1.09 2.06 3.07l-1.86.44q-.5-1.57-1.46-2.27-.93-.72-2.37-.72-1.66 0-2.77.8-1.1.78-1.56 2.12-.44 1.33-.44 2.74 0 1.83.53 3.2.54 1.36 1.66 2.03 1.13.67 2.42.67 1.6 0 2.7-.92 1.12-.92 1.5-2.72Zm2.9-.17q0-2.87 1.6-4.26 1.34-1.16 3.26-1.16 2.14 0 3.49 1.4 1.36 1.41 1.36 3.88 0 2-.6 3.16-.6 1.14-1.75 1.78-1.14.62-2.5.62-2.19 0-3.53-1.39-1.33-1.4-1.33-4.03Zm1.8 0q0 2 .86 2.99.87.98 2.2.98 1.31 0 2.17-.98.88-1 .88-3.05 0-1.92-.88-2.9-.87-1-2.17-1-1.33 0-2.2 1-.86.98-.86 2.96Zm9.84 5.19V30.03h1.6v1.48q1.14-1.72 3.3-1.72.93 0 1.71.34.8.33 1.19.88.39.55.55 1.3.09.5.09 1.71v6.38h-1.77v-6.31q0-1.08-.2-1.61t-.73-.85q-.52-.3-1.22-.3-1.13 0-1.94.71-.81.7-.81 2.69v5.67h-1.77Zm9.3-3.1 1.75-.27q.14 1.04.81 1.6.67.55 1.88.55 1.2 0 1.78-.48.6-.5.6-1.16 0-.6-.52-.94-.36-.23-1.8-.6-1.94-.5-2.69-.83-.73-.36-1.12-.99-.4-.64-.4-1.4 0-.7.32-1.29.33-.59.87-.98.41-.3 1.11-.5.72-.22 1.53-.22 1.22 0 2.15.36.92.34 1.35.95.44.6.61 1.6l-1.72.23q-.12-.8-.68-1.23-.56-.46-1.58-.46-1.22 0-1.73.41-.52.4-.52.92 0 .35.22.63.2.28.67.47.27.09 1.55.43 1.87.5 2.6.83.74.31 1.16.92.42.6.42 1.5 0 .88-.51 1.66-.52.78-1.49 1.2-.96.42-2.18.42-2.02 0-3.08-.84T136 37.31Zm10.72-9.2v-2h1.76v2.01h-1.76Zm0 12.3V30.03h1.76V40.4h-1.76Zm3.28-3.1 1.75-.27q.14 1.04.81 1.6.67.55 1.88.55 1.2 0 1.78-.48.6-.5.6-1.16 0-.6-.52-.94-.36-.23-1.8-.6-1.94-.5-2.69-.83-.73-.36-1.12-.99-.4-.64-.4-1.4 0-.7.32-1.29.33-.59.87-.98.41-.3 1.11-.5.72-.22 1.53-.22 1.22 0 2.15.36.92.34 1.35.95.44.6.61 1.6l-1.72.23q-.12-.8-.68-1.23-.56-.46-1.58-.46-1.22 0-1.73.41-.52.4-.52.92 0 .35.22.63.2.28.67.47.27.09 1.55.43 1.87.5 2.6.83.74.31 1.16.92.42.6.42 1.5 0 .88-.51 1.66-.52.78-1.49 1.2-.96.42-2.18.42-2.02 0-3.08-.84T150 37.31Zm14.55 1.52.25 1.56q-.74.16-1.33.16-.95 0-1.49-.3-.51-.3-.73-.8-.22-.5-.22-2.07V31.4h-1.28v-1.37h1.28v-2.57l1.75-1.06v3.63h1.77v1.37h-1.77v6.06q0 .75.1.97.09.2.3.34.21.13.6.13.28 0 .77-.08Zm9.26-1.76 1.81.23q-.42 1.58-1.59 2.47-1.16.87-2.97.87-2.26 0-3.6-1.39-1.34-1.4-1.34-3.93 0-2.63 1.35-4.07 1.34-1.45 3.5-1.45 2.08 0 3.39 1.42 1.33 1.4 1.33 3.99l-.02.47h-7.73q.1 1.7.97 2.6.87.91 2.17.91.97 0 1.64-.5.69-.51 1.1-1.62Zm-5.78-2.85h5.8q-.11-1.3-.66-1.95-.84-1.02-2.19-1.02-1.2 0-2.03.82-.83.8-.92 2.15Zm9.67 6.19V30.03h1.6v1.48q1.14-1.72 3.3-1.72.93 0 1.71.34.8.33 1.19.88.39.55.55 1.3.09.5.09 1.71v6.38h-1.77v-6.31q0-1.08-.2-1.61t-.73-.85q-.52-.3-1.22-.3-1.13 0-1.94.71-.81.7-.81 2.69v5.67h-1.77Zm16.78-3.8 1.72.22q-.28 1.8-1.45 2.81-1.16 1-2.86 1-2.13 0-3.42-1.39-1.3-1.39-1.3-3.98 0-1.69.55-2.94.56-1.26 1.7-1.89 1.14-.64 2.49-.64 1.68 0 2.75.86t1.39 2.42l-1.72.27q-.24-1.05-.86-1.56-.63-.54-1.5-.54-1.33 0-2.16.96-.83.95-.83 3 0 2.1.8 3.04t2.1.94q1.03 0 1.71-.62.7-.64.9-1.96Zm3.14 7.8-.18-1.66q.58.16 1 .16.6 0 .93-.2.36-.2.58-.53.17-.27.55-1.32l.16-.43-3.94-10.4h1.89l2.16 6.02q.42 1.14.75 2.4.3-1.21.71-2.37l2.22-6.04h1.77l-3.95 10.54q-.63 1.72-.99 2.36-.47.88-1.08 1.27-.6.4-1.44.4-.51 0-1.14-.2Zm14.72-8.47v-1.42h11.13v1.42h-11.13Zm17.96-.12 1.78-.16q.12 1.06.58 1.75.46.69 1.43 1.13.99.42 2.22.42 1.08 0 1.9-.32.84-.32 1.24-.89.4-.56.4-1.23 0-.67-.38-1.17-.4-.5-1.28-.85-.58-.23-2.57-.7-1.96-.47-2.75-.89-1.03-.53-1.53-1.33t-.5-1.78q0-1.1.61-2.03.61-.94 1.8-1.42 1.19-.5 2.62-.5 1.6 0 2.82.51 1.22.52 1.86 1.52.65.98.7 2.25l-1.81.14q-.14-1.36-.99-2.05-.84-.7-2.5-.7-1.72 0-2.51.64-.78.63-.78 1.5 0 .78.56 1.28.55.5 2.86 1.02 2.31.51 3.17.9 1.25.58 1.84 1.47.6.88.6 2.03 0 1.14-.66 2.16-.66 1.02-1.89 1.58-1.22.56-2.75.56-1.94 0-3.25-.56-1.31-.58-2.06-1.72-.75-1.14-.78-2.56Zm13 0 1.78-.16q.12 1.06.58 1.75.46.69 1.43 1.13.99.42 2.22.42 1.08 0 1.9-.32.84-.32 1.24-.89.4-.56.4-1.23 0-.67-.38-1.17-.4-.5-1.28-.85-.58-.23-2.57-.7-1.96-.47-2.75-.89-1.03-.53-1.53-1.33t-.5-1.78q0-1.1.61-2.03.61-.94 1.8-1.42 1.19-.5 2.62-.5 1.6 0 2.82.51 1.22.52 1.86 1.52.65.98.7 2.25l-1.81.14q-.14-1.36-.99-2.05-.84-.7-2.5-.7-1.72 0-2.51.64-.78.63-.78 1.5 0 .78.56 1.28.55.5 2.86 1.02 2.31.51 3.17.9 1.25.58 1.84 1.47.6.88.6 2.03 0 1.14-.66 2.16-.66 1.02-1.89 1.58-1.22.56-2.75.56-1.94 0-3.25-.56-1.31-.58-2.06-1.72-.75-1.14-.78-2.56Zm13.95 4.59V26.09h1.9V40.4h-1.9Zm5.62 0V26.09h2.86l3.38 10.12.69 2.13.76-2.3L274 26.1h2.55v14.3h-1.81V28.42l-4.17 11.98h-1.7l-4.15-12.19V40.4h-1.83Zm26.46-14.31h1.89v8.26q0 2.16-.49 3.44-.48 1.27-1.76 2.06-1.27.8-3.35.8-2.01 0-3.3-.69-1.26-.7-1.8-2.01-.55-1.32-.55-3.6V26.1h1.89v8.25q0 1.87.34 2.76.35.88 1.19 1.36.84.47 2.08.47 2.08 0 2.97-.94.89-.95.89-3.65V26.1Zm3.53 14.31V26.09h1.89V38.7h7.05v1.69h-8.94Zm9.5 0 5.5-14.31h2.05l5.85 14.31h-2.15l-1.67-4.34h-5.99l-1.58 4.34h-2.01Zm4.14-5.88h4.84l-1.48-3.96q-.69-1.82-1.02-2.97-.28 1.37-.78 2.73l-1.56 4.2Zm20.66.86 1.89.47q-.6 2.35-2.14 3.58-1.55 1.22-3.8 1.22-2.31 0-3.77-.94-1.43-.95-2.2-2.73-.75-1.8-.75-3.85 0-2.23.84-3.89.86-1.67 2.44-2.53 1.58-.87 3.47-.87 2.16 0 3.6 1.1 1.48 1.09 2.06 3.07l-1.86.44q-.5-1.57-1.46-2.27-.93-.72-2.37-.72-1.66 0-2.77.8-1.1.78-1.56 2.12-.44 1.33-.44 2.74 0 1.83.53 3.2.54 1.36 1.66 2.03 1.13.67 2.42.67 1.6 0 2.7-.92 1.11-.92 1.5-2.72Zm3.8 5.02V26.09h6.35q1.9 0 2.9.39 1 .37 1.6 1.36.6.97.6 2.15 0 1.52-.99 2.57-.98 1.04-3.05 1.32.75.36 1.14.72.83.75 1.58 1.9l2.49 3.9h-2.38l-1.9-2.98q-.83-1.29-1.36-1.97-.53-.7-.97-.96-.42-.28-.86-.39-.33-.06-1.05-.06h-2.2v6.36h-1.9Zm1.9-8h4.08q1.3 0 2.01-.27.74-.26 1.11-.85.4-.6.4-1.29 0-1.01-.74-1.67-.74-.65-2.33-.65h-4.53v4.73Zm10.5 8 5.5-14.31h2.05l5.85 14.31h-2.15l-1.67-4.34h-5.99l-1.58 4.34h-2.01Zm4.14-5.88h4.84l-1.48-3.96q-.69-1.82-1.02-2.97-.28 1.37-.78 2.73l-1.56 4.2Zm18.95 4.2v1.68h-9.45q-.02-.64.2-1.22.36-.97 1.16-1.9.8-.94 2.3-2.18 2.34-1.9 3.15-3.01.83-1.13.83-2.13 0-1.04-.75-1.76t-1.95-.72q-1.27 0-2.03.76-.77.77-.77 2.11l-1.81-.18q.19-2.02 1.39-3.08 1.22-1.06 3.26-1.06 2.05 0 3.25 1.14 1.2 1.14 1.2 2.82 0 .86-.35 1.7-.35.83-1.16 1.76-.81.9-2.7 2.51-1.6 1.33-2.05 1.8-.44.47-.73.95h7.01Z"/></svg>