<svg xmlns="http://www.w3.org/2000/svg" width="898" height="556" fill="none" stroke-linecap="square" stroke-miterlimit="10"><path fill="#fff" d="M0 0h898v556H0V0Z"/><path stroke="#ccc" stroke-linecap="butt" d="M86.5 100.5v376m136-376v376m136-376v376m137-376v376m136-376v376m136-376v376"/><path stroke="#333" stroke-linecap="butt" d="M86.5 476.5h681"/><path stroke="#ccc" stroke-linecap="butt" d="M86.5 382.5h681m-681-94h681m-681-94h681m-681-94h681"/><clipPath id="a"><path d="M86.8 100.83h680.44V476.2H86.8V100.83Z"/></clipPath><path stroke="#90f" stroke-linecap="butt" d="m-574.48 235.02 339.78 53.5 82.49 13.16 56.2 8.9 42.18 8.12 37.57 6.64 33.76 7.59 27.38 4.2 21.85 5.25 20.13 3.18 21.9 5.16 18.94 3.2 20.53 4.23 17.04 2.45 16.89 2.35 15.87 3.8 14.23 1.42 17.25 3.15 13.1 1.64 11.5 1.28 10.77.49 11.69-.18 11.28 3.15 11.57 2.38 11.21.58 10.13 1.17 11.24 1.32 10.48 2.06 10.61.8 9.57.6 8.85 1.9 10.54.92 9.16 1.74 7.88.7 8.58 1.79 8.96.01 8.64 2.1 7.58 1.2 9.73.65 7.77 1.6 6.2.02 7.03 1.5 5.9 1.29 7.63 1.85 7.18.5 4.87.23 7.35 2.26 5.86.1 5.09 1.45 5.62.02 7.51.61 4.49 1.52 5.47-1.1 6.15 2.25 4.77-.06 5.23.61 5.15.48 5.62.27 5.18 1.25 3.67-1.35 5.48.93 5.61.88 4.26-.49 6.08.85 5.2-.04 4.26.83 5.01 1.24 4.08-.03 5.67.06 4.9.66 3.23-.16 6.05 1.15 3.97.5 5.48 1.3 4.67.15 2.83.97 12.5 1.62 13.33 1.77 11.66.42 12.75-.34 13.26.83 12.71 1.25 13.4 2.55 13.51 1.08 15.05 1.68 11.56.96 12.02 2.24 10 1.15 10.17-.63 7.67-1.89 9.61-.12 8.36 1.77 6.37-.82 8.46 1.82 6.66-1.24 5.72-.32 4.89.19 5.8.07 3.66-.15 9.12 1.81 1.63-.35" clip-path="url(#a)"/><path stroke="#f1c232" stroke-linecap="butt" d="m-340.48 330.83 39.78.82 40.01-5.18 28.36-6.22 44.99.54 38.64 6.78 34.29-3.9 40.86 2.87 29.71 8.22 42.66.72 31.57 5.45 29.12 5.82 32.55 2.97 28.79.6 42.15-.17 28.09 1.85 25.22 8.6 29.26 4.66 17.8 4 18.73 1.13 30.1-1.18 21.16 3.73 18.74 3.24 19.48-.84 11.65.57L399 374.5l11.41 1.88 12.15.67 10.53 3.36 4.28 1.77 4.38.27 7.3-.1 3.46 1.04 2.93.88 6.38.08 4.06 1.46 6.09-2.08 3.03 1.3 8.35 2.01 1.4.89 3.2.58 9.38-1.36 6.96.63 9.18 1.46 3.77 1.47 4.63 1.91 2.95.98 9.06.97 3.38.93 3.43.88 3.29 1.52 5.32 2.5 10.16-1.76 2.8.81 4.7 3.19 6.61 1.05 6 .78 12.48-1.47 2.72.42 5.74 1.5 2.99 2.61 8.05-.46 5.75 2.5 8.16 2.6 2.57.83 7.24 1.8 6.08 1.1 4.85.56 7.28.98 4.46 1.48 5.02.75 4.56 1.52 9.37 1.3 4.37 1.42 7.7 1.9 7.4.38 6.94.77 10.24.33 4.5 1.54 7.14 4.01 5.52 1.96 13.83-.65 7.59 1.01 9.53 1.92 6.66 2.67 7.84 1.97 10.98 1.58 10.3 2.19 14.26 1.26 8.78 1.74 13.33 3.08 12.14 2.59 11.35 1.74 16.1 2.15 10.42 1.1 15.5 2.07 13.43 1.27 17.1.65 15.49 1.06 13.95-.48" clip-path="url(#a)"/><path stroke="#6aa84f" stroke-linecap="butt" d="m-509.76 161.69 26.96.51 26.62.33 25.99 5.65 28.54.86 23.87-2.3 31.03 2.86 30.92 5.04 29.74 4.67 31.38 6.16 23.89 7.72 32.15 4.53 56.82-.17 49.2 8.72 30.82 8.72 32.67 6.8 34.13 5.81 30.94 7.57 32.64 5.5 25.68 5.77 27.84 5.87 28.08 6.55 24.96 7.64 23.34 3.97 18.1 5.38 19.75 5.97 17 3.59 15.4 4.01 13.05 2.96 10.8 2.52 7.33 2.78 7 1.8 6.7 1.2 3.13 1.59 6.87 2.25 6.34 1.86 7.75 1.62 7.13 1.31 6.72 1.52 7.7 2.05 6 1.67 6.85 1.34 7.08 2.68 7.11 2.8 7.33 1.09 7.44 1.63 7.57 1.88 6.72 2.1 7.42 1.62 4.64 2.54 7.69 1.44 7.43 2.03 4.7 2.42 7.63 1.58 7.61 2.69 7.83 2.13 8.62.32 10.34 3.72 8.78 1.87 8 1.6 8.52 1.24 6.75 3.28 8.21 2.3 9 2.38 9.25 1.94 9.77 2.28 10.25 3.02 10.66 1.93 9.77 3.1 10.4 1.85 10.54 2.64 8.36 3.03 10.94 2.43 10.5 3.36 8.46 2.72 11.12 2.46 10.71 3.15 11.26 3.05 11.61 2.55 10.18 3.74 11.52 3 12.12 2.88 11.98 3.13 11.97 3.05 12.11 3 10.85 3.59 12.24 3.37 12.57 3.14 13.4 3.17 11.92 3.88 13.65 3.2 13.82 4.19 13.66 3.23 13.55 3.54 13.63 3.7 14.5 3.32 12.08 1.47 15.1 3.07 14.85 2.5 15.19.98 76.44 10.31" clip-path="url(#a)"/><path stroke="red" stroke-linecap="butt" d="m-681.86 130.95 63.82-12.44 105.88 16.5 46.6.4 70.1 8.3 62.96 12.3 64.6 13.1 50.72 8.16 70.6 16.97 44.98 10.05 54.37 11.47L.98 227.87l43.42 9.96 53.07 18.65 44.86 12.46 48.32 13.36 45.94 14.66 35.1 7.21 37.45 10.63 34.77 9.98 37.23 8.39 31.26 7.6 28.58 7.55 51.89 21.83 26.89 8.32 25.18 6.56 24.07 6.29 21.02 5.35 20.22 5.14 19.52 5.33 15.8 4.55 19.12 4.16 16.7 4.63 15.79 4.73 11.99 2.23 11.97 2.57 11.7 2.9 10.8 2.26 22.46 6.38 11.25 1.98 7.3 1.02 8.04 1.27 7.71 1.12 7.85 1.69 8.64 1.48 8.24 2 7.9 1.05 9.6 1.22 8.79 1.56 7.9 1.26 9.02 1.57 8.69 1.27 9.59 1.42 16.18 2.46 10.42 1.53 9.92.9 10.5.75 10.04.32 9.05-.4 7.97-1.02 6.51-.93 4.46-.97-1.06-.57" clip-path="url(#a)"/><path stroke="#4a86e8" stroke-linecap="butt" d="m-669.08 202.74 310.27 36.4 82.4 11.28 57.66 12.5 47.2 5.38 37.1 8.81 32.78 5.8 32.4 3.45 26.54 2.97 27.17 3.86 24.6 5.92 22.37 5.54 19.12 2.06 22.5 2.99 17.35 2 18.1 7.38 18.95 1.7 15.82 3.96 14.25 3.07 14.22 2.05 17.08 4.2 12.47 1.47 13.03-.91 14.24 7.24 13.68 2.82 12.77 1.97 11.08 2.33 11.6 1.38 11.64-.03 11.38 1.45 10.74 4.7 12.07 1 9.04.83 11.42 2.82 9.3-1.2 6.33.24 9.1.7 10.61 2.65 9.46 2.59 8.5 1.4 7.76-.1 6.84 3.16 8.6 2.82 7.52.68 9.2 1.01 6.32.46 6.96.69 7.03.27 5.85 1.92 6.52 2.82 4.5.83 6.53.27 4.73 1.25 6.37 3.07 5.18-.47 7.67-1.46 4.88 1.48 5.88 1.87 6.56 2.99 4.27-2.22 5.47 2.54 5.87.55 7.54 2.13 4.69.49 4.87 1.84 2.95-1.59 6.97 2.95 3.41-1.48 4.34-1.35 6.47 4.5 4.57-1.73 5 3.04 5.56.24 5.38 2.07 7.03 1.7 3.28-1.4 14.57 2.4 12.66.72 13.18.94 12.8 2.48 13.92-1.88 11.8 2.25 14.44 7.6 10.05-5.91 15.61 8.46 12.88 2.52 13.49.55 14.08 4.29 13.38.62 12.67 1.98 14.09 2.22 11.18-.26 11.26.6 13.16 3.7 9.4-.85 10.2 1.21 8.84-.36 7.29.86 6.25 1.14 4.04.34.2-.48" clip-path="url(#a)"/><path stroke="#666" stroke-linecap="butt" d="m-1988.31-458.9 747.44 823.36 57.13 77.32 55.9-47.83 94.56-44.04 101.5-13.78 124.57-13.73 107.53-3.51 100.59-7.48 95.23-5.35 82.76 11.74 78.22.58 77.72 10 55.26.42 68.58 6.2 48.32 9.9 46.62 6.57 40.39 6.25 32.42 3.74 42.62 2.76 29.92-.71 26.98 4.12 22.03 2.51 37.75-1.23 22.72 2.05 18.88 2.25 23.83 2.5 19.73 3.5 10.25.09 18.44-.15 18.81 2.94 13.72 1.16 19.04.6 10.63 3.65 13.8 1.94 13.13.86 5.17.83 13.63 1.32 11.8 1.66 6.44-1.67 11.88 1.88 6.8 1.8 3.12.82 15.79.07 4.29.52 12.32 1.93 2.28.78 5.55.46 19.3-1.37 1.55.66 1.63.55 10.23 1.77 5.74.63 2.56.68 6.94.57 3.26.77 6.94.64 11.87.05 2.38.78 3.64.97 11.6.68 3.76.67 4.34.74 6.58 2.09 10.08.2 5.74 1.13 7.37-.95 8.3 1.01 6.53 1.06 7.24 1.81 10.3.62 3.64 1.03 7.76 1.93 11.33.23 2.6.97 13.79.02 7.99 1.69 5.9 1.32 4.52 1.46 10.6 1.12 7.85 1.29 8.59 1.22 9.36 1.43 8.21.96 8.5 1.66 11.02 1.35 8.1 1.81 9.19 1.67 8.3 1.58 15.5 1.73 10.08 1.29 9.26 1.27 12.86 1 13.34.86 11.07.19 15.58-.92 11.18-1.25 10.91-2.82 9.47-2.95 4.02-1.5" clip-path="url(#a)"/><path d="M-571.48 235.02a3 3 0 1 1-6 0 3 3 0 0 1 6 0Zm339.78 53.49a3 3 0 1 1-6 0 3 3 0 0 1 6 0Zm82.49 13.17a3 3 0 1 1-6 0 3 3 0 0 1 6 0Zm56.21 8.9a3 3 0 1 1-6 0 3 3 0 0 1 6 0Zm42.17 8.12a3 3 0 1 1-6 0 3 3 0 0 1 6 0Zm37.57 6.64a3 3 0 1 1-6 0 3 3 0 0 1 6 0Zm33.76 7.59a3 3 0 1 1-6 0 3 3 0 0 1 6 0Zm27.38 4.19a3 3 0 1 1-6 0 3 3 0 0 1 6 0Zm21.85 5.26a3 3 0 1 1-6 0 3 3 0 0 1 6 0Zm20.13 3.18a3 3 0 1 1-6 0 3 3 0 0 1 6 0Zm21.9 5.16a3 3 0 1 1-6 0 3 3 0 0 1 6 0Zm18.94 3.19a3 3 0 1 1-6 0 3 3 0 0 1 6 0Zm20.53 4.24a3 3 0 1 1-6 0 3 3 0 0 1 6 0Zm17.04 2.45a3 3 0 1 1-6 0 3 3 0 0 1 6 0Zm16.89 2.35a3 3 0 1 1-6 0 3 3 0 0 1 6 0Zm15.87 3.8a3 3 0 1 1-6 0 3 3 0 0 1 6 0Zm14.23 1.42a3 3 0 1 1-6 0 3 3 0 0 1 6 0Zm17.25 3.15a3 3 0 1 1-6 0 3 3 0 0 1 6 0Zm13.09 1.64a3 3 0 1 1-6 0 3 3 0 0 1 6 0Zm11.5 1.28a3 3 0 1 1-6 0 3 3 0 0 1 6 0Zm10.78.49a3 3 0 1 1-6 0 3 3 0 0 1 6 0Zm11.69-.18a3 3 0 1 1-6 0 3 3 0 0 1 6 0Zm11.28 3.15a3 3 0 1 1-6 0 3 3 0 0 1 6 0Zm11.57 2.38a3 3 0 1 1-6 0 3 3 0 0 1 6 0Zm11.21.58a3 3 0 1 1-6 0 3 3 0 0 1 6 0Zm10.13 1.17a3 3 0 1 1-6 0 3 3 0 0 1 6 0Zm11.24 1.32a3 3 0 1 1-6 0 3 3 0 0 1 6 0Zm10.48 2.06a3 3 0 1 1-6 0 3 3 0 0 1 6 0Zm10.61.8a3 3 0 1 1-6 0 3 3 0 0 1 6 0Zm9.57.61a3 3 0 1 1-6 0 3 3 0 0 1 6 0Zm8.85 1.9a3 3 0 1 1-6 0 3 3 0 0 1 6 0Zm10.54.91a3 3 0 1 1-6 0 3 3 0 0 1 6 0Zm9.15 1.74a3 3 0 1 1-6 0 3 3 0 0 1 6 0Zm7.9.7a3 3 0 1 1-6 0 3 3 0 0 1 6 0Zm8.57 1.79a3 3 0 1 1-6 0 3 3 0 0 1 6 0Zm8.96.01a3 3 0 1 1-6 0 3 3 0 0 1 6 0Zm8.64 2.11a3 3 0 1 1-6 0 3 3 0 0 1 6 0Zm7.58 1.2a3 3 0 1 1-6 0 3 3 0 0 1 6 0Zm9.73.64a3 3 0 1 1-6 0 3 3 0 0 1 6 0Zm7.77 1.6a3 3 0 1 1-6 0 3 3 0 0 1 6 0Zm6.21.02a3 3 0 1 1-6 0 3 3 0 0 1 6 0Zm7.02 1.5a3 3 0 1 1-6 0 3 3 0 0 1 6 0Z" clip-path="url(#a)"/><path d="M472.48 402.03a3 3 0 1 1-6 0 3 3 0 0 1 6 0Zm7.62 1.85a3 3 0 1 1-6 0 3 3 0 0 1 6 0Zm7.2.5a3 3 0 1 1-6 0 3 3 0 0 1 6 0Z" clip-path="url(#a)"/><path d="M492.16 404.61a3 3 0 1 1-6 0 3 3 0 0 1 6 0Zm7.35 2.26a3 3 0 1 1-6 0 3 3 0 0 1 6 0Z" clip-path="url(#a)"/><path d="M505.37 406.97a3 3 0 1 1-6 0 3 3 0 0 1 6 0Z" clip-path="url(#a)"/><path d="M510.46 408.42a3 3 0 1 1-6 0 3 3 0 0 1 6 0Z" clip-path="url(#a)"/><path d="M516.08 408.44a3 3 0 1 1-6 0 3 3 0 0 1 6 0Zm7.51.61a3 3 0 1 1-6 0 3 3 0 0 1 6 0Z" clip-path="url(#a)"/><path d="M528.08 410.57a3 3 0 1 1-6 0 3 3 0 0 1 6 0Z" clip-path="url(#a)"/><path d="M533.55 409.46a3 3 0 1 1-6 0 3 3 0 0 1 6 0Zm6.15 2.26a3 3 0 1 1-6 0 3 3 0 0 1 6 0Z" clip-path="url(#a)"/><path d="M544.47 411.66a3 3 0 1 1-6 0 3 3 0 0 1 6 0Z" clip-path="url(#a)"/><path d="M549.7 412.27a3 3 0 1 1-6 0 3 3 0 0 1 6 0Z" clip-path="url(#a)"/><path d="M554.85 412.75a3 3 0 1 1-6 0 3 3 0 0 1 6 0Z" clip-path="url(#a)"/><path d="M560.47 413.02a3 3 0 1 1-6 0 3 3 0 0 1 6 0Z" clip-path="url(#a)"/><path d="M565.65 414.27a3 3 0 1 1-6 0 3 3 0 0 1 6 0Z" clip-path="url(#a)"/><path d="M569.32 412.92a3 3 0 1 1-6 0 3 3 0 0 1 6 0Z" clip-path="url(#a)"/><path d="M574.8 413.85a3 3 0 1 1-6 0 3 3 0 0 1 6 0Z" clip-path="url(#a)"/><path d="M580.41 414.73a3 3 0 1 1-6 0 3 3 0 0 1 6 0Z" clip-path="url(#a)"/><path d="M584.67 414.24a3 3 0 1 1-6 0 3 3 0 0 1 6 0Zm6.08.85a3 3 0 1 1-6 0 3 3 0 0 1 6 0Z" clip-path="url(#a)"/><path d="M595.95 415.05a3 3 0 1 1-6 0 3 3 0 0 1 6 0Z" clip-path="url(#a)"/><path d="M600.2 415.88a3 3 0 1 1-6 0 3 3 0 0 1 6 0Z" clip-path="url(#a)"/><path d="M605.22 417.12a3 3 0 1 1-6 0 3 3 0 0 1 6 0Z" clip-path="url(#a)"/><path d="M609.3 417.1a3 3 0 1 1-6 0 3 3 0 0 1 6 0Z" clip-path="url(#a)"/><path d="M614.97 417.15a3 3 0 1 1-6 0 3 3 0 0 1 6 0Z" clip-path="url(#a)"/><path d="M619.86 417.8a3 3 0 1 1-6 0 3 3 0 0 1 6 0Z" clip-path="url(#a)"/><path d="M623.1 417.65a3 3 0 1 1-6 0 3 3 0 0 1 6 0Zm6.05 1.15a3 3 0 1 1-6 0 3 3 0 0 1 6 0Z" clip-path="url(#a)"/><path d="M633.12 419.3a3 3 0 1 1-6 0 3 3 0 0 1 6 0Z" clip-path="url(#a)"/><path d="M638.6 420.6a3 3 0 1 1-6 0 3 3 0 0 1 6 0Z" clip-path="url(#a)"/><path d="M643.27 420.75a3 3 0 1 1-6 0 3 3 0 0 1 6 0Z" clip-path="url(#a)"/><path d="M646.1 421.72a3 3 0 1 1-6 0 3 3 0 0 1 6 0Zm12.5 1.62a3 3 0 1 1-6 0 3 3 0 0 1 6 0Zm13.33 1.76a3 3 0 1 1-6 0 3 3 0 0 1 6 0Zm11.67.43a3 3 0 1 1-6 0 3 3 0 0 1 6 0Zm12.74-.33a3 3 0 1 1-6 0 3 3 0 0 1 6 0Zm13.26.82a3 3 0 1 1-6 0 3 3 0 0 1 6 0Zm12.71 1.25a3 3 0 1 1-6 0 3 3 0 0 1 6 0Zm13.4 2.55a3 3 0 1 1-6 0 3 3 0 0 1 6 0Zm13.51 1.08a3 3 0 1 1-6 0 3 3 0 0 1 6 0Zm15.05 1.68a3 3 0 1 1-6 0 3 3 0 0 1 6 0Zm11.56.96a3 3 0 1 1-6 0 3 3 0 0 1 6 0Zm12.02 2.24a3 3 0 1 1-6 0 3 3 0 0 1 6 0Zm10 1.15a3 3 0 1 1-6 0 3 3 0 0 1 6 0Zm10.17-.63a3 3 0 1 1-6 0 3 3 0 0 1 6 0Zm7.67-1.89a3 3 0 1 1-6 0 3 3 0 0 1 6 0Zm9.61-.12a3 3 0 1 1-6 0 3 3 0 0 1 6 0Zm8.36 1.77a3 3 0 1 1-6 0 3 3 0 0 1 6 0Zm6.37-.82a3 3 0 1 1-6 0 3 3 0 0 1 6 0Zm8.46 1.82a3 3 0 1 1-6 0 3 3 0 0 1 6 0Zm6.66-1.24a3 3 0 1 1-6 0 3 3 0 0 1 6 0Z" clip-path="url(#a)"/><path d="M860.87 435.5a3 3 0 1 1-6 0 3 3 0 0 1 6 0Z" clip-path="url(#a)"/><path d="M865.76 435.69a3 3 0 1 1-6 0 3 3 0 0 1 6 0Z" clip-path="url(#a)"/><path d="M871.57 435.76a3 3 0 1 1-6 0 3 3 0 0 1 6 0Z" clip-path="url(#a)"/><path d="M875.22 435.6a3 3 0 1 1-6 0 3 3 0 0 1 6 0Zm9.12 1.82a3 3 0 1 1-6 0 3 3 0 0 1 6 0Z" clip-path="url(#a)"/><path d="M885.97 437.07a3 3 0 1 1-6 0 3 3 0 0 1 6 0ZM-337.48 330.83a3 3 0 1 1-6 0 3 3 0 0 1 6 0Zm39.78.82a3 3 0 1 1-6 0 3 3 0 0 1 6 0Zm40.01-5.18a3 3 0 1 1-6 0 3 3 0 0 1 6 0Zm28.36-6.22a3 3 0 1 1-6 0 3 3 0 0 1 6 0Zm44.99.55a3 3 0 1 1-6 0 3 3 0 0 1 6 0Zm38.64 6.77a3 3 0 1 1-6 0 3 3 0 0 1 6 0Zm34.29-3.9a3 3 0 1 1-6 0 3 3 0 0 1 6 0Zm40.86 2.87a3 3 0 1 1-6 0 3 3 0 0 1 6 0Zm29.71 8.22a3 3 0 1 1-6 0 3 3 0 0 1 6 0Zm42.66.72a3 3 0 1 1-6 0 3 3 0 0 1 6 0Zm31.58 5.45a3 3 0 1 1-6 0 3 3 0 0 1 6 0Zm29.11 5.82a3 3 0 1 1-6 0 3 3 0 0 1 6 0Zm32.55 2.97a3 3 0 1 1-6 0 3 3 0 0 1 6 0Zm28.79.61a3 3 0 1 1-6 0 3 3 0 0 1 6 0Zm42.15-.18a3 3 0 1 1-6 0 3 3 0 0 1 6 0Zm28.09 1.85a3 3 0 1 1-6 0 3 3 0 0 1 6 0Zm25.22 8.6a3 3 0 1 1-6 0 3 3 0 0 1 6 0Zm29.26 4.66a3 3 0 1 1-6 0 3 3 0 0 1 6 0Zm17.8 3.99a3 3 0 1 1-6 0 3 3 0 0 1 6 0Zm18.73 1.15a3 3 0 1 1-6 0 3 3 0 0 1 6 0Zm30.1-1.19a3 3 0 1 1-6 0 3 3 0 0 1 6 0Zm21.16 3.73a3 3 0 1 1-6 0 3 3 0 0 1 6 0Zm18.74 3.24a3 3 0 1 1-6 0 3 3 0 0 1 6 0Zm19.48-.84a3 3 0 1 1-6 0 3 3 0 0 1 6 0Zm11.65.56a3 3 0 1 1-6 0 3 3 0 0 1 6 0Zm15.77-1.4a3 3 0 1 1-6 0 3 3 0 0 1 6 0Zm11.41 1.88a3 3 0 1 1-6 0 3 3 0 0 1 6 0Zm12.15.67a3 3 0 1 1-6 0 3 3 0 0 1 6 0Zm10.54 3.35a3 3 0 1 1-6 0 3 3 0 0 1 6 0Z" clip-path="url(#a)"/><path d="M440.37 382.18a3 3 0 1 1-6 0 3 3 0 0 1 6 0Z" clip-path="url(#a)"/><path d="M444.75 382.45a3 3 0 1 1-6 0 3 3 0 0 1 6 0Zm7.3-.1a3 3 0 1 1-6 0 3 3 0 0 1 6 0Z" clip-path="url(#a)"/><path d="M455.5 383.39a3 3 0 1 1-6 0 3 3 0 0 1 6 0Z" clip-path="url(#a)"/><path d="M458.44 384.27a3 3 0 1 1-6 0 3 3 0 0 1 6 0Zm6.38.08a3 3 0 1 1-6 0 3 3 0 0 1 6 0Z" clip-path="url(#a)"/><path d="M468.88 385.81a3 3 0 1 1-6 0 3 3 0 0 1 6 0Zm6.09-2.08a3 3 0 1 1-6 0 3 3 0 0 1 6 0Z" clip-path="url(#a)"/><path d="M478 385.02a3 3 0 1 1-6 0 3 3 0 0 1 6 0Zm8.35 2.02a3 3 0 1 1-6 0 3 3 0 0 1 6 0Z" clip-path="url(#a)"/><path d="M487.74 387.93a3 3 0 1 1-6 0 3 3 0 0 1 6 0Z" clip-path="url(#a)"/><path d="M490.95 388.5a3 3 0 1 1-6 0 3 3 0 0 1 6 0Zm9.38-1.35a3 3 0 1 1-6 0 3 3 0 0 1 6 0Zm6.97.63a3 3 0 1 1-6 0 3 3 0 0 1 6 0Zm9.17 1.46a3 3 0 1 1-6 0 3 3 0 0 1 6 0Z" clip-path="url(#a)"/><path d="M520.24 390.71a3 3 0 1 1-6 0 3 3 0 0 1 6 0Z" clip-path="url(#a)"/><path d="M524.87 392.62a3 3 0 1 1-6 0 3 3 0 0 1 6 0Z" clip-path="url(#a)"/><path d="M527.82 393.6a3 3 0 1 1-6 0 3 3 0 0 1 6 0Zm9.06.97a3 3 0 1 1-6 0 3 3 0 0 1 6 0Z" clip-path="url(#a)"/><path d="M540.26 395.5a3 3 0 1 1-6 0 3 3 0 0 1 6 0Z" clip-path="url(#a)"/><path d="M543.69 396.38a3 3 0 1 1-6 0 3 3 0 0 1 6 0Z" clip-path="url(#a)"/><path d="M546.98 397.9a3 3 0 1 1-6 0 3 3 0 0 1 6 0Z" clip-path="url(#a)"/><path d="M552.3 400.4a3 3 0 1 1-6 0 3 3 0 0 1 6 0Zm10.16-1.76a3 3 0 1 1-6 0 3 3 0 0 1 6 0Z" clip-path="url(#a)"/><path d="M565.25 399.45a3 3 0 1 1-6 0 3 3 0 0 1 6 0Z" clip-path="url(#a)"/><path d="M569.96 402.64a3 3 0 1 1-6 0 3 3 0 0 1 6 0Zm6.61 1.06a3 3 0 1 1-6 0 3 3 0 0 1 6 0Zm6 .77a3 3 0 1 1-6 0 3 3 0 0 1 6 0Zm12.48-1.47a3 3 0 1 1-6 0 3 3 0 0 1 6 0Z" clip-path="url(#a)"/><path d="M597.77 403.42a3 3 0 1 1-6 0 3 3 0 0 1 6 0Z" clip-path="url(#a)"/><path d="M603.51 404.93a3 3 0 1 1-6 0 3 3 0 0 1 6 0Z" clip-path="url(#a)"/><path d="M606.5 407.53a3 3 0 1 1-6 0 3 3 0 0 1 6 0Zm8.05-.46a3 3 0 1 1-6 0 3 3 0 0 1 6 0Z" clip-path="url(#a)"/><path d="M620.3 409.56a3 3 0 1 1-6 0 3 3 0 0 1 6 0Zm8.16 2.61a3 3 0 1 1-6 0 3 3 0 0 1 6 0Z" clip-path="url(#a)"/><path d="M631.03 413a3 3 0 1 1-6 0 3 3 0 0 1 6 0Zm7.24 1.8a3 3 0 1 1-6 0 3 3 0 0 1 6 0Zm6.08 1.1a3 3 0 1 1-6 0 3 3 0 0 1 6 0Z" clip-path="url(#a)"/><path d="M649.2 416.46a3 3 0 1 1-6 0 3 3 0 0 1 6 0Zm7.28.98a3 3 0 1 1-6 0 3 3 0 0 1 6 0Z" clip-path="url(#a)"/><path d="M660.94 418.92a3 3 0 1 1-6 0 3 3 0 0 1 6 0Z" clip-path="url(#a)"/><path d="M665.96 419.67a3 3 0 1 1-6 0 3 3 0 0 1 6 0Z" clip-path="url(#a)"/><path d="M670.52 421.19a3 3 0 1 1-6 0 3 3 0 0 1 6 0Zm9.38 1.3a3 3 0 1 1-6 0 3 3 0 0 1 6 0Z" clip-path="url(#a)"/><path d="M684.26 423.9a3 3 0 1 1-6 0 3 3 0 0 1 6 0Zm7.7 1.9a3 3 0 1 1-6 0 3 3 0 0 1 6 0Zm7.41.39a3 3 0 1 1-6 0 3 3 0 0 1 6 0Zm6.93.77a3 3 0 1 1-6 0 3 3 0 0 1 6 0Zm10.24.34a3 3 0 1 1-6 0 3 3 0 0 1 6 0Z" clip-path="url(#a)"/><path d="M721.05 428.83a3 3 0 1 1-6 0 3 3 0 0 1 6 0Zm7.13 4.01a3 3 0 1 1-6 0 3 3 0 0 1 6 0Z" clip-path="url(#a)"/><path d="M733.7 434.8a3 3 0 1 1-6 0 3 3 0 0 1 6 0Zm13.83-.65a3 3 0 1 1-6 0 3 3 0 0 1 6 0Zm7.59 1.01a3 3 0 1 1-6 0 3 3 0 0 1 6 0Zm9.53 1.92a3 3 0 1 1-6 0 3 3 0 0 1 6 0Zm6.65 2.67a3 3 0 1 1-6 0 3 3 0 0 1 6 0Zm7.85 1.97a3 3 0 1 1-6 0 3 3 0 0 1 6 0Zm10.98 1.58a3 3 0 1 1-6 0 3 3 0 0 1 6 0Zm10.31 2.19a3 3 0 1 1-6 0 3 3 0 0 1 6 0Zm14.26 1.26a3 3 0 1 1-6 0 3 3 0 0 1 6 0Zm8.77 1.75a3 3 0 1 1-6 0 3 3 0 0 1 6 0Zm13.33 3.07a3 3 0 1 1-6 0 3 3 0 0 1 6 0Zm12.14 2.59a3 3 0 1 1-6 0 3 3 0 0 1 6 0Zm11.35 1.74a3 3 0 1 1-6 0 3 3 0 0 1 6 0Zm16.09 2.15a3 3 0 1 1-6 0 3 3 0 0 1 6 0Zm10.43 1.1a3 3 0 1 1-6 0 3 3 0 0 1 6 0Zm15.51 2.07a3 3 0 1 1-6 0 3 3 0 0 1 6 0Zm13.42 1.27a3 3 0 1 1-6 0 3 3 0 0 1 6 0Zm17.09.65a3 3 0 1 1-6 0 3 3 0 0 1 6 0Zm15.5 1.06a3 3 0 1 1-6 0 3 3 0 0 1 6 0Zm13.95-.48a3 3 0 1 1-6 0 3 3 0 0 1 6 0ZM-506.76 161.69a3 3 0 1 1-6 0 3 3 0 0 1 6 0Zm26.96.51a3 3 0 1 1-6 0 3 3 0 0 1 6 0Zm26.62.33a3 3 0 1 1-6 0 3 3 0 0 1 6 0Zm25.98 5.65a3 3 0 1 1-6 0 3 3 0 0 1 6 0Zm28.55.86a3 3 0 1 1-6 0 3 3 0 0 1 6 0Zm23.87-2.31a3 3 0 1 1-6 0 3 3 0 0 1 6 0Zm31.03 2.87a3 3 0 1 1-6 0 3 3 0 0 1 6 0Zm30.92 5.04a3 3 0 1 1-6 0 3 3 0 0 1 6 0Zm29.74 4.66a3 3 0 1 1-6 0 3 3 0 0 1 6 0Zm31.39 6.17a3 3 0 1 1-6 0 3 3 0 0 1 6 0Zm23.88 7.73a3 3 0 1 1-6 0 3 3 0 0 1 6 0Zm32.15 4.52a3 3 0 1 1-6 0 3 3 0 0 1 6 0Zm56.82-.17a3 3 0 1 1-6 0 3 3 0 0 1 6 0Zm49.19 8.72a3 3 0 1 1-6 0 3 3 0 0 1 6 0Zm30.83 8.73a3 3 0 1 1-6 0 3 3 0 0 1 6 0Zm32.67 6.8a3 3 0 1 1-6 0 3 3 0 0 1 6 0Zm34.13 5.8a3 3 0 1 1-6 0 3 3 0 0 1 6 0Zm30.93 7.57a3 3 0 1 1-6 0 3 3 0 0 1 6 0Zm32.65 5.49a3 3 0 1 1-6 0 3 3 0 0 1 6 0Zm25.68 5.78a3 3 0 1 1-6 0 3 3 0 0 1 6 0Zm27.84 5.86a3 3 0 1 1-6 0 3 3 0 0 1 6 0Zm28.08 6.56a3 3 0 1 1-6 0 3 3 0 0 1 6 0Zm24.96 7.64a3 3 0 1 1-6 0 3 3 0 0 1 6 0Zm23.34 3.97a3 3 0 1 1-6 0 3 3 0 0 1 6 0Zm18.09 5.38a3 3 0 1 1-6 0 3 3 0 0 1 6 0Zm19.76 5.97a3 3 0 1 1-6 0 3 3 0 0 1 6 0Zm17 3.58a3 3 0 1 1-6 0 3 3 0 0 1 6 0Zm15.4 4.02a3 3 0 1 1-6 0 3 3 0 0 1 6 0Zm13.05 2.96a3 3 0 1 1-6 0 3 3 0 0 1 6 0Zm10.81 2.52a3 3 0 1 1-6 0 3 3 0 0 1 6 0Zm7.32 2.78a3 3 0 1 1-6 0 3 3 0 0 1 6 0Zm7.01 1.81a3 3 0 1 1-6 0 3 3 0 0 1 6 0Zm6.69 1.19a3 3 0 1 1-6 0 3 3 0 0 1 6 0Z" clip-path="url(#a)"/><path d="M319.71 302.27a3 3 0 1 1-6 0 3 3 0 0 1 6 0Zm6.87 2.25a3 3 0 1 1-6 0 3 3 0 0 1 6 0Zm6.34 1.86a3 3 0 1 1-6 0 3 3 0 0 1 6 0Zm7.75 1.62a3 3 0 1 1-6 0 3 3 0 0 1 6 0Zm7.13 1.31a3 3 0 1 1-6 0 3 3 0 0 1 6 0Zm6.72 1.52a3 3 0 1 1-6 0 3 3 0 0 1 6 0Zm7.71 2.05a3 3 0 1 1-6 0 3 3 0 0 1 6 0Z" clip-path="url(#a)"/><path d="M368.22 314.55a3 3 0 1 1-6 0 3 3 0 0 1 6 0Zm6.85 1.34a3 3 0 1 1-6 0 3 3 0 0 1 6 0Zm7.08 2.68a3 3 0 1 1-6 0 3 3 0 0 1 6 0Zm7.11 2.81a3 3 0 1 1-6 0 3 3 0 0 1 6 0Zm7.34 1.08a3 3 0 1 1-6 0 3 3 0 0 1 6 0Zm7.43 1.64a3 3 0 1 1-6 0 3 3 0 0 1 6 0Zm7.57 1.87a3 3 0 1 1-6 0 3 3 0 0 1 6 0Zm6.72 2.1a3 3 0 1 1-6 0 3 3 0 0 1 6 0Zm7.42 1.62a3 3 0 1 1-6 0 3 3 0 0 1 6 0Z" clip-path="url(#a)"/><path d="M430.38 332.23a3 3 0 1 1-6 0 3 3 0 0 1 6 0Zm7.69 1.44a3 3 0 1 1-6 0 3 3 0 0 1 6 0Zm7.43 2.03a3 3 0 1 1-6 0 3 3 0 0 1 6 0Z" clip-path="url(#a)"/><path d="M450.2 338.12a3 3 0 1 1-6 0 3 3 0 0 1 6 0Zm7.63 1.58a3 3 0 1 1-6 0 3 3 0 0 1 6 0Zm7.61 2.69a3 3 0 1 1-6 0 3 3 0 0 1 6 0Zm7.83 2.13a3 3 0 1 1-6 0 3 3 0 0 1 6 0Zm8.63.32a3 3 0 1 1-6 0 3 3 0 0 1 6 0Zm10.33 3.72a3 3 0 1 1-6 0 3 3 0 0 1 6 0Zm8.78 1.87a3 3 0 1 1-6 0 3 3 0 0 1 6 0Zm8 1.6a3 3 0 1 1-6 0 3 3 0 0 1 6 0Zm8.52 1.24a3 3 0 1 1-6 0 3 3 0 0 1 6 0Zm6.75 3.28a3 3 0 1 1-6 0 3 3 0 0 1 6 0Zm8.21 2.3a3 3 0 1 1-6 0 3 3 0 0 1 6 0Zm9.01 2.38a3 3 0 1 1-6 0 3 3 0 0 1 6 0Zm9.24 1.94a3 3 0 1 1-6 0 3 3 0 0 1 6 0Zm9.76 2.28a3 3 0 1 1-6 0 3 3 0 0 1 6 0Zm10.26 3.02a3 3 0 1 1-6 0 3 3 0 0 1 6 0Zm10.66 1.93a3 3 0 1 1-6 0 3 3 0 0 1 6 0Zm9.77 3.1a3 3 0 1 1-6 0 3 3 0 0 1 6 0Zm10.41 1.85a3 3 0 1 1-6 0 3 3 0 0 1 6 0Zm10.53 2.65a3 3 0 1 1-6 0 3 3 0 0 1 6 0Zm8.36 3.02a3 3 0 1 1-6 0 3 3 0 0 1 6 0Zm10.94 2.43a3 3 0 1 1-6 0 3 3 0 0 1 6 0Zm10.5 3.36a3 3 0 1 1-6 0 3 3 0 0 1 6 0Zm8.47 2.72a3 3 0 1 1-6 0 3 3 0 0 1 6 0Zm11.1 2.46a3 3 0 1 1-6 0 3 3 0 0 1 6 0Zm10.72 3.15a3 3 0 1 1-6 0 3 3 0 0 1 6 0Zm11.26 3.06a3 3 0 1 1-6 0 3 3 0 0 1 6 0Zm11.62 2.54a3 3 0 1 1-6 0 3 3 0 0 1 6 0Zm10.17 3.74a3 3 0 1 1-6 0 3 3 0 0 1 6 0Zm11.52 3a3 3 0 1 1-6 0 3 3 0 0 1 6 0Zm12.11 2.88a3 3 0 1 1-6 0 3 3 0 0 1 6 0Zm11.99 3.13a3 3 0 1 1-6 0 3 3 0 0 1 6 0Zm11.97 3.05a3 3 0 1 1-6 0 3 3 0 0 1 6 0Zm12.11 3.01a3 3 0 1 1-6 0 3 3 0 0 1 6 0Zm10.85 3.58a3 3 0 1 1-6 0 3 3 0 0 1 6 0Zm12.24 3.37a3 3 0 1 1-6 0 3 3 0 0 1 6 0Zm12.57 3.14a3 3 0 1 1-6 0 3 3 0 0 1 6 0Zm13.39 3.17a3 3 0 1 1-6 0 3 3 0 0 1 6 0Zm11.93 3.89a3 3 0 1 1-6 0 3 3 0 0 1 6 0Zm13.65 3.19a3 3 0 1 1-6 0 3 3 0 0 1 6 0Zm13.82 4.19a3 3 0 1 1-6 0 3 3 0 0 1 6 0Zm13.66 3.22a3 3 0 1 1-6 0 3 3 0 0 1 6 0Zm13.55 3.55a3 3 0 1 1-6 0 3 3 0 0 1 6 0Zm13.63 3.7a3 3 0 1 1-6 0 3 3 0 0 1 6 0Zm14.5 3.32a3 3 0 1 1-6 0 3 3 0 0 1 6 0Zm12.08 1.47a3 3 0 1 1-6 0 3 3 0 0 1 6 0Zm15.1 3.07a3 3 0 1 1-6 0 3 3 0 0 1 6 0Zm14.85 2.49a3 3 0 1 1-6 0 3 3 0 0 1 6 0Zm15.19.99a3 3 0 1 1-6 0 3 3 0 0 1 6 0Zm76.44 10.31a3 3 0 1 1-6 0 3 3 0 0 1 6 0ZM-678.86 130.95a3 3 0 1 1-6 0 3 3 0 0 1 6 0Zm63.82-12.44a3 3 0 1 1-6 0 3 3 0 0 1 6 0Zm105.88 16.51a3 3 0 1 1-6 0 3 3 0 0 1 6 0Zm46.61.39a3 3 0 1 1-6 0 3 3 0 0 1 6 0Zm70.09 8.29a3 3 0 1 1-6 0 3 3 0 0 1 6 0Zm62.96 12.3a3 3 0 1 1-6 0 3 3 0 0 1 6 0Zm64.6 13.12a3 3 0 1 1-6 0 3 3 0 0 1 6 0Zm50.72 8.15a3 3 0 1 1-6 0 3 3 0 0 1 6 0Zm70.59 16.97a3 3 0 1 1-6 0 3 3 0 0 1 6 0Zm44.99 10.06a3 3 0 1 1-6 0 3 3 0 0 1 6 0Zm54.37 11.46a3 3 0 1 1-6 0 3 3 0 0 1 6 0Zm48.21 12.11a3 3 0 1 1-6 0 3 3 0 0 1 6 0Zm43.42 9.96a3 3 0 1 1-6 0 3 3 0 0 1 6 0Zm53.07 18.65a3 3 0 1 1-6 0 3 3 0 0 1 6 0Zm44.86 12.46a3 3 0 1 1-6 0 3 3 0 0 1 6 0Zm48.32 13.36a3 3 0 1 1-6 0 3 3 0 0 1 6 0Zm45.94 14.66a3 3 0 1 1-6 0 3 3 0 0 1 6 0Zm35.11 7.21a3 3 0 1 1-6 0 3 3 0 0 1 6 0Zm37.44 10.63a3 3 0 1 1-6 0 3 3 0 0 1 6 0Zm34.77 9.98a3 3 0 1 1-6 0 3 3 0 0 1 6 0Zm37.23 8.39a3 3 0 1 1-6 0 3 3 0 0 1 6 0Zm31.26 7.6a3 3 0 1 1-6 0 3 3 0 0 1 6 0Zm28.58 7.55a3 3 0 1 1-6 0 3 3 0 0 1 6 0Zm51.89 21.83a3 3 0 1 1-6 0 3 3 0 0 1 6 0Zm26.89 8.32a3 3 0 1 1-6 0 3 3 0 0 1 6 0Zm25.18 6.56a3 3 0 1 1-6 0 3 3 0 0 1 6 0Zm24.07 6.29a3 3 0 1 1-6 0 3 3 0 0 1 6 0Zm21.02 5.35a3 3 0 1 1-6 0 3 3 0 0 1 6 0Zm20.22 5.14a3 3 0 1 1-6 0 3 3 0 0 1 6 0Zm19.52 5.33a3 3 0 1 1-6 0 3 3 0 0 1 6 0Zm15.79 4.56a3 3 0 1 1-6 0 3 3 0 0 1 6 0Zm19.13 4.15a3 3 0 1 1-6 0 3 3 0 0 1 6 0Zm16.71 4.63a3 3 0 1 1-6 0 3 3 0 0 1 6 0Zm15.78 4.72a3 3 0 1 1-6 0 3 3 0 0 1 6 0Zm11.99 2.24a3 3 0 1 1-6 0 3 3 0 0 1 6 0Zm11.97 2.56a3 3 0 1 1-6 0 3 3 0 0 1 6 0Zm11.71 2.91a3 3 0 1 1-6 0 3 3 0 0 1 6 0Zm10.79 2.26a3 3 0 1 1-6 0 3 3 0 0 1 6 0Zm22.46 6.38a3 3 0 1 1-6 0 3 3 0 0 1 6 0Zm11.25 1.98a3 3 0 1 1-6 0 3 3 0 0 1 6 0Zm7.3 1.02a3 3 0 1 1-6 0 3 3 0 0 1 6 0Zm8.05 1.27a3 3 0 1 1-6 0 3 3 0 0 1 6 0Zm7.7 1.12a3 3 0 1 1-6 0 3 3 0 0 1 6 0Zm7.85 1.69a3 3 0 1 1-6 0 3 3 0 0 1 6 0Zm8.64 1.48a3 3 0 1 1-6 0 3 3 0 0 1 6 0Zm8.24 1.99a3 3 0 1 1-6 0 3 3 0 0 1 6 0Zm7.9 1.06a3 3 0 1 1-6 0 3 3 0 0 1 6 0Zm9.59 1.22a3 3 0 1 1-6 0 3 3 0 0 1 6 0Zm8.8 1.56a3 3 0 1 1-6 0 3 3 0 0 1 6 0Zm7.9 1.26a3 3 0 1 1-6 0 3 3 0 0 1 6 0Zm9.02 1.57a3 3 0 1 1-6 0 3 3 0 0 1 6 0Zm8.69 1.27a3 3 0 1 1-6 0 3 3 0 0 1 6 0Zm9.59 1.42a3 3 0 1 1-6 0 3 3 0 0 1 6 0Zm16.18 2.46a3 3 0 1 1-6 0 3 3 0 0 1 6 0Zm10.42 1.53a3 3 0 1 1-6 0 3 3 0 0 1 6 0Zm9.92.91a3 3 0 1 1-6 0 3 3 0 0 1 6 0Z" clip-path="url(#a)"/><path d="M936.64 467.1a3 3 0 1 1-6 0 3 3 0 0 1 6 0Zm10.04.32a3 3 0 1 1-6 0 3 3 0 0 1 6 0Zm9.05-.4a3 3 0 1 1-6 0 3 3 0 0 1 6 0Zm7.97-1.02a3 3 0 1 1-6 0 3 3 0 0 1 6 0Zm6.51-.93a3 3 0 1 1-6 0 3 3 0 0 1 6 0Z" clip-path="url(#a)"/><path d="M974.67 464.1a3 3 0 1 1-6 0 3 3 0 0 1 6 0Z" clip-path="url(#a)"/><path d="M973.6 463.53a3 3 0 1 1-6 0 3 3 0 0 1 6 0ZM-666.08 202.74a3 3 0 1 1-6 0 3 3 0 0 1 6 0Zm310.28 36.4a3 3 0 1 1-6 0 3 3 0 0 1 6 0Zm82.4 11.28a3 3 0 1 1-6 0 3 3 0 0 1 6 0Zm57.65 12.5a3 3 0 1 1-6 0 3 3 0 0 1 6 0Zm47.2 5.38a3 3 0 1 1-6 0 3 3 0 0 1 6 0Zm37.1 8.81a3 3 0 1 1-6 0 3 3 0 0 1 6 0Zm32.78 5.79a3 3 0 1 1-6 0 3 3 0 0 1 6 0Zm32.4 3.46a3 3 0 1 1-6 0 3 3 0 0 1 6 0Zm26.54 2.97a3 3 0 1 1-6 0 3 3 0 0 1 6 0Zm27.17 3.86a3 3 0 1 1-6 0 3 3 0 0 1 6 0Zm24.61 5.91a3 3 0 1 1-6 0 3 3 0 0 1 6 0Zm22.36 5.55a3 3 0 1 1-6 0 3 3 0 0 1 6 0Zm19.12 2.06a3 3 0 1 1-6 0 3 3 0 0 1 6 0Zm22.5 2.99a3 3 0 1 1-6 0 3 3 0 0 1 6 0Zm17.35 2a3 3 0 1 1-6 0 3 3 0 0 1 6 0Zm18.1 7.38a3 3 0 1 1-6 0 3 3 0 0 1 6 0Zm18.95 1.7a3 3 0 1 1-6 0 3 3 0 0 1 6 0Zm15.82 3.96a3 3 0 1 1-6 0 3 3 0 0 1 6 0Zm14.25 3.07a3 3 0 1 1-6 0 3 3 0 0 1 6 0Zm14.22 2.05a3 3 0 1 1-6 0 3 3 0 0 1 6 0Zm17.08 4.19a3 3 0 1 1-6 0 3 3 0 0 1 6 0Zm12.47 1.48a3 3 0 1 1-6 0 3 3 0 0 1 6 0Zm13.03-.91a3 3 0 1 1-6 0 3 3 0 0 1 6 0Zm14.24 7.24a3 3 0 1 1-6 0 3 3 0 0 1 6 0Zm13.68 2.82a3 3 0 1 1-6 0 3 3 0 0 1 6 0Zm12.78 1.97a3 3 0 1 1-6 0 3 3 0 0 1 6 0Zm11.07 2.33a3 3 0 1 1-6 0 3 3 0 0 1 6 0Zm11.61 1.38a3 3 0 1 1-6 0 3 3 0 0 1 6 0Zm11.62-.03a3 3 0 1 1-6 0 3 3 0 0 1 6 0Zm11.39 1.45a3 3 0 1 1-6 0 3 3 0 0 1 6 0Zm10.74 4.7a3 3 0 1 1-6 0 3 3 0 0 1 6 0Zm12.07 1a3 3 0 1 1-6 0 3 3 0 0 1 6 0Zm9.04.83a3 3 0 1 1-6 0 3 3 0 0 1 6 0Zm11.42 2.82a3 3 0 1 1-6 0 3 3 0 0 1 6 0Zm9.29-1.21a3 3 0 1 1-6 0 3 3 0 0 1 6 0Zm6.35.25a3 3 0 1 1-6 0 3 3 0 0 1 6 0Zm9.1.7a3 3 0 1 1-6 0 3 3 0 0 1 6 0Zm10.6 2.65a3 3 0 1 1-6 0 3 3 0 0 1 6 0Zm9.46 2.58a3 3 0 1 1-6 0 3 3 0 0 1 6 0Zm8.51 1.4a3 3 0 1 1-6 0 3 3 0 0 1 6 0Zm7.75-.09a3 3 0 1 1-6 0 3 3 0 0 1 6 0Zm6.84 3.16a3 3 0 1 1-6 0 3 3 0 0 1 6 0Zm8.61 2.82a3 3 0 1 1-6 0 3 3 0 0 1 6 0Zm7.51.68a3 3 0 1 1-6 0 3 3 0 0 1 6 0Zm9.2 1.01a3 3 0 1 1-6 0 3 3 0 0 1 6 0Zm6.32.46a3 3 0 1 1-6 0 3 3 0 0 1 6 0Zm6.96.69a3 3 0 1 1-6 0 3 3 0 0 1 6 0Zm7.03.27a3 3 0 1 1-6 0 3 3 0 0 1 6 0Z" clip-path="url(#a)"/><path d="M466.34 378.42a3 3 0 1 1-6 0 3 3 0 0 1 6 0Zm6.52 2.82a3 3 0 1 1-6 0 3 3 0 0 1 6 0Z" clip-path="url(#a)"/><path d="M477.36 382.07a3 3 0 1 1-6 0 3 3 0 0 1 6 0Zm6.53.27a3 3 0 1 1-6 0 3 3 0 0 1 6 0Z" clip-path="url(#a)"/><path d="M488.62 383.59a3 3 0 1 1-6 0 3 3 0 0 1 6 0Zm6.38 3.07a3 3 0 1 1-6 0 3 3 0 0 1 6 0Z" clip-path="url(#a)"/><path d="M500.17 386.2a3 3 0 1 1-6 0 3 3 0 0 1 6 0Zm7.67-1.47a3 3 0 1 1-6 0 3 3 0 0 1 6 0Z" clip-path="url(#a)"/><path d="M512.72 386.21a3 3 0 1 1-6 0 3 3 0 0 1 6 0Z" clip-path="url(#a)"/><path d="M518.6 388.08a3 3 0 1 1-6 0 3 3 0 0 1 6 0Zm6.56 2.99a3 3 0 1 1-6 0 3 3 0 0 1 6 0Z" clip-path="url(#a)"/><path d="M529.43 388.85a3 3 0 1 1-6 0 3 3 0 0 1 6 0Z" clip-path="url(#a)"/><path d="M534.9 391.39a3 3 0 1 1-6 0 3 3 0 0 1 6 0Z" clip-path="url(#a)"/><path d="M540.77 391.94a3 3 0 1 1-6 0 3 3 0 0 1 6 0Zm7.54 2.13a3 3 0 1 1-6 0 3 3 0 0 1 6 0Z" clip-path="url(#a)"/><path d="M553 394.56a3 3 0 1 1-6 0 3 3 0 0 1 6 0Z" clip-path="url(#a)"/><path d="M557.87 396.4a3 3 0 1 1-6 0 3 3 0 0 1 6 0Z" clip-path="url(#a)"/><path d="M560.82 394.81a3 3 0 1 1-6 0 3 3 0 0 1 6 0Zm6.97 2.95a3 3 0 1 1-6 0 3 3 0 0 1 6 0Z" clip-path="url(#a)"/><path d="M571.2 396.28a3 3 0 1 1-6 0 3 3 0 0 1 6 0Z" clip-path="url(#a)"/><path d="M575.54 394.93a3 3 0 1 1-6 0 3 3 0 0 1 6 0Zm6.46 4.51a3 3 0 1 1-6 0 3 3 0 0 1 6 0Z" clip-path="url(#a)"/><path d="M586.58 397.7a3 3 0 1 1-6 0 3 3 0 0 1 6 0Z" clip-path="url(#a)"/><path d="M591.59 400.74a3 3 0 1 1-6 0 3 3 0 0 1 6 0Z" clip-path="url(#a)"/><path d="M597.14 400.98a3 3 0 1 1-6 0 3 3 0 0 1 6 0Z" clip-path="url(#a)"/><path d="M602.52 403.05a3 3 0 1 1-6 0 3 3 0 0 1 6 0Zm7.03 1.7a3 3 0 1 1-6 0 3 3 0 0 1 6 0Z" clip-path="url(#a)"/><path d="M612.83 403.35a3 3 0 1 1-6 0 3 3 0 0 1 6 0Zm14.57 2.41a3 3 0 1 1-6 0 3 3 0 0 1 6 0Zm12.66.71a3 3 0 1 1-6 0 3 3 0 0 1 6 0Zm13.18.94a3 3 0 1 1-6 0 3 3 0 0 1 6 0Zm12.8 2.48a3 3 0 1 1-6 0 3 3 0 0 1 6 0Zm13.92-1.88a3 3 0 1 1-6 0 3 3 0 0 1 6 0Zm11.81 2.25a3 3 0 1 1-6 0 3 3 0 0 1 6 0Zm14.43 7.6a3 3 0 1 1-6 0 3 3 0 0 1 6 0Zm10.05-5.91a3 3 0 1 1-6 0 3 3 0 0 1 6 0Zm15.61 8.46a3 3 0 1 1-6 0 3 3 0 0 1 6 0Zm12.88 2.52a3 3 0 1 1-6 0 3 3 0 0 1 6 0Zm13.49.55a3 3 0 1 1-6 0 3 3 0 0 1 6 0Zm14.08 4.29a3 3 0 1 1-6 0 3 3 0 0 1 6 0Zm13.38.62a3 3 0 1 1-6 0 3 3 0 0 1 6 0Zm12.67 1.98a3 3 0 1 1-6 0 3 3 0 0 1 6 0Zm14.09 2.23a3 3 0 1 1-6 0 3 3 0 0 1 6 0Zm11.18-.27a3 3 0 1 1-6 0 3 3 0 0 1 6 0Zm11.26.6a3 3 0 1 1-6 0 3 3 0 0 1 6 0Zm13.16 3.7a3 3 0 1 1-6 0 3 3 0 0 1 6 0Zm9.41-.85a3 3 0 1 1-6 0 3 3 0 0 1 6 0Zm10.19 1.22a3 3 0 1 1-6 0 3 3 0 0 1 6 0Zm8.84-.37a3 3 0 1 1-6 0 3 3 0 0 1 6 0Zm7.29.86a3 3 0 1 1-6 0 3 3 0 0 1 6 0Zm6.25 1.14a3 3 0 1 1-6 0 3 3 0 0 1 6 0Z" clip-path="url(#a)"/><path d="M894.07 438.97a3 3 0 1 1-6 0 3 3 0 0 1 6 0Z" clip-path="url(#a)"/><path d="M894.26 438.49a3 3 0 1 1-6 0 3 3 0 0 1 6 0ZM-1985.31-458.9a3 3 0 1 1-6 0 3 3 0 0 1 6 0Zm747.44 823.36a3 3 0 1 1-6 0 3 3 0 0 1 6 0Zm57.13 77.32a3 3 0 1 1-6 0 3 3 0 0 1 6 0Zm55.91-47.83a3 3 0 1 1-6 0 3 3 0 0 1 6 0Zm94.55-44.05a3 3 0 1 1-6 0 3 3 0 0 1 6 0Zm101.5-13.77a3 3 0 1 1-6 0 3 3 0 0 1 6 0Zm124.58-13.73a3 3 0 1 1-6 0 3 3 0 0 1 6 0Zm107.52-3.51a3 3 0 1 1-6 0 3 3 0 0 1 6 0Zm100.59-7.48a3 3 0 1 1-6 0 3 3 0 0 1 6 0Zm95.23-5.35a3 3 0 1 1-6 0 3 3 0 0 1 6 0Zm82.76 11.74a3 3 0 1 1-6 0 3 3 0 0 1 6 0Zm78.22.58a3 3 0 1 1-6 0 3 3 0 0 1 6 0Zm77.72 10a3 3 0 1 1-6 0 3 3 0 0 1 6 0Zm55.26.42a3 3 0 1 1-6 0 3 3 0 0 1 6 0Zm68.58 6.2a3 3 0 1 1-6 0 3 3 0 0 1 6 0Zm48.32 9.89a3 3 0 1 1-6 0 3 3 0 0 1 6 0Zm46.62 6.57a3 3 0 1 1-6 0 3 3 0 0 1 6 0ZM-3 357.7a3 3 0 1 1-6 0 3 3 0 0 1 6 0Zm32.43 3.75a3 3 0 1 1-6 0 3 3 0 0 1 6 0Zm42.62 2.76a3 3 0 1 1-6 0 3 3 0 0 1 6 0Zm29.92-.71a3 3 0 1 1-6 0 3 3 0 0 1 6 0Zm26.98 4.12a3 3 0 1 1-6 0 3 3 0 0 1 6 0Zm22.03 2.51a3 3 0 1 1-6 0 3 3 0 0 1 6 0Zm37.75-1.23a3 3 0 1 1-6 0 3 3 0 0 1 6 0Zm22.72 2.05a3 3 0 1 1-6 0 3 3 0 0 1 6 0Zm18.88 2.25a3 3 0 1 1-6 0 3 3 0 0 1 6 0Zm23.83 2.5a3 3 0 1 1-6 0 3 3 0 0 1 6 0Zm19.73 3.5a3 3 0 1 1-6 0 3 3 0 0 1 6 0Zm10.25.09a3 3 0 1 1-6 0 3 3 0 0 1 6 0Zm18.44-.15a3 3 0 1 1-6 0 3 3 0 0 1 6 0Zm18.82 2.94a3 3 0 1 1-6 0 3 3 0 0 1 6 0Zm13.71 1.16a3 3 0 1 1-6 0 3 3 0 0 1 6 0Zm19.04.6a3 3 0 1 1-6 0 3 3 0 0 1 6 0Zm10.63 3.65a3 3 0 1 1-6 0 3 3 0 0 1 6 0Zm13.8 1.94a3 3 0 1 1-6 0 3 3 0 0 1 6 0Zm13.12.87a3 3 0 1 1-6 0 3 3 0 0 1 6 0Z" clip-path="url(#a)"/><path d="M396.88 391.12a3 3 0 1 1-6 0 3 3 0 0 1 6 0Zm13.62 1.32a3 3 0 1 1-6 0 3 3 0 0 1 6 0Zm11.81 1.66a3 3 0 1 1-6 0 3 3 0 0 1 6 0Zm6.44-1.67a3 3 0 1 1-6 0 3 3 0 0 1 6 0Zm11.88 1.87a3 3 0 1 1-6 0 3 3 0 0 1 6 0Zm6.8 1.82a3 3 0 1 1-6 0 3 3 0 0 1 6 0Z" clip-path="url(#a)"/><path d="M450.55 396.93a3 3 0 1 1-6 0 3 3 0 0 1 6 0Zm15.79.07a3 3 0 1 1-6 0 3 3 0 0 1 6 0Z" clip-path="url(#a)"/><path d="M470.63 397.52a3 3 0 1 1-6 0 3 3 0 0 1 6 0Zm12.32 1.93a3 3 0 1 1-6 0 3 3 0 0 1 6 0Z" clip-path="url(#a)"/><path d="M485.23 400.23a3 3 0 1 1-6 0 3 3 0 0 1 6 0Z" clip-path="url(#a)"/><path d="M490.78 400.69a3 3 0 1 1-6 0 3 3 0 0 1 6 0Zm19.3-1.37a3 3 0 1 1-6 0 3 3 0 0 1 6 0Z" clip-path="url(#a)"/><path d="M511.63 399.98a3 3 0 1 1-6 0 3 3 0 0 1 6 0Z" clip-path="url(#a)"/><path d="M513.26 400.53a3 3 0 1 1-6 0 3 3 0 0 1 6 0Zm10.24 1.77a3 3 0 1 1-6 0 3 3 0 0 1 6 0Z" clip-path="url(#a)"/><path d="M529.23 402.93a3 3 0 1 1-6 0 3 3 0 0 1 6 0Z" clip-path="url(#a)"/><path d="M531.8 403.61a3 3 0 1 1-6 0 3 3 0 0 1 6 0Zm6.93.57a3 3 0 1 1-6 0 3 3 0 0 1 6 0Z" clip-path="url(#a)"/><path d="M542 404.95a3 3 0 1 1-6 0 3 3 0 0 1 6 0Zm6.93.65a3 3 0 1 1-6 0 3 3 0 0 1 6 0Zm11.87.04a3 3 0 1 1-6 0 3 3 0 0 1 6 0Z" clip-path="url(#a)"/><path d="M563.18 406.42a3 3 0 1 1-6 0 3 3 0 0 1 6 0Z" clip-path="url(#a)"/><path d="M566.82 407.39a3 3 0 1 1-6 0 3 3 0 0 1 6 0Zm11.6.68a3 3 0 1 1-6 0 3 3 0 0 1 6 0Z" clip-path="url(#a)"/><path d="M582.18 408.74a3 3 0 1 1-6 0 3 3 0 0 1 6 0Z" clip-path="url(#a)"/><path d="M586.52 409.48a3 3 0 1 1-6 0 3 3 0 0 1 6 0Zm6.58 2.09a3 3 0 1 1-6 0 3 3 0 0 1 6 0Zm10.08.19a3 3 0 1 1-6 0 3 3 0 0 1 6 0Z" clip-path="url(#a)"/><path d="M608.92 412.9a3 3 0 1 1-6 0 3 3 0 0 1 6 0Zm7.37-.95a3 3 0 1 1-6 0 3 3 0 0 1 6 0Zm8.31 1.01a3 3 0 1 1-6 0 3 3 0 0 1 6 0Zm6.52 1.06a3 3 0 1 1-6 0 3 3 0 0 1 6 0Zm7.24 1.81a3 3 0 1 1-6 0 3 3 0 0 1 6 0Zm10.31.62a3 3 0 1 1-6 0 3 3 0 0 1 6 0Z" clip-path="url(#a)"/><path d="M652.3 417.48a3 3 0 1 1-6 0 3 3 0 0 1 6 0Zm7.76 1.93a3 3 0 1 1-6 0 3 3 0 0 1 6 0Zm11.34.23a3 3 0 1 1-6 0 3 3 0 0 1 6 0Z" clip-path="url(#a)"/><path d="M673.99 420.6a3 3 0 1 1-6 0 3 3 0 0 1 6 0Zm13.79.03a3 3 0 1 1-6 0 3 3 0 0 1 6 0Zm7.99 1.69a3 3 0 1 1-6 0 3 3 0 0 1 6 0Z" clip-path="url(#a)"/><path d="M701.67 423.64a3 3 0 1 1-6 0 3 3 0 0 1 6 0Z" clip-path="url(#a)"/><path d="M706.2 425.1a3 3 0 1 1-6 0 3 3 0 0 1 6 0Zm10.6 1.12a3 3 0 1 1-6 0 3 3 0 0 1 6 0Zm7.84 1.28a3 3 0 1 1-6 0 3 3 0 0 1 6 0Zm8.59 1.23a3 3 0 1 1-6 0 3 3 0 0 1 6 0Zm9.36 1.43a3 3 0 1 1-6 0 3 3 0 0 1 6 0Zm8.21.96a3 3 0 1 1-6 0 3 3 0 0 1 6 0Zm8.5 1.66a3 3 0 1 1-6 0 3 3 0 0 1 6 0Zm11.02 1.35a3 3 0 1 1-6 0 3 3 0 0 1 6 0Zm8.1 1.81a3 3 0 1 1-6 0 3 3 0 0 1 6 0Zm9.18 1.67a3 3 0 1 1-6 0 3 3 0 0 1 6 0Zm8.32 1.58a3 3 0 1 1-6 0 3 3 0 0 1 6 0Zm15.49 1.73a3 3 0 1 1-6 0 3 3 0 0 1 6 0Zm10.08 1.28a3 3 0 1 1-6 0 3 3 0 0 1 6 0Zm9.26 1.28a3 3 0 1 1-6 0 3 3 0 0 1 6 0Zm12.86.99a3 3 0 1 1-6 0 3 3 0 0 1 6 0Zm13.34.87a3 3 0 1 1-6 0 3 3 0 0 1 6 0Zm11.07.18a3 3 0 1 1-6 0 3 3 0 0 1 6 0Zm15.58-.91a3 3 0 1 1-6 0 3 3 0 0 1 6 0Zm11.18-1.25a3 3 0 1 1-6 0 3 3 0 0 1 6 0Zm10.92-2.82a3 3 0 1 1-6 0 3 3 0 0 1 6 0Zm9.46-2.95a3 3 0 1 1-6 0 3 3 0 0 1 6 0Z" clip-path="url(#a)"/><path d="M919.18 436.1a3 3 0 1 1-6 0 3 3 0 0 1 6 0Z" clip-path="url(#a)"/><path fill="#000" d="m344.5 525.2 3.3-8.6h1.22l3.52 8.6h-1.28l-1.02-2.6h-3.58l-.95 2.6h-1.2Zm2.49-3.53h2.9l-.88-2.38q-.43-1.07-.61-1.78-.18.83-.47 1.64l-.94 2.52Zm7.05 3.53-2.36-6.22h1.1l1.35 3.72.4 1.25q.13-.48.38-1.17l1.4-3.8h1.07l-2.36 6.22h-.98Zm7.53-2 1.1.13q-.26.95-.96 1.48t-1.78.53q-1.36 0-2.17-.84-.8-.85-.8-2.36 0-1.56.81-2.42.81-.88 2.1-.88 1.24 0 2.03.84.8.85.8 2.4v.28h-4.65q.06 1.03.58 1.57t1.3.54q.58 0 .98-.3.42-.31.66-.97Zm-3.46-1.7h3.47q-.06-.8-.39-1.2-.51-.6-1.31-.6-.73 0-1.23.48-.49.49-.54 1.32Zm6.2 3.7v-6.22h.95v.94q.35-.66.65-.86.31-.22.69-.22.53 0 1.08.33l-.36.98q-.4-.23-.77-.23-.36 0-.64.22-.26.2-.37.58-.2.56-.2 1.21v3.27h-1.04Zm8.07-.77q-.6.5-1.14.7-.53.21-1.16.21-1.03 0-1.57-.5-.55-.5-.55-1.28 0-.45.2-.83.2-.39.55-.6.34-.24.76-.35.3-.1.94-.17 1.27-.14 1.88-.36v-.27q0-.65-.3-.92-.4-.34-1.2-.34-.74 0-1.1.26-.36.25-.53.9l-1.03-.13q.14-.66.47-1.07.33-.4.94-.62.6-.22 1.4-.22.8 0 1.3.19t.73.47q.24.28.33.72.05.26.05.96v1.41q0 1.47.06 1.86.08.4.28.75h-1.1q-.16-.33-.2-.77Zm-.1-2.35q-.57.23-1.71.4-.66.1-.92.22-.27.1-.43.33-.14.22-.14.5 0 .42.32.7.32.28.93.28.61 0 1.08-.26.49-.27.7-.74.18-.36.18-1.04v-.4Zm2.83 3.64 1.04.15q.06.47.36.69.39.3 1.06.3.73 0 1.12-.3.4-.3.55-.81.1-.33.08-1.36-.69.81-1.72.81-1.28 0-1.99-.92-.7-.94-.7-2.22 0-.9.31-1.64.33-.77.94-1.17.61-.4 1.44-.4 1.1 0 1.83.88v-.75h.97v5.38q0 1.45-.3 2.06-.3.6-.94.95-.64.36-1.58.36-1.1 0-1.8-.5-.68-.5-.67-1.51Zm.88-3.74q0 1.22.48 1.78.49.57 1.22.57.74 0 1.22-.57.5-.56.5-1.75 0-1.14-.51-1.72-.5-.57-1.22-.57-.7 0-1.2.57-.49.57-.49 1.7Zm10.58 1.22 1.1.13q-.26.95-.96 1.48t-1.78.53q-1.36 0-2.17-.84-.8-.85-.8-2.36 0-1.56.81-2.42.81-.88 2.1-.88 1.24 0 2.03.84.8.85.8 2.4v.28h-4.65q.06 1.03.58 1.57t1.3.54q.58 0 .98-.3.42-.31.66-.97Zm-3.46-1.7h3.47q-.06-.8-.39-1.2-.51-.6-1.31-.6-.73 0-1.23.48-.49.49-.54 1.32Zm8.96.93 1.06-.09q.08.66.36 1.06.28.4.86.68.6.25 1.33.25.64 0 1.14-.2.5-.2.73-.52.25-.35.25-.74 0-.4-.23-.7-.24-.31-.77-.52-.36-.14-1.54-.42-1.18-.28-1.65-.53-.62-.33-.92-.8-.3-.48-.3-1.07 0-.65.37-1.2.37-.59 1.07-.87.72-.3 1.58-.3.95 0 1.69.32.73.3 1.12.9.4.6.43 1.35l-1.1.08q-.1-.82-.6-1.22-.5-.42-1.5-.42-1.02 0-1.5.37-.46.38-.46.9 0 .48.33.77.33.3 1.7.61 1.4.31 1.9.55.76.36 1.12.89.36.52.36 1.22 0 .69-.4 1.3-.39.59-1.12.93-.73.33-1.66.33-1.17 0-1.96-.33-.79-.34-1.24-1.03-.44-.69-.45-1.55Zm8 0 1.06-.09q.08.66.36 1.06.28.4.86.68.6.25 1.33.25.64 0 1.14-.2.5-.2.73-.52.25-.35.25-.74 0-.4-.23-.7-.24-.31-.77-.52-.36-.14-1.54-.42-1.18-.28-1.65-.53-.62-.33-.92-.8-.3-.48-.3-1.07 0-.65.37-1.2.37-.59 1.07-.87.72-.3 1.58-.3.95 0 1.69.32.73.3 1.12.9.4.6.43 1.35l-1.1.08q-.1-.82-.6-1.22-.5-.42-1.5-.42-1.02 0-1.5.37-.46.38-.46.9 0 .48.33.77.33.3 1.7.61 1.4.31 1.9.55.76.36 1.12.89.36.52.36 1.22 0 .69-.4 1.3-.39.59-1.12.93-.73.33-1.66.33-1.17 0-1.96-.33-.79-.34-1.24-1.03-.44-.69-.45-1.55Zm8.58 2.77v-8.6h1.12v8.6h-1.12Zm2.76 0v-8.6h1.72l2.03 6.08q.28.86.4 1.29l.46-1.38 2.06-5.98h1.53v8.59h-1.09v-7.19l-2.5 7.19H415l-2.48-7.31v7.31h-1.1Zm14.67-8.6h1.14v4.98q0 1.3-.3 2.06-.29.75-1.06 1.23-.76.47-2 .47-1.2 0-1.98-.4-.77-.43-1.1-1.2-.32-.8-.32-2.16v-4.97h1.14v4.95q0 1.12.2 1.66.22.53.72.82.52.29 1.25.29 1.25 0 1.78-.57.53-.58.53-2.2v-4.95Zm3.32 8.6v-8.6h1.14v7.58h4.23v1.02h-5.37Zm6.1 0 3.3-8.6h1.22l3.52 8.6h-1.28l-1.02-2.6h-3.58l-.95 2.6h-1.2Zm2.49-3.53h2.9l-.88-2.38q-.43-1.07-.61-1.78-.18.83-.47 1.64l-.94 2.52Zm11.6.51 1.12.3q-.36 1.4-1.28 2.13t-2.27.73q-1.39 0-2.26-.56-.88-.56-1.33-1.63-.46-1.07-.46-2.3 0-1.35.52-2.35t1.45-1.52q.96-.51 2.1-.51 1.28 0 2.15.65.9.66 1.24 1.85l-1.13.26q-.3-.94-.87-1.36-.56-.44-1.42-.44-.99 0-1.66.49-.66.47-.94 1.26-.26.8-.26 1.66 0 1.1.3 1.9.34.82 1 1.23.68.4 1.48.4.95 0 1.6-.54.68-.55.91-1.65Zm2.87 3.02v-8.6h3.81q1.16 0 1.75.24.6.24.95.83.36.58.36 1.28 0 .92-.59 1.55-.6.62-1.83.8.45.21.69.42.5.45.94 1.14l1.5 2.34h-1.44l-1.13-1.78q-.5-.78-.82-1.19-.32-.4-.58-.56-.25-.17-.52-.25-.19-.03-.62-.03h-1.33v3.81h-1.14Zm1.14-4.8h2.45q.77 0 1.2-.15.46-.17.68-.52.23-.36.23-.78 0-.6-.45-1-.44-.4-1.4-.4h-2.71v2.85Zm6.9 4.8 3.3-8.6h1.22l3.52 8.6h-1.28l-1.02-2.6h-3.58l-.95 2.6h-1.2Zm2.49-3.53h2.9l-.88-2.38q-.43-1.07-.61-1.78-.18.83-.47 1.64l-.94 2.52Zm10.58 2.51v1.02h-5.69q0-.38.13-.73.21-.58.68-1.14.49-.57 1.4-1.3 1.4-1.16 1.88-1.83.5-.67.5-1.27 0-.62-.45-1.04-.45-.44-1.17-.44-.77 0-1.22.45-.45.46-.47 1.27l-1.08-.11q.11-1.22.83-1.84.74-.64 1.97-.64t1.95.68q.72.69.72 1.7 0 .52-.22 1.02-.2.49-.7 1.05-.48.55-1.6 1.5-.96.8-1.24 1.1-.27.27-.44.55h4.22Zm4.5-1.75 1.06-.09q.08.66.36 1.06.28.4.86.68.6.25 1.33.25.64 0 1.14-.2.5-.2.73-.52.25-.35.25-.74 0-.4-.23-.7-.24-.31-.77-.52-.36-.14-1.54-.42-1.18-.28-1.65-.53-.62-.33-.92-.8-.3-.48-.3-1.07 0-.65.37-1.2.37-.59 1.07-.87.72-.3 1.58-.3.95 0 1.69.32.73.3 1.12.9.4.6.43 1.35l-1.1.08q-.1-.82-.6-1.22-.5-.42-1.5-.42-1.02 0-1.5.37-.46.38-.46.9 0 .48.33.77.33.3 1.7.61 1.4.31 1.9.55.76.36 1.12.89.36.52.36 1.22 0 .69-.4 1.3-.39.59-1.12.93-.73.33-1.66.33-1.17 0-1.96-.33-.79-.34-1.24-1.03-.44-.69-.45-1.55Zm12.31.49 1.03.14q-.17 1.06-.87 1.67-.7.61-1.72.61-1.28 0-2.06-.83-.77-.84-.77-2.4 0-1 .33-1.75.34-.77 1.01-1.14.7-.38 1.5-.38 1 0 1.64.52.66.5.85 1.45l-1.03.16q-.14-.63-.52-.94-.37-.33-.9-.33-.8 0-1.3.58-.5.56-.5 1.8 0 1.26.48 1.82.49.57 1.25.57.63 0 1.03-.38.43-.37.55-1.17Zm1.55-.83q0-1.73.95-2.56.8-.69 1.95-.69 1.28 0 2.1.84.83.83.83 2.32 0 1.2-.36 1.89t-1.07 1.08q-.68.37-1.5.37-1.3 0-2.1-.83-.8-.84-.8-2.42Zm1.08 0q0 1.19.51 1.78.53.6 1.31.6.8 0 1.32-.6.51-.6.51-1.81 0-1.16-.53-1.75-.52-.6-1.3-.6t-1.3.6q-.52.58-.52 1.78Zm6.3 3.11v-6.22h.95v.94q.35-.66.65-.86.31-.22.69-.22.53 0 1.08.33l-.36.98q-.4-.23-.77-.23-.36 0-.64.22-.26.2-.37.58-.2.56-.2 1.21v3.27h-1.04Zm8.26-2 1.1.13q-.26.95-.96 1.48t-1.78.53q-1.36 0-2.17-.84-.8-.85-.8-2.36 0-1.56.81-2.42.81-.88 2.1-.88 1.24 0 2.03.84.8.85.8 2.4v.28h-4.65q.06 1.03.58 1.57t1.3.54q.58 0 .98-.3.42-.31.66-.97Zm-3.46-1.7h3.47q-.06-.8-.39-1.2-.51-.6-1.31-.6-.73 0-1.23.48-.49.49-.54 1.32ZM36.03 346.47l-.09-1.06q.66-.08 1.06-.36.4-.28.68-.86.25-.6.25-1.33 0-.64-.2-1.14-.2-.5-.52-.73-.35-.25-.74-.25-.4 0-.7.23-.31.23-.52.77-.14.35-.42 1.54-.28 1.17-.53 1.64-.33.63-.8.92-.48.3-1.07.3-.65 0-1.2-.36-.59-.37-.87-1.08-.3-.71-.3-1.57 0-.96.32-1.7.3-.73.9-1.12.6-.39 1.35-.42l.08 1.1q-.82.09-1.22.6-.42.5-.42 1.49 0 1.03.37 1.5.38.47.9.47.48 0 .77-.33.3-.33.61-1.7.31-1.4.55-1.91.36-.75.89-1.1.52-.37 1.22-.37.69 0 1.3.4.59.38.93 1.12.33.73.33 1.65 0 1.18-.33 1.97-.34.78-1.03 1.24-.69.43-1.55.45Zm1.83-10.55.92-.15q.1.45.1.8 0 .57-.17.88-.2.32-.49.46-.3.12-1.25.12H33.4v.77h-.8v-.77h-1.56l-.62-1.04h2.17v-1.07h.81V337h3.64q.46 0 .58-.05.13-.06.2-.19.08-.12.08-.36 0-.19-.03-.47Zm.17-4.76q.5.6.7 1.14.21.53.21 1.15 0 1.04-.5 1.58-.5.55-1.28.55-.45 0-.83-.2-.39-.2-.6-.55-.24-.34-.35-.77-.1-.3-.17-.93-.14-1.27-.36-1.88h-.27q-.65 0-.92.3-.34.4-.34 1.2 0 .74.26 1.1.25.35.9.53l-.13 1.03q-.66-.14-1.07-.47-.4-.33-.62-.94-.22-.6-.22-1.4 0-.8.19-1.3t.47-.74q.28-.23.72-.32.26-.05.96-.05h1.41q1.47 0 1.86-.06.4-.08.75-.29v1.11q-.33.16-.77.2Zm-2.35.1q.23.57.4 1.71.1.66.22.92.1.27.33.42.22.14.5.14.42 0 .7-.3.28-.34.28-.95 0-.6-.26-1.07-.27-.49-.74-.7-.36-.18-1.04-.18h-.4Zm3.12-3.04h-6.22v-.94h.88q-1.02-.69-1.02-1.98 0-.56.2-1.03.2-.49.54-.72.32-.24.76-.33.3-.05 1.03-.05h3.83v1.05h-3.78q-.66 0-.97.12-.31.13-.5.44-.2.31-.2.74 0 .67.43 1.17.43.48 1.61.48h3.41v1.05Zm0-11.03h-.78q.92.6.92 1.73 0 .75-.4 1.38-.43.62-1.16.97-.74.34-1.69.34-.92 0-1.69-.31-.76-.31-1.15-.94-.4-.62-.4-1.39 0-.56.23-1 .23-.44.6-.72h-3.07v-1.05h8.59v.99Zm-3.1 3.33q1.2 0 1.79-.5.58-.5.58-1.2 0-.68-.57-1.16-.56-.49-1.72-.49-1.28 0-1.87.5-.6.49-.6 1.2 0 .7.58 1.18.57.47 1.8.47Zm2.33-10.36q.5.6.7 1.14.21.53.21 1.15 0 1.04-.5 1.58-.5.55-1.28.55-.45 0-.83-.2-.39-.2-.6-.55-.24-.34-.35-.77-.1-.3-.17-.93-.14-1.27-.36-1.88h-.27q-.65 0-.92.3-.34.4-.34 1.2 0 .74.26 1.1.25.35.9.53l-.13 1.03q-.66-.14-1.07-.47-.4-.33-.62-.94-.22-.6-.22-1.4 0-.8.19-1.3t.47-.74q.28-.23.72-.32.26-.05.96-.05h1.41q1.47 0 1.86-.06.4-.08.75-.29v1.11q-.33.16-.77.2Zm-2.35.1q.23.57.4 1.71.1.66.22.92.1.27.33.42.22.14.5.14.42 0 .7-.3.28-.34.28-.95 0-.6-.26-1.07-.27-.49-.74-.7-.36-.18-1.04-.18h-.4Zm3.12-3.02h-6.22v-.96h.94q-.66-.36-.86-.65-.22-.32-.22-.7 0-.52.33-1.07l.98.36q-.23.39-.23.77 0 .35.22.64.2.26.58.37.56.19 1.21.19h3.27v1.05Zm0-8.05h-.78q.92.6.92 1.73 0 .75-.4 1.38-.43.62-1.16.97-.74.34-1.69.34-.92 0-1.69-.31-.76-.31-1.15-.94-.4-.62-.4-1.39 0-.56.23-1 .23-.44.6-.72h-3.07v-1.05h8.59v.99Zm-3.1 3.33q1.2 0 1.79-.5.58-.5.58-1.2 0-.68-.57-1.16-.56-.49-1.72-.49-1.28 0-1.87.5-.6.49-.6 1.2 0 .7.58 1.18.57.47 1.8.47Zm3.1-9.43h-8.6v-2.96q0-1 .13-1.54.17-.73.61-1.25.58-.68 1.49-1.01.89-.34 2.03-.34.98 0 1.73.23.75.22 1.25.58t.78.8q.28.42.44 1.01.14.6.14 1.38v3.1Zm-1.02-1.14v-1.82q0-.86-.15-1.35-.16-.48-.45-.76-.4-.41-1.08-.63-.7-.23-1.66-.23-1.34 0-2.06.45-.74.44-.99 1.06-.17.47-.17 1.47v1.81h6.56Zm-.98-11.98.13-1.1q.95.26 1.48.96t.53 1.78q0 1.36-.84 2.17-.85.8-2.36.8-1.56 0-2.42-.81-.88-.82-.88-2.1 0-1.25.84-2.03.85-.8 2.4-.8h.28v4.65q1.03-.07 1.57-.58.54-.52.54-1.3 0-.58-.3-.98-.31-.43-.97-.66Zm-1.7 3.45v-3.47q-.8.07-1.2.4-.6.51-.6 1.3 0 .74.48 1.24.49.49 1.32.53Zm3.7-7.92-6.22 2.36v-1.1l3.72-1.35 1.25-.4q-.48-.13-1.17-.38l-3.8-1.4v-1.07l6.22 2.36v.98Zm-7.37-3.28H30.2v-1.06h1.22v1.06Zm7.37 0h-6.22v-1.06h6.22v1.06Zm-.77-7.06q.5.6.7 1.14.21.53.21 1.15 0 1.04-.5 1.58-.5.55-1.28.55-.45 0-.83-.2-.39-.2-.6-.55-.24-.34-.35-.77-.1-.3-.17-.93-.14-1.27-.36-1.88h-.27q-.65 0-.92.3-.34.4-.34 1.2 0 .74.26 1.1.25.35.9.53l-.13 1.03q-.66-.14-1.07-.47-.4-.33-.62-.94-.22-.6-.22-1.4 0-.8.19-1.3t.47-.74q.28-.23.72-.32.26-.05.96-.05h1.41q1.47 0 1.86-.06.4-.08.75-.29v1.11q-.33.16-.77.2Zm-2.35.1q.23.57.4 1.71.1.66.22.92.1.27.33.42.22.14.5.14.42 0 .7-.3.28-.34.28-.95 0-.6-.26-1.07-.27-.49-.74-.7-.36-.18-1.04-.18h-.4Zm2.18-5.34.92-.15q.1.45.1.8 0 .57-.17.88-.2.32-.49.46-.3.12-1.25.12H33.4v.77h-.8v-.77h-1.56l-.62-1.04h2.17v-1.07h.81V261h3.64q.46 0 .58-.05.13-.06.2-.19.08-.12.08-.36 0-.19-.03-.47Zm-6.43-.7H30.2v-1.06h1.22v1.06Zm7.37 0h-6.22v-1.06h6.22v1.06Zm-3.1-2.61q-1.74 0-2.57-.95-.69-.8-.69-1.96 0-1.28.84-2.09.83-.83 2.32-.83 1.2 0 1.89.36t1.08 1.06q.37.7.37 1.5 0 1.3-.83 2.11-.84.8-2.42.8Zm0-1.08q1.18 0 1.77-.51.6-.53.6-1.32 0-.8-.6-1.3-.6-.52-1.81-.52-1.16 0-1.75.53-.6.51-.6 1.3 0 .78.6 1.3.58.52 1.78.52Zm3.1-6.31h-6.22v-.94h.88q-1.02-.69-1.02-1.98 0-.56.2-1.03.2-.49.54-.72.32-.24.76-.33.3-.05 1.03-.05h3.83v1.05h-3.78q-.66 0-.97.12-.31.13-.5.44-.2.31-.2.74 0 .67.43 1.17.43.48 1.61.48h3.41v1.05Zm35.5 226.75q0-1.54.31-2.46.31-.94.92-1.44.63-.5 1.57-.5.68 0 1.2.29.53.28.88.8.34.52.53 1.27.18.75.18 2.04 0 1.51-.3 2.43-.3.93-.93 1.44-.61.5-1.56.5-1.24 0-1.96-.89-.84-1.06-.84-3.48Zm1.08 0q0 2.1.5 2.8.5.71 1.22.71.73 0 1.22-.7.5-.7.5-2.81 0-2.13-.5-2.82-.49-.7-1.24-.7-.72 0-1.16.6-.54.8-.54 2.92ZM74.3 384.1l1.1-.09q.13.82.57 1.22.45.41 1.1.41.75 0 1.28-.58t.53-1.51q0-.91-.52-1.43-.5-.53-1.33-.53-.5 0-.92.24-.4.23-.64.6l-.98-.13.83-4.41h4.28v1h-3.44l-.45 2.31q.76-.54 1.6-.54 1.13 0 1.9.78.78.78.78 2.01 0 1.16-.67 2.02-.83 1.03-2.25 1.03-1.18 0-1.93-.66-.73-.65-.84-1.73Zm-3.03-91.58h-1.05v-6.72q-.39.36-1.01.73-.61.36-1.1.53v-1.01q.88-.42 1.53-1 .68-.6.96-1.16h.67v8.63Zm3.03-4.24q0-1.53.31-2.45.31-.94.92-1.44.63-.5 1.57-.5.68 0 1.2.28.53.28.88.82.34.51.53 1.26.18.75.18 2.03 0 1.52-.3 2.44-.3.92-.93 1.44-.61.5-1.56.5-1.24 0-1.96-.9-.84-1.06-.84-3.48Zm1.08 0q0 2.11.5 2.81.5.7 1.22.7.73 0 1.22-.7.5-.7.5-2.8 0-2.13-.5-2.82-.49-.7-1.24-.7-.72 0-1.16.6-.54.79-.54 2.91Zm-4.11-89.6h-1.05v-6.72q-.39.36-1.01.73-.61.36-1.1.53v-1.01q.88-.43 1.53-1 .68-.6.96-1.16h.67v8.63Zm3.03-2.25 1.1-.1q.13.81.57 1.22.45.4 1.1.4.75 0 1.28-.57.53-.58.53-1.52 0-.9-.52-1.42-.5-.53-1.33-.53-.5 0-.92.23-.4.24-.64.6l-.98-.13.83-4.4h4.28v1h-3.44l-.45 2.3q.76-.54 1.6-.54 1.13 0 1.9.78.78.78.78 2.02 0 1.16-.67 2.01-.83 1.04-2.25 1.04-1.18 0-1.93-.66-.73-.66-.84-1.73Zm-1.45-92.61v1.01h-5.7q0-.37.13-.73.22-.58.7-1.14.48-.56 1.38-1.3 1.4-1.15 1.9-1.83.5-.67.5-1.26 0-.63-.46-1.05-.45-.44-1.17-.44-.77 0-1.22.46-.45.45-.47 1.26l-1.08-.1q.11-1.23.83-1.85.73-.64 1.97-.64 1.23 0 1.95.69.72.68.72 1.7 0 .51-.22 1.01-.2.49-.7 1.05-.48.55-1.61 1.5-.95.8-1.23 1.1-.27.28-.44.56h4.22Zm1.45-3.22q0-1.53.31-2.45.31-.94.92-1.44.63-.5 1.57-.5.68 0 1.2.28.53.28.88.81.34.52.53 1.27.18.75.18 2.03 0 1.51-.3 2.44-.3.92-.93 1.43-.61.5-1.56.5-1.24 0-1.96-.89-.84-1.06-.84-3.48Zm1.08 0q0 2.1.5 2.81.5.7 1.22.7.73 0 1.22-.7.5-.7.5-2.81 0-2.13-.5-2.81-.49-.7-1.24-.7-.72 0-1.16.6-.54.78-.54 2.9Zm4.92 390.33 1.06-.14q.17.9.61 1.3.44.4 1.06.4.75 0 1.27-.52t.52-1.29q0-.71-.49-1.18-.47-.49-1.2-.49-.3 0-.75.13l.12-.94.17.02q.68 0 1.2-.35.55-.36.55-1.1 0-.57-.39-.94-.39-.4-1.01-.4-.61 0-1.03.4-.4.39-.52 1.15l-1.06-.19q.19-1.04.87-1.62.7-.6 1.7-.6.71 0 1.3.32.6.3.91.81.31.52.31 1.1 0 .56-.3 1.02-.3.46-.87.72.75.18 1.17.74.42.55.42 1.39 0 1.12-.82 1.9-.82.79-2.07.79-1.12 0-1.87-.68t-.86-1.75Zm7-1.96q0-1.54.31-2.46.31-.94.92-1.44.63-.5 1.57-.5.68 0 1.2.29.53.28.88.8.34.52.53 1.27.18.75.18 2.04 0 1.51-.3 2.43-.3.93-.93 1.44-.61.5-1.56.5-1.24 0-1.96-.89-.84-1.06-.84-3.48Zm1.08 0q0 2.1.5 2.8.5.71 1.22.71.73 0 1.22-.7.5-.7.5-2.81 0-2.13-.5-2.82-.49-.7-1.24-.7-.72 0-1.16.6-.54.8-.54 2.92Zm131.38 4.23v-2.06h-3.72v-.97l3.93-5.56h.86v5.56h1.15v.97h-1.15v2.06h-1.07Zm0-3.03v-3.86l-2.68 3.86h2.68Zm3.63-1.2q0-1.54.31-2.46.31-.94.92-1.44.63-.5 1.57-.5.68 0 1.2.29.53.28.87.8.35.52.53 1.27.2.75.2 2.04 0 1.51-.32 2.43-.3.93-.92 1.44-.61.5-1.56.5-1.24 0-1.96-.89-.84-1.06-.84-3.48Zm1.08 0q0 2.1.5 2.8.5.71 1.22.71.73 0 1.21-.7.5-.7.5-2.81 0-2.13-.5-2.82-.48-.7-1.23-.7-.72 0-1.16.6-.54.8-.54 2.92Zm128.01 1.98 1.1-.1q.13.82.57 1.22.45.41 1.1.41.74 0 1.27-.58.54-.57.54-1.51 0-.9-.52-1.42-.5-.54-1.33-.54-.5 0-.92.24-.4.23-.64.6l-.99-.13.83-4.4h4.28v1h-3.43l-.46 2.3q.77-.54 1.61-.54 1.13 0 1.9.78t.77 2.01q0 1.16-.67 2.02-.83 1.03-2.25 1.03-1.17 0-1.92-.66-.73-.65-.84-1.73Zm7-1.98q0-1.54.3-2.46.32-.94.93-1.44.63-.5 1.56-.5.7 0 1.2.29.54.28.88.8.35.52.53 1.27.2.75.2 2.04 0 1.51-.32 2.43-.3.93-.92 1.44-.61.5-1.57.5-1.23 0-1.95-.89-.84-1.06-.84-3.48Zm1.08 0q0 2.1.5 2.8.5.71 1.21.71.74 0 1.22-.7.5-.7.5-2.81 0-2.13-.5-2.82-.48-.7-1.23-.7-.72 0-1.16.6-.54.8-.54 2.92Zm133.47-2.25-1.04.07q-.14-.62-.4-.9-.43-.46-1.06-.46-.5 0-.89.29-.48.37-.78 1.07-.28.7-.3 1.97.38-.58.93-.86.56-.28 1.17-.28 1.05 0 1.78.78.75.78.75 2 0 .82-.36 1.52-.34.69-.95 1.06-.61.36-1.38.36-1.33 0-2.15-.97-.83-.97-.83-3.19 0-2.5.92-3.62.8-.99 2.16-.99 1.01 0 1.65.58.66.57.78 1.57Zm-4.3 3.7q0 .55.23 1.05.23.48.64.75.42.26.89.26.65 0 1.14-.53.48-.55.48-1.47 0-.89-.48-1.4-.47-.52-1.19-.52t-1.22.51q-.48.52-.48 1.35Zm5.84-1.45q0-1.54.3-2.46.32-.94.93-1.44.62-.5 1.56-.5.69 0 1.2.29.54.28.88.8.34.52.53 1.27t.19 2.04q0 1.51-.31 2.43-.3.93-.93 1.44-.6.5-1.56.5-1.23 0-1.95-.89-.84-1.06-.84-3.48Zm1.07 0q0 2.1.5 2.8.5.71 1.22.71.74 0 1.22-.7.5-.7.5-2.81 0-2.13-.5-2.82-.48-.7-1.23-.7-.72 0-1.16.6-.55.8-.55 2.92Zm128.08-3.24v-1.01h5.56v.82q-.81.88-1.63 2.33-.8 1.44-1.23 2.97-.33 1.08-.4 2.36h-1.1q.01-1.02.39-2.45.4-1.44 1.1-2.77.71-1.33 1.52-2.25h-4.21Zm6.93 3.24q0-1.54.32-2.46.3-.94.92-1.44.62-.5 1.56-.5.69 0 1.2.29.53.28.88.8.34.52.53 1.27t.19 2.04q0 1.51-.32 2.43-.3.93-.92 1.44-.6.5-1.56.5-1.23 0-1.95-.89-.85-1.06-.85-3.48Zm1.08 0q0 2.1.5 2.8.5.71 1.22.71.73 0 1.22-.7.5-.7.5-2.81 0-2.13-.5-2.82-.49-.7-1.24-.7-.71 0-1.15.6-.55.8-.55 2.92Zm129.64-.43q-.66-.25-.99-.68-.31-.46-.31-1.07 0-.93.67-1.57.69-.65 1.8-.65 1.12 0 1.81.66t.69 1.6q0 .59-.31 1.03-.32.43-.96.68.8.25 1.2.83.41.58.41 1.38 0 1.1-.78 1.84-.76.75-2.05.75-1.26 0-2.04-.75t-.78-1.87q0-.85.42-1.41.44-.56 1.22-.77Zm-.22-1.8q0 .62.39 1 .4.4 1.03.4.61 0 1-.38.4-.39.4-.95 0-.58-.42-.97-.4-.4-1-.4t-1.01.38q-.4.4-.4.93Zm-.33 3.98q0 .45.2.87.22.42.64.66.43.23.91.23.75 0 1.23-.48.5-.49.5-1.24 0-.76-.5-1.26t-1.26-.5q-.75 0-1.24.5-.48.48-.48 1.22Zm5.92-1.75q0-1.54.31-2.46.32-.94.93-1.44.62-.5 1.56-.5.69 0 1.2.29.53.28.88.8.34.52.53 1.27t.19 2.04q0 1.51-.32 2.43-.3.93-.92 1.44-.6.5-1.56.5-1.24 0-1.95-.89-.85-1.06-.85-3.48Zm1.08 0q0 2.1.5 2.8.5.71 1.22.71.73 0 1.22-.7.5-.7.5-2.81 0-2.13-.5-2.82-.49-.7-1.24-.7-.72 0-1.15.6-.55.8-.55 2.92Z"/><path stroke="#90f" stroke-linecap="butt" stroke-width="4" d="M796.2 100.83h12"/><path fill="#1a1a1a" d="M817.33 104.83v-8.59h1.12v8.6h-1.13Zm2.65 0v-6.22h.95v.94q.36-.65.66-.86.31-.22.69-.22.53 0 1.08.33l-.36.99q-.4-.24-.77-.24-.36 0-.64.22-.26.2-.37.58-.2.56-.2 1.22v3.26h-1.04Zm4.02-7.37v-1.22h1.06v1.22H824Zm0 7.37v-6.22h1.06v6.22H824Zm2.58-1.86 1.03-.15q.09.62.48.95.4.33 1.14.33.72 0 1.06-.28.36-.3.36-.7 0-.36-.3-.57-.23-.14-1.09-.36-1.15-.3-1.6-.5-.44-.22-.68-.6-.23-.37-.23-.83 0-.41.18-.77.2-.36.52-.6.25-.17.67-.3.42-.12.92-.12.72 0 1.27.22.56.2.83.57.26.35.36.95l-1.03.14q-.07-.47-.41-.74-.33-.28-.95-.28-.72 0-1.03.25-.32.24-.32.57 0 .2.13.36.14.17.4.28.16.06.94.26 1.13.31 1.56.5.44.19.7.55.24.36.24.9t-.31 1q-.3.46-.88.72-.57.25-1.3.25-1.23 0-1.87-.5-.62-.51-.8-1.5Zm7-.71v-1.07h3.25v1.07h-3.25Zm6.04 2.57-2.28-8.59h1.17l1.32 5.64q.2.88.35 1.75.33-1.37.4-1.6l1.62-5.79h1.38l1.23 4.34q.45 1.63.67 3.05.16-.81.42-1.87l1.35-5.52h1.14l-2.35 8.6h-1.1l-1.8-6.55q-.24-.82-.28-1-.13.57-.25 1l-1.82 6.54h-1.17Zm13.63-2 1.1.13q-.26.95-.96 1.48t-1.78.53q-1.36 0-2.18-.84-.8-.84-.8-2.36 0-1.56.82-2.42.81-.88 2.1-.88 1.24 0 2.03.85.8.84.8 2.39v.28h-4.65q.06 1.03.58 1.58.52.53 1.3.53.57 0 .98-.3.42-.31.66-.97Zm-3.46-1.7h3.47q-.06-.8-.39-1.19-.51-.6-1.31-.6-.73 0-1.23.48-.49.48-.54 1.31Zm7.18 3.7h-.99v-8.59h1.06v3.06q.68-.83 1.7-.83.59 0 1.09.24.51.22.84.64.34.42.53 1.01.19.6.19 1.27 0 1.6-.8 2.47-.8.87-1.89.87-1.1 0-1.73-.92v.78Zm-.02-3.15q0 1.1.31 1.6.5.82 1.35.82.68 0 1.18-.6.52-.59.52-1.8t-.48-1.79q-.49-.58-1.18-.58-.68 0-1.2.61-.5.6-.5 1.74Zm6.17 3.15v-8.59h3.25q.85 0 1.3.08.64.1 1.06.4.44.3.69.83.26.53.26 1.17 0 1.1-.7 1.86-.69.75-2.51.75h-2.2v3.5h-1.15Zm1.14-4.5h2.22q1.11 0 1.56-.4.47-.42.47-1.17 0-.54-.28-.91-.26-.4-.7-.52-.3-.07-1.06-.07h-2.2v3.07Z"/><path stroke="#f1c232" stroke-linecap="butt" stroke-width="4" d="M796.2 124.83h12"/><path fill="#1a1a1a" d="M816.97 128.83v-8.59h1.06v8.6h-1.06Zm3.03-7.37v-1.22h1.06v1.22H820Zm0 7.37v-6.22h1.06v6.22H820Zm3.97 0h-.99v-8.59h1.06v3.06q.68-.83 1.7-.83.59 0 1.09.24.51.22.84.64.34.42.53 1.01.19.6.19 1.27 0 1.6-.8 2.47-.8.87-1.89.87-1.1 0-1.73-.92v.78Zm-.02-3.15q0 1.1.31 1.6.5.82 1.35.82.68 0 1.18-.6.52-.59.52-1.8t-.48-1.79q-.49-.58-1.18-.58-.68 0-1.2.61-.5.6-.5 1.74Zm6.03-4.2v-1.24h1.06v1.23h-1.06Zm-1.33 9.78.2-.91q.32.08.5.08.32 0 .48-.22.15-.2.15-1.06v-6.54h1.06v6.57q0 1.14-.3 1.6-.38.58-1.26.58-.44 0-.83-.1Zm4.35-.04v-8.6h.95v.8q.34-.48.77-.71.43-.24 1.04-.24.8 0 1.4.41.62.4.92 1.16.3.75.3 1.64 0 .95-.34 1.72-.32.76-.98 1.17-.66.4-1.38.4-.53 0-.95-.21-.42-.24-.69-.57v3.03H833Zm.95-5.46q0 1.2.48 1.78.49.56 1.18.56.7 0 1.2-.6.5-.59.5-1.84 0-1.19-.48-1.76-.49-.6-1.18-.6-.67 0-1.18.63-.52.62-.52 1.83Zm10.3 1.07 1.1.13q-.26.95-.96 1.48t-1.78.53q-1.36 0-2.18-.84-.8-.84-.8-2.36 0-1.56.82-2.42.81-.88 2.1-.88 1.24 0 2.03.85.8.84.8 2.39v.28h-4.65q.06 1.03.58 1.58.52.53 1.3.53.57 0 .98-.3.42-.31.66-.97Zm-3.46-1.7h3.47q-.06-.8-.39-1.19-.51-.6-1.31-.6-.73 0-1.23.48-.49.48-.54 1.31Zm6 4.22 1.04.16q.06.46.35.68.4.3 1.07.3.73 0 1.12-.3.4-.3.55-.81.1-.33.08-1.36-.7.81-1.72.81-1.28 0-1.99-.92-.7-.94-.7-2.22 0-.89.31-1.64.33-.76.94-1.17.61-.4 1.44-.4 1.1 0 1.83.88v-.75h.97V128q0 1.45-.3 2.06-.3.61-.94.96-.64.35-1.58.35-1.1 0-1.8-.5-.68-.5-.67-1.51Zm.88-3.74q0 1.22.48 1.79.49.56 1.22.56.74 0 1.22-.56.5-.57.5-1.75 0-1.14-.51-1.72-.5-.58-1.22-.58-.7 0-1.2.58-.5.56-.5 1.68Zm6.3 3.22v-8.59h1.06v8.6h-1.06Zm3.03-7.37v-1.22h1.06v1.22H857Zm0 7.37v-6.22h1.06v6.22H857Z"/><path stroke="#6aa84f" stroke-linecap="butt" stroke-width="4" d="M796.2 148.83h12"/><path fill="#1a1a1a" d="M816.97 152.83v-8.59h1.06v8.6h-1.06Zm3.03-7.37v-1.22h1.06v1.22H820Zm0 7.37v-6.22h1.06v6.22H820Zm3.97 0h-.99v-8.59h1.06v3.06q.68-.83 1.7-.83.59 0 1.09.24.51.22.84.64.34.42.53 1.01.19.6.19 1.27 0 1.6-.8 2.47-.8.87-1.89.87-1.1 0-1.73-.92v.78Zm-.02-3.15q0 1.1.31 1.6.5.82 1.35.82.68 0 1.18-.6.52-.59.52-1.8t-.48-1.79q-.49-.58-1.18-.58-.68 0-1.2.61-.5.6-.5 1.74Zm6.03-4.2v-1.24h1.06v1.23h-1.06Zm-1.33 9.78.2-.91q.32.08.5.08.32 0 .48-.22.15-.2.15-1.06v-6.54h1.06v6.57q0 1.14-.3 1.6-.38.58-1.26.58-.44 0-.83-.1Zm3.64-2.43 2.27-3.23-2.1-2.99h1.32l.95 1.46.44.7q.25-.39.47-.69l1.04-1.47h1.27l-2.16 2.93 2.32 3.3h-1.28l-1.29-1.94-.34-.52-1.64 2.45h-1.27Zm5.68 0v-8.59h1.06v8.6h-1.06Z"/><path stroke="red" stroke-linecap="butt" stroke-width="4" d="M796.2 172.83h12"/><path fill="#1a1a1a" d="M816.97 176.83v-8.59h1.06v8.6h-1.06Zm3.03-7.37v-1.22h1.06v1.22H820Zm0 7.37v-6.22h1.06v6.22H820Zm3.97 0h-.99v-8.59h1.06v3.06q.68-.83 1.7-.83.59 0 1.09.24.51.22.84.64.34.42.53 1.01.19.6.19 1.27 0 1.6-.8 2.47-.8.87-1.89.87-1.1 0-1.73-.92v.78Zm-.02-3.15q0 1.1.31 1.6.5.82 1.35.82.68 0 1.18-.6.52-.59.52-1.8t-.48-1.79q-.49-.58-1.18-.58-.68 0-1.2.61-.5.6-.5 1.74Zm10.1 2.39q-.58.5-1.13.7-.53.2-1.16.2-1.03 0-1.58-.5-.54-.5-.54-1.28 0-.45.2-.83.2-.39.55-.6.34-.24.76-.35.3-.1.94-.17 1.27-.14 1.88-.36v-.27q0-.65-.3-.92-.4-.34-1.2-.34-.74 0-1.1.26-.36.25-.53.91l-1.03-.14q.14-.66.47-1.06.33-.4.94-.63.6-.22 1.4-.22.8 0 1.3.2.5.18.73.46.24.28.33.72.05.26.05.97v1.4q0 1.47.06 1.86.08.4.28.75h-1.1q-.16-.32-.21-.76Zm-.08-2.36q-.58.23-1.72.4-.66.1-.92.22-.27.11-.43.33-.14.22-.14.5 0 .42.32.7.32.29.93.29.61 0 1.08-.27.49-.27.7-.73.18-.36.18-1.05v-.4Zm2.64.01q0-1.73.95-2.56.8-.69 1.95-.69 1.28 0 2.1.85.82.83.82 2.31 0 1.2-.35 1.9-.36.68-1.07 1.07-.68.37-1.5.37-1.3 0-2.1-.82-.8-.85-.8-2.43Zm1.07 0q0 1.2.52 1.79.53.59 1.31.59.8 0 1.32-.6.51-.59.51-1.8 0-1.16-.53-1.76-.52-.6-1.3-.6t-1.31.6q-.52.58-.52 1.78Zm6.32 3.11v-6.22h.93v.88q.3-.47.79-.73.48-.29 1.1-.29.7 0 1.13.29.45.28.63.8.75-1.09 1.92-1.09.93 0 1.42.52.5.5.5 1.58v4.26h-1.05v-3.92q0-.62-.1-.9-.1-.29-.37-.46-.26-.17-.64-.17-.65 0-1.1.44-.41.44-.41 1.4v3.61h-1.07v-4.04q0-.7-.26-1.05-.25-.36-.83-.36-.45 0-.83.23-.37.24-.54.7-.18.45-.18 1.29v3.23H844Z"/><path stroke="#4a86e8" stroke-linecap="butt" stroke-width="4" d="M796.2 196.83h12"/><path fill="#1a1a1a" d="M816.97 200.83v-8.59h1.06v8.6h-1.06Zm3.03-7.37v-1.22h1.06v1.22H820Zm0 7.37v-6.22h1.06v6.22H820Zm3.97 0h-.99v-8.59h1.06v3.06q.68-.83 1.7-.83.59 0 1.09.24.51.22.84.64.34.42.53 1.01.19.6.19 1.27 0 1.6-.8 2.47-.8.87-1.89.87-1.1 0-1.73-.92v.78Zm-.02-3.15q0 1.1.31 1.6.5.82 1.35.82.68 0 1.18-.6.52-.59.52-1.8t-.48-1.79q-.49-.58-1.18-.58-.68 0-1.2.61-.5.6-.5 1.74Zm7.19 3.15-1.9-6.22h1.09l.98 3.6.37 1.33q.04-.1.33-1.28l.99-3.65h1.08l.93 3.61.32 1.2.35-1.21 1.07-3.6h1.03l-1.95 6.22h-1.1l-.98-3.73-.25-1.05-1.25 4.78h-1.11Zm12.1-2 1.1.13q-.25.95-.95 1.48t-1.78.53q-1.36 0-2.18-.84-.8-.84-.8-2.36 0-1.56.82-2.42.81-.88 2.1-.88 1.24 0 2.03.85.8.84.8 2.39v.28h-4.65q.06 1.03.58 1.58.52.53 1.3.53.57 0 .98-.3.42-.31.66-.97Zm-3.45-1.7h3.47q-.06-.8-.39-1.19-.51-.6-1.31-.6-.73 0-1.23.48-.49.48-.54 1.31Zm7.18 3.7h-.99v-8.59h1.06v3.06q.68-.83 1.7-.83.59 0 1.09.24.51.22.84.64.34.42.53 1.01.19.6.19 1.27 0 1.6-.8 2.47-.8.87-1.89.87-1.1 0-1.73-.92v.78Zm-.02-3.15q0 1.1.31 1.6.5.82 1.35.82.68 0 1.18-.6.52-.59.52-1.8t-.48-1.79q-.49-.58-1.18-.58-.68 0-1.2.61-.5.6-.5 1.74Zm6.05 5.54v-8.6h.95v.8q.34-.48.77-.71.43-.24 1.04-.24.8 0 1.4.41.62.4.92 1.16.3.75.3 1.64 0 .95-.34 1.72-.32.76-.98 1.17-.66.4-1.38.4-.53 0-.95-.21-.42-.24-.69-.57v3.03H853Zm.95-5.46q0 1.2.48 1.78.49.56 1.18.56.7 0 1.2-.6.5-.59.5-1.84 0-1.19-.48-1.76-.49-.6-1.18-.6-.67 0-1.18.63-.52.62-.52 1.83Z"/><path stroke="#666" stroke-linecap="butt" stroke-width="4" d="M796.2 220.83h12"/><path fill="#1a1a1a" d="M816.97 224.83v-8.59h1.06v8.6h-1.06Zm3.03-7.37v-1.22h1.06v1.22H820Zm0 7.37v-6.22h1.06v6.22H820Zm3.97 0h-.99v-8.59h1.06v3.06q.68-.83 1.7-.83.59 0 1.09.24.51.22.84.64.34.42.53 1.01.19.6.19 1.27 0 1.6-.8 2.47-.8.87-1.89.87-1.1 0-1.73-.92v.78Zm-.02-3.15q0 1.1.31 1.6.5.82 1.35.82.68 0 1.18-.6.52-.59.52-1.8t-.48-1.79q-.49-.58-1.18-.58-.68 0-1.2.61-.5.6-.5 1.74Zm6.03-4.2v-1.24h1.06v1.23h-1.06Zm-1.33 9.78.2-.91q.32.08.5.08.32 0 .48-.22.15-.2.15-1.06v-6.54h1.06v6.57q0 1.14-.3 1.6-.38.58-1.26.58-.44 0-.83-.1Zm4.35-.04v-8.6h.95v.8q.34-.48.77-.71.43-.24 1.04-.24.8 0 1.4.41.62.4.92 1.16.3.75.3 1.64 0 .95-.34 1.72-.32.76-.98 1.17-.66.4-1.38.4-.53 0-.95-.21-.42-.24-.69-.57v3.03H833Zm.95-5.46q0 1.2.48 1.78.49.56 1.18.56.7 0 1.2-.6.5-.59.5-1.84 0-1.19-.48-1.76-.49-.6-1.18-.6-.67 0-1.18.63-.52.62-.52 1.83Zm10.3 1.07 1.1.13q-.26.95-.96 1.48t-1.78.53q-1.36 0-2.18-.84-.8-.84-.8-2.36 0-1.56.82-2.42.81-.88 2.1-.88 1.24 0 2.03.85.8.84.8 2.39v.28h-4.65q.06 1.03.58 1.58.52.53 1.3.53.57 0 .98-.3.42-.31.66-.97Zm-3.46-1.7h3.47q-.06-.8-.39-1.19-.51-.6-1.31-.6-.73 0-1.23.48-.49.48-.54 1.31Zm6 4.22 1.04.16q.06.46.35.68.4.3 1.07.3.73 0 1.12-.3.4-.3.55-.81.1-.33.08-1.36-.7.81-1.72.81-1.28 0-1.99-.92-.7-.94-.7-2.22 0-.89.31-1.64.33-.76.94-1.17.61-.4 1.44-.4 1.1 0 1.83.88v-.75h.97V224q0 1.45-.3 2.06-.3.61-.94.96-.64.35-1.58.35-1.1 0-1.8-.5-.68-.5-.67-1.51Zm.88-3.74q0 1.22.48 1.79.49.56 1.22.56.74 0 1.22-.56.5-.57.5-1.75 0-1.14-.51-1.72-.5-.58-1.22-.58-.7 0-1.2.58-.5.56-.5 1.68Z"/><path fill="#999" d="M31.43 72.3v-8.84h-3.3v-1.18h7.94v1.18h-3.32v8.84h-1.32Zm11.26-2.34 1.28.15q-.31 1.13-1.12 1.75-.82.61-2.08.61-1.6 0-2.53-.98-.92-.99-.92-2.75 0-1.85.93-2.85.96-1.01 2.46-1.01 1.45 0 2.37 1 .92.98.92 2.78v.33h-5.42q.08 1.19.67 1.83.61.64 1.53.64.68 0 1.14-.36.49-.36.77-1.14Zm-4.03-1.99h4.05q-.08-.92-.47-1.37-.58-.7-1.52-.7-.86 0-1.44.56-.56.56-.62 1.51Zm6.58 2.16 1.2-.19q.11.73.58 1.13.47.39 1.31.39.84 0 1.25-.35.42-.34.42-.81 0-.42-.37-.66-.25-.17-1.25-.42-1.36-.34-1.9-.6-.5-.24-.77-.68-.27-.44-.27-.97 0-.48.22-.89.22-.42.6-.7.29-.2.77-.35.5-.15 1.08-.15.85 0 1.49.25.65.23.97.65.3.43.42 1.13l-1.2.17q-.08-.56-.49-.87-.4-.32-1.1-.32-.85 0-1.21.28-.36.27-.36.66 0 .24.14.42.15.2.48.33.17.06 1.08.31 1.31.36 1.83.58.52.22.8.64.3.42.3 1.05 0 .62-.37 1.17-.34.53-1.03.84-.67.3-1.53.3-1.4 0-2.16-.6-.73-.59-.93-1.74ZM55.4 71.2l.17 1.07q-.51.11-.92.11-.67 0-1.05-.2-.36-.22-.51-.56-.14-.35-.14-1.45V66h-.91v-.97h.9v-1.8l1.22-.73v2.53h1.24V66h-1.23v4.24q0 .53.06.69.06.14.2.23.16.1.42.1.22 0 .55-.05Zm6.28-1.25 1.28.15q-.31 1.13-1.12 1.75-.82.61-2.08.61-1.6 0-2.53-.98-.92-.99-.92-2.75 0-1.85.93-2.85.96-1.01 2.46-1.01 1.45 0 2.37 1 .92.98.92 2.78v.33h-5.42q.08 1.19.67 1.83.61.64 1.53.64.68 0 1.14-.36.49-.36.77-1.14Zm-4.03-1.99h4.05q-.08-.92-.47-1.37-.58-.7-1.52-.7-.86 0-1.44.56-.56.56-.62 1.51Zm11.78 4.33v-.92q-.7 1.1-2.03 1.1-.88 0-1.61-.5-.72-.48-1.13-1.34-.39-.86-.39-1.97 0-1.07.36-1.96.36-.9 1.08-1.36.74-.47 1.63-.47.65 0 1.17.28.51.27.83.72v-3.6h1.23V72.3h-1.14Zm-3.89-3.63q0 1.4.58 2.1.6.69 1.39.69.81 0 1.37-.66.57-.67.57-2.02 0-1.5-.58-2.18-.58-.7-1.4-.7-.84 0-1.38.67-.55.67-.55 2.1Zm10.72 0q0-2.01 1.12-3 .93-.8 2.28-.8 1.49 0 2.44 1 .96.96.96 2.7 0 1.4-.43 2.21-.42.8-1.23 1.25-.8.44-1.73.44-1.54 0-2.47-.98-.94-.99-.94-2.81Zm1.26 0q0 1.4.61 2.1.61.69 1.53.69.91 0 1.52-.7.61-.71.61-2.13 0-1.35-.6-2.03-.62-.7-1.53-.7-.92 0-1.53.68-.6.69-.6 2.1Zm7.2 3.63v-7.27h1.1v1.04q.8-1.2 2.31-1.2.66 0 1.2.24.55.24.82.63.28.37.39.9.08.35.08 1.2v4.46h-1.24v-4.42q0-.75-.14-1.11-.14-.38-.51-.6-.36-.23-.86-.23-.78 0-1.36.5-.56.5-.56 1.9v3.96h-1.24Zm14.68-1.1.17 1.08q-.51.11-.92.11-.67 0-1.05-.2-.36-.22-.51-.56-.14-.35-.14-1.45V66h-.91v-.97h.9v-1.8l1.22-.73v2.53h1.24V66h-1.23v4.24q0 .53.06.69.06.14.2.23.16.1.42.1.22 0 .55-.05Zm1.31 1.1V62.28h1.24v3.6q.86-1 2.17-1 .81 0 1.4.33.6.3.85.87.26.55.26 1.63v4.59h-1.23v-4.6q0-.93-.4-1.34-.4-.42-1.13-.42-.55 0-1.03.28-.49.28-.7.77-.2.48-.2 1.34v3.97h-1.23Zm12.97-2.34 1.28.15q-.31 1.13-1.12 1.75-.82.61-2.08.61-1.6 0-2.53-.98-.92-.99-.92-2.75 0-1.85.93-2.85.96-1.01 2.46-1.01 1.45 0 2.37 1 .92.98.92 2.78v.33h-5.42q.08 1.19.67 1.83.61.64 1.53.64.68 0 1.14-.36.49-.36.77-1.14Zm-4.03-1.99h4.05q-.08-.92-.47-1.37-.58-.7-1.52-.7-.86 0-1.44.56-.56.56-.62 1.51Zm11.22 4.33V62.28h3.45q1.17 0 1.78.15.86.18 1.47.71.8.68 1.19 1.72.39 1.03.39 2.38 0 1.14-.27 2.03-.26.87-.68 1.45-.41.58-.91.9-.5.34-1.2.5-.7.18-1.6.18h-3.62Zm1.33-1.19h2.14q.98 0 1.54-.17.58-.19.91-.53.47-.47.73-1.27.27-.8.27-1.93 0-1.57-.52-2.41-.51-.84-1.25-1.14-.54-.2-1.71-.2h-2.11v7.65Zm13.25.3q-.68.58-1.32.83-.62.23-1.36.23-1.18 0-1.84-.58-.64-.59-.64-1.51 0-.53.23-.97.25-.44.65-.7.4-.27.89-.41.36-.1 1.09-.19 1.5-.17 2.2-.42v-.31q0-.77-.34-1.06-.47-.43-1.4-.43-.87 0-1.29.32-.4.3-.6 1.06l-1.21-.16q.16-.78.53-1.25.4-.47 1.1-.72.71-.26 1.65-.26.92 0 1.5.22t.84.54q.29.33.4.85.06.31.06 1.12v1.64q0 1.72.08 2.17.07.46.3.88h-1.27q-.2-.4-.25-.9Zm-.1-2.75q-.67.27-2.01.47-.75.1-1.08.25-.31.12-.49.39-.17.26-.17.58 0 .5.38.83.37.32 1.1.32.71 0 1.26-.3.54-.32.8-.87.21-.4.21-1.22v-.45Zm8.1 2.75q-.68.58-1.32.83-.62.23-1.36.23-1.18 0-1.84-.58-.64-.59-.64-1.51 0-.53.23-.97.25-.44.65-.7.4-.27.89-.41.36-.1 1.09-.19 1.5-.17 2.2-.42v-.31q0-.77-.34-1.06-.47-.43-1.4-.43-.87 0-1.29.32-.4.3-.6 1.06l-1.21-.16q.16-.78.53-1.25.4-.47 1.1-.72.71-.26 1.65-.26.92 0 1.5.22t.84.54q.29.33.4.85.06.31.06 1.12v1.64q0 1.72.08 2.17.07.46.3.88h-1.27q-.2-.4-.25-.9Zm-.1-2.75q-.67.27-2.01.47-.75.1-1.08.25-.31.12-.49.39-.17.26-.17.58 0 .5.38.83.37.32 1.1.32.71 0 1.26-.3.54-.32.8-.87.21-.4.21-1.22v-.45Zm3.33 3.64V62.28h1.24V72.3h-1.24Zm7.77-.9q-.68.59-1.32.84-.62.23-1.36.23-1.18 0-1.84-.58-.64-.59-.64-1.51 0-.53.23-.97.25-.44.65-.7.4-.27.89-.41.36-.1 1.09-.19 1.5-.17 2.2-.42v-.31q0-.77-.34-1.06-.47-.43-1.4-.43-.87 0-1.29.32-.4.3-.6 1.06l-1.21-.16q.16-.78.53-1.25.4-.47 1.1-.72.71-.26 1.65-.26.92 0 1.5.22t.84.54q.29.33.4.85.06.31.06 1.12v1.64q0 1.72.08 2.17.07.46.3.88h-1.27q-.2-.4-.25-.9Zm-.1-2.74q-.67.27-2.01.47-.75.1-1.08.25-.31.12-.49.39-.17.26-.17.58 0 .5.38.83.37.32 1.1.32.71 0 1.26-.3.54-.32.8-.87.21-.4.21-1.22v-.45Zm6.88 1.47 1.2-.19q.11.73.58 1.13.47.39 1.31.39.84 0 1.25-.35.42-.34.42-.81 0-.42-.37-.66-.25-.17-1.25-.42-1.36-.34-1.9-.6-.5-.24-.77-.68-.27-.44-.27-.97 0-.48.22-.89.22-.42.6-.7.29-.2.77-.35.5-.15 1.08-.15.85 0 1.49.25.65.23.97.65.3.43.42 1.13l-1.2.17q-.08-.56-.49-.87-.4-.32-1.1-.32-.85 0-1.21.28-.36.27-.36.66 0 .24.14.42.16.2.48.33l1.08.31q1.31.36 1.83.58.52.22.8.64.3.42.3 1.05 0 .62-.37 1.17-.34.53-1.03.84-.67.3-1.53.3-1.4 0-2.16-.6-.73-.59-.93-1.74Zm12.25 2.17v-1.06q-.86 1.23-2.31 1.23-.65 0-1.2-.25-.55-.25-.84-.62-.26-.38-.37-.9-.08-.37-.08-1.17v-4.5h1.24v4.04q0 .96.07 1.3.11.48.49.76.37.28.94.28.54 0 1.03-.28.48-.3.68-.78.2-.49.2-1.42v-3.9h1.24v7.27h-1.1Zm4.37 0h-1.14V62.28h1.22v3.57q.78-.97 2-.97.67 0 1.27.26.59.27.98.77.4.48.61 1.17.22.69.22 1.49 0 1.86-.94 2.89-.92 1.01-2.2 1.01-1.28 0-2.02-1.08v.91Zm-.01-3.69q0 1.31.36 1.9.57.95 1.56.95.81 0 1.39-.7.6-.71.6-2.1 0-1.42-.57-2.1-.56-.67-1.36-.67-.81 0-1.4.7-.58.7-.58 2.02Zm6.39 1.52 1.2-.19q.11.73.58 1.13.47.39 1.31.39.84 0 1.25-.35.42-.34.42-.81 0-.42-.37-.66-.25-.17-1.25-.42-1.36-.34-1.9-.6-.5-.24-.77-.68-.27-.44-.27-.97 0-.48.22-.89.22-.42.6-.7.29-.2.77-.35.5-.15 1.08-.15.85 0 1.49.25.65.23.97.65.3.43.42 1.13l-1.2.17q-.08-.56-.49-.87-.4-.32-1.1-.32-.85 0-1.21.28-.36.27-.36.66 0 .24.14.42.16.2.48.33l1.08.31q1.31.36 1.83.58.52.22.8.64.3.42.3 1.05 0 .62-.37 1.17-.34.53-1.03.84-.67.3-1.53.3-1.4 0-2.16-.6-.73-.59-.93-1.74Zm12.45-.17 1.28.15q-.31 1.13-1.12 1.75-.82.61-2.08.61-1.6 0-2.53-.98-.92-.99-.92-2.75 0-1.85.93-2.85.96-1.01 2.46-1.01 1.45 0 2.37 1 .92.98.92 2.78v.33h-5.42q.08 1.19.67 1.83.61.64 1.53.64.68 0 1.15-.36.48-.36.76-1.14Zm-4.03-1.99h4.05q-.08-.92-.47-1.37-.58-.7-1.52-.7-.86 0-1.44.56-.56.56-.62 1.51Zm9.75 3.24.17 1.07q-.51.11-.92.11-.67 0-1.05-.2-.36-.22-.51-.56-.14-.35-.14-1.45V66h-.91v-.97h.9v-1.8l1.23-.73v2.53h1.23V66h-1.23v4.24q0 .53.06.69.06.14.2.23.16.1.42.1.22 0 .55-.05Zm5.6 1.09h-1.23v-7.84q-.43.42-1.17.86-.72.42-1.28.62v-1.19q1.03-.48 1.8-1.17.78-.69 1.1-1.34h.79V72.3Zm7.73-8.6v-1.42h1.22v1.41h-1.22Zm0 8.6v-7.27h1.22v7.27h-1.22Zm2.98 0v-7.27h1.11v1.04q.33-.55.9-.86.57-.33 1.29-.33.81 0 1.33.34.51.33.73.92.86-1.26 2.24-1.26 1.07 0 1.65.6.6.59.6 1.84v4.98h-1.24v-4.58q0-.73-.12-1.06-.11-.33-.43-.52-.3-.2-.73-.2-.77 0-1.28.52-.5.5-.5 1.62v4.22h-1.24v-4.72q0-.81-.3-1.22-.29-.42-.98-.42-.51 0-.97.28-.43.27-.64.8-.18.51-.18 1.51v3.77h-1.24Zm15.74-.9q-.68.59-1.32.84-.62.23-1.36.23-1.18 0-1.84-.58-.64-.59-.64-1.51 0-.53.23-.97.25-.44.65-.7.4-.27.89-.41.36-.1 1.09-.19 1.5-.17 2.2-.42v-.31q0-.77-.34-1.06-.47-.43-1.4-.43-.87 0-1.29.32-.4.3-.6 1.06l-1.21-.16q.16-.78.53-1.25.4-.47 1.1-.72.71-.26 1.65-.26.92 0 1.5.22t.84.54q.29.33.4.85.06.31.06 1.12v1.64q0 1.72.08 2.17.07.46.3.88h-1.27q-.2-.4-.25-.9Zm-.1-2.74q-.67.27-2.01.47-.75.1-1.08.25-.31.12-.49.39-.17.26-.17.58 0 .5.38.83.37.32 1.1.32.71 0 1.26-.3.54-.32.8-.87.21-.4.21-1.22v-.45Zm3.14 4.25 1.2.17q.07.55.41.81.46.33 1.25.33.86 0 1.31-.34.47-.33.65-.95.09-.38.07-1.58-.8.95-2 .95-1.5 0-2.32-1.08-.82-1.08-.82-2.6 0-1.02.38-1.9.37-.89 1.08-1.36.72-.48 1.68-.48 1.29 0 2.13 1.03v-.88h1.12v6.29q0 1.7-.34 2.4t-1.1 1.11q-.74.42-1.84.42-1.3 0-2.1-.6-.79-.57-.76-1.74Zm1.02-4.38q0 1.44.56 2.1.56.65 1.42.65.85 0 1.43-.65.57-.66.57-2.05 0-1.33-.6-2-.58-.69-1.41-.69t-1.4.68q-.57.65-.57 1.96Zm12.17 1.43 1.28.15q-.31 1.13-1.12 1.75-.82.61-2.08.61-1.6 0-2.53-.98-.92-.99-.92-2.75 0-1.85.93-2.85.96-1.01 2.46-1.01 1.45 0 2.37 1 .92.98.92 2.78v.33h-5.42q.08 1.19.67 1.83.61.64 1.53.64.68 0 1.15-.36.48-.36.76-1.14Zm-4.03-1.99h4.05q-.08-.92-.47-1.37-.58-.7-1.52-.7-.86 0-1.44.56-.56.56-.62 1.51Zm15.78 4.33v-.92q-.7 1.1-2.03 1.1-.88 0-1.61-.5-.72-.48-1.13-1.34-.39-.86-.39-1.97 0-1.07.36-1.96.36-.9 1.08-1.36.74-.47 1.63-.47.65 0 1.17.28.51.27.83.72v-3.6h1.23V72.3h-1.14Zm-3.89-3.63q0 1.4.58 2.1.6.69 1.39.69.81 0 1.37-.66.57-.67.57-2.02 0-1.5-.58-2.18-.58-.7-1.4-.7-.84 0-1.38.67-.55.67-.55 2.1Zm11.9 2.74q-.67.58-1.3.83-.63.23-1.37.23-1.18 0-1.84-.58-.64-.59-.64-1.51 0-.53.23-.97.25-.44.65-.7.4-.27.89-.41.36-.1 1.09-.19 1.5-.17 2.2-.42v-.31q0-.77-.34-1.06-.47-.43-1.4-.43-.87 0-1.29.32-.4.3-.6 1.06l-1.21-.16q.16-.78.53-1.25.4-.47 1.1-.72.71-.26 1.65-.26.92 0 1.5.22t.84.54q.29.33.4.85.06.31.06 1.12v1.64q0 1.72.07 2.17.08.46.32.88h-1.28q-.2-.4-.25-.9Zm-.09-2.75q-.67.27-2.01.47-.75.1-1.08.25-.31.12-.49.39-.17.26-.17.58 0 .5.38.83.37.32 1.1.32.71 0 1.26-.3.54-.32.8-.87.21-.4.21-1.22v-.45Zm6.05 2.55.17 1.07q-.51.11-.92.11-.67 0-1.05-.2-.36-.22-.51-.56-.14-.35-.14-1.45V66h-.91v-.97h.9v-1.8l1.23-.73v2.53h1.23V66h-1.24v4.24q0 .53.07.69.06.14.2.23.16.1.42.1.22 0 .55-.05Zm6.05.2q-.68.58-1.32.83-.62.23-1.36.23-1.18 0-1.84-.58-.64-.59-.64-1.51 0-.53.23-.97.25-.44.65-.7.4-.27.89-.41.36-.1 1.09-.19 1.5-.17 2.2-.42v-.31q0-.77-.34-1.06-.47-.43-1.4-.43-.87 0-1.29.32-.4.3-.6 1.06l-1.21-.16q.16-.78.53-1.25.4-.47 1.1-.72.71-.26 1.65-.26.92 0 1.5.22t.84.54q.29.33.4.85.06.31.06 1.12v1.64q0 1.72.07 2.17.08.46.32.88h-1.28q-.2-.4-.25-.9Zm-.1-2.75q-.67.27-2.01.47-.75.1-1.08.25-.31.12-.49.39-.17.26-.17.58 0 .5.38.83.37.32 1.1.32.71 0 1.26-.3.54-.32.8-.87.21-.4.21-1.22v-.45Zm2.88 1.47 1.2-.19q.11.73.58 1.13.47.39 1.31.39.85 0 1.25-.35.42-.34.42-.81 0-.42-.37-.66-.25-.17-1.25-.42-1.36-.34-1.9-.6-.5-.24-.77-.68-.27-.44-.27-.97 0-.48.22-.89.22-.42.6-.7.29-.2.77-.35.5-.15 1.08-.15.85 0 1.49.25.65.23.97.65.3.43.42 1.13l-1.2.17q-.08-.56-.49-.87-.4-.32-1.1-.32-.85 0-1.21.28-.36.27-.36.66 0 .24.14.42.16.2.48.33l1.08.31q1.31.36 1.83.58.51.22.8.64.3.42.3 1.05 0 .62-.37 1.17-.34.53-1.03.84-.67.3-1.53.3-1.4 0-2.15-.6-.74-.59-.94-1.74Zm12.45-.17 1.28.15q-.31 1.13-1.12 1.75-.82.61-2.08.61-1.6 0-2.53-.98-.92-.99-.92-2.75 0-1.85.93-2.85.96-1.01 2.46-1.01 1.45 0 2.37 1 .92.98.92 2.78v.33h-5.42q.08 1.19.67 1.83.61.64 1.53.64.68 0 1.15-.36.48-.36.76-1.14Zm-4.03-1.99h4.05q-.08-.92-.47-1.37-.58-.7-1.52-.7-.86 0-1.44.56-.56.56-.62 1.51Zm9.75 3.24.17 1.07q-.51.11-.92.11-.67 0-1.05-.2-.36-.22-.51-.56-.14-.35-.14-1.45V66h-.91v-.97h.9v-1.8l1.23-.73v2.53h1.23V66h-1.24v4.24q0 .53.07.69.06.14.2.23.16.1.42.1.22 0 .55-.05Z"/><path fill="#757575" d="M29.38 46.8V32.49h10.36v1.68h-8.46v4.38h7.91v1.69h-7.9v4.87h8.78v1.69h-10.7Zm12.73 0V36.42h1.6v1.49q1.14-1.72 3.3-1.72.93 0 1.71.34.8.33 1.19.88.39.55.55 1.3.09.5.09 1.71v6.38h-1.77v-6.31q0-1.08-.2-1.61t-.73-.85q-.52-.3-1.22-.3-1.13 0-1.94.71-.81.7-.81 2.69v5.67H42.1ZM58.9 43l1.72.22q-.28 1.8-1.45 2.81-1.16 1-2.86 1-2.13 0-3.42-1.39-1.3-1.39-1.3-3.98 0-1.69.55-2.94.56-1.26 1.7-1.89 1.14-.64 2.49-.64 1.68 0 2.75.86t1.39 2.42l-1.72.27q-.24-1.05-.86-1.57-.63-.53-1.5-.53-1.33 0-2.16.96-.83.95-.83 3 0 2.1.8 3.04t2.1.94q1.03 0 1.71-.62.7-.64.9-1.96Zm2.58-1.39q0-2.87 1.6-4.26 1.34-1.16 3.26-1.16 2.14 0 3.49 1.4 1.36 1.41 1.36 3.88 0 2-.6 3.16-.6 1.14-1.75 1.78-1.14.62-2.5.62-2.19 0-3.53-1.39-1.33-1.4-1.33-4.03Zm1.8 0q0 2 .86 2.99.87.98 2.2.98 1.31 0 2.17-.98.88-1 .88-3.05 0-1.92-.88-2.9-.87-1-2.17-1-1.33 0-2.2 1-.86.98-.86 2.96Zm16.58 5.19v-1.31q-.99 1.54-2.9 1.54-1.24 0-2.3-.68-1.02-.7-1.6-1.9-.56-1.23-.56-2.82 0-1.56.51-2.83.52-1.27 1.55-1.94 1.05-.67 2.31-.67.94 0 1.67.4.74.4 1.2 1.02V32.5h1.74v14.3h-1.62Zm-5.57-5.17q0 1.98.85 2.97.84.98 1.98.98 1.16 0 1.96-.94.8-.93.8-2.87 0-2.13-.82-3.13-.81-1-2.02-1-1.17 0-1.96.97-.79.96-.79 3.02Zm16.94 1.83 1.81.23q-.42 1.58-1.59 2.47-1.16.87-2.97.87-2.26 0-3.6-1.39-1.34-1.4-1.34-3.93 0-2.63 1.35-4.07 1.34-1.45 3.5-1.45 2.08 0 3.39 1.42 1.33 1.4 1.33 3.99l-.02.47h-7.73q.1 1.7.97 2.6.87.91 2.17.91.97 0 1.64-.5.69-.51 1.1-1.62Zm-5.78-2.85h5.8q-.11-1.3-.66-1.95-.84-1.02-2.19-1.02-1.2 0-2.03.82-.83.8-.92 2.15Zm9.66 6.19V36.42h1.58V38q.6-1.1 1.12-1.45.52-.36 1.13-.36.89 0 1.8.56l-.6 1.64Q99.5 38 98.86 38q-.58 0-1.05.36-.45.35-.66.96-.28.93-.28 2.04v5.44H95.1Zm23.47-5.02 1.89.47q-.6 2.35-2.14 3.58-1.55 1.22-3.8 1.22-2.31 0-3.77-.94-1.43-.95-2.2-2.73-.75-1.8-.75-3.85 0-2.23.84-3.89.86-1.67 2.44-2.53 1.58-.87 3.47-.87 2.16 0 3.6 1.1 1.48 1.08 2.06 3.07l-1.86.44q-.5-1.57-1.46-2.27-.93-.72-2.37-.72-1.66 0-2.77.8-1.1.78-1.56 2.12-.44 1.33-.44 2.74 0 1.83.53 3.2.54 1.36 1.66 2.03 1.13.67 2.42.67 1.6 0 2.7-.92 1.11-.92 1.5-2.72Zm2.9-.17q0-2.87 1.6-4.26 1.34-1.16 3.26-1.16 2.14 0 3.49 1.4 1.36 1.41 1.36 3.88 0 2-.6 3.16-.6 1.14-1.75 1.78-1.14.62-2.5.62-2.19 0-3.53-1.39-1.33-1.4-1.33-4.03Zm1.8 0q0 2 .86 2.99.87.98 2.2.98 1.31 0 2.17-.98.88-1 .88-3.05 0-1.92-.88-2.9-.87-1-2.17-1-1.33 0-2.2 1-.86.98-.86 2.96Zm9.84 5.19V36.42h1.6v1.49q1.14-1.72 3.3-1.72.93 0 1.71.34.8.33 1.19.88.39.55.55 1.3.09.5.09 1.71v6.38h-1.77v-6.31q0-1.08-.2-1.61t-.73-.85q-.52-.3-1.22-.3-1.13 0-1.94.71-.81.7-.81 2.69v5.67h-1.77Zm9.3-3.1 1.75-.28q.14 1.05.81 1.61.67.55 1.88.55 1.2 0 1.78-.48.6-.5.6-1.16 0-.6-.52-.94-.36-.23-1.8-.6-1.94-.5-2.69-.83-.73-.36-1.12-.99-.4-.64-.4-1.4 0-.7.32-1.29.33-.59.87-.98.41-.3 1.11-.5.72-.22 1.53-.22 1.22 0 2.15.36.92.34 1.35.95.44.6.61 1.6l-1.71.23q-.13-.8-.7-1.23-.55-.46-1.57-.46-1.22 0-1.73.41-.52.4-.52.92 0 .35.22.63.2.28.67.47.27.09 1.55.43 1.87.5 2.6.83.74.31 1.16.92.42.6.42 1.5 0 .88-.51 1.66-.52.78-1.49 1.2-.96.42-2.18.42-2.02 0-3.08-.84t-1.36-2.48Zm10.72-9.2v-2h1.76v2.01h-1.76Zm0 12.3V36.42h1.76V46.8h-1.76Zm3.28-3.1 1.75-.28q.14 1.05.81 1.61.67.55 1.88.55 1.2 0 1.78-.48.6-.5.6-1.16 0-.6-.52-.94-.36-.23-1.8-.6-1.94-.5-2.69-.83-.73-.36-1.12-.99-.4-.64-.4-1.4 0-.7.32-1.29.33-.59.87-.98.41-.3 1.11-.5.72-.22 1.53-.22 1.22 0 2.15.36.92.34 1.35.95.44.6.61 1.6l-1.71.23q-.13-.8-.7-1.23-.55-.46-1.57-.46-1.22 0-1.73.41-.52.4-.52.92 0 .35.22.63.2.28.67.47.27.09 1.55.43 1.87.5 2.6.83.74.31 1.16.92.42.6.42 1.5 0 .88-.51 1.66-.52.78-1.49 1.2-.96.42-2.18.42-2.02 0-3.08-.84t-1.36-2.48Zm14.55 1.52.25 1.56q-.74.16-1.33.16-.95 0-1.49-.3-.51-.3-.73-.8-.22-.5-.22-2.07V37.8h-1.28v-1.38h1.28v-2.56l1.75-1.06v3.63h1.77v1.37h-1.77v6.06q0 .75.1.97.09.2.3.34.21.13.6.13.28 0 .77-.08Zm9.26-1.76 1.81.23q-.42 1.58-1.59 2.47-1.16.87-2.97.87-2.26 0-3.6-1.39-1.34-1.4-1.34-3.93 0-2.63 1.35-4.07 1.34-1.45 3.5-1.45 2.08 0 3.39 1.42 1.33 1.4 1.33 3.99l-.02.47h-7.73q.1 1.7.97 2.6.87.91 2.17.91.97 0 1.64-.5.69-.51 1.1-1.62Zm-5.78-2.85h5.8q-.11-1.3-.66-1.95-.84-1.02-2.19-1.02-1.2 0-2.03.82-.83.8-.92 2.15Zm9.67 6.19V36.42h1.6v1.49q1.14-1.72 3.3-1.72.93 0 1.71.34.8.33 1.19.88.39.55.55 1.3.09.5.09 1.71v6.38h-1.77v-6.31q0-1.08-.2-1.61t-.73-.85q-.52-.3-1.22-.3-1.13 0-1.94.71-.81.7-.81 2.69v5.67h-1.77ZM200.9 43l1.72.22q-.28 1.8-1.45 2.81-1.16 1-2.86 1-2.13 0-3.42-1.39-1.3-1.39-1.3-3.98 0-1.69.55-2.94.56-1.26 1.7-1.89 1.14-.64 2.49-.64 1.68 0 2.75.86t1.39 2.42l-1.72.27q-.24-1.05-.86-1.57-.63-.53-1.5-.53-1.33 0-2.16.96-.83.95-.83 3 0 2.1.8 3.04t2.1.94q1.03 0 1.71-.62.7-.64.9-1.96Zm3.14 7.8-.18-1.66q.58.16 1 .16.6 0 .93-.2.36-.2.58-.53.17-.27.55-1.32l.16-.43-3.94-10.4h1.89l2.16 6.02q.42 1.14.75 2.4.3-1.21.71-2.37l2.22-6.05h1.77l-3.95 10.55q-.63 1.72-.99 2.36-.47.88-1.08 1.27-.6.4-1.44.4-.51 0-1.14-.2Zm14.72-8.47v-1.42h11.13v1.42h-11.13Zm17.96-.12 1.78-.16q.12 1.06.58 1.75.46.69 1.43 1.13.99.42 2.22.42 1.08 0 1.9-.32.84-.32 1.24-.89.4-.56.4-1.23 0-.67-.38-1.17-.4-.5-1.28-.85-.58-.23-2.57-.7-1.96-.47-2.75-.89-1.03-.53-1.53-1.33t-.5-1.78q0-1.1.61-2.03.61-.94 1.8-1.42 1.19-.5 2.62-.5 1.6 0 2.82.51 1.22.52 1.86 1.52.65.98.7 2.25l-1.81.14q-.14-1.36-.99-2.05-.84-.7-2.5-.7-1.72 0-2.51.64-.78.63-.78 1.5 0 .78.56 1.28.55.5 2.86 1.02 2.31.51 3.17.9 1.25.58 1.84 1.47.6.88.6 2.03 0 1.14-.66 2.16-.66 1.02-1.89 1.58-1.22.56-2.75.56-1.94 0-3.25-.56-1.31-.58-2.06-1.72-.75-1.14-.78-2.56Zm13 0 1.78-.16q.12 1.06.58 1.75.46.69 1.43 1.13.99.42 2.22.42 1.08 0 1.9-.32.84-.32 1.24-.89.4-.56.4-1.23 0-.67-.38-1.17-.4-.5-1.28-.85-.58-.23-2.57-.7-1.96-.47-2.75-.89-1.03-.53-1.53-1.33t-.5-1.78q0-1.1.61-2.03.61-.94 1.8-1.42 1.19-.5 2.62-.5 1.6 0 2.82.51 1.22.52 1.86 1.52.65.98.7 2.25l-1.81.14q-.14-1.36-.99-2.05-.84-.7-2.5-.7-1.72 0-2.51.64-.78.63-.78 1.5 0 .78.56 1.28.55.5 2.86 1.02 2.31.51 3.17.9 1.25.58 1.84 1.47.6.88.6 2.03 0 1.14-.66 2.16-.66 1.02-1.89 1.58-1.22.56-2.75.56-1.94 0-3.25-.56-1.31-.58-2.06-1.72-.75-1.14-.78-2.56Zm13.95 4.59V32.49h1.9V46.8h-1.9Zm5.62 0V32.49h2.86l3.38 10.12.69 2.13.76-2.3 3.42-9.95h2.55V46.8h-1.81V34.82l-4.17 11.98h-1.7l-4.15-12.19V46.8h-1.83Zm26.46-14.31h1.89v8.26q0 2.16-.49 3.44-.48 1.27-1.76 2.06-1.27.8-3.35.8-2.01 0-3.3-.69-1.26-.7-1.8-2.01-.55-1.32-.55-3.6V32.5h1.89v8.25q0 1.87.34 2.76.35.88 1.19 1.36.84.47 2.08.47 2.08 0 2.97-.94.89-.95.89-3.65V32.5Zm3.53 14.31V32.49h1.89V45.1h7.05v1.69h-8.94Zm9.5 0 5.5-14.31h2.05l5.86 14.31h-2.16l-1.67-4.34h-5.99l-1.58 4.34h-2.01Zm4.14-5.88h4.84l-1.48-3.96q-.69-1.82-1.02-2.97-.28 1.37-.78 2.73l-1.56 4.2Zm20.66.86 1.89.47q-.6 2.35-2.14 3.58-1.55 1.22-3.8 1.22-2.31 0-3.77-.94-1.43-.95-2.2-2.73-.75-1.8-.75-3.85 0-2.23.84-3.89.86-1.67 2.44-2.53 1.58-.87 3.47-.87 2.16 0 3.6 1.1 1.48 1.08 2.06 3.07l-1.86.44q-.5-1.57-1.46-2.27-.93-.72-2.37-.72-1.66 0-2.77.8-1.1.78-1.56 2.12-.44 1.33-.44 2.74 0 1.83.53 3.2.54 1.36 1.66 2.03 1.13.67 2.42.67 1.6 0 2.7-.92 1.12-.92 1.5-2.72Zm3.8 5.02V32.49h6.35q1.9 0 2.9.39 1 .37 1.6 1.36.6.97.6 2.15 0 1.52-.99 2.57-.98 1.04-3.05 1.32.75.36 1.15.72.82.75 1.57 1.9l2.49 3.9h-2.38l-1.9-2.98q-.83-1.29-1.36-1.97-.53-.7-.97-.96-.42-.28-.86-.39-.33-.06-1.05-.06h-2.2v6.36h-1.9Zm1.9-8h4.08q1.3 0 2.01-.27.74-.26 1.11-.86.4-.59.4-1.28 0-1.01-.74-1.67-.74-.65-2.33-.65h-4.53v4.73Zm10.5 8 5.5-14.31h2.05l5.86 14.31h-2.16l-1.67-4.34h-5.99l-1.58 4.34h-2.01Zm4.14-5.88h4.84l-1.48-3.96q-.69-1.82-1.02-2.97-.28 1.37-.78 2.73l-1.56 4.2Zm18.95 4.2v1.68h-9.45q-.02-.64.2-1.22.36-.97 1.16-1.9.8-.94 2.3-2.18 2.34-1.9 3.15-3.01.83-1.13.83-2.13 0-1.04-.75-1.76t-1.95-.72q-1.27 0-2.03.76-.77.77-.77 2.11l-1.81-.18q.19-2.02 1.39-3.08 1.22-1.07 3.26-1.07 2.05 0 3.25 1.15 1.2 1.14 1.2 2.82 0 .86-.35 1.7-.35.83-1.16 1.76-.81.9-2.7 2.51-1.6 1.33-2.05 1.8-.44.47-.73.95h7.01Z"/></svg>