<svg
  xmlns="http://www.w3.org/2000/svg"
  width="698"
  height="473"
  fill="none"
  stroke-linecap="square"
  stroke-miterlimit="10"
>
  <path fill="oklch(0.95 0.06 83)" d="M0 0h698v473H0V0Z" /><path
    stroke="#d1bb92"
    stroke-linecap="butt"
    d="M156.5 123.5v274m211-274v274m123-274v274m87-274v274m68-274v274m-563 0h592"
  /><path stroke="#23211b" stroke-linecap="butt" d="M82.5 306.5h592" /><path
    stroke="#d1bb92"
    stroke-linecap="butt"
    d="M82.5 214.5h592m-592-91h592"
  /><path
    stroke="#f2dbb1"
    stroke-linecap="butt"
    d="M82.5 374.5h592m-592-23h592m-592-23h592m-592-45h592m-592-23h592m-592-23h592m-592-45h592m-592-23h592m-592-23h592"
  /><path
    stroke="#eddbb3"
    stroke-linecap="butt"
    d="M188.197 290.128v16m-95.713 33.178v16m7.409-18.217v16m19.491-40.265v16m35.588-55.02v16M324.75 185.418v16m147.215-53.706v16m99.511-25.77v16M186.825 361.993v16m35.015-44.361v16m45.423-84.563v16m198.181-55.157v16m0-15.042v16m30.298-31.932v16m164.476-35.029v16"
  /><clipPath id="a"><path
      d="M82.65 123.683h591.7V397.35H82.65V123.683Z"
    /></clipPath><path
    stroke="#90f"
    stroke-linecap="butt"
    stroke-width="2"
    d="m92.484 355.306 7.41-2.217 19.49-24.265 35.588-39.02 169.778-88.386 147.215-37.706 99.51-9.77"
    clip-path="url(#a)"
  /><path
    stroke="#4a86e8"
    stroke-linecap="butt"
    stroke-width="2"
    d="m186.825 377.993 35.015-28.361 45.423-68.563 198.18-39.157v.958l30.299-15.932 164.476-19.03"
    clip-path="url(#a)"
  /><path
    fill="#666"
    d="m183.954 301.885 4.243 2.743 4.242-2.743-2.742 4.243 2.742 4.242-4.242-2.742-4.243 2.742 2.743-4.242Z"
    clip-path="url(#a)"
  /><path
    fill="#90f"
    d="m88.241 351.063 4.243 2.743 4.242-2.743-2.742 4.243 2.742 4.242-4.242-2.742-4.243 2.742 2.743-4.242Z"
    clip-path="url(#a)"
  /><path
    fill="#90f"
    d="m95.65 348.846 4.243 2.743 4.243-2.743-2.743 4.243 2.743 4.243-4.243-2.743-4.242 2.743 2.742-4.243Zm19.491-24.265 4.243 2.743 4.242-2.743-2.742 4.243 2.742 4.243-4.242-2.743-4.243 2.743 2.743-4.243Zm35.589-39.021 4.242 2.744 4.243-2.743-2.743 4.243 2.743 4.242-4.243-2.742-4.242 2.742 2.742-4.242Zm169.777-88.384 4.243 2.742 4.243-2.742-2.743 4.242 2.743 4.243-4.243-2.743-4.243 2.743 2.743-4.243Zm147.215-37.707 4.243 2.743 4.243-2.743-2.743 4.243 2.743 4.242-4.243-2.742-4.243 2.742 2.743-4.242Zm99.511-9.769 4.243 2.742 4.242-2.743-2.742 4.243 2.742 4.242-4.242-2.742-4.243 2.742 2.743-4.242Z"
    clip-path="url(#a)"
  /><path
    fill="#4a86e8"
    d="m182.583 373.75 4.242 2.743 4.243-2.743-2.743 4.243 2.743 4.242-4.243-2.742-4.242 2.742 2.742-4.242Zm35.014-28.361 4.243 2.743 4.242-2.743-2.742 4.243 2.742 4.242-4.242-2.742-4.243 2.742 2.743-4.242Zm45.423-68.563 4.243 2.743 4.243-2.743-2.743 4.243 2.743 4.243-4.243-2.743-4.242 2.743 2.742-4.243Zm198.181-39.156 4.243 2.742 4.242-2.743-2.742 4.243 2.742 4.243-4.242-2.743-4.243 2.743 2.743-4.243Z"
    clip-path="url(#a)"
  /><path
    fill="#4a86e8"
    d="m461.201 238.627 4.243 2.743 4.242-2.743-2.742 4.243 2.742 4.242-4.242-2.742-4.243 2.742 2.743-4.242Zm30.298-15.932 4.243 2.743 4.242-2.743-2.742 4.243 2.742 4.242-4.242-2.742-4.243 2.742 2.743-4.242Zm164.477-19.029 4.242 2.743 4.243-2.743-2.743 4.243 2.743 4.242-4.243-2.742-4.242 2.742 2.742-4.242Z"
    clip-path="url(#a)"
  /><path
    stroke="oklch(0.95 0.06 83)"
    stroke-linecap="round"
    stroke-linejoin="round"
    stroke-width="3"
    d="m171.275 280.768-1.469 6.86h.672q.156 0 .219.062.062.047.062.14 0 .126-.11.22-.093.078-.28.078h-1.157l.203-.985q-1.093 1.172-2.437 1.172-.89 0-1.484-.593-.579-.594-.579-1.563 0-.781.47-1.578.468-.813 1.234-1.25.78-.453 1.53-.453 1.298 0 1.923 1.172l.593-2.782h-.656q-.172 0-.234-.046-.047-.063-.047-.157 0-.11.094-.203.093-.094.297-.094h1.156Zm-4.156 7.063q.515 0 .984-.219t.844-.578q.375-.375.609-.89.234-.516.234-1.063 0-.734-.484-1.219-.469-.484-1.203-.484-1.047 0-1.875.828-.813.828-.813 1.875 0 .766.485 1.266.484.484 1.219.484Zm10.359-2.125h-5.016q-.015.187-.015.281 0 .797.547 1.328.546.516 1.484.516.531 0 1.172-.172.64-.187 1.094-.5.14-.078.218-.078.078 0 .125.062.063.047.063.141 0 .094-.094.188-.266.296-1.078.578-.813.265-1.64.265-1.079 0-1.735-.625-.656-.64-.656-1.625 0-.656.28-1.234.282-.578.735-1 .469-.422 1.063-.688.61-.265 1.312-.265 1.016 0 1.625.594.61.593.61 1.515 0 .297-.094.719Zm-.39-.5q.03-.813-.485-1.328-.516-.5-1.375-.5-.844 0-1.578.5-.735.5-1.078 1.328h4.515Zm4.859-1.656-.875 4.078h2.172q.156 0 .218.062.063.047.063.14 0 .126-.11.22-.093.078-.28.078h-3.845q-.171 0-.234-.047-.047-.063-.047-.156 0-.11.094-.203.094-.094.281-.094h1.203l.86-4.078h-1.063q-.172 0-.234-.047-.047-.063-.047-.156 0-.11.094-.204.093-.093.297-.093h1.062l.156-.735q.14-.64.735-1.093.593-.454 1.437-.454.656 0 1.406.125.313.047.36.11.062.047.062.125 0 .125-.093.219-.094.078-.235.078-.047 0-.14-.016-.86-.14-1.454-.14-.671 0-1.093.328-.407.312-.485.718l-.156.735h2.297q.172 0 .219.047.062.062.062.156 0 .11-.094.203-.093.094-.296.094h-2.297Zm7.765 4.578.157-.703q-1.266.89-2.485.89-.781 0-1.187-.343-.391-.36-.391-.875 0-.813.703-1.391.86-.719 2.266-.719.687 0 1.578.188l.156-.797q.031-.094.031-.172 0-.344-.28-.547-.36-.281-1.032-.281-.563 0-1.75.344-.125.046-.188.046-.078 0-.14-.046-.047-.063-.047-.141 0-.125.078-.203.094-.094.672-.235 1.016-.265 1.5-.265.844 0 1.266.375.421.36.421.828 0 .156-.03.297l-.688 3.25h.656q.172 0 .219.062.062.047.062.14 0 .126-.094.22-.093.078-.296.078h-1.157Zm.532-2.453q-.672-.188-1.516-.188-1.172 0-1.89.547-.532.406-.532.938 0 .375.281.625.282.234.86.234.64 0 1.234-.25.61-.25 1.328-.813l.235-1.093Zm6.734 2.453.156-.719q-1.203.906-2.39.906-.579 0-.922-.328-.344-.344-.344-.86 0-.187.047-.405l.672-3.172h-.672q-.156 0-.219-.047-.062-.063-.062-.156 0-.11.093-.204.11-.093.297-.093h1.156l-.78 3.672q-.016.125-.016.25 0 .39.218.625.235.234.625.234 1.219 0 2.438-1.11l.687-3.171h-.922q-.156 0-.218-.047-.063-.063-.063-.156 0-.11.094-.204.11-.093.297-.093h1.406l-.969 4.578h.407q.171 0 .218.062.063.047.063.14 0 .126-.094.22-.094.078-.297.078h-.906Zm7.14-7.36-1.453 6.86h1.922q.172 0 .219.062.063.047.063.14 0 .126-.094.22-.094.078-.281.078h-4.36q-.172 0-.234-.047-.047-.063-.047-.156 0-.11.094-.203.093-.094.28-.094h1.938l1.36-6.36h-1.422q-.172 0-.234-.046-.047-.063-.047-.157 0-.11.093-.203.094-.094.282-.094h1.922Zm5.266 2.282h2.672q.172 0 .219.047.062.046.062.156 0 .094-.047.172-.03.062-.093.093-.078.032-.235.032h-2.672l-.703 3.28q-.031.142-.031.25 0 .282.281.517.297.234.86.234.515 0 1.125-.14.625-.157.984-.344.125-.079.203-.079.094 0 .14.063.048.047.048.14 0 .126-.141.235-.36.25-1.266.469-.64.14-1.203.14-.734 0-1.14-.328-.391-.344-.391-.828 0-.156.031-.328l.703-3.281h-.906q-.172 0-.234-.047-.047-.063-.047-.156 0-.11.094-.204.093-.093.28-.093h.907l.313-1.453q.047-.172.125-.25.093-.079.203-.079.078 0 .125.063.062.047.062.125 0 .047-.015.14l-.313 1.454Z"
  /><path
    fill="#666"
    d="m171.275 280.768-1.469 6.86h.672q.156 0 .219.062.062.047.062.14 0 .126-.11.22-.093.078-.28.078h-1.157l.203-.985q-1.093 1.172-2.437 1.172-.89 0-1.484-.593-.579-.594-.579-1.563 0-.781.47-1.578.468-.813 1.234-1.25.78-.453 1.53-.453 1.298 0 1.923 1.172l.593-2.782h-.656q-.172 0-.234-.046-.047-.063-.047-.157 0-.11.094-.203.093-.094.297-.094h1.156Zm-4.156 7.063q.515 0 .984-.219t.844-.578q.375-.375.609-.89.234-.516.234-1.063 0-.734-.484-1.219-.469-.484-1.203-.484-1.047 0-1.875.828-.813.828-.813 1.875 0 .766.485 1.266.484.484 1.219.484Zm10.359-2.125h-5.016q-.015.187-.015.281 0 .797.547 1.328.546.516 1.484.516.531 0 1.172-.172.64-.187 1.094-.5.14-.078.218-.078.078 0 .125.062.063.047.063.141 0 .094-.094.188-.266.296-1.078.578-.813.265-1.64.265-1.079 0-1.735-.625-.656-.64-.656-1.625 0-.656.28-1.234.282-.578.735-1 .469-.422 1.063-.688.61-.265 1.312-.265 1.016 0 1.625.594.61.593.61 1.515 0 .297-.094.719Zm-.39-.5q.03-.813-.485-1.328-.516-.5-1.375-.5-.844 0-1.578.5-.735.5-1.078 1.328h4.515Zm4.859-1.656-.875 4.078h2.172q.156 0 .218.062.063.047.063.14 0 .126-.11.22-.093.078-.28.078h-3.845q-.171 0-.234-.047-.047-.063-.047-.156 0-.11.094-.203.094-.094.281-.094h1.203l.86-4.078h-1.063q-.172 0-.234-.047-.047-.063-.047-.156 0-.11.094-.204.093-.093.297-.093h1.062l.156-.735q.14-.64.735-1.093.593-.454 1.437-.454.656 0 1.406.125.313.047.36.11.062.047.062.125 0 .125-.093.219-.094.078-.235.078-.047 0-.14-.016-.86-.14-1.454-.14-.671 0-1.093.328-.407.312-.485.718l-.156.735h2.297q.172 0 .219.047.062.062.062.156 0 .11-.094.203-.093.094-.296.094h-2.297Zm7.765 4.578.157-.703q-1.266.89-2.485.89-.781 0-1.187-.343-.391-.36-.391-.875 0-.813.703-1.391.86-.719 2.266-.719.687 0 1.578.188l.156-.797q.031-.094.031-.172 0-.344-.28-.547-.36-.281-1.032-.281-.563 0-1.75.344-.125.046-.188.046-.078 0-.14-.046-.047-.063-.047-.141 0-.125.078-.203.094-.094.672-.235 1.016-.265 1.5-.265.844 0 1.266.375.421.36.421.828 0 .156-.03.297l-.688 3.25h.656q.172 0 .219.062.062.047.062.14 0 .126-.094.22-.093.078-.296.078h-1.157Zm.532-2.453q-.672-.188-1.516-.188-1.172 0-1.89.547-.532.406-.532.938 0 .375.281.625.282.234.86.234.64 0 1.234-.25.61-.25 1.328-.813l.235-1.093Zm6.734 2.453.156-.719q-1.203.906-2.39.906-.579 0-.922-.328-.344-.344-.344-.86 0-.187.047-.405l.672-3.172h-.672q-.156 0-.219-.047-.062-.063-.062-.156 0-.11.093-.204.11-.093.297-.093h1.156l-.78 3.672q-.016.125-.016.25 0 .39.218.625.235.234.625.234 1.219 0 2.438-1.11l.687-3.171h-.922q-.156 0-.218-.047-.063-.063-.063-.156 0-.11.094-.204.11-.093.297-.093h1.406l-.969 4.578h.407q.171 0 .218.062.063.047.063.14 0 .126-.094.22-.094.078-.297.078h-.906Zm7.14-7.36-1.453 6.86h1.922q.172 0 .219.062.063.047.063.14 0 .126-.094.22-.094.078-.281.078h-4.36q-.172 0-.234-.047-.047-.063-.047-.156 0-.11.094-.203.093-.094.28-.094h1.938l1.36-6.36h-1.422q-.172 0-.234-.046-.047-.063-.047-.157 0-.11.093-.203.094-.094.282-.094h1.922Zm5.266 2.282h2.672q.172 0 .219.047.062.046.062.156 0 .094-.047.172-.03.062-.093.093-.078.032-.235.032h-2.672l-.703 3.28q-.031.142-.031.25 0 .282.281.517.297.234.86.234.515 0 1.125-.14.625-.157.984-.344.125-.079.203-.079.094 0 .14.063.048.047.048.14 0 .126-.141.235-.36.25-1.266.469-.64.14-1.203.14-.734 0-1.14-.328-.391-.344-.391-.828 0-.156.031-.328l.703-3.281h-.906q-.172 0-.234-.047-.047-.063-.047-.156 0-.11.094-.204.093-.093.28-.093h.907l.313-1.453q.047-.172.125-.25.093-.079.203-.079.078 0 .125.063.062.047.062.125 0 .047-.015.14l-.313 1.454Z"
  /><path
    stroke="oklch(0.95 0.06 83)"
    stroke-linecap="round"
    stroke-linejoin="round"
    stroke-width="3"
    d="M91.718 332.556q.047-.172.125-.25.094-.078.203-.078.078 0 .125.062.063.047.063.125 0 .047-.016.156l-.172.844q-.047.172-.14.25-.078.078-.188.078-.078 0-.14-.047-.047-.062-.047-.14v-.188q0-.312-.282-.515-.406-.297-1.156-.297-.906 0-1.437.39-.407.282-.407.61 0 .312.36.515.25.14 1.062.235.813.078 1.157.203.5.156.734.453.25.297.25.672 0 .437-.328.875-.313.422-.969.703-.64.281-1.453.281-.578 0-1.031-.156-.438-.14-.75-.438-.047.25-.125.313-.094.094-.22.094-.077 0-.14-.047-.047-.063-.047-.14 0-.048.016-.141l.219-1.016q.031-.172.125-.25.094-.078.203-.078.078 0 .125.062.062.047.062.125 0 .047-.015.14-.016.079-.016.126 0 .328.344.578.453.344 1.328.344 1.063 0 1.61-.406.546-.422.546-.844 0-.219-.172-.422-.156-.219-.484-.344-.328-.125-1.078-.203-.734-.094-1.078-.203-.344-.125-.547-.36-.188-.25-.188-.578 0-.359.25-.718.25-.36.844-.61.594-.265 1.328-.265.5 0 .89.125.392.125.657.375Zm3.563 1.64q.625-.703 1.172-1.015.562-.313 1.14-.313.656 0 1.11.485.453.484.453 1.28 0 .563-.266 1.126-.25.562-.625.937-.36.36-.812.578-.438.204-.954.204-.78 0-1.28-.563-.5-.578-.5-1.797 0-1.64.687-2.875.687-1.25 1.984-1.953.953-.516 1.875-.516.438 0 .734.172.125.094.125.203 0 .125-.078.22-.078.077-.203.077-.078 0-.172-.062-.203-.11-.562-.11-.656 0-1.375.36t-1.297.984q-.578.61-.86 1.328-.187.469-.296 1.25Zm-.063.813q0 1.078.375 1.531.39.453 1.047.453.75 0 1.375-.687.64-.688.64-1.594 0-.594-.359-.969-.343-.375-.828-.375-.578 0-1.187.469-.438.328-1.063 1.172Z"
  /><path
    fill="#90f"
    d="M91.718 332.556q.047-.172.125-.25.094-.078.203-.078.078 0 .125.062.063.047.063.125 0 .047-.016.156l-.172.844q-.047.172-.14.25-.078.078-.188.078-.078 0-.14-.047-.047-.062-.047-.14v-.188q0-.312-.282-.515-.406-.297-1.156-.297-.906 0-1.437.39-.407.282-.407.61 0 .312.36.515.25.14 1.062.235.813.078 1.157.203.5.156.734.453.25.297.25.672 0 .437-.328.875-.313.422-.969.703-.64.281-1.453.281-.578 0-1.031-.156-.438-.14-.75-.438-.047.25-.125.313-.094.094-.22.094-.077 0-.14-.047-.047-.063-.047-.14 0-.048.016-.141l.219-1.016q.031-.172.125-.25.094-.078.203-.078.078 0 .125.062.062.047.062.125 0 .047-.015.14-.016.079-.016.126 0 .328.344.578.453.344 1.328.344 1.063 0 1.61-.406.546-.422.546-.844 0-.219-.172-.422-.156-.219-.484-.344-.328-.125-1.078-.203-.734-.094-1.078-.203-.344-.125-.547-.36-.188-.25-.188-.578 0-.359.25-.718.25-.36.844-.61.594-.265 1.328-.265.5 0 .89.125.392.125.657.375Zm3.563 1.64q.625-.703 1.172-1.015.562-.313 1.14-.313.656 0 1.11.485.453.484.453 1.28 0 .563-.266 1.126-.25.562-.625.937-.36.36-.812.578-.438.204-.954.204-.78 0-1.28-.563-.5-.578-.5-1.797 0-1.64.687-2.875.687-1.25 1.984-1.953.953-.516 1.875-.516.438 0 .734.172.125.094.125.203 0 .125-.078.22-.078.077-.203.077-.078 0-.172-.062-.203-.11-.562-.11-.656 0-1.375.36t-1.297.984q-.578.61-.86 1.328-.187.469-.296 1.25Zm-.063.813q0 1.078.375 1.531.39.453 1.047.453.75 0 1.375-.687.64-.688.64-1.594 0-.594-.359-.969-.343-.375-.828-.375-.578 0-1.187.469-.438.328-1.063 1.172Z"
  /><path
    stroke="oklch(0.95 0.06 83)"
    stroke-linecap="round"
    stroke-linejoin="round"
    stroke-width="3"
    d="M99.128 330.339q.046-.172.125-.25.093-.078.203-.078.078 0 .125.062.062.047.062.125 0 .047-.015.157l-.172.843q-.047.172-.14.25-.079.079-.188.079-.079 0-.141-.047-.047-.063-.047-.141v-.188q0-.312-.281-.515-.406-.297-1.156-.297-.907 0-1.438.39-.406.282-.406.61 0 .313.36.516.25.14 1.062.234.812.078 1.156.203.5.156.734.453.25.297.25.672 0 .438-.328.875-.312.422-.969.703-.64.281-1.453.281-.578 0-1.03-.156-.438-.14-.75-.437-.048.25-.126.312-.094.094-.219.094-.078 0-.14-.047-.047-.062-.047-.14 0-.047.015-.141l.22-1.016q.03-.172.124-.25.094-.078.203-.078.078 0 .125.063.063.046.063.125 0 .046-.016.14-.015.078-.015.125 0 .328.343.578.453.344 1.328.344 1.063 0 1.61-.406.547-.422.547-.844 0-.219-.172-.422-.156-.219-.485-.344-.328-.125-1.078-.203-.734-.093-1.078-.203-.344-.125-.547-.36-.187-.25-.187-.577 0-.36.25-.719.25-.36.844-.61.593-.265 1.328-.265.5 0 .89.125.391.125.657.375Zm4.468-2.11-.515 2.407q.468-.172.89-.266.422-.094.782-.094.78 0 1.25.485.484.469.484 1.265 0 .782-.438 1.594-.437.797-1.156 1.219-.719.422-1.484.422-.594 0-1.125-.219-.531-.234-.906-.656-.125-.14-.125-.235 0-.125.078-.218.093-.094.203-.094.11 0 .203.11.703.827 1.75.827.64 0 1.203-.343.578-.36.922-1.016.36-.656.36-1.281 0-.625-.376-.985-.359-.375-1-.375-.765 0-1.625.391-.203.094-.28.094-.079 0-.142-.047-.046-.047-.046-.125 0-.047.015-.094l.688-3.265h3.437q.125 0 .172.03.047.017.078.063.031.047.031.11 0 .125-.109.219-.094.078-.281.078h-2.938Z"
  /><path
    fill="#90f"
    d="M99.128 330.339q.046-.172.125-.25.093-.078.203-.078.078 0 .125.062.062.047.062.125 0 .047-.015.157l-.172.843q-.047.172-.14.25-.079.079-.188.079-.079 0-.141-.047-.047-.063-.047-.141v-.188q0-.312-.281-.515-.406-.297-1.156-.297-.907 0-1.438.39-.406.282-.406.61 0 .313.36.516.25.14 1.062.234.812.078 1.156.203.5.156.734.453.25.297.25.672 0 .438-.328.875-.312.422-.969.703-.64.281-1.453.281-.578 0-1.03-.156-.438-.14-.75-.437-.048.25-.126.312-.094.094-.219.094-.078 0-.14-.047-.047-.062-.047-.14 0-.047.015-.141l.22-1.016q.03-.172.124-.25.094-.078.203-.078.078 0 .125.063.063.046.063.125 0 .046-.016.14-.015.078-.015.125 0 .328.343.578.453.344 1.328.344 1.063 0 1.61-.406.547-.422.547-.844 0-.219-.172-.422-.156-.219-.485-.344-.328-.125-1.078-.203-.734-.093-1.078-.203-.344-.125-.547-.36-.187-.25-.187-.577 0-.36.25-.719.25-.36.844-.61.593-.265 1.328-.265.5 0 .89.125.391.125.657.375Zm4.468-2.11-.515 2.407q.468-.172.89-.266.422-.094.782-.094.78 0 1.25.485.484.469.484 1.265 0 .782-.438 1.594-.437.797-1.156 1.219-.719.422-1.484.422-.594 0-1.125-.219-.531-.234-.906-.656-.125-.14-.125-.235 0-.125.078-.218.093-.094.203-.094.11 0 .203.11.703.827 1.75.827.64 0 1.203-.343.578-.36.922-1.016.36-.656.36-1.281 0-.625-.376-.985-.359-.375-1-.375-.765 0-1.625.391-.203.094-.28.094-.079 0-.142-.047-.046-.047-.046-.125 0-.047.015-.094l.688-3.265h3.437q.125 0 .172.03.047.017.078.063.031.047.031.11 0 .125-.109.219-.094.078-.281.078h-2.938Z"
  /><path
    stroke="oklch(0.95 0.06 83)"
    stroke-linecap="round"
    stroke-linejoin="round"
    stroke-width="3"
    d="M118.618 306.074q.047-.172.125-.25.094-.078.203-.078.078 0 .125.062.063.047.063.125 0 .047-.016.156l-.172.844q-.047.172-.14.25-.078.078-.188.078-.078 0-.14-.047-.047-.062-.047-.14v-.188q0-.312-.282-.515-.406-.297-1.156-.297-.906 0-1.437.39-.407.282-.407.61 0 .312.36.515.25.141 1.062.235.813.078 1.157.203.5.156.734.453.25.297.25.672 0 .437-.328.875-.313.422-.969.703-.64.281-1.453.281-.578 0-1.031-.156-.438-.14-.75-.437-.047.25-.125.312-.094.094-.219.094-.078 0-.14-.047-.048-.063-.048-.14 0-.048.016-.141l.219-1.016q.031-.172.125-.25.094-.078.203-.078.078 0 .125.062.062.047.062.125 0 .047-.015.141-.016.078-.016.125 0 .328.344.578.453.344 1.328.344 1.063 0 1.61-.406.546-.422.546-.844 0-.219-.172-.422-.156-.219-.484-.344-.328-.125-1.078-.203-.734-.094-1.078-.203-.344-.125-.547-.36-.188-.25-.188-.577 0-.36.25-.72.25-.359.844-.609.594-.265 1.328-.265.5 0 .891.125.39.125.656.375Zm5.719 2.687h-3.266l.125-.562 3.75-4.735h1.016l-1.016 4.813h.407q.171 0 .218.031.063.063.063.156 0 .125-.094.22-.094.077-.297.077h-.406l-.328 1.563h.406q.172 0 .219.062.062.047.062.141 0 .125-.093.219-.094.078-.282.078h-1.843q-.157 0-.22-.047-.062-.063-.062-.156 0-.11.094-.203.11-.094.297-.094h.922l.328-1.563Zm.11-.484.921-4.313h-.265l-3.407 4.313h2.75Z"
  /><path
    fill="#90f"
    d="M118.618 306.074q.047-.172.125-.25.094-.078.203-.078.078 0 .125.062.063.047.063.125 0 .047-.016.156l-.172.844q-.047.172-.14.25-.078.078-.188.078-.078 0-.14-.047-.047-.062-.047-.14v-.188q0-.312-.282-.515-.406-.297-1.156-.297-.906 0-1.437.39-.407.282-.407.61 0 .312.36.515.25.141 1.062.235.813.078 1.157.203.5.156.734.453.25.297.25.672 0 .437-.328.875-.313.422-.969.703-.64.281-1.453.281-.578 0-1.031-.156-.438-.14-.75-.437-.047.25-.125.312-.094.094-.219.094-.078 0-.14-.047-.048-.063-.048-.14 0-.048.016-.141l.219-1.016q.031-.172.125-.25.094-.078.203-.078.078 0 .125.062.062.047.062.125 0 .047-.015.141-.016.078-.016.125 0 .328.344.578.453.344 1.328.344 1.063 0 1.61-.406.546-.422.546-.844 0-.219-.172-.422-.156-.219-.484-.344-.328-.125-1.078-.203-.734-.094-1.078-.203-.344-.125-.547-.36-.188-.25-.188-.577 0-.36.25-.72.25-.359.844-.609.594-.265 1.328-.265.5 0 .891.125.39.125.656.375Zm5.719 2.687h-3.266l.125-.562 3.75-4.735h1.016l-1.016 4.813h.407q.171 0 .218.031.063.063.063.156 0 .125-.094.22-.094.077-.297.077h-.406l-.328 1.563h.406q.172 0 .219.062.062.047.062.141 0 .125-.093.219-.094.078-.282.078h-1.843q-.157 0-.22-.047-.062-.063-.062-.156 0-.11.094-.203.11-.094.297-.094h.922l.328-1.563Zm.11-.484.921-4.313h-.265l-3.407 4.313h2.75Z"
  /><path
    stroke="oklch(0.95 0.06 83)"
    stroke-linecap="round"
    stroke-linejoin="round"
    stroke-width="3"
    d="M154.207 267.054q.047-.172.125-.25.093-.079.203-.079.078 0 .125.063.062.047.062.125 0 .047-.015.156l-.172.844q-.047.172-.14.25-.079.078-.188.078-.078 0-.14-.047-.048-.062-.048-.14v-.188q0-.312-.281-.516-.406-.296-1.156-.296-.907 0-1.438.39-.406.281-.406.61 0 .312.36.515.25.14 1.062.235.812.078 1.156.203.5.156.734.453.25.297.25.672 0 .437-.328.875-.312.422-.968.703-.641.281-1.454.281-.578 0-1.03-.156-.438-.14-.75-.438-.048.25-.126.313-.094.094-.219.094-.078 0-.14-.047-.047-.063-.047-.14 0-.048.016-.142l.218-1.015q.032-.172.125-.25.094-.078.203-.078.079 0 .125.062.063.047.063.125 0 .047-.016.14-.015.079-.015.126 0 .328.343.578.454.344 1.329.344 1.062 0 1.609-.407.547-.421.547-.843 0-.22-.172-.422-.156-.219-.484-.344-.329-.125-1.079-.203-.734-.094-1.078-.203-.343-.125-.547-.36-.187-.25-.187-.578 0-.36.25-.718.25-.36.844-.61.593-.265 1.328-.265.5 0 .89.125.391.125.657.375Zm6.234.75q.516.25.766.671.25.422.25.891 0 .563-.407 1.203-.39.64-1.125 1.031-.734.375-1.5.375-.89 0-1.703-.5-.437-.28-.437-.468 0-.11.094-.188.093-.094.187-.094.11 0 .203.094.766.672 1.766.672.984 0 1.703-.656.719-.656.719-1.375 0-.375-.219-.719t-.672-.547q-.453-.203-.922-.203-.187 0-.234-.047-.063-.062-.063-.156 0-.11.094-.203.094-.094.25-.094l.438.016q.734 0 1.28-.516.532-.484.532-1.078 0-.484-.36-.813-.359-.328-1-.328-.5 0-.968.172-.469.172-.781.485-.188.156-.297.156-.094 0-.156-.047-.047-.047-.047-.14 0-.094.11-.204.374-.406 1-.656.624-.266 1.265-.266.812 0 1.281.438.469.437.469 1.094 0 .578-.407 1.14-.39.547-1.109.86Z"
  /><path
    fill="#90f"
    d="M154.207 267.054q.047-.172.125-.25.093-.079.203-.079.078 0 .125.063.062.047.062.125 0 .047-.015.156l-.172.844q-.047.172-.14.25-.079.078-.188.078-.078 0-.14-.047-.048-.062-.048-.14v-.188q0-.312-.281-.516-.406-.296-1.156-.296-.907 0-1.438.39-.406.281-.406.61 0 .312.36.515.25.14 1.062.235.812.078 1.156.203.5.156.734.453.25.297.25.672 0 .437-.328.875-.312.422-.968.703-.641.281-1.454.281-.578 0-1.03-.156-.438-.14-.75-.438-.048.25-.126.313-.094.094-.219.094-.078 0-.14-.047-.047-.063-.047-.14 0-.048.016-.142l.218-1.015q.032-.172.125-.25.094-.078.203-.078.079 0 .125.062.063.047.063.125 0 .047-.016.14-.015.079-.015.126 0 .328.343.578.454.344 1.329.344 1.062 0 1.609-.407.547-.421.547-.843 0-.22-.172-.422-.156-.219-.484-.344-.329-.125-1.079-.203-.734-.094-1.078-.203-.343-.125-.547-.36-.187-.25-.187-.578 0-.36.25-.718.25-.36.844-.61.593-.265 1.328-.265.5 0 .89.125.391.125.657.375Zm6.234.75q.516.25.766.671.25.422.25.891 0 .563-.407 1.203-.39.64-1.125 1.031-.734.375-1.5.375-.89 0-1.703-.5-.437-.28-.437-.468 0-.11.094-.188.093-.094.187-.094.11 0 .203.094.766.672 1.766.672.984 0 1.703-.656.719-.656.719-1.375 0-.375-.219-.719t-.672-.547q-.453-.203-.922-.203-.187 0-.234-.047-.063-.062-.063-.156 0-.11.094-.203.094-.094.25-.094l.438.016q.734 0 1.28-.516.532-.484.532-1.078 0-.484-.36-.813-.359-.328-1-.328-.5 0-.968.172-.469.172-.781.485-.188.156-.297.156-.094 0-.156-.047-.047-.047-.047-.14 0-.094.11-.204.374-.406 1-.656.624-.266 1.265-.266.812 0 1.281.438.469.437.469 1.094 0 .578-.407 1.14-.39.547-1.109.86Z"
  /><path
    stroke="oklch(0.95 0.06 83)"
    stroke-linecap="round"
    stroke-linejoin="round"
    stroke-width="3"
    d="M323.984 178.668q.047-.172.125-.25.094-.078.203-.078.078 0 .125.063.063.047.063.125 0 .047-.016.156l-.172.844q-.047.172-.14.25-.078.078-.188.078-.078 0-.14-.047-.047-.063-.047-.14v-.188q0-.313-.282-.516-.406-.297-1.156-.297-.906 0-1.437.391-.407.281-.407.61 0 .312.36.515.25.14 1.062.234.813.078 1.157.203.5.157.734.454.25.296.25.671 0 .438-.328.875-.313.422-.969.704-.64.28-1.453.28-.578 0-1.031-.155-.438-.141-.75-.438-.047.25-.125.313-.094.093-.219.093-.078 0-.14-.047-.048-.062-.048-.14 0-.047.016-.14l.219-1.016q.031-.172.125-.25.094-.079.203-.079.078 0 .125.063.063.047.063.125 0 .047-.016.14-.016.079-.016.126 0 .328.344.578.453.343 1.328.343 1.063 0 1.61-.406.546-.422.546-.844 0-.218-.172-.421-.156-.22-.484-.344-.328-.125-1.078-.203-.734-.094-1.078-.203-.344-.125-.547-.36-.188-.25-.188-.578 0-.36.25-.719t.844-.609q.594-.266 1.328-.266.5 0 .891.125.39.125.656.375Zm2.36 4.25h3.78q.063-.343.141-.422.094-.093.22-.093.077 0 .124.062.063.047.063.11 0 .062-.016.156l-.14.687h-4.766l.156-.734q1.906-1.438 3.61-2.828.812-.656 1.124-.985.313-.343.438-.609.125-.281.125-.562 0-.547-.406-.922-.407-.39-1.016-.39-.64 0-1.234.358-.578.36-.844.922-.11.235-.297.235-.094 0-.156-.047-.047-.047-.047-.125 0-.203.313-.61.453-.593 1.078-.906.64-.328 1.296-.328.766 0 1.282.516.531.5.531 1.218 0 .329-.156.688-.14.36-.485.734-.328.36-1.125 1.016-2.187 1.812-3.593 2.828v.031Z"
  /><path
    fill="#90f"
    d="M323.984 178.668q.047-.172.125-.25.094-.078.203-.078.078 0 .125.063.063.047.063.125 0 .047-.016.156l-.172.844q-.047.172-.14.25-.078.078-.188.078-.078 0-.14-.047-.047-.063-.047-.14v-.188q0-.313-.282-.516-.406-.297-1.156-.297-.906 0-1.437.391-.407.281-.407.61 0 .312.36.515.25.14 1.062.234.813.078 1.157.203.5.157.734.454.25.296.25.671 0 .438-.328.875-.313.422-.969.704-.64.28-1.453.28-.578 0-1.031-.155-.438-.141-.75-.438-.047.25-.125.313-.094.093-.219.093-.078 0-.14-.047-.048-.062-.048-.14 0-.047.016-.14l.219-1.016q.031-.172.125-.25.094-.079.203-.079.078 0 .125.063.063.047.063.125 0 .047-.016.14-.016.079-.016.126 0 .328.344.578.453.343 1.328.343 1.063 0 1.61-.406.546-.422.546-.844 0-.218-.172-.421-.156-.22-.484-.344-.328-.125-1.078-.203-.734-.094-1.078-.203-.344-.125-.547-.36-.188-.25-.188-.578 0-.36.25-.719t.844-.609q.594-.266 1.328-.266.5 0 .891.125.39.125.656.375Zm2.36 4.25h3.78q.063-.343.141-.422.094-.093.22-.093.077 0 .124.062.063.047.063.11 0 .062-.016.156l-.14.687h-4.766l.156-.734q1.906-1.438 3.61-2.828.812-.656 1.124-.985.313-.343.438-.609.125-.281.125-.562 0-.547-.406-.922-.407-.39-1.016-.39-.64 0-1.234.358-.578.36-.844.922-.11.235-.297.235-.094 0-.156-.047-.047-.047-.047-.125 0-.203.313-.61.453-.593 1.078-.906.64-.328 1.296-.328.766 0 1.282.516.531.5.531 1.218 0 .329-.156.688-.14.36-.485.734-.328.36-1.125 1.016-2.187 1.812-3.593 2.828v.031Z"
  /><path
    stroke="oklch(0.95 0.06 83)"
    stroke-linecap="round"
    stroke-linejoin="round"
    stroke-width="3"
    d="M471.2 140.962q.046-.172.124-.25.094-.078.203-.078.079 0 .125.062.063.047.063.125 0 .047-.016.156l-.172.844q-.046.172-.14.25-.078.078-.188.078-.078 0-.14-.047-.047-.062-.047-.14v-.188q0-.312-.281-.515-.407-.297-1.157-.297-.906 0-1.437.39-.406.282-.406.61 0 .312.359.515.25.14 1.062.235.813.078 1.157.203.5.156.734.453.25.297.25.672 0 .437-.328.875-.313.422-.969.703-.64.281-1.453.281-.578 0-1.031-.156-.438-.14-.75-.438-.047.25-.125.313-.094.094-.219.094-.078 0-.14-.047-.047-.063-.047-.14 0-.048.015-.141l.219-1.016q.031-.172.125-.25.094-.078.203-.078.078 0 .125.062.063.047.063.125 0 .047-.016.14-.016.079-.016.126 0 .328.344.578.453.344 1.328.344 1.063 0 1.61-.406.546-.422.546-.844 0-.219-.171-.422-.157-.219-.485-.344-.328-.125-1.078-.203-.734-.094-1.078-.203-.344-.125-.547-.36-.187-.25-.187-.578 0-.359.25-.718.25-.36.843-.61.594-.265 1.328-.265.5 0 .891.125.39.125.656.375Zm6.187-2.703-1.469 6.953h1.688q.156 0 .218.062.063.047.063.14 0 .126-.11.22-.093.078-.28.078h-3.86q-.172 0-.235-.047-.046-.063-.046-.156 0-.11.093-.204.094-.093.282-.093h1.687l1.328-6.282-1.703.516q-.125.031-.187.031-.063 0-.125-.047-.047-.062-.047-.14 0-.11.062-.188.063-.078.25-.14l2.39-.703Z"
  /><path
    fill="#90f"
    d="M471.2 140.962q.046-.172.124-.25.094-.078.203-.078.079 0 .125.062.063.047.063.125 0 .047-.016.156l-.172.844q-.046.172-.14.25-.078.078-.188.078-.078 0-.14-.047-.047-.062-.047-.14v-.188q0-.312-.281-.515-.407-.297-1.157-.297-.906 0-1.437.39-.406.282-.406.61 0 .312.359.515.25.14 1.062.235.813.078 1.157.203.5.156.734.453.25.297.25.672 0 .437-.328.875-.313.422-.969.703-.64.281-1.453.281-.578 0-1.031-.156-.438-.14-.75-.438-.047.25-.125.313-.094.094-.219.094-.078 0-.14-.047-.047-.063-.047-.14 0-.048.015-.141l.219-1.016q.031-.172.125-.25.094-.078.203-.078.078 0 .125.062.063.047.063.125 0 .047-.016.14-.016.079-.016.126 0 .328.344.578.453.344 1.328.344 1.063 0 1.61-.406.546-.422.546-.844 0-.219-.171-.422-.157-.219-.485-.344-.328-.125-1.078-.203-.734-.094-1.078-.203-.344-.125-.547-.36-.187-.25-.187-.578 0-.359.25-.718.25-.36.843-.61.594-.265 1.328-.265.5 0 .891.125.39.125.656.375Zm6.187-2.703-1.469 6.953h1.688q.156 0 .218.062.063.047.063.14 0 .126-.11.22-.093.078-.28.078h-3.86q-.172 0-.235-.047-.046-.063-.046-.156 0-.11.093-.204.094-.093.282-.093h1.687l1.328-6.282-1.703.516q-.125.031-.187.031-.063 0-.125-.047-.047-.062-.047-.14 0-.11.062-.188.063-.078.25-.14l2.39-.703Z"
  /><path
    stroke="oklch(0.95 0.06 83)"
    stroke-linecap="round"
    stroke-linejoin="round"
    stroke-width="3"
    d="M570.71 131.192q.047-.172.125-.25.094-.078.203-.078.078 0 .125.062.063.047.063.125 0 .047-.016.156l-.172.844q-.047.172-.14.25-.079.078-.188.078-.078 0-.14-.047-.048-.062-.048-.14v-.188q0-.312-.28-.515-.407-.297-1.157-.297-.906 0-1.438.39-.406.282-.406.61 0 .312.36.515.25.141 1.062.235.813.078 1.156.203.5.156.735.453.25.297.25.672 0 .437-.328.875-.313.422-.97.703-.64.281-1.452.281-.578 0-1.032-.156-.437-.14-.75-.438-.046.25-.125.313-.093.094-.218.094-.078 0-.14-.047-.048-.063-.048-.14 0-.048.016-.141l.219-1.016q.03-.172.125-.25.093-.078.203-.078.078 0 .125.062.062.047.062.125 0 .047-.015.141-.016.078-.016.125 0 .328.344.578.453.344 1.328.344 1.062 0 1.61-.406.546-.422.546-.844 0-.219-.172-.422-.156-.219-.484-.344-.328-.125-1.078-.203-.735-.094-1.078-.203-.344-.125-.547-.36-.188-.25-.188-.578 0-.359.25-.718.25-.36.844-.61.594-.265 1.328-.265.5 0 .89.125.391.125.657.375Zm7.547.468-.266 1.22q-.344 1.593-1.281 2.515-.75.719-1.64.719-.594 0-.985-.282-.39-.28-.531-.734-.203-.64-.203-1.219 0-.437.125-1l.25-1.219q.343-1.609 1.296-2.515.75-.735 1.625-.735.594 0 .985.282.39.281.531.75.203.64.203 1.203 0 .437-.11 1.015Zm-.516.063q.094-.453.094-.828 0-.813-.172-1.219-.156-.406-.437-.578-.266-.188-.657-.188-.828 0-1.484.86-.64.844-.875 1.953l-.234 1.078q-.094.469-.094.844 0 .797.156 1.203.172.406.438.594.28.187.671.187.829 0 1.47-.844.655-.859.89-1.984l.234-1.078Z"
  /><path
    fill="#90f"
    d="M570.71 131.192q.047-.172.125-.25.094-.078.203-.078.078 0 .125.062.063.047.063.125 0 .047-.016.156l-.172.844q-.047.172-.14.25-.079.078-.188.078-.078 0-.14-.047-.048-.062-.048-.14v-.188q0-.312-.28-.515-.407-.297-1.157-.297-.906 0-1.438.39-.406.282-.406.61 0 .312.36.515.25.141 1.062.235.813.078 1.156.203.5.156.735.453.25.297.25.672 0 .437-.328.875-.313.422-.97.703-.64.281-1.452.281-.578 0-1.032-.156-.437-.14-.75-.438-.046.25-.125.313-.093.094-.218.094-.078 0-.14-.047-.048-.063-.048-.14 0-.048.016-.141l.219-1.016q.03-.172.125-.25.093-.078.203-.078.078 0 .125.062.062.047.062.125 0 .047-.015.141-.016.078-.016.125 0 .328.344.578.453.344 1.328.344 1.062 0 1.61-.406.546-.422.546-.844 0-.219-.172-.422-.156-.219-.484-.344-.328-.125-1.078-.203-.735-.094-1.078-.203-.344-.125-.547-.36-.188-.25-.188-.578 0-.359.25-.718.25-.36.844-.61.594-.265 1.328-.265.5 0 .89.125.391.125.657.375Zm7.547.468-.266 1.22q-.344 1.593-1.281 2.515-.75.719-1.64.719-.594 0-.985-.282-.39-.28-.531-.734-.203-.64-.203-1.219 0-.437.125-1l.25-1.219q.343-1.609 1.296-2.515.75-.735 1.625-.735.594 0 .985.282.39.281.531.75.203.64.203 1.203 0 .437-.11 1.015Zm-.516.063q.094-.453.094-.828 0-.813-.172-1.219-.156-.406-.437-.578-.266-.188-.657-.188-.828 0-1.484.86-.64.844-.875 1.953l-.234 1.078q-.094.469-.094.844 0 .797.156 1.203.172.406.438.594.28.187.671.187.829 0 1.47-.844.655-.859.89-1.984l.234-1.078Z"
  /><path
    stroke="oklch(0.95 0.06 83)"
    stroke-linecap="round"
    stroke-linejoin="round"
    stroke-width="3"
    d="m182.263 354.915-.11.5q.766-.672 1.422-.672.344 0 .594.203t.375.61q.406-.407.781-.61.39-.203.735-.203.437 0 .718.297.297.296.297.765 0 .11-.047.25l-.718 3.438h.406q.172 0 .219.062.062.047.062.14 0 .126-.094.22-.093.078-.297.078h-.906l.828-3.891q.032-.094.032-.187 0-.313-.172-.485-.172-.187-.422-.187-.266 0-.563.156-.39.234-.906.844l-.687 3.25h.406q.172 0 .219.062.062.047.062.14 0 .126-.094.22-.093.078-.28.078h-.923l.828-3.844q.016-.125.016-.234 0-.297-.172-.485-.172-.187-.39-.187-.266 0-.563.156-.406.234-.938.844l-.687 3.25h.406q.172 0 .219.062.062.047.062.14 0 .126-.093.22-.094.078-.297.078h-1.313q-.172 0-.234-.047-.047-.063-.047-.156 0-.11.094-.204.094-.093.297-.093h.406l.875-4.078h-.422q-.156 0-.219-.047-.062-.063-.062-.157 0-.109.094-.203.109-.093.296-.093h.907Zm11.343.796-.265 1.22q-.344 1.593-1.281 2.515-.75.719-1.641.719-.594 0-.984-.282-.391-.281-.532-.734-.203-.64-.203-1.219 0-.437.125-1l.25-1.219q.344-1.609 1.297-2.515.75-.735 1.625-.735.594 0 .984.282.391.28.532.75.203.64.203 1.203 0 .437-.11 1.015Zm-.515.063q.094-.453.094-.828 0-.813-.172-1.219-.157-.406-.438-.578-.265-.188-.656-.188-.828 0-1.484.86-.641.844-.875 1.953l-.235 1.078q-.094.469-.094.844 0 .797.157 1.203.172.406.437.594.281.187.672.187.828 0 1.469-.844.656-.859.89-1.984l.235-1.078Z"
  /><path
    fill="#4a86e8"
    d="m182.263 354.915-.11.5q.766-.672 1.422-.672.344 0 .594.203t.375.61q.406-.407.781-.61.39-.203.735-.203.437 0 .718.297.297.296.297.765 0 .11-.047.25l-.718 3.438h.406q.172 0 .219.062.062.047.062.14 0 .126-.094.22-.093.078-.297.078h-.906l.828-3.891q.032-.094.032-.187 0-.313-.172-.485-.172-.187-.422-.187-.266 0-.563.156-.39.234-.906.844l-.687 3.25h.406q.172 0 .219.062.062.047.062.14 0 .126-.094.22-.093.078-.28.078h-.923l.828-3.844q.016-.125.016-.234 0-.297-.172-.485-.172-.187-.39-.187-.266 0-.563.156-.406.234-.938.844l-.687 3.25h.406q.172 0 .219.062.062.047.062.14 0 .126-.093.22-.094.078-.297.078h-1.313q-.172 0-.234-.047-.047-.063-.047-.156 0-.11.094-.204.094-.093.297-.093h.406l.875-4.078h-.422q-.156 0-.219-.047-.062-.063-.062-.157 0-.109.094-.203.109-.093.296-.093h.907Zm11.343.796-.265 1.22q-.344 1.593-1.281 2.515-.75.719-1.641.719-.594 0-.984-.282-.391-.281-.532-.734-.203-.64-.203-1.219 0-.437.125-1l.25-1.219q.344-1.609 1.297-2.515.75-.735 1.625-.735.594 0 .984.282.391.28.532.75.203.64.203 1.203 0 .437-.11 1.015Zm-.515.063q.094-.453.094-.828 0-.813-.172-1.219-.157-.406-.438-.578-.265-.188-.656-.188-.828 0-1.484.86-.641.844-.875 1.953l-.235 1.078q-.094.469-.094.844 0 .797.157 1.203.172.406.437.594.281.187.672.187.828 0 1.469-.844.656-.859.89-1.984l.235-1.078Z"
  /><path
    stroke="oklch(0.95 0.06 83)"
    stroke-linecap="round"
    stroke-linejoin="round"
    stroke-width="3"
    d="m217.277 326.554-.109.5q.766-.672 1.422-.672.344 0 .594.203t.375.61q.406-.407.78-.61.391-.203.735-.203.438 0 .719.297.297.296.297.765 0 .11-.047.25l-.719 3.438h.406q.172 0 .22.062.062.047.062.14 0 .126-.094.22-.094.078-.297.078h-.906l.828-3.891q.031-.094.031-.187 0-.313-.172-.485-.172-.187-.422-.187-.265 0-.562.156-.39.234-.906.844l-.688 3.25h.406q.172 0 .22.062.062.047.062.14 0 .126-.094.22-.094.078-.281.078h-.922l.828-3.844q.016-.125.016-.234 0-.297-.172-.485-.172-.187-.39-.187-.267 0-.563.156-.407.234-.938.844l-.687 3.25h.406q.172 0 .219.062.062.047.062.14 0 .126-.094.22-.093.078-.297.078h-1.312q-.172 0-.234-.047-.047-.063-.047-.156 0-.11.093-.204.094-.093.297-.093h.407l.875-4.078h-.422q-.157 0-.22-.047-.062-.063-.062-.157 0-.109.094-.203.11-.093.297-.093h.906Zm9.985-2.375-1.47 6.953h1.688q.157 0 .22.062.062.047.062.14 0 .126-.11.22-.093.078-.28.078h-3.86q-.172 0-.235-.047-.047-.063-.047-.156 0-.11.094-.204.094-.093.281-.093h1.688l1.328-6.282-1.703.516q-.125.031-.188.031-.062 0-.125-.047-.046-.062-.046-.14 0-.11.062-.188.063-.078.25-.14l2.39-.703Z"
  /><path
    fill="#4a86e8"
    d="m217.277 326.554-.109.5q.766-.672 1.422-.672.344 0 .594.203t.375.61q.406-.407.78-.61.391-.203.735-.203.438 0 .719.297.297.296.297.765 0 .11-.047.25l-.719 3.438h.406q.172 0 .22.062.062.047.062.14 0 .126-.094.22-.094.078-.297.078h-.906l.828-3.891q.031-.094.031-.187 0-.313-.172-.485-.172-.187-.422-.187-.265 0-.562.156-.39.234-.906.844l-.688 3.25h.406q.172 0 .22.062.062.047.062.14 0 .126-.094.22-.094.078-.281.078h-.922l.828-3.844q.016-.125.016-.234 0-.297-.172-.485-.172-.187-.39-.187-.267 0-.563.156-.407.234-.938.844l-.687 3.25h.406q.172 0 .219.062.062.047.062.14 0 .126-.094.22-.093.078-.297.078h-1.312q-.172 0-.234-.047-.047-.063-.047-.156 0-.11.093-.204.094-.093.297-.093h.407l.875-4.078h-.422q-.157 0-.22-.047-.062-.063-.062-.157 0-.109.094-.203.11-.093.297-.093h.906Zm9.985-2.375-1.47 6.953h1.688q.157 0 .22.062.062.047.062.14 0 .126-.11.22-.093.078-.28.078h-3.86q-.172 0-.235-.047-.047-.063-.047-.156 0-.11.094-.204.094-.093.281-.093h1.688l1.328-6.282-1.703.516q-.125.031-.188.031-.062 0-.125-.047-.046-.062-.046-.14 0-.11.062-.188.063-.078.25-.14l2.39-.703Z"
  /><path
    stroke="oklch(0.95 0.06 83)"
    stroke-linecap="round"
    stroke-linejoin="round"
    stroke-width="3"
    d="m262.7 257.99-.108.5q.765-.671 1.421-.671.344 0 .594.203t.375.61q.406-.407.781-.61.391-.203.735-.203.437 0 .719.297.296.297.296.766 0 .109-.046.25l-.72 3.437h.407q.172 0 .219.063.062.046.062.14 0 .125-.093.219-.094.078-.297.078h-.907l.829-3.89q.03-.094.03-.188 0-.313-.171-.484-.172-.188-.422-.188-.266 0-.562.156-.391.235-.907.844l-.687 3.25h.406q.172 0 .219.063.062.046.062.14 0 .125-.093.219-.094.078-.282.078h-.922l.829-3.844q.015-.125.015-.234 0-.297-.172-.484-.172-.188-.39-.188-.266 0-.563.156-.406.235-.937.844l-.688 3.25h.406q.172 0 .22.063.062.046.062.14 0 .125-.094.219-.094.078-.297.078h-1.312q-.172 0-.235-.047-.047-.062-.047-.156 0-.11.094-.203.094-.094.297-.094h.406l.875-4.078h-.422q-.156 0-.218-.047-.063-.062-.063-.156 0-.11.094-.203.11-.094.297-.094h.906Zm6.157 4.579h3.781q.063-.344.141-.422.094-.094.219-.094.078 0 .125.063.062.047.062.11 0 .062-.015.156l-.141.687h-4.766l.157-.734q1.906-1.438 3.609-2.828.813-.657 1.125-.985.313-.344.438-.61.125-.28.125-.562 0-.547-.407-.922-.406-.39-1.015-.39-.641 0-1.235.36-.578.359-.843.921-.11.234-.297.234-.094 0-.157-.046-.046-.047-.046-.125 0-.204.312-.61.453-.594 1.078-.906.64-.328 1.297-.328.766 0 1.281.515.532.5.532 1.22 0 .327-.157.687-.14.359-.484.734-.328.36-1.125 1.016-2.188 1.812-3.594 2.828v.031Z"
  /><path
    fill="#4a86e8"
    d="m262.7 257.99-.108.5q.765-.671 1.421-.671.344 0 .594.203t.375.61q.406-.407.781-.61.391-.203.735-.203.437 0 .719.297.296.297.296.766 0 .109-.046.25l-.72 3.437h.407q.172 0 .219.063.062.046.062.14 0 .125-.093.219-.094.078-.297.078h-.907l.829-3.89q.03-.094.03-.188 0-.313-.171-.484-.172-.188-.422-.188-.266 0-.562.156-.391.235-.907.844l-.687 3.25h.406q.172 0 .219.063.062.046.062.14 0 .125-.093.219-.094.078-.282.078h-.922l.829-3.844q.015-.125.015-.234 0-.297-.172-.484-.172-.188-.39-.188-.266 0-.563.156-.406.235-.937.844l-.688 3.25h.406q.172 0 .22.063.062.046.062.14 0 .125-.094.219-.094.078-.297.078h-1.312q-.172 0-.235-.047-.047-.062-.047-.156 0-.11.094-.203.094-.094.297-.094h.406l.875-4.078h-.422q-.156 0-.218-.047-.063-.062-.063-.156 0-.11.094-.203.11-.094.297-.094h.906Zm6.157 4.579h3.781q.063-.344.141-.422.094-.094.219-.094.078 0 .125.063.062.047.062.11 0 .062-.015.156l-.141.687h-4.766l.157-.734q1.906-1.438 3.609-2.828.813-.657 1.125-.985.313-.344.438-.61.125-.28.125-.562 0-.547-.407-.922-.406-.39-1.015-.39-.641 0-1.235.36-.578.359-.843.921-.11.234-.297.234-.094 0-.157-.046-.046-.047-.046-.125 0-.204.312-.61.453-.594 1.078-.906.64-.328 1.297-.328.766 0 1.281.515.532.5.532 1.22 0 .327-.157.687-.14.359-.484.734-.328.36-1.125 1.016-2.188 1.812-3.594 2.828v.031Z"
  /><path
    stroke="oklch(0.95 0.06 83)"
    stroke-linecap="round"
    stroke-linejoin="round"
    stroke-width="3"
    d="m460.881 218.834-.11.5q.766-.672 1.423-.672.343 0 .593.203.25.203.375.61.407-.407.782-.61.39-.203.734-.203.438 0 .719.297.297.297.297.765 0 .11-.047.25l-.719 3.438h.406q.172 0 .219.062.063.047.063.141 0 .125-.094.219-.094.078-.297.078h-.906l.828-3.89q.031-.094.031-.188 0-.313-.172-.485-.172-.187-.422-.187-.265 0-.562.156-.39.235-.906.844l-.688 3.25h.406q.172 0 .219.062.063.047.063.141 0 .125-.094.219-.094.078-.281.078h-.922l.828-3.844q.015-.125.015-.234 0-.297-.171-.485-.172-.187-.391-.187-.266 0-.563.156-.406.235-.937.844l-.688 3.25h.407q.171 0 .218.062.063.047.063.141 0 .125-.094.219-.094.078-.297.078h-1.312q-.172 0-.235-.047-.046-.062-.046-.156 0-.11.093-.203.094-.094.297-.094h.406l.875-4.078h-.421q-.157 0-.22-.047-.062-.063-.062-.156 0-.11.094-.203.11-.094.297-.094h.906Zm10.031 1.078q.516.25.766.672.25.422.25.89 0 .563-.406 1.204-.39.64-1.125 1.03-.735.376-1.5.376-.89 0-1.703-.5-.438-.281-.438-.469 0-.11.094-.187.094-.094.187-.094.11 0 .204.094.765.671 1.765.671.985 0 1.703-.656.719-.656.719-1.375 0-.375-.219-.719-.219-.343-.672-.546-.453-.204-.921-.204-.188 0-.235-.046-.062-.063-.062-.157 0-.11.093-.203.094-.094.25-.094l.438.016q.734 0 1.281-.516.531-.484.531-1.078 0-.484-.359-.812-.36-.328-1-.328-.5 0-.969.172-.469.171-.781.484-.188.156-.297.156-.094 0-.156-.047-.047-.047-.047-.14 0-.094.11-.203.374-.407 1-.657.624-.265 1.265-.265.813 0 1.281.437.469.438.469 1.094 0 .578-.406 1.14-.39.547-1.11.86Z"
  /><path
    fill="#4a86e8"
    d="m460.881 218.834-.11.5q.766-.672 1.423-.672.343 0 .593.203.25.203.375.61.407-.407.782-.61.39-.203.734-.203.438 0 .719.297.297.297.297.765 0 .11-.047.25l-.719 3.438h.406q.172 0 .219.062.063.047.063.141 0 .125-.094.219-.094.078-.297.078h-.906l.828-3.89q.031-.094.031-.188 0-.313-.172-.485-.172-.187-.422-.187-.265 0-.562.156-.39.235-.906.844l-.688 3.25h.406q.172 0 .219.062.063.047.063.141 0 .125-.094.219-.094.078-.281.078h-.922l.828-3.844q.015-.125.015-.234 0-.297-.171-.485-.172-.187-.391-.187-.266 0-.563.156-.406.235-.937.844l-.688 3.25h.407q.171 0 .218.062.063.047.063.141 0 .125-.094.219-.094.078-.297.078h-1.312q-.172 0-.235-.047-.046-.062-.046-.156 0-.11.093-.203.094-.094.297-.094h.406l.875-4.078h-.421q-.157 0-.22-.047-.062-.063-.062-.156 0-.11.094-.203.11-.094.297-.094h.906Zm10.031 1.078q.516.25.766.672.25.422.25.89 0 .563-.406 1.204-.39.64-1.125 1.03-.735.376-1.5.376-.89 0-1.703-.5-.438-.281-.438-.469 0-.11.094-.187.094-.094.187-.094.11 0 .204.094.765.671 1.765.671.985 0 1.703-.656.719-.656.719-1.375 0-.375-.219-.719-.219-.343-.672-.546-.453-.204-.921-.204-.188 0-.235-.046-.062-.063-.062-.157 0-.11.093-.203.094-.094.25-.094l.438.016q.734 0 1.281-.516.531-.484.531-1.078 0-.484-.359-.812-.36-.328-1-.328-.5 0-.969.172-.469.171-.781.484-.188.156-.297.156-.094 0-.156-.047-.047-.047-.047-.14 0-.094.11-.203.374-.407 1-.657.624-.265 1.265-.265.813 0 1.281.437.469.438.469 1.094 0 .578-.406 1.14-.39.547-1.11.86Z"
  /><path
    stroke="oklch(0.95 0.06 83)"
    stroke-linecap="round"
    stroke-linejoin="round"
    stroke-width="3"
    d="m460.881 219.792-.11.5q.766-.672 1.423-.672.343 0 .593.203.25.203.375.61.407-.407.782-.61.39-.203.734-.203.438 0 .719.297.297.296.297.765 0 .11-.047.25l-.719 3.438h.406q.172 0 .219.062.063.047.063.14 0 .126-.094.22-.094.078-.297.078h-.906l.828-3.89q.031-.095.031-.188 0-.313-.172-.485-.172-.187-.422-.187-.265 0-.562.156-.39.234-.906.844l-.688 3.25h.406q.172 0 .219.062.063.047.063.14 0 .126-.094.22-.094.078-.281.078h-.922l.828-3.844q.015-.125.015-.234 0-.297-.171-.485-.172-.187-.391-.187-.266 0-.563.156-.406.234-.937.844l-.688 3.25h.407q.171 0 .218.062.063.047.063.14 0 .126-.094.22-.094.078-.297.078h-1.312q-.172 0-.235-.047-.046-.063-.046-.156 0-.11.093-.204.094-.093.297-.093h.406l.875-4.078h-.421q-.157 0-.22-.047-.062-.063-.062-.157 0-.109.094-.203.11-.093.297-.093h.906Zm9.516 3.015h-3.266l.125-.562 3.75-4.735h1.016l-1.016 4.813h.406q.172 0 .22.031.062.063.062.156 0 .125-.094.22-.094.077-.297.077h-.406l-.328 1.563h.406q.172 0 .219.062.062.047.062.14 0 .126-.094.22-.093.078-.28.078h-1.845q-.156 0-.218-.047-.063-.063-.063-.156 0-.11.094-.204.11-.093.297-.093h.922l.328-1.563Zm.11-.484.921-4.313h-.266l-3.406 4.313h2.75Z"
  /><path
    fill="#4a86e8"
    d="m460.881 219.792-.11.5q.766-.672 1.423-.672.343 0 .593.203.25.203.375.61.407-.407.782-.61.39-.203.734-.203.438 0 .719.297.297.296.297.765 0 .11-.047.25l-.719 3.438h.406q.172 0 .219.062.063.047.063.14 0 .126-.094.22-.094.078-.297.078h-.906l.828-3.89q.031-.095.031-.188 0-.313-.172-.485-.172-.187-.422-.187-.265 0-.562.156-.39.234-.906.844l-.688 3.25h.406q.172 0 .219.062.063.047.063.14 0 .126-.094.22-.094.078-.281.078h-.922l.828-3.844q.015-.125.015-.234 0-.297-.171-.485-.172-.187-.391-.187-.266 0-.563.156-.406.234-.937.844l-.688 3.25h.407q.171 0 .218.062.063.047.063.14 0 .126-.094.22-.094.078-.297.078h-1.312q-.172 0-.235-.047-.046-.063-.046-.156 0-.11.093-.204.094-.093.297-.093h.406l.875-4.078h-.421q-.157 0-.22-.047-.062-.063-.062-.157 0-.109.094-.203.11-.093.297-.093h.906Zm9.516 3.015h-3.266l.125-.562 3.75-4.735h1.016l-1.016 4.813h.406q.172 0 .22.031.062.063.062.156 0 .125-.094.22-.094.077-.297.077h-.406l-.328 1.563h.406q.172 0 .219.062.062.047.062.14 0 .126-.094.22-.093.078-.28.078h-1.845q-.156 0-.218-.047-.063-.063-.063-.156 0-.11.094-.204.11-.093.297-.093h.922l.328-1.563Zm.11-.484.921-4.313h-.266l-3.406 4.313h2.75Z"
  /><path
    stroke="oklch(0.95 0.06 83)"
    stroke-linecap="round"
    stroke-linejoin="round"
    stroke-width="3"
    d="m491.18 203.86-.11.5q.765-.672 1.422-.672.343 0 .593.203.25.203.375.61.407-.407.782-.61.39-.203.734-.203.437 0 .719.297.297.297.297.765 0 .11-.047.25l-.72 3.438h.407q.172 0 .219.062.062.047.062.14 0 .126-.093.22-.094.078-.297.078h-.906l.828-3.89q.03-.095.03-.188 0-.313-.171-.485-.172-.187-.422-.187-.265 0-.562.156-.39.234-.907.844l-.687 3.25h.406q.172 0 .219.062.062.047.062.14 0 .126-.093.22-.094.078-.282.078h-.921l.828-3.844q.015-.125.015-.234 0-.297-.172-.485-.171-.187-.39-.187-.266 0-.563.156-.406.234-.937.844l-.688 3.25h.407q.171 0 .218.062.063.047.063.14 0 .126-.094.22-.094.078-.297.078h-1.312q-.172 0-.235-.047-.047-.063-.047-.156 0-.11.094-.203.094-.094.297-.094h.406l.875-4.078h-.422q-.156 0-.218-.047-.063-.063-.063-.156 0-.11.094-.204.11-.093.297-.093h.906Zm8.265-1.782-.516 2.407q.469-.172.89-.266.423-.094.782-.094.781 0 1.25.485.484.468.484 1.265 0 .782-.437 1.594-.438.797-1.156 1.219-.72.422-1.485.422-.594 0-1.125-.22-.531-.233-.906-.655-.125-.141-.125-.235 0-.125.078-.218.094-.094.203-.094.11 0 .203.11.703.827 1.75.827.64 0 1.203-.343.579-.36.922-1.016.36-.656.36-1.281 0-.625-.375-.985-.36-.375-1-.375-.766 0-1.625.39-.203.095-.282.095-.078 0-.14-.047-.047-.047-.047-.125 0-.047.016-.094l.687-3.266h3.438q.125 0 .171.032.047.015.079.062.03.047.03.11 0 .125-.109.218-.093.078-.28.078h-2.938Z"
  /><path
    fill="#4a86e8"
    d="m491.18 203.86-.11.5q.765-.672 1.422-.672.343 0 .593.203.25.203.375.61.407-.407.782-.61.39-.203.734-.203.437 0 .719.297.297.297.297.765 0 .11-.047.25l-.72 3.438h.407q.172 0 .219.062.062.047.062.14 0 .126-.093.22-.094.078-.297.078h-.906l.828-3.89q.03-.095.03-.188 0-.313-.171-.485-.172-.187-.422-.187-.265 0-.562.156-.39.234-.907.844l-.687 3.25h.406q.172 0 .219.062.062.047.062.14 0 .126-.093.22-.094.078-.282.078h-.921l.828-3.844q.015-.125.015-.234 0-.297-.172-.485-.171-.187-.39-.187-.266 0-.563.156-.406.234-.937.844l-.688 3.25h.407q.171 0 .218.062.063.047.063.14 0 .126-.094.22-.094.078-.297.078h-1.312q-.172 0-.235-.047-.047-.063-.047-.156 0-.11.094-.203.094-.094.297-.094h.406l.875-4.078h-.422q-.156 0-.218-.047-.063-.063-.063-.156 0-.11.094-.204.11-.093.297-.093h.906Zm8.265-1.782-.516 2.407q.469-.172.89-.266.423-.094.782-.094.781 0 1.25.485.484.468.484 1.265 0 .782-.437 1.594-.438.797-1.156 1.219-.72.422-1.485.422-.594 0-1.125-.22-.531-.233-.906-.655-.125-.141-.125-.235 0-.125.078-.218.094-.094.203-.094.11 0 .203.11.703.827 1.75.827.64 0 1.203-.343.579-.36.922-1.016.36-.656.36-1.281 0-.625-.375-.985-.36-.375-1-.375-.766 0-1.625.39-.203.095-.282.095-.078 0-.14-.047-.047-.047-.047-.125 0-.047.016-.094l.687-3.266h3.438q.125 0 .171.032.047.015.079.062.03.047.03.11 0 .125-.109.218-.093.078-.28.078h-2.938Z"
  /><path
    stroke="oklch(0.95 0.06 83)"
    stroke-linecap="round"
    stroke-linejoin="round"
    stroke-width="3"
    d="m655.656 184.83-.11.5q.766-.671 1.422-.671.344 0 .594.203t.375.61q.406-.407.781-.61.391-.203.735-.203.437 0 .719.297.296.297.296.765 0 .11-.046.25l-.72 3.438h.407q.172 0 .219.062.062.047.062.14 0 .126-.093.22-.094.078-.297.078h-.907l.829-3.89q.03-.095.03-.188 0-.313-.171-.485-.172-.187-.422-.187-.266 0-.562.156-.391.234-.907.844l-.687 3.25h.406q.172 0 .219.062.062.047.062.14 0 .126-.093.22-.094.078-.282.078h-.922l.829-3.844q.015-.125.015-.234 0-.297-.172-.485-.172-.187-.39-.187-.266 0-.563.156-.406.234-.937.844l-.688 3.25h.406q.172 0 .22.062.062.047.062.14 0 .126-.094.22-.094.078-.297.078h-1.312q-.172 0-.235-.047-.047-.063-.047-.156 0-.11.094-.203.094-.094.297-.094h.406l.875-4.078h-.422q-.156 0-.218-.047-.063-.063-.063-.156 0-.11.094-.204.11-.093.297-.093h.906Zm7.36 1.97q.624-.704 1.171-1.016.563-.313 1.14-.313.657 0 1.11.485.453.484.453 1.28 0 .563-.265 1.126-.25.562-.625.937-.36.36-.813.579-.437.203-.953.203-.781 0-1.281-.563-.5-.578-.5-1.797 0-1.64.687-2.875.688-1.25 1.985-1.953.953-.515 1.875-.515.437 0 .734.171.125.094.125.204 0 .125-.078.218-.078.078-.203.078-.078 0-.172-.062-.203-.11-.563-.11-.656 0-1.375.36-.718.36-1.296.984-.579.61-.86 1.328-.187.47-.297 1.25Zm-.063.812q0 1.078.375 1.531.39.453 1.047.453.75 0 1.375-.687.64-.688.64-1.594 0-.594-.359-.969-.344-.375-.828-.375-.578 0-1.188.47-.437.327-1.062 1.17Z"
  /><path
    fill="#4a86e8"
    d="m655.656 184.83-.11.5q.766-.671 1.422-.671.344 0 .594.203t.375.61q.406-.407.781-.61.391-.203.735-.203.437 0 .719.297.296.297.296.765 0 .11-.046.25l-.72 3.438h.407q.172 0 .219.062.062.047.062.14 0 .126-.093.22-.094.078-.297.078h-.907l.829-3.89q.03-.095.03-.188 0-.313-.171-.485-.172-.187-.422-.187-.266 0-.562.156-.391.234-.907.844l-.687 3.25h.406q.172 0 .219.062.062.047.062.14 0 .126-.093.22-.094.078-.282.078h-.922l.829-3.844q.015-.125.015-.234 0-.297-.172-.485-.172-.187-.39-.187-.266 0-.563.156-.406.234-.937.844l-.688 3.25h.406q.172 0 .22.062.062.047.062.14 0 .126-.094.22-.094.078-.297.078h-1.312q-.172 0-.235-.047-.047-.063-.047-.156 0-.11.094-.203.094-.094.297-.094h.406l.875-4.078h-.422q-.156 0-.218-.047-.063-.063-.063-.156 0-.11.094-.204.11-.093.297-.093h.906Zm7.36 1.97q.624-.704 1.171-1.016.563-.313 1.14-.313.657 0 1.11.485.453.484.453 1.28 0 .563-.265 1.126-.25.562-.625.937-.36.36-.813.579-.437.203-.953.203-.781 0-1.281-.563-.5-.578-.5-1.797 0-1.64.687-2.875.688-1.25 1.985-1.953.953-.515 1.875-.515.437 0 .734.171.125.094.125.204 0 .125-.078.218-.078.078-.203.078-.078 0-.172-.062-.203-.11-.563-.11-.656 0-1.375.36-.718.36-1.296.984-.579.61-.86 1.328-.187.47-.297 1.25Zm-.063.812q0 1.078.375 1.531.39.453 1.047.453.75 0 1.375-.687.64-.688.64-1.594 0-.594-.359-.969-.344-.375-.828-.375-.578 0-1.188.47-.437.327-1.062 1.17Z"
  /><path
    fill="#412800"
    d="M348.86 438.99v-.171q0-.172.062-.25.078-.078.187-.078.11 0 .172.078.078.078.078.25v1.25q0 .187-.078.265-.062.063-.172.063-.109 0-.171-.063-.063-.078-.079-.234-.03-.484-.515-.875-.469-.39-1.235-.39-.812 0-1.296.421-.485.407-.485.985 0 .28.125.53.14.235.36.392.234.14.515.234t.875.187q1 .172 1.39.344.5.219.766.625t.266.953q0 .844-.688 1.438-.671.594-1.812.594-1.281 0-2.047-.797v.28q0 .173-.078.25-.063.079-.172.079-.11 0-.187-.078-.063-.078-.063-.25v-1.36q0-.187.063-.25.078-.078.187-.078.11 0 .172.079.078.062.078.218.031.532.578.985.547.437 1.469.437t1.453-.453q.547-.469.547-1.11 0-.39-.203-.687-.203-.297-.61-.484-.28-.11-1.171-.266-1.22-.203-1.766-.625-.531-.422-.531-1.203 0-.781.61-1.328.624-.563 1.64-.563 1.031 0 1.765.657Zm3.39 1.282v.906q.438-.547.938-.812.5-.266 1.187-.266.734 0 1.344.344.625.328.953.937.344.61.344 1.282 0 1.062-.766 1.812-.75.75-1.86.75-1.327 0-2.14-1.078v2.969h1.188q.187 0 .25.062.078.078.078.188 0 .109-.079.172-.062.078-.25.078h-2.343q-.172 0-.25-.078-.078-.063-.078-.172 0-.11.078-.188.078-.062.25-.062h.656v-6.344h-.656q-.172 0-.25-.063-.078-.078-.078-.187 0-.11.078-.172.078-.078.25-.078h1.156Zm4.266 2.39q0-.859-.625-1.453-.61-.609-1.5-.609-.907 0-1.532.61-.609.609-.609 1.453 0 .843.61 1.453.624.609 1.53.609.876 0 1.5-.594.626-.61.626-1.468Zm7.25.266h-5.016q.125.953.797 1.547.672.578 1.656.578.563 0 1.156-.172.61-.187.985-.5.11-.078.203-.078.094 0 .156.078.078.063.078.172 0 .094-.094.188-.28.297-1 .547-.718.25-1.484.25-1.265 0-2.11-.829-.843-.828-.843-2 0-1.078.797-1.843.797-.766 1.969-.766 1.203 0 1.984.797.781.781.766 2.031Zm-.5-.5q-.141-.812-.766-1.312-.625-.516-1.484-.516-.86 0-1.485.5-.625.5-.781 1.328h4.516Zm7.5.5h-5.016q.125.953.797 1.547.672.578 1.656.578.563 0 1.156-.172.61-.187.985-.5.11-.078.203-.078.094 0 .156.078.078.063.078.172 0 .094-.094.188-.28.297-1 .547-.718.25-1.484.25-1.265 0-2.11-.829-.843-.828-.843-2 0-1.078.797-1.843.797-.766 1.969-.766 1.203 0 1.984.797.781.781.766 2.031Zm-.5-.5q-.141-.812-.766-1.312-.625-.516-1.484-.516-.86 0-1.485.5-.625.5-.781 1.328h4.516Zm7.25-4.437v6.859h.656q.172 0 .25.078.078.063.078.172 0 .11-.078.188-.078.062-.25.062h-1.156v-.984q-.86 1.172-2.172 1.172-.672 0-1.281-.344-.61-.36-.97-1.016-.359-.656-.359-1.36 0-.702.36-1.343.36-.656.969-1.016.609-.359 1.28-.359 1.298 0 2.173 1.172v-2.781h-.657q-.187 0-.265-.063-.063-.078-.063-.187 0-.11.063-.172.078-.078.265-.078h1.157Zm-.5 4.828q0-.938-.641-1.578-.625-.641-1.5-.641t-1.516.64q-.625.641-.625 1.579 0 .937.625 1.594.641.64 1.516.64t1.5-.64q.64-.657.64-1.594Zm12.03-.39q0-.673.173-1.423.172-.765.672-1.75.5-.984.734-1.203.063-.062.156-.062.094 0 .172.078.078.062.078.172 0 .047-.047.125-.64 1.187-.921 2.156-.266.953-.266 1.906 0 .969.265 1.938.282.953.922 2.14.047.063.047.125 0 .094-.078.172-.078.078-.172.078-.094 0-.156-.078-.219-.187-.719-1.156-.484-.969-.672-1.703-.187-.75-.187-1.516Zm4.813-2.157v.5q.625-.672 1.266-.672.375 0 .656.203.297.203.485.61.328-.407.656-.61.344-.203.687-.203.532 0 .844.344.422.453.422.969v3.437h.422q.172 0 .25.078.078.063.078.172 0 .11-.078.188-.078.062-.25.062h-.906v-3.89q0-.376-.235-.61-.234-.25-.531-.25-.266 0-.563.203-.296.203-.687.797v3.25h.422q.172 0 .25.078.078.063.078.172 0 .11-.078.188-.078.062-.25.062h-.922v-3.844q0-.406-.234-.656-.22-.25-.516-.25-.25 0-.516.172-.359.234-.75.828v3.25h.422q.172 0 .25.078.078.063.078.172 0 .11-.078.188-.078.062-.25.062h-1.328q-.172 0-.25-.063-.078-.078-.078-.187 0-.11.078-.172.078-.078.25-.078h.422v-4.078h-.422q-.172 0-.25-.063-.078-.078-.078-.187 0-.11.078-.172.078-.078.25-.078h.906Zm10.875.328q0-.172.063-.25.078-.078.172-.078.11 0 .172.078.078.078.078.266v.843q0 .172-.078.25-.063.079-.172.079-.094 0-.172-.063-.063-.078-.063-.219-.046-.36-.375-.578-.468-.328-1.265-.328-.828 0-1.281.328-.344.25-.344.563 0 .359.406.593.281.157 1.063.25 1.03.11 1.421.25.579.204.844.579.281.359.281.78 0 .626-.609 1.11-.594.485-1.766.485-1.156 0-1.906-.594 0 .203-.031.265-.016.063-.078.11-.063.031-.14.031-.095 0-.173-.078-.062-.078-.062-.25v-1.016q0-.172.062-.25.063-.078.172-.078.11 0 .188.078.078.063.078.188 0 .281.125.453.203.281.656.469.453.187 1.094.187.969 0 1.437-.36.469-.359.469-.75 0-.468-.484-.734-.47-.28-1.391-.375-.922-.093-1.328-.234-.39-.156-.61-.453-.218-.313-.218-.672 0-.625.61-1 .624-.375 1.483-.375 1.032 0 1.672.5Zm5.516 1.844q0 .672-.188 1.422-.171.75-.671 1.734-.5 1-.72 1.203-.077.078-.155.078-.11 0-.188-.078-.062-.078-.062-.172 0-.062.046-.125.641-1.187.907-2.14.281-.97.281-1.922 0-.969-.281-1.922-.266-.969-.906-2.156-.047-.078-.047-.125 0-.11.062-.172.078-.078.188-.078.078 0 .156.062.219.203.703 1.172.5.969.688 1.719.187.734.187 1.5ZM33.15 304.017h-5.86v.656q0 .187-.062.266-.078.062-.187.062-.11 0-.172-.062-.078-.079-.078-.266v-3.094q0-.922.53-1.484.532-.578 1.25-.578.907 0 1.454.953.281-.766.734-1.11.454-.359 1.016-.359.484 0 .89.234.407.235.704.72.281.468.281 1.046v3.672q0 .187-.062.266-.079.062-.188.062-.11 0-.172-.062-.078-.079-.078-.266v-.656Zm-3.312-.5v-1.735q0-.562-.204-1.015-.156-.36-.468-.563-.313-.203-.641-.203-.453 0-.844.438-.39.437-.39 1.14v1.938h2.547Zm3.312 0v-2.485q0-.468-.203-.812-.219-.36-.516-.547-.312-.188-.656-.188-.375 0-.719.266-.36.266-.531.734-.187.454-.187 1.266v1.766h2.812Zm0-6.672h-5.86v.422q0 .172-.062.25-.078.078-.187.078-.11 0-.172-.078-.078-.078-.078-.25v-2.657q0-.625.265-1.125.25-.515.578-.78.563-.47 1.188-.704.437-.172 1.062-.172h.672q.766 0 1.469.328.703.328 1.234 1.11.391.578.391 1.343v2.657q0 .172-.062.25-.079.078-.188.078-.11 0-.172-.078-.078-.078-.078-.25v-.422Zm0-.485v-1.796q0-.625-.39-1.157-.407-.547-.97-.812-.577-.281-1.124-.281h-.891q-.453 0-.812.156-.516.203-.985.594-.265.203-.469.625-.218.406-.218.875v1.796h5.859Zm-3.25-10.953h.703v5.016H29.9v-5.016Zm.688-2.89h2.562v-.907q0-.187.078-.25.063-.078.172-.078.11 0 .188.078.062.063.062.25v2.063q0 .172-.062.25-.079.078-.188.078-.11 0-.172-.078-.078-.078-.078-.25v-.656h-5.86v.656q0 .172-.062.25-.078.078-.187.078-.11 0-.172-.078-.078-.078-.078-.25v-2.984q0-.907.593-1.532.579-.64 1.313-.64.516 0 .984.39.469.39.782 1.297.359-.515.828-.89.453-.375 1.859-1.204v-.375q0-.187.078-.25.063-.078.172-.078.11 0 .188.078.062.063.062.25v.657q-1.64.906-2.187 1.406-.563.5-.875 1.156v1.563Zm-.485 0v-1.344q0-.64-.234-1.156-.235-.532-.547-.766-.328-.25-.656-.25-.485 0-.922.5-.453.5-.453 1.203v1.813h2.812ZM33.65 272.5h-.703q.89 1.078.89 2.297 0 .875-.437 1.375-.453.5-1.11.5-.702 0-1.234-.656-.547-.657-.547-1.922 0-.328.047-.719.047-.406.14-.875H29.9q-.406 0-.703.375-.297.375-.297 1.125 0 .578.328 1.61.063.187.063.234 0 .094-.063.172-.078.062-.187.062-.094 0-.157-.062-.093-.078-.234-.657-.25-.921-.25-1.39 0-.922.469-1.438.453-.531 1.031-.531h3.25v-.656q0-.188.078-.25.063-.078.172-.078.11 0 .188.078.062.062.062.25v1.156Zm-2.453 0q-.094.344-.14.734-.048.391-.048.813 0 1.078.454 1.672.359.453.828.453.453 0 .765-.344.297-.344.297-1.015 0-.641-.25-1.188-.265-.547-.812-1.125h-1.094Zm-2.625-4.578v-2.672q0-.172.078-.25.063-.078.172-.078.11 0 .187.078.063.078.063.25v2.672h3.281q.422 0 .719-.344.281-.344.281-1 0-.5-.14-1.078-.157-.578-.344-.906-.078-.11-.078-.188 0-.093.078-.156.062-.078.172-.078.078 0 .156.078.187.188.422.906.219.719.219 1.39 0 .86-.391 1.376-.406.5-1.094.5h-3.281v.906q0 .172-.063.25-.078.078-.187.078-.11 0-.172-.078-.078-.078-.078-.25v-.906h-1.453q-.172 0-.25-.063-.078-.078-.078-.187 0-.11.078-.172.078-.078.25-.078h1.453Zm2.656-10.672v5.016q.953-.125 1.547-.797.578-.672.578-1.656 0-.563-.172-1.157-.187-.61-.5-.984-.078-.11-.078-.203 0-.094.078-.156.063-.079.172-.079.094 0 .188.094.297.281.547 1 .25.719.25 1.485 0 1.265-.829 2.109-.828.844-2 .844-1.078 0-1.843-.797-.766-.797-.766-1.969 0-1.203.797-1.984.781-.782 2.031-.766Zm-.5.5q-.812.14-1.312.766-.516.625-.516 1.484 0 .86.5 1.484.5.625 1.328.782v-4.516Zm0-11.781q-.672 0-1.422-.172-.765-.172-1.75-.672-.984-.5-1.203-.734-.062-.063-.062-.157 0-.093.078-.171.062-.079.172-.079.047 0 .125.047 1.187.64 2.156.922.953.266 1.906.266.969 0 1.938-.266.953-.281 2.14-.922.063-.047.125-.047.094 0 .172.079.078.078.078.171 0 .094-.078.157-.187.218-1.156.718-.969.485-1.703.672-.75.188-1.516.188Zm-3.031-7.797q.625 0 1.078.437.438.438.438 1.063 0 .61-.438 1.062-.453.438-1.078.438-.64 0-1.078-.438-.438-.453-.438-1.062 0-.625.438-1.063.437-.437 1.078-.437Zm0 .344q-.484 0-.828.343-.344.329-.344.813 0 .469.344.812.344.329.828.329t.828-.329q.344-.343.344-.812 0-.484-.344-.813-.344-.343-.828-.343Zm1.703-1.938 1.484 4.547q.016.094.016.125 0 .063-.047.125-.047.047-.125.047-.062 0-.11-.047-.046-.031-.077-.125l-1.485-4.562q-.015-.079-.015-.125 0-.063.062-.11.047-.062.11-.062.062 0 .125.047.03.03.062.14Zm2.875.078q.625 0 1.078.438.438.437.438 1.062 0 .61-.438 1.063-.453.437-1.078.437-.64 0-1.078-.437-.453-.438-.453-1.063t.453-1.062q.437-.438 1.078-.438Zm0 .344q-.5 0-.828.344-.344.344-.344.812 0 .469.344.813.344.328.828.328t.828-.328q.328-.344.328-.813 0-.468-.328-.812-.344-.344-.828-.344Zm-1.531-5.234q.672 0 1.422.187.75.172 1.734.672 1 .5 1.203.719.078.078.078.156 0 .11-.078.188-.078.062-.172.062-.062 0-.125-.047-1.187-.64-2.14-.906-.97-.281-1.922-.281-.969 0-1.922.28-.969.267-2.156.907-.078.047-.125.047-.11 0-.172-.062-.078-.079-.078-.188 0-.078.062-.156.203-.219 1.172-.703.969-.5 1.719-.688.734-.187 1.5-.187Z"
  /><path
    fill="#000"
    d="M61.76 396.6v.703h-5.016v-.703h5.015Zm2.374 3.25h3.782v-.188q0-.171.062-.25.078-.078.188-.078.109 0 .172.079.078.078.078.25v.687H63.65v-.734q1.5-1.344 2.922-2.735.656-.656.906-.953.25-.312.328-.531.094-.234.094-.469 0-.64-.516-1.125-.5-.484-1.218-.484-.641 0-1.141.375-.5.36-.64.906-.047.14-.094.188-.063.046-.157.046-.109 0-.172-.062-.062-.063-.062-.156 0-.282.297-.766.312-.484.844-.75.547-.281 1.125-.281.922 0 1.578.64.656.641.656 1.454 0 .328-.11.625-.109.28-.374.625-.266.328-.953 1-1.735 1.718-2.829 2.656v.031Zm11.375-3.781v1.219q0 1.578-.75 2.515-.593.719-1.5.719-.437 0-.828-.172-.375-.172-.64-.484-.172-.188-.375-.61-.203-.437-.282-.797-.14-.5-.14-1.171v-1.22q0-1.593.75-2.515.594-.734 1.5-.734.437 0 .812.172.39.172.657.484.171.203.375.64.203.423.296.766.125.5.125 1.188Zm-.484.062q0-.703-.203-1.297-.203-.609-.438-.953-.156-.218-.39-.36-.328-.202-.75-.202-.828 0-1.297.844-.469.843-.469 1.968v1.078q0 .704.203 1.313.203.594.453.953.141.203.375.344.329.219.75.219.829 0 1.297-.844.469-.86.469-1.985v-1.078Zm.485-91.284v1.218q0 1.578-.75 2.516-.594.719-1.5.719-.438 0-.829-.172-.375-.172-.64-.485-.172-.187-.375-.609-.203-.437-.282-.797-.14-.5-.14-1.172v-1.218q0-1.594.75-2.516.594-.734 1.5-.734.437 0 .812.171.39.172.657.485.171.203.375.64.203.422.296.766.125.5.125 1.188Zm-.485.062q0-.703-.203-1.297-.203-.61-.438-.953-.156-.219-.39-.36-.328-.202-.75-.202-.828 0-1.297.843-.469.844-.469 1.969v1.078q0 .703.203 1.313.203.593.453.953.141.203.375.344.329.218.75.218.829 0 1.297-.843.469-.86.469-1.985v-1.078Zm-10.891-87.503h3.782v-.188q0-.172.062-.25.078-.078.188-.078.109 0 .172.078.078.078.078.25v.688H63.65v-.735q1.5-1.344 2.922-2.734.656-.656.906-.953.25-.313.328-.532.094-.234.094-.468 0-.641-.516-1.125-.5-.485-1.218-.485-.641 0-1.141.375-.5.36-.64.907-.047.14-.094.187-.063.047-.157.047-.109 0-.172-.063-.062-.062-.062-.156 0-.281.297-.765.312-.485.844-.75.547-.282 1.125-.282.922 0 1.578.64.656.642.656 1.454 0 .328-.11.625-.109.281-.374.625-.266.328-.953 1-1.735 1.719-2.829 2.656v.032Zm11.375-3.782v1.22q0 1.577-.75 2.515-.593.718-1.5.718-.437 0-.828-.171-.375-.172-.64-.485-.172-.187-.375-.61-.203-.437-.282-.796-.14-.5-.14-1.172v-1.219q0-1.593.75-2.515.594-.735 1.5-.735.437 0 .812.172.39.172.657.485.171.203.375.64.203.422.296.766.125.5.125 1.187Zm-.484.063q0-.703-.203-1.297-.203-.61-.438-.953-.156-.219-.39-.36-.328-.203-.75-.203-.828 0-1.297.844t-.469 1.969v1.078q0 .703.203 1.312.203.594.453.954.141.203.375.343.329.22.75.22.829 0 1.297-.845.469-.86.469-1.984v-1.078Zm-7.859-89.067H63.9v-.562l2.734-4.734h1.032v4.812h.406q.187 0 .266.063.078.062.078.187 0 .094-.078.172-.079.063-.266.063h-.406v1.562h.406q.187 0 .266.078.078.063.078.172 0 .11-.078.188-.079.062-.266.062h-1.828q-.172 0-.25-.062-.078-.078-.078-.188 0-.109.078-.172.078-.078.25-.078h.922v-1.562Zm0-.484v-4.312h-.25l-2.5 4.312h2.75Zm8.343-1.734v1.219q0 1.578-.75 2.515-.593.72-1.5.72-.437 0-.828-.173-.375-.172-.64-.484-.172-.188-.375-.61-.203-.437-.282-.796-.14-.5-.14-1.172v-1.219q0-1.594.75-2.516.594-.734 1.5-.734.437 0 .812.172.39.172.657.484.171.203.375.641.203.422.296.766.125.5.125 1.187Zm-.484.063q0-.704-.203-1.297-.203-.61-.438-.953-.156-.22-.39-.36-.328-.203-.75-.203-.828 0-1.297.844t-.469 1.969v1.078q0 .703.203 1.312.203.594.453.953.141.203.375.344.329.219.75.219.829 0 1.297-.844.469-.86.469-1.984v-1.078Z"
  /><path
    fill="#412800"
    d="M147.48 412.85h3.78v-.188q0-.171.063-.25.078-.078.188-.078.109 0 .171.079.079.078.079.25v.687h-4.766v-.734q1.5-1.344 2.922-2.735.656-.656.906-.953.25-.312.328-.531.094-.234.094-.469 0-.64-.516-1.125-.5-.484-1.218-.484-.641 0-1.141.375-.5.36-.64.906-.048.14-.094.188-.063.046-.157.046-.109 0-.172-.062-.062-.063-.062-.156 0-.282.297-.766.312-.484.844-.75.546-.281 1.125-.281.921 0 1.578.64.656.641.656 1.454 0 .328-.11.625-.109.28-.374.625-.266.328-.954 1-1.734 1.718-2.828 2.656v.031Zm11.374-3.781v1.219q0 1.578-.75 2.515-.593.719-1.5.719-.437 0-.828-.172-.375-.172-.64-.484-.172-.188-.375-.61-.204-.437-.282-.797-.14-.5-.14-1.171v-1.22q0-1.593.75-2.515.593-.734 1.5-.734.437 0 .812.172.39.172.656.484.172.203.375.64.204.423.297.766.125.5.125 1.188Zm-.484.062q0-.703-.203-1.297-.203-.609-.438-.953-.156-.218-.39-.36-.328-.202-.75-.202-.828 0-1.297.844-.469.843-.469 1.968v1.078q0 .704.203 1.313.203.594.453.953.141.203.375.344.328.219.75.219.828 0 1.297-.844.469-.86.469-1.985v-1.078Zm7.484-.062v1.219q0 1.578-.75 2.515-.593.719-1.5.719-.437 0-.828-.172-.375-.172-.64-.484-.172-.188-.375-.61-.204-.437-.282-.797-.14-.5-.14-1.171v-1.22q0-1.593.75-2.515.593-.734 1.5-.734.437 0 .812.172.39.172.656.484.172.203.375.64.204.423.297.766.125.5.125 1.188Zm-.484.062q0-.703-.203-1.297-.203-.609-.438-.953-.156-.218-.39-.36-.328-.202-.75-.202-.828 0-1.297.844-.469.843-.469 1.968v1.078q0 .704.203 1.313.203.594.453.953.141.203.375.344.328.219.75.219.828 0 1.297-.844.469-.86.469-1.985v-1.078Zm195.7 2.157h-3.266v-.563l2.734-4.734h1.031v4.812h.407q.187 0 .265.063.078.062.078.187 0 .094-.078.172-.078.063-.265.063h-.407v1.562h.407q.187 0 .265.078.078.063.078.172 0 .11-.078.188-.078.062-.265.062h-1.828q-.172 0-.25-.063-.079-.078-.079-.187 0-.11.079-.172.078-.078.25-.078h.921v-1.563Zm0-.485v-4.312h-.25l-2.5 4.312h2.75Zm8.343-1.734v1.219q0 1.578-.75 2.515-.594.719-1.5.719-.437 0-.828-.172-.375-.172-.64-.484-.172-.188-.376-.61-.203-.437-.28-.797-.141-.5-.141-1.171v-1.22q0-1.593.75-2.515.593-.734 1.5-.734.437 0 .812.172.39.172.656.484.172.203.375.64.203.423.297.766.125.5.125 1.188Zm-.484.062q0-.703-.203-1.297-.203-.609-.438-.953-.156-.218-.39-.36-.329-.202-.75-.202-.829 0-1.297.844-.47.843-.47 1.968v1.078q0 .704.204 1.313.203.594.453.953.14.203.375.344.328.219.75.219.828 0 1.297-.844.469-.86.469-1.985v-1.078Zm7.484-.062v1.219q0 1.578-.75 2.515-.594.719-1.5.719-.437 0-.828-.172-.375-.172-.64-.484-.172-.188-.376-.61-.203-.437-.28-.797-.141-.5-.141-1.171v-1.22q0-1.593.75-2.515.593-.734 1.5-.734.437 0 .812.172.39.172.656.484.172.203.375.64.203.423.297.766.125.5.125 1.188Zm-.484.062q0-.703-.203-1.297-.203-.609-.438-.953-.156-.218-.39-.36-.329-.202-.75-.202-.829 0-1.297.844-.47.843-.47 1.968v1.078q0 .704.204 1.313.203.594.453.953.14.203.375.344.328.219.75.219.828 0 1.297-.844.469-.86.469-1.985v-1.078Zm105.934 1.109q.454-.671.938-1 .484-.327 1.078-.327.781 0 1.39.656.61.656.61 1.625 0 .875-.562 1.61-.547.718-1.532.718-.64 0-1.203-.39-.547-.391-.86-1.204-.39-1.015-.39-2.25 0-.922.36-1.719.28-.609.75-1.078.468-.468 1.093-.765t1.36-.297q.484 0 .812.203.14.078.14.234 0 .11-.062.172-.062.063-.156.063-.078 0-.187-.063-.235-.11-.594-.11-1.14 0-2.094.985-.937.985-.937 2.328 0 .203.046.61Zm.11.813q.219 1.063.687 1.531.485.454 1.14.454.657 0 1.11-.516.47-.516.47-1.328 0-.781-.47-1.281-.468-.5-1.062-.5-.563 0-1.094.484-.344.328-.781 1.156Zm10.61-1.984v1.219q0 1.578-.75 2.515-.595.719-1.5.719-.438 0-.829-.172-.375-.172-.64-.484-.172-.188-.376-.61-.203-.437-.28-.797-.141-.5-.141-1.171v-1.22q0-1.593.75-2.515.593-.734 1.5-.734.437 0 .812.172.39.172.656.484.172.203.375.64.203.423.297.766.125.5.125 1.188Zm-.485.062q0-.703-.203-1.297-.203-.609-.438-.953-.156-.218-.39-.36-.329-.202-.75-.202-.829 0-1.297.844-.47.843-.47 1.968v1.078q0 .704.204 1.313.203.594.453.953.14.203.375.344.328.219.75.219.828 0 1.297-.844.469-.86.469-1.985v-1.078Zm7.484-.062v1.219q0 1.578-.75 2.515-.594.719-1.5.719-.437 0-.828-.172-.375-.172-.64-.484-.172-.188-.376-.61-.203-.437-.28-.797-.141-.5-.141-1.171v-1.22q0-1.593.75-2.515.593-.734 1.5-.734.437 0 .812.172.39.172.656.484.172.203.375.64.203.423.297.766.125.5.125 1.188Zm-.484.062q0-.703-.203-1.297-.203-.609-.438-.953-.156-.218-.39-.36-.329-.202-.75-.202-.829 0-1.297.844-.47.843-.47 1.968v1.078q0 .704.204 1.313.203.594.453.953.14.203.375.344.328.219.75.219.828 0 1.297-.844.469-.86.469-1.985v-1.078Zm72.624.407q.625.296.938.796.312.485.312 1.047 0 .86-.656 1.5-.657.64-1.594.64-.938 0-1.594-.64-.656-.64-.656-1.5 0-.562.313-1.047.312-.5.937-.796-.547-.313-.797-.641-.328-.484-.328-1.063 0-.796.61-1.406.624-.61 1.515-.61.875 0 1.5.61t.625 1.406q0 .579-.344 1.047-.234.344-.781.657Zm.625-1.672q0-.641-.484-1.094-.47-.453-1.157-.453-.672 0-1.156.453-.469.453-.469 1.078 0 .578.47 1.016.468.422 1.155.422.703 0 1.172-.422.469-.438.469-1Zm.125 3.515q0-.64-.5-1.125-.5-.484-1.25-.484t-1.266.484q-.5.485-.5 1.125 0 .672.5 1.172.516.485 1.266.485.734 0 1.234-.485.516-.5.516-1.172Zm7.5-2.312v1.219q0 1.578-.75 2.515-.594.719-1.5.719-.438 0-.828-.172-.375-.172-.64-.484-.173-.188-.376-.61-.203-.437-.281-.797-.14-.5-.14-1.171v-1.22q0-1.593.75-2.515.593-.734 1.5-.734.437 0 .812.172.39.172.656.484.172.203.375.64.203.423.297.766.125.5.125 1.188Zm-.484.062q0-.703-.204-1.297-.203-.609-.437-.953-.156-.218-.39-.36-.329-.202-.75-.202-.829 0-1.298.844-.468.843-.468 1.968v1.078q0 .704.203 1.313.203.594.453.953.14.203.375.344.328.219.75.219.828 0 1.297-.844.469-.86.469-1.985v-1.078Zm7.484-.062v1.219q0 1.578-.75 2.515-.594.719-1.5.719-.438 0-.828-.172-.375-.172-.64-.484-.173-.188-.376-.61-.203-.437-.281-.797-.14-.5-.14-1.171v-1.22q0-1.593.75-2.515.593-.734 1.5-.734.437 0 .812.172.39.172.656.484.172.203.375.64.203.423.297.766.125.5.125 1.188Zm-.484.062q0-.703-.204-1.297-.203-.609-.437-.953-.156-.218-.39-.36-.329-.202-.75-.202-.829 0-1.298.844-.468.843-.468 1.968v1.078q0 .704.203 1.313.203.594.453.953.14.203.375.344.328.219.75.219.828 0 1.297-.844.469-.86.469-1.985v-1.078Zm48.753-3.234v6.953h1.688q.172 0 .25.078.078.063.078.172 0 .11-.078.188-.078.062-.25.062h-3.86q-.187 0-.265-.063-.063-.078-.063-.187 0-.11.063-.172.078-.078.265-.078h1.688v-6.281l-1.61.515q-.125.032-.172.032-.093 0-.171-.063-.063-.078-.063-.187 0-.078.063-.157.047-.046.187-.109l2.25-.703Zm9.016 3.172v1.219q0 1.578-.75 2.515-.594.719-1.5.719-.438 0-.828-.172-.375-.172-.641-.484-.172-.188-.375-.61-.203-.437-.281-.797-.14-.5-.14-1.171v-1.22q0-1.593.75-2.515.593-.734 1.5-.734.437 0 .812.172.39.172.656.484.172.203.375.64.203.423.297.766.125.5.125 1.188Zm-.485.062q0-.703-.203-1.297-.203-.609-.437-.953-.156-.218-.39-.36-.329-.202-.75-.202-.829 0-1.298.844-.468.843-.468 1.968v1.078q0 .704.203 1.313.203.594.453.953.14.203.375.344.328.219.75.219.828 0 1.297-.844.468-.86.468-1.985v-1.078Zm7.485-.062v1.219q0 1.578-.75 2.515-.594.719-1.5.719-.438 0-.828-.172-.375-.172-.641-.484-.172-.188-.375-.61-.203-.437-.281-.797-.14-.5-.14-1.171v-1.22q0-1.593.75-2.515.593-.734 1.5-.734.437 0 .812.172.39.172.656.484.172.203.375.64.203.423.297.766.125.5.125 1.188Zm-.485.062q0-.703-.203-1.297-.203-.609-.437-.953-.156-.218-.39-.36-.329-.202-.75-.202-.829 0-1.298.844-.468.843-.468 1.968v1.078q0 .704.203 1.313.203.594.453.953.14.203.375.344.328.219.75.219.828 0 1.297-.844.468-.86.468-1.985v-1.078Zm7.485-.062v1.219q0 1.578-.75 2.515-.594.719-1.5.719-.438 0-.828-.172-.375-.172-.641-.484-.172-.188-.375-.61-.203-.437-.281-.797-.14-.5-.14-1.171v-1.22q0-1.593.75-2.515.593-.734 1.5-.734.437 0 .812.172.39.172.656.484.172.203.375.64.203.423.297.766.125.5.125 1.188Zm-.485.062q0-.703-.203-1.297-.203-.609-.437-.953-.156-.218-.39-.36-.329-.202-.75-.202-.829 0-1.298.844-.468.843-.468 1.968v1.078q0 .704.203 1.313.203.594.453.953.14.203.375.344.328.219.75.219.828 0 1.297-.844.468-.86.468-1.985v-1.078Z"
  /><path
    fill="#666"
    d="m224.257 89.674 4.243 2.743 4.243-2.743L230 93.917l2.743 4.242-4.243-2.742-4.243 2.742L227 93.917Z"
  /><path
    fill="#412800"
    d="M248.156 92.339v-.157q0-.187.063-.265.078-.078.187-.078.11 0 .172.078.078.078.078.265v1.11q-.015.172-.078.25-.062.078-.172.078-.11 0-.172-.063-.062-.062-.078-.234-.031-.406-.547-.781-.515-.375-1.375-.375-1.109 0-1.672.687-.562.688-.562 1.563 0 .953.625 1.578.625.625 1.625.625.563 0 1.156-.203.61-.22 1.078-.688.125-.125.22-.125.108 0 .171.078.063.063.063.157 0 .25-.594.64-.953.625-2.125.625-1.188 0-1.953-.75-.766-.765-.766-1.922 0-1.203.781-1.984.781-.781 1.969-.781 1.14 0 1.906.672Zm5.656-3.016v1.266h-.734v-1.266h.734Zm.032 3.016h-2.938q-.172 0-.25-.063-.078-.078-.078-.187 0-.11.078-.172.078-.078.25-.078h3.422v5.421q0 .625-.266 1.047-.25.422-.765.688-.36.187-.844.187h-1.562q-.188 0-.266-.078-.063-.062-.063-.172 0-.11.063-.187.078-.063.266-.063h1.547q.625 0 1.015-.406.39-.406.39-1.016v-4.92Zm4.406-.5v.906q.438-.547.938-.813.5-.265 1.187-.265.734 0 1.344.343.625.329.953.938.344.61.344 1.281 0 1.063-.766 1.813-.75.75-1.86.75-1.327 0-2.14-1.078v2.968h1.188q.187 0 .25.063.078.078.078.187 0 .11-.079.172-.062.078-.25.078h-2.343q-.172 0-.25-.078-.078-.062-.078-.172 0-.11.078-.187.078-.063.25-.063h.656V92.34h-.656q-.172 0-.25-.063-.078-.078-.078-.187 0-.11.078-.172.078-.078.25-.078h1.156Zm4.266 2.39q0-.86-.625-1.453-.61-.61-1.5-.61-.907 0-1.532.61-.609.61-.609 1.453 0 .844.61 1.453.624.61 1.53.61.876 0 1.5-.594.626-.61.626-1.469Zm7.25.266h-5.016q.125.953.797 1.547.672.578 1.656.578.563 0 1.156-.172.61-.188.985-.5.11-.078.203-.078.094 0 .156.078.078.062.078.172 0 .094-.094.187-.28.297-1 .547-.718.25-1.484.25-1.265 0-2.11-.828-.843-.828-.843-2 0-1.078.797-1.844.797-.765 1.969-.765 1.203 0 1.984.797.781.78.766 2.03Zm-.5-.5q-.141-.813-.766-1.313-.625-.515-1.484-.515-.86 0-1.485.5-.625.5-.781 1.328h4.516Zm6.484-1.25v-.906h1.156q.188 0 .25.078.078.062.078.172 0 .109-.078.187-.062.063-.25.063h-.656v4.921q0 .485-.219.875-.14.266-.469.532-.328.28-.593.39-.266.125-.719.125h-1.39q-.173 0-.25-.078-.079-.062-.079-.172 0-.11.078-.187.079-.063.25-.063h1.407q.437 0 .78-.218.36-.22.579-.657.125-.234.125-.625v-1.468q-.781 1.078-2.031 1.078-1.016 0-1.75-.75-.735-.75-.735-1.813 0-1.062.735-1.812.734-.75 1.75-.75 1.25 0 2.031 1.078Zm0 1.484q0-.875-.594-1.469-.594-.593-1.422-.593-.812 0-1.406.609-.594.594-.594 1.453 0 .86.594 1.469.594.594 1.406.594.829 0 1.422-.594.594-.61.594-1.469Zm5.594-4.672v6.86h1.937q.188 0 .266.078.078.062.078.172 0 .109-.078.187-.078.063-.266.063h-4.36q-.171 0-.25-.063-.077-.078-.077-.187 0-.11.078-.172.078-.078.25-.078h1.937v-6.36h-1.421q-.172 0-.25-.062-.079-.078-.079-.188t.079-.172q.078-.078.25-.078h1.906Zm7-.234v1.266h-.719v-1.266h.719Zm.015 2.516v4.578h1.938q.187 0 .25.078.078.062.078.172 0 .109-.078.187-.063.063-.25.063h-4.36q-.171 0-.25-.063-.078-.078-.078-.187 0-.11.079-.172.078-.078.25-.078h1.937v-4.078h-1.438q-.171 0-.265-.063-.078-.078-.078-.187 0-.11.078-.172.078-.078.265-.078h1.922Z"
  /><path
    fill="#90f"
    d="m309.257 89.674 4.243 2.743 4.243-2.743L315 93.917l2.743 4.242-4.243-2.742-4.243 2.742L312 93.917Z"
  /><path
    fill="#412800"
    d="M331.703 91.01v4.704h1.219q.422 0 .61.171.187.157.187.438 0 .266-.188.437-.187.157-.61.157h-3.64q-.422 0-.61-.157-.187-.171-.187-.453 0-.265.188-.422.187-.171.61-.171h1.218V91.01h-1.219q-.422 0-.61-.156-.187-.172-.187-.437 0-.282.188-.438.187-.172.61-.172h3.64q.422 0 .61.172.187.156.187.438 0 .265-.188.437-.187.156-.61.156h-1.218Zm6.156.579v.75q.75-.532 1.188-.72.437-.187.812-.187.594 0 1.141.438.375.297.375.594 0 .265-.188.453-.171.172-.421.172-.22 0-.47-.22-.25-.234-.437-.234-.25 0-.75.329-.5.312-1.25.937v1.813h1.704q.437 0 .609.171.187.157.187.438 0 .266-.187.437-.172.157-.61.157h-3.625q-.437 0-.625-.157-.171-.171-.171-.453 0-.265.171-.422.188-.171.625-.171h.72v-2.922h-.438q-.438 0-.625-.157-.172-.171-.172-.437t.172-.438q.187-.171.625-.171h1.64Zm7.672-2.266v1.266h-1.422v-1.266h1.422Zm.172 2.266v4.125h1.438q.437 0 .609.171.188.157.188.438 0 .266-.188.437-.172.157-.61.157h-4.093q-.422 0-.61-.157-.187-.171-.187-.453 0-.265.188-.422.187-.171.609-.171h1.453v-2.922h-.969q-.437 0-.625-.157-.187-.171-.187-.437t.187-.438q.188-.171.625-.171h2.172Zm7.703 1.406q-.297-.172-.625-.266-.312-.094-.672-.094-.703 0-1.109.235-.172.094-.172.219t.235.265q.187.094.843.172 1.188.172 1.656.328.625.219.954.656.343.422.343.891 0 .64-.578 1.078-.812.625-2.11.625-.53 0-.968-.094-.437-.078-.812-.265-.079.078-.188.125-.094.047-.203.047-.281 0-.453-.188-.156-.187-.156-.625v-.406q0-.422.156-.61.172-.187.437-.187.22 0 .36.125.156.11.234.406.281.235.656.36.391.109.907.109.812 0 1.28-.25.22-.125.22-.266 0-.234-.313-.39-.312-.156-1.281-.266-1.453-.14-1.938-.578-.484-.422-.484-1.062 0-.641.547-1.063.734-.594 1.922-.594.422 0 .797.078.39.079.75.25.109-.078.203-.125.094-.046.172-.046.25 0 .406.187.172.188.172.625v.297q0 .39-.094.531-.188.266-.516.266-.203 0-.375-.125-.156-.14-.203-.375Zm8.219 1.062h-5.016v-1.093h5.016v1.093Zm4.484-.547-1.125 3.407h-1.343l-.72-5.907q-.265-.03-.405-.187-.141-.156-.141-.39 0-.282.172-.454.187-.172.625-.172h1.61q.421 0 .609.172.187.156.187.438 0 .265-.187.437-.188.156-.61.156h-.64l.406 3.36.937-2.797h1.25l.938 2.797.406-3.36h-.625q-.437 0-.625-.156-.187-.172-.187-.437 0-.282.187-.438.188-.172.625-.172h1.594q.422 0 .61.172.187.156.187.438 0 .218-.156.39-.141.157-.407.203l-.703 5.907h-1.312l-1.157-3.407Zm10 1.36h-4.921q.187.469.656.75.484.281 1.297.281.671 0 1.78-.281.454-.11.626-.11.25 0 .406.172.172.157.172.422 0 .235-.172.39-.234.22-1.156.423-.906.187-1.735.187-1.453 0-2.312-.812-.86-.813-.86-2 0-1.266.923-2.063.937-.797 2.156-.797.734 0 1.344.266.625.25.921.547.422.437.688 1.078.187.453.187 1.031v.516Zm-1.328-1.203q-.265-.516-.719-.766-.437-.266-1.062-.266-.61 0-1.063.266-.437.25-.718.766h3.562Zm3.813-4.344v2.687q.437-.28.89-.421.454-.157.907-.157 1.25 0 2.109.875.875.86.875 2.078 0 1.157-.828 1.938-.813.781-2.172.781-.484 0-.938-.125-.437-.11-.843-.36v.298h-1.406q-.438 0-.625-.157-.188-.171-.188-.453 0-.265.188-.422.187-.171.625-.171h.203V90.51h-.204q-.437 0-.625-.156-.187-.172-.187-.437 0-.266.188-.422.187-.172.625-.172h1.406Zm3.578 5.094q0-.75-.516-1.266-.515-.516-1.281-.516-.75 0-1.266.516-.515.516-.515 1.25 0 .656.469 1.078.468.422 1.312.422.86 0 1.328-.422.469-.422.469-1.062Zm4.234.062v1.235h1.219q.422 0 .61.171.187.157.187.438 0 .266-.188.437-.187.157-.609.157h-2.61q-.437 0-.624-.157-.172-.171-.172-.453 0-.265.187-.422.188-.171.61-.171h.187V91.01h-.187q-.438 0-.625-.156-.172-.172-.172-.437 0-.282.172-.438.187-.172.625-.172h2.765q1.219 0 1.922.672.719.672.719 1.625 0 .516-.235.985-.187.359-.609.703-.422.343-.875.515-.437.172-1.156.172h-1.14Zm0-1.203h1.11q.796 0 1.25-.344.453-.36.453-.86 0-.421-.375-.733-.36-.329-1.047-.329h-1.39v2.266Z"
  /><path
    fill="#4a86e8"
    d="m408.257 89.674 4.243 2.743 4.243-2.743L414 93.917l2.743 4.242-4.243-2.742-4.243 2.742L411 93.917Z"
  /><path
    fill="#412800"
    d="M430.344 89.557v6.86h1.937q.188 0 .266.078.078.062.078.172 0 .109-.078.187-.078.063-.266.063h-4.36q-.171 0-.25-.063-.077-.078-.077-.187 0-.11.078-.172.078-.078.25-.078h1.937v-6.36h-1.421q-.172 0-.25-.062-.079-.078-.079-.188t.079-.172q.078-.078.25-.078h1.906Zm7-.234v1.266h-.719v-1.266h.719Zm.015 2.516v4.578h1.938q.187 0 .25.078.078.062.078.172 0 .109-.078.187-.063.063-.25.063h-4.36q-.171 0-.25-.063-.078-.078-.078-.187 0-.11.079-.172.078-.078.25-.078h1.937v-4.078h-1.438q-.171 0-.265-.063-.078-.078-.078-.187 0-.11.078-.172.078-.078.265-.078h1.922Zm4.891-2.282v3.266q.89-1.156 2.14-1.156 1.079 0 1.844.78.782.782.782 1.923 0 1.14-.782 1.937-.78.797-1.843.797-1.282 0-2.141-1.156v.969h-1.156q-.172 0-.25-.063-.078-.078-.078-.187 0-.11.078-.172.078-.078.25-.078h.656v-6.36h-.656q-.172 0-.25-.062-.078-.078-.078-.188t.078-.172q.078-.078.25-.078h1.156Zm4.266 4.828q0-.921-.641-1.562-.64-.656-1.484-.656-.86 0-1.5.656-.641.64-.641 1.562 0 .938.64 1.594.641.64 1.5.64.844 0 1.485-.64.64-.656.64-1.594Zm6.28 2.532h-.608l-1.079-3.157-1.078 3.157h-.61l-1.03-4.578h-.235q-.172 0-.25-.063-.078-.078-.078-.187 0-.11.078-.172.078-.078.25-.078h1.36q.171 0 .25.078.078.062.078.172 0 .109-.078.187-.079.063-.25.063h-.625l.859 3.906 1.063-3.125h.578l1.078 3.125.844-3.906h-.625q-.172 0-.25-.063-.079-.078-.079-.187 0-.11.063-.172.078-.078.265-.078h1.344q.188 0 .266.078.078.062.078.172 0 .109-.078.187-.078.063-.266.063h-.234l-1 4.578Zm7.97-2.422h-5.016q.125.953.797 1.547.672.578 1.656.578.563 0 1.156-.172.61-.188.985-.5.11-.078.203-.078.094 0 .156.078.078.062.078.172 0 .094-.094.187-.28.297-1 .547-.718.25-1.484.25-1.265 0-2.11-.828-.843-.828-.843-2 0-1.078.797-1.844.797-.765 1.969-.765 1.203 0 1.984.797.781.78.766 2.03Zm-.5-.5q-.141-.813-.766-1.313-.625-.515-1.484-.515-.86 0-1.485.5-.625.5-.781 1.328h4.516Zm2.984-4.438v3.266q.89-1.156 2.14-1.156 1.079 0 1.844.78.782.782.782 1.923 0 1.14-.782 1.937-.78.797-1.843.797-1.282 0-2.141-1.156v.969h-1.156q-.172 0-.25-.063-.078-.078-.078-.187 0-.11.078-.172.078-.078.25-.078h.656v-6.36h-.656q-.172 0-.25-.062-.078-.078-.078-.188t.078-.172q.078-.078.25-.078h1.156Zm4.266 4.828q0-.921-.641-1.562-.64-.656-1.484-.656-.86 0-1.5.656-.641.64-.641 1.562 0 .938.64 1.594.641.64 1.5.64.844 0 1.485-.64.64-.656.64-1.594Zm2.734-2.546v.906q.438-.547.938-.813.5-.265 1.187-.265.734 0 1.344.343.625.329.953.938.344.61.344 1.281 0 1.063-.766 1.813-.75.75-1.86.75-1.327 0-2.14-1.078v2.968h1.188q.187 0 .25.063.078.078.078.187 0 .11-.079.172-.062.078-.25.078h-2.343q-.172 0-.25-.078-.078-.062-.078-.172 0-.11.078-.187.078-.063.25-.063h.656V92.34h-.656q-.172 0-.25-.063-.078-.078-.078-.187 0-.11.078-.172.078-.078.25-.078h1.156Zm4.266 2.39q0-.86-.625-1.453-.61-.61-1.5-.61-.907 0-1.532.61-.609.61-.609 1.453 0 .844.61 1.453.624.61 1.53.61.876 0 1.5-.594.626-.61.626-1.469Z"
  /><path
    fill="#836f48"
    d="M26.384 63.197v1.547h.516q.5 0 .719.203.218.187.218.5 0 .312-.218.516-.219.187-.719.187h-2.125q-.516 0-.734-.188-.204-.203-.204-.515 0-.313.22-.5.218-.203.718-.203h.219v-5.485h-.219q-.516 0-.734-.187-.204-.203-.204-.516 0-.312.204-.5.218-.203.734-.203l2.125.016q.5 0 .719.187.218.188.218.5 0 .313-.218.516-.219.187-.719.187h-.516v2.078l2.5-2.14q-.218-.156-.312-.281-.078-.141-.078-.344 0-.313.218-.516.22-.203.72-.203l1.437.016q.5 0 .718.187.22.188.22.5 0 .313-.22.516-.218.187-.671.187L28.4 61.462q.703.407 1.313 1.235.624.828 1.109 2.047h.375q.5 0 .703.203.219.187.219.5 0 .312-.219.516-.203.187-.703.187h-1.281q-.438-1.047-.954-2-.421-.766-.812-1.11-.375-.359-.89-.578l-.876.735Zm13.11-.031q0 .797-.453 1.562-.438.75-1.328 1.203-.891.438-1.844.438-.969 0-1.844-.438-.875-.437-1.328-1.187-.453-.766-.453-1.594 0-.844.453-1.656.469-.813 1.344-1.266.875-.469 1.828-.469.953 0 1.828.485.89.468 1.344 1.281.453.797.453 1.64Zm-1.407 0q0-.672-.484-1.235-.656-.765-1.734-.765-.953 0-1.594.609-.64.594-.64 1.406 0 .657.64 1.235.656.562 1.594.562.937 0 1.578-.562.64-.578.64-1.25Zm8.985-5.875v7.453h.234q.5 0 .719.203.219.187.219.5 0 .312-.219.516-.219.187-.719.187h-1.64v-.344q-.485.282-1.016.422-.516.14-1.063.14-1.578 0-2.546-.905-.97-.907-.97-2.266 0-1.422 1.017-2.422 1.015-1.016 2.468-1.016.547 0 1.063.172.531.157 1.047.5v-1.75h-.235q-.515 0-.734-.187-.203-.203-.203-.5 0-.328.203-.516.219-.187.734-.187h1.64Zm-1.406 5.937q0-.86-.61-1.453-.61-.61-1.484-.61-.875 0-1.485.61-.609.594-.609 1.438 0 .765.547 1.265.547.5 1.547.5.984 0 1.531-.5.563-.5.563-1.25Zm7.453 2.922v-.328q-.532.281-1.172.422-.625.14-1.156.14-1.125 0-1.828-.593-.704-.61-.704-1.328 0-.891.891-1.641.906-.75 2.5-.75.625 0 1.469.14v-.343q0-.313-.282-.5-.265-.203-1.03-.203-.61 0-1.61.234-.36.094-.578.094-.266 0-.469-.203-.188-.203-.188-.516 0-.172.063-.297.063-.14.188-.219.124-.078.515-.187.516-.14 1.047-.219.547-.094.984-.094 1.313 0 2.032.563.718.562.718 1.547v2.875h.25q.5 0 .72.203.218.187.218.5 0 .312-.219.516-.219.187-.719.187h-1.64Zm0-2.516q-.844-.156-1.563-.156-.843 0-1.468.422-.376.266-.376.531 0 .203.188.328.328.22.922.22.515 0 1.156-.188.64-.203 1.14-.547v-.61Zm5.578.188v2.328h-1.64q-.5 0-.72-.188-.218-.203-.218-.515 0-.313.218-.5.22-.203.72-.203h.234V58.68h-.235q-.5 0-.718-.187-.22-.203-.22-.516 0-.312.22-.5.218-.187.718-.187h1.64v4.718l1.095-.89q-.172-.282-.172-.469 0-.313.203-.5.219-.203.734-.203h1.594q.5 0 .719.203.218.188.218.5 0 .297-.218.5-.219.188-.719.188h-.39l-1.704 1.39 2.297 2.016h.406q.5 0 .72.203.218.187.218.5 0 .312-.219.516-.219.187-.719.187H61.15q-.516 0-.734-.188-.203-.203-.203-.515 0-.266.234-.531l-1.485-1.313-.265.219Zm17.828-4.563v5.485h.953q.5 0 .719.203.219.187.219.5 0 .312-.22.516-.218.187-.718.187h-3.281q-.516 0-.734-.188-.204-.203-.204-.515 0-.313.204-.5.218-.203.734-.203h.937v-5.485H73.62v1.328q0 .516-.203.735-.188.203-.5.203-.313 0-.516-.203-.188-.219-.188-.735v-2.734l7.266.016v2.718q0 .516-.203.735-.188.203-.516.203-.296 0-.5-.203-.187-.219-.187-.735V59.26h-1.547Zm7.031.688v.875q.89-.64 1.39-.844.517-.219.954-.219.688 0 1.328.5.438.344.438.703 0 .297-.203.516-.204.203-.5.203-.266 0-.563-.25-.281-.265-.5-.265-.297 0-.89.375-.579.359-1.454 1.093v2.11h2q.5 0 .719.203.219.187.219.5 0 .312-.219.516-.219.187-.719.187h-4.234q-.5 0-.719-.188-.219-.203-.219-.515 0-.313.22-.5.218-.203.718-.203h.844v-3.407h-.516q-.5 0-.719-.187-.218-.203-.218-.516 0-.297.218-.484.219-.203.719-.203h1.906Zm11.266 0v4.797q.453 0 .656.203.219.203.219.5 0 .312-.219.516-.219.187-.719.187h-1.328v-.328q-.61.281-1.156.406-.547.14-1.031.14-.688 0-1.203-.28-.5-.297-.797-.813-.219-.36-.219-.922v-3.015h-.234q-.5 0-.72-.188-.218-.203-.218-.516 0-.297.219-.484.219-.203.719-.203h1.64v4.172q0 .437.219.656.219.203.656.203.422 0 .907-.172.5-.172 1.218-.61v-2.858h-.515q-.5 0-.72-.188-.218-.203-.218-.516 0-.297.219-.484.219-.203.719-.203h1.906Zm8.547 3.812h-5.75q.219.547.765.891.563.328 1.516.328.781 0 2.078-.344.531-.125.735-.125.28 0 .468.204.188.187.188.484 0 .281-.203.469-.266.25-1.328.484-1.063.219-2.032.219-1.687 0-2.703-.938-1-.953-1-2.343 0-1.485 1.078-2.407 1.094-.922 2.516-.922.86 0 1.578.297.719.297 1.063.657.484.5.812 1.25.219.515.219 1.203v.593Zm-1.547-1.406q-.328-.594-.844-.89-.515-.297-1.234-.297t-1.235.297q-.515.296-.843.89h4.156Zm16.234-4.14q.125-.172.282-.25.156-.094.328-.094.312 0 .5.218.203.204.203.704v1.187q0 .516-.203.734-.188.204-.5.204-.282 0-.453-.157-.172-.156-.25-.578-.047-.297-.188-.453-.281-.312-.797-.484-.5-.188-1-.188-.625 0-1.156.282-.531.265-.938.89-.39.61-.39 1.453v.907q0 1.015.734 1.687.735.672 2.031.672.782 0 1.329-.203.312-.125.671-.485.22-.218.329-.28.125-.079.28-.079.282 0 .5.219.22.219.22.5t-.297.61q-.422.484-1.078.75-.875.374-1.938.374-1.25 0-2.25-.515-.797-.407-1.375-1.282-.563-.89-.563-1.937v-.953q0-1.094.5-2.032.516-.953 1.422-1.468.907-.516 1.907-.516.609 0 1.14.14.532.141 1 .422Zm9.438 4.953q0 .797-.453 1.562-.438.75-1.328 1.203-.891.438-1.844.438-.969 0-1.844-.438-.875-.437-1.328-1.187-.453-.766-.453-1.594 0-.844.453-1.656.469-.813 1.344-1.266.875-.469 1.828-.469.953 0 1.828.485.89.468 1.344 1.281.453.797.453 1.64Zm-1.406 0q0-.672-.485-1.235-.656-.765-1.734-.765-.953 0-1.594.609-.64.594-.64 1.406 0 .657.64 1.235.656.562 1.594.562.937 0 1.578-.562.64-.578.64-1.25Zm6.468-5.875v7.453h1.672q.516 0 .719.203.219.187.219.5 0 .312-.22.516-.202.187-.718.187h-4.766q-.5 0-.718-.188-.219-.203-.219-.515 0-.313.219-.5.219-.203.719-.203h1.687V58.68h-1.125q-.5 0-.719-.187-.219-.203-.219-.516 0-.312.204-.5.218-.187.734-.187h2.531Zm10.938 5.875q0 .797-.453 1.562-.438.75-1.328 1.203-.891.438-1.844.438-.969 0-1.844-.438-.875-.437-1.328-1.187-.453-.766-.453-1.594 0-.844.453-1.656.469-.813 1.344-1.266.875-.469 1.828-.469.953 0 1.828.485.89.468 1.344 1.281.453.797.453 1.64Zm-1.406 0q0-.672-.485-1.235-.656-.765-1.734-.765-.953 0-1.594.609-.64.594-.64 1.406 0 .657.64 1.235.656.562 1.594.562.937 0 1.578-.562.64-.578.64-1.25Zm5.468-3.22v.876q.89-.64 1.39-.844.517-.219.954-.219.688 0 1.328.5.438.344.438.703 0 .297-.203.516-.204.203-.5.203-.266 0-.563-.25-.281-.265-.5-.265-.297 0-.89.375-.579.359-1.454 1.093v2.11h2q.5 0 .719.203.219.187.219.5 0 .312-.219.516-.219.187-.719.187h-4.234q-.5 0-.719-.188-.219-.203-.219-.515 0-.313.22-.5.218-.203.718-.203h.844v-3.407h-.516q-.5 0-.719-.187-.219-.203-.219-.516 0-.297.22-.484.218-.203.718-.203h1.906Zm17-.687v5.485h1.406q.516 0 .72.203.218.187.218.5 0 .312-.219.516-.203.187-.719.187h-4.234q-.5 0-.719-.188-.203-.203-.203-.515 0-.313.203-.5.22-.203.72-.203h1.421v-5.485h-1.422q-.5 0-.719-.187-.203-.203-.203-.516 0-.312.203-.5.22-.203.72-.203l4.233.016q.516 0 .72.187.218.188.218.5 0 .313-.219.516-.203.187-.719.187h-1.406Zm5.125.688v.39q.344-.328.625-.453.281-.14.64-.14.313 0 .61.156t.578.453q.375-.297.735-.437.375-.157.765-.157.782 0 1.266.422.64.547.64 1.422v3.14q.438 0 .641.204.219.203.219.5 0 .312-.219.516-.203.187-.703.187h-1.328v-4.422q0-.328-.125-.437-.11-.125-.36-.125-.218 0-.421.109-.25.172-.61.656v2.813q.438 0 .641.203.219.203.219.5 0 .312-.219.516-.203.187-.719.187h-1.328v-4.422q0-.312-.125-.437-.11-.125-.36-.125t-.484.156q-.234.14-.578.61v2.812q.438 0 .656.203.22.203.22.5 0 .312-.22.516-.218.187-.718.187h-1.266q-.5 0-.719-.188-.218-.203-.218-.515 0-.313.218-.5.204-.203.657-.203v-3.407q-.453 0-.657-.187-.218-.203-.218-.516 0-.297.218-.484.22-.203.72-.203h1.327Zm11.438 6.203v-.328q-.531.281-1.172.422-.625.14-1.156.14-1.125 0-1.828-.593-.704-.61-.704-1.328 0-.891.891-1.641.906-.75 2.5-.75.625 0 1.469.14v-.343q0-.313-.281-.5-.266-.203-1.032-.203-.61 0-1.61.234-.358.094-.577.094-.266 0-.469-.203-.188-.203-.188-.516 0-.172.063-.297.063-.14.188-.219.125-.078.515-.187.516-.14 1.047-.219.547-.094.984-.094 1.313 0 2.032.563.718.562.718 1.547v2.875h.25q.5 0 .72.203.218.187.218.5 0 .312-.219.516-.219.187-.719.187h-1.64Zm0-2.516q-.844-.156-1.563-.156-.844 0-1.469.422-.374.266-.374.531 0 .203.187.328.328.22.922.22.516 0 1.156-.188.64-.203 1.14-.547v-.61Zm8.281-3.28v-.407h1.64q.5 0 .704.203.219.188.219.5 0 .297-.22.5-.202.188-.702.188h-.25v5.109q0 .734-.313 1.281-.312.563-.953.953-.64.39-1.438.39h-1.593q-.5 0-.719-.202-.219-.188-.219-.485 0-.312.219-.515.219-.188.719-.188h1.547q.64 0 1-.36.359-.343.359-.874v-.688q-.469.297-.953.454-.484.156-.984.156-1.438 0-2.407-.953-.953-.97-.953-2.36 0-1.406.953-2.36.969-.952 2.406-.952.532 0 1.016.156.484.14.922.453Zm-.016 2.687q0-.766-.578-1.328-.562-.579-1.36-.579-.796 0-1.374.578-.563.563-.563 1.329 0 .78.563 1.343.578.563 1.375.563t1.36-.563q.577-.562.577-1.343Zm9.985.718h-5.75q.219.547.765.891.563.328 1.516.328.781 0 2.078-.344.531-.125.734-.125.282 0 .47.204.187.187.187.484 0 .281-.203.469-.266.25-1.328.484-1.063.219-2.032.219-1.687 0-2.703-.938-1-.953-1-2.343 0-1.485 1.078-2.407 1.094-.922 2.516-.922.86 0 1.578.297.719.297 1.063.657.484.5.812 1.25.219.515.219 1.203v.593Zm-1.547-1.406q-.328-.594-.844-.89-.516-.297-1.234-.297-.719 0-1.235.297-.515.296-.843.89h4.156Zm11.984 3.438q-.187.218-.297.28-.109.063-.28.063-.313 0-.517-.203-.187-.218-.187-.718v-.954q0-.5.188-.718.203-.22.515-.22.25 0 .406.142.172.124.266.437.094.297.188.406.187.203.687.422.516.219 1.125.219.938 0 1.531-.438.39-.265.39-.656 0-.25-.187-.484-.187-.235-.609-.375-.266-.11-1.219-.282-1.14-.218-1.734-.515-.594-.297-.938-.844-.328-.547-.328-1.187 0-1 .828-1.75.844-.766 2.188-.766.547 0 1 .125.469.11.844.36.28-.266.547-.266.312 0 .5.218.203.22.203.72v1.046q0 .5-.203.719-.188.219-.5.219-.266 0-.454-.157-.14-.125-.218-.468-.078-.344-.203-.5-.188-.25-.594-.422-.39-.188-.906-.188-.766 0-1.204.36-.437.343-.437.718 0 .266.172.516.187.234.531.375.234.094 1.313.313 1.078.203 1.656.453.578.25.953.797.39.546.39 1.28 0 1.048-.734 1.673-.969.812-2.469.812-.578 0-1.14-.14-.547-.141-1.063-.422Zm13.563-2.032h-5.75q.219.547.765.891.563.328 1.516.328.781 0 2.078-.344.531-.125.734-.125.282 0 .47.204.187.187.187.484 0 .281-.203.469-.266.25-1.328.484-1.063.219-2.032.219-1.687 0-2.703-.938-1-.953-1-2.343 0-1.485 1.078-2.407 1.094-.922 2.516-.922.86 0 1.578.297.719.297 1.063.657.484.5.812 1.25.219.515.219 1.203v.593Zm-1.547-1.406q-.328-.594-.844-.89-.516-.297-1.234-.297-.719 0-1.235.297-.515.296-.843.89h4.156Zm5.687-1.016v2.813q0 .453.188.594.281.234 1.016.234 1.078 0 1.984-.469.344-.171.547-.171.281 0 .469.203.203.203.203.5 0 .28-.22.468-.327.329-1.312.594-.984.266-1.671.266-1.297 0-1.954-.563-.656-.562-.656-1.375v-3.093h-.5q-.516 0-.734-.188-.203-.203-.203-.516 0-.297.203-.484.219-.203.734-.203h.5V58.68q0-.515.188-.718.203-.22.515-.22.313 0 .5.22.203.203.203.718v1.266h2.594q.5 0 .719.203.219.188.219.5 0 .297-.22.5-.218.188-.718.188h-2.594Z"
  /><path
    fill="#412800"
    d="M25.572 38.65v-7.828h-.313q-.734 0-1.047-.281-.296-.282-.296-.735t.296-.718q.313-.282 1.047-.282h5.016q1.797 0 2.89 1 1.094 1 1.094 2.375 0 .657-.265 1.235-.25.578-.766 1.062.953.563 1.422 1.328.469.75.469 1.703 0 .766-.328 1.422-.266.5-.625.797-.5.406-1.235.672-.718.25-1.797.25H25.26q-.734 0-1.047-.281-.296-.282-.296-.719 0-.453.312-.719.313-.281 1.031-.281h.313Zm2-4.922h2.187q1.188 0 1.97-.594.53-.406.53-1 0-.53-.5-.921t-1.578-.391h-2.61v2.906Zm0 4.922h3.453q1.219 0 1.719-.36.375-.28.375-.78 0-.61-.75-1.188-.75-.594-2.157-.594h-2.64v2.922ZM45.9 31.775v6.875q.64 0 .938.281.312.282.312.719 0 .438-.313.719-.312.281-1.03.281H43.9v-.453q-.86.39-1.64.578-.782.203-1.485.203-.984 0-1.703-.422-.719-.422-1.14-1.14-.313-.532-.313-1.328V33.79h-.344q-.719 0-1.031-.282-.297-.28-.297-.734 0-.438.297-.719.312-.281 1.031-.281h2.344v5.969q0 .625.312.922.313.297.938.297.61 0 1.312-.235.703-.234 1.719-.86V33.79h-.719q-.718 0-1.031-.282-.313-.28-.313-.734 0-.438.313-.719.313-.281 1.031-.281H45.9Zm7.266 2.016v4q0 .656.25.859.422.313 1.468.313 1.532 0 2.828-.641.5-.266.782-.266.39 0 .672.297.297.297.297.719 0 .39-.313.672-.469.453-1.89.843-1.407.391-2.376.391-1.859 0-2.797-.812-.937-.813-.937-1.985v-4.39h-.719q-.718 0-1.031-.282-.297-.28-.297-.734 0-.438.297-.719.313-.281 1.031-.281h.719v-1.797q0-.719.281-1.031.282-.313.735-.313.437 0 .718.313.282.312.282 1.031v1.797h3.687q.734 0 1.031.281.313.282.313.735 0 .437-.313.718-.297.282-1.03.282h-3.688Zm12 0v4q0 .656.25.859.422.313 1.468.313 1.532 0 2.829-.641.5-.266.78-.266.391 0 .673.297.297.297.297.719 0 .39-.313.672-.469.453-1.89.843-1.407.391-2.376.391-1.859 0-2.796-.812-.938-.813-.938-1.985v-4.39h-.719q-.718 0-1.031-.282-.297-.28-.297-.734 0-.438.297-.719.313-.281 1.031-.281h.719v-1.797q0-.719.281-1.031.282-.313.735-.313.437 0 .718.313.282.312.282 1.031v1.797h3.687q.735 0 1.031.281.313.282.313.735 0 .437-.313.718-.296.282-1.03.282h-3.688Zm17.515 3.437h-8.218q.312.781 1.109 1.266.797.468 2.156.468 1.11 0 2.953-.468.766-.203 1.063-.203.39 0 .656.297.281.28.281.703 0 .39-.281.672-.39.359-1.906.687-1.516.328-2.922.328-2.39 0-3.844-1.36-1.437-1.359-1.437-3.343 0-2.11 1.562-3.422 1.563-1.328 3.594-1.328 1.219 0 2.234.438 1.016.421 1.516.906.703.734 1.172 1.797.312.734.312 1.718v.844Zm-2.218-2q-.47-.86-1.22-1.281-.734-.422-1.75-.422-1.015 0-1.765.422-.734.422-1.203 1.281h5.938Zm8.78-3.453v1.25q1.25-.906 1.97-1.203.734-.297 1.375-.297.968 0 1.89.719.625.484.625 1 0 .422-.297.718-.297.297-.718.297-.375 0-.782-.359-.406-.375-.734-.375-.422 0-1.25.531-.828.516-2.078 1.578v3.016h2.844q.718 0 1.03.281.313.266.313.719 0 .438-.312.719-.313.281-1.031.281H86.04q-.72 0-1.032-.281-.296-.282-.296-.719 0-.453.296-.719.313-.281 1.032-.281h1.187v-4.86h-.719q-.718 0-1.03-.28-.298-.282-.298-.735 0-.438.297-.719.313-.281 1.031-.281h2.735Zm14.204 8.875v-.469q-.75.407-1.656.594-.907.203-1.641.203-1.625 0-2.625-.844-1-.859-1-1.89 0-1.266 1.281-2.344 1.282-1.078 3.547-1.078.906 0 2.094.187v-.468q0-.453-.39-.735-.376-.281-1.454-.281-.89 0-2.312.344-.532.125-.813.125-.406 0-.687-.282-.282-.296-.282-.734 0-.266.094-.437.11-.188.281-.297.172-.125.735-.281.75-.204 1.515-.313.766-.125 1.391-.125 1.875 0 2.906.813 1.032.796 1.032 2.187v4.125h.328q.734 0 1.03.281.313.266.313.719 0 .438-.312.719-.297.281-1.031.281h-2.344Zm0-3.578q-1.188-.235-2.203-.235-1.235 0-2.11.594-.546.375-.546.766 0 .281.265.453.485.328 1.344.328.719 0 1.625-.281.922-.281 1.625-.766v-.86Zm14.453-5.297v6.875q.64 0 .938.281.312.282.312.719 0 .438-.313.719-.312.281-1.03.281H115.9v-.453q-.86.39-1.64.578-.782.203-1.485.203-.984 0-1.703-.422-.719-.422-1.14-1.14-.313-.532-.313-1.328V33.79h-.344q-.719 0-1.031-.282-.297-.28-.297-.734 0-.438.297-.719.312-.281 1.031-.281h2.344v5.969q0 .625.312.922.313.297.938.297.61 0 1.312-.235.703-.234 1.719-.86V33.79h-.719q-.718 0-1.031-.282-.313-.28-.313-.734 0-.438.313-.719.313-.281 1.031-.281h2.719Zm9.953.61v-.61h2.344q.719 0 1.031.281.313.282.313.735 0 .437-.313.718-.312.282-1.031.282h-.344v7.28q0 1.048-.453 1.829-.438.797-1.36 1.36-.906.578-2.062.578h-2.265q-.72 0-1.032-.282-.312-.281-.312-.718 0-.454.312-.735.313-.281 1.032-.281h2.203q.922 0 1.422-.5.515-.485.515-1.25v-.985q-.656.438-1.36.641-.687.219-1.405.219-2.032 0-3.422-1.36-1.375-1.359-1.375-3.359 0-2.016 1.375-3.375 1.39-1.36 3.422-1.36.765 0 1.453.22.687.218 1.312.671Zm-.015 3.828q0-1.094-.813-1.907-.813-.812-1.953-.812-1.14 0-1.969.812-.812.813-.812 1.907 0 1.109.812 1.921.828.813 1.969.813 1.14 0 1.953-.813.813-.812.813-1.922Zm10.812-8.235V38.65h2.406q.719 0 1.031.281.313.266.313.719 0 .438-.313.719-.312.281-1.03.281h-6.813q-.719 0-1.031-.281-.297-.282-.297-.719 0-.453.297-.719.312-.281 1.03-.281h2.407v-8.672h-1.61q-.718 0-1.03-.265-.313-.282-.313-.735 0-.437.312-.719.313-.28 1.032-.28h3.609Zm11.719 0v2.125h-2.375v-2.125h2.375Zm.281 3.797v6.875h2.39q.735 0 1.032.281.312.266.312.719 0 .438-.312.719-.297.281-1.031.281h-6.797q-.735 0-1.047-.281-.297-.282-.297-.719 0-.453.297-.719.312-.281 1.047-.281h2.39v-4.86h-1.609q-.703 0-1.016-.28-.312-.282-.312-.735 0-.438.297-.719.312-.281 1.031-.281h3.625Zm25.86 2.188q.89.609 1.328 1.406.437.781.437 1.781 0 1.063-.578 1.969-.578.89-1.688 1.36-1.109.468-2.89.468-2.328 0-3.5-.735-.656-.406-.656-.968 0-.438.28-.735.298-.297.72-.297.28 0 .578.204.437.297.812.39.578.14 1.61.14 1.75 0 2.53-.452.782-.469.782-1.297 0-.61-.453-1.172-.453-.578-1.219-.89-.437-.172-1.484-.25-.5-.032-.766-.297-.266-.282-.266-.704t.282-.718q.297-.297.75-.297h1.062q.39-.047.781-.25.391-.219.626-.594.25-.375.25-.781 0-.64-.563-1.094-.563-.469-1.688-.469-1.437 0-2.203.844-.234.234-.359.313-.203.109-.469.109-.406 0-.703-.297-.281-.297-.281-.719 0-.672.89-1.312 1.313-.922 3.266-.922 1.86 0 2.984 1.062 1.126 1.047 1.126 2.532 0 .765-.344 1.437-.328.672-.985 1.234Zm13.343 1.921h-8.36v-1.828h8.36v1.828Zm5.766-4.109v.688q.547-.47 1.203-.704.672-.234 1.437-.234 1.782 0 2.813 1.094.828.875.828 2.312v3.719q.625 0 .922.281.312.266.312.719 0 .438-.312.719-.297.281-1.031.281h-1.797q-.719 0-1.031-.281-.313-.282-.313-.719 0-.453.297-.719.312-.281.953-.281v-3.781q0-.657-.36-.953-.452-.391-1.374-.391-.688 0-1.22.266-.515.265-1.327 1.14v3.719q.781 0 1 .14.484.297.484.86 0 .438-.312.719-.313.281-1.032.281h-2.265q-.735 0-1.047-.281-.297-.282-.297-.719 0-.547.469-.86.234-.14 1-.14v-4.86q-.625 0-.938-.28-.297-.297-.297-.735t.297-.719q.313-.281 1.047-.281h1.89Zm19.234 4.61q0 1.156-.64 2.234-.641 1.078-1.907 1.718-1.265.641-2.64.641-1.36 0-2.61-.625-1.25-.64-1.906-1.719-.656-1.093-.656-2.265 0-1.203.656-2.36.672-1.156 1.906-1.812 1.25-.672 2.61-.672 1.375 0 2.625.672 1.265.672 1.906 1.828.656 1.14.656 2.36Zm-2 0q0-.954-.703-1.766-.938-1.094-2.484-1.094-1.36 0-2.266.875-.906.86-.906 2 0 .938.906 1.75.922.813 2.266.813 1.343 0 2.265-.813.922-.813.922-1.766Zm8.39-4.61v1.25q1.25-.906 1.97-1.203.734-.297 1.375-.297.968 0 1.89.719.625.484.625 1 0 .422-.297.718-.297.297-.719.297-.374 0-.78-.359-.407-.375-.735-.375-.422 0-1.25.531-.828.516-2.078 1.578v3.016h2.844q.718 0 1.03.281.313.266.313.719 0 .438-.312.719-.313.281-1.031.281h-6.047q-.72 0-1.032-.281-.296-.282-.296-.719 0-.453.296-.719.313-.281 1.032-.281h1.187v-4.86h-.719q-.718 0-1.03-.28-.298-.282-.298-.735 0-.438.297-.719.313-.281 1.031-.281h2.735Zm9.313 0v.578q.5-.484.89-.656.392-.188.907-.188.438 0 .86.22.437.202.859.64.516-.438 1.047-.64.531-.204 1.094-.204 1.109 0 1.796.594.922.781.922 2.047v4.484q.625 0 .922.281.313.282.313.719 0 .438-.313.719-.297.281-1.016.281h-1.906v-6.313q0-.468-.172-.64-.156-.172-.5-.172-.343 0-.625.172-.359.25-.875.922v4.031q.625 0 .922.281.313.282.313.719 0 .438-.313.719-.297.281-1.015.281h-1.907v-6.313q0-.453-.171-.625-.172-.187-.516-.187-.344 0-.688.219-.343.218-.828.875v4.031q.625 0 .938.281.312.282.312.719 0 .438-.312.719-.313.281-1.031.281h-1.813q-.719 0-1.016-.281-.312-.282-.312-.719 0-.453.312-.719.297-.281.922-.281v-4.86q-.625 0-.922-.28-.312-.297-.312-.735t.312-.719q.297-.281 1.016-.281h1.906Zm27.813-3.797v2.125h-2.375v-2.125h2.375Zm.281 3.797v6.875h2.39q.735 0 1.032.281.312.266.312.719 0 .438-.312.719-.297.281-1.031.281h-6.797q-.735 0-1.047-.281-.297-.282-.297-.719 0-.453.297-.719.312-.281 1.047-.281h2.39v-4.86h-1.609q-.703 0-1.016-.28-.312-.282-.312-.735 0-.438.297-.719.312-.281 1.031-.281h3.625Zm15.297 2.297h-8.563q-.718 0-1.03-.281-.298-.282-.298-.735 0-.437.297-.703.313-.281 1.031-.281h8.563q.719 0 1.015.281.313.266.313.719 0 .437-.313.719-.296.28-1.015.28Zm0 3.765h-8.563q-.718 0-1.03-.265-.298-.281-.298-.735 0-.453.297-.718.313-.282 1.031-.282h8.563q.719 0 1.015.282.313.265.313.718 0 .454-.313.735-.296.265-1.015.265Zm5.828.813h4.39q.36-.297.688-.297.453 0 .719.313.281.297.281 1.03v.954h-9.125v-2.125q5.406-4.453 6.531-5.734.563-.657.563-1.25 0-.72-.64-1.282-.641-.562-1.704-.562-1.078 0-1.781.625-.375.328-.594.984-.14.407-.39.594-.235.172-.579.172-.406 0-.718-.297-.297-.297-.297-.687 0-.579.547-1.454.546-.89 1.578-1.406 1.047-.531 2.265-.531 1.891 0 3.094 1.14 1.219 1.141 1.219 2.782 0 .828-.344 1.547-.344.703-1.656 1.953-1.047.984-4.047 3.531Zm18.25-5.438v2.204q0 1.953-1.14 3.75-1.126 1.78-3.22 1.78-1.203 0-2.046-.53-.828-.532-1.578-1.97-.75-1.437-.75-3.03v-2.203q0-1.938 1.125-3.72 1.125-1.796 3.218-1.796 1.203 0 2.032.531.843.516 1.593 1.953.766 1.422.766 3.031Zm-2.016 0q0-1.624-.906-2.843-.516-.672-1.453-.672-.906 0-1.484.734-.875 1.125-.875 2.781v2.204q0 1.64.921 2.843.5.688 1.454.688.906 0 1.468-.75.875-1.125.875-2.781v-2.203Zm12.5.75q.891.61 1.328 1.407.438.781.438 1.781 0 1.063-.578 1.969-.578.89-1.688 1.36-1.109.468-2.89.468-2.328 0-3.5-.735-.657-.406-.657-.968 0-.438.282-.735.297-.297.718-.297.282 0 .579.204.437.297.812.39.578.14 1.61.14 1.75 0 2.53-.452.782-.469.782-1.297 0-.61-.453-1.172-.453-.578-1.219-.89-.437-.172-1.484-.25-.5-.032-.766-.297-.266-.282-.266-.704t.282-.718q.297-.297.75-.297h1.062q.39-.047.781-.25.391-.219.625-.594.25-.375.25-.781 0-.64-.562-1.094-.563-.469-1.688-.469-1.437 0-2.203.844-.234.234-.359.313-.203.109-.469.109-.406 0-.703-.297-.281-.297-.281-.719 0-.672.89-1.312 1.313-.922 3.266-.922 1.86 0 2.984 1.062 1.125 1.047 1.125 2.532 0 .765-.343 1.437-.328.672-.985 1.234Z"
  />
</svg>
