<svg xmlns="http://www.w3.org/2000/svg" width="600" height="371" fill="none" stroke-linecap="square" stroke-miterlimit="10"><path fill="#fff" d="M0 0h600v371H0V0Z"/><path stroke="#ccc" stroke-linecap="butt" d="M178.5 111.5v189m156-189v189m91-189v189m65-189v189m50-189v189m-463 0h504m-504-47h504"/><path stroke="#333" stroke-linecap="butt" d="M77.5 206.5h504"/><path stroke="#ccc" stroke-linecap="butt" d="M77.5 158.5h504m-504-47h504"/><path stroke="#e6e6e6" stroke-linecap="butt" d="M77.5 276.5h504m-504-47h504m-504-47h504m-504-47h504"/><path stroke="#eee" stroke-linecap="butt" d="M175.154 190.117v16m31.741-20.584v16m.151-14.236v16M87.355 265.32v16m36.407-38.865v16m166.049-100.422v16m102.42-31.223v16m97.169-22.538v16m-344.926 76.227v16m37.818-28.145v16m39.39-41.581v16m144.273-29.112v16m3.649-14.799v16m28.111-25.85v16m164.464-22.85v16"/><clipPath id="a"><path d="M77.55 111.783h503.9V300.45H77.55V111.783Z"/></clipPath><path stroke="#666" stroke-linecap="butt" stroke-width="2" d="M175.154 206.117s31.69-4.874 31.74-4.584c.051.29.152 1.764.152 1.764" clip-path="url(#a)"/><path stroke="#c061cb" stroke-linecap="butt" stroke-width="2" d="M87.355 281.32s24.272-15.97 36.407-22.865c12.136-6.896 131.91-73.207 166.05-84.422 34.14-11.216 70.03-11.726 102.42-15.223 32.389-3.496 97.168-6.538 97.168-6.538" clip-path="url(#a)"/><path stroke="#4a86e8" stroke-linecap="butt" stroke-width="2" d="M144.474 244.499s25.212-6.027 37.818-12.145c12.606-6.118 26.26-20.721 39.39-25.581 13.13-4.86 143.056-13.256 144.273-13.112 1.216.145 2.433 1.214 3.649 1.2 1.216-.013 18.74-8.012 28.111-9.849 9.37-1.836 164.464-6.85 164.464-6.85" clip-path="url(#a)"/><path fill="#666" d="m170.911 201.874 4.243 2.743 4.242-2.743-2.742 4.243 2.742 4.242-4.242-2.742-4.243 2.742 2.743-4.242Zm31.741-4.584 4.243 2.743 4.242-2.743-2.742 4.243 2.742 4.243-4.242-2.743-4.243 2.743 2.743-4.243Z" clip-path="url(#a)"/><path fill="#666" d="m202.804 199.054 4.242 2.743 4.243-2.743-2.743 4.243 2.743 4.242-4.243-2.742-4.242 2.742 2.742-4.242Z" clip-path="url(#a)"/><path fill="#c061cb" d="m83.113 277.077 4.242 2.743 4.243-2.743-2.743 4.243 2.743 4.242-4.243-2.742-4.242 2.742 2.742-4.242Zm36.407-22.865 4.242 2.743 4.243-2.743-2.743 4.243 2.743 4.243-4.243-2.743-4.242 2.743 2.742-4.243Zm166.049-84.422 4.242 2.743 4.243-2.743-2.743 4.243 2.743 4.242-4.243-2.742-4.242 2.742 2.742-4.242Zm102.42-15.222 4.242 2.742 4.243-2.742-2.743 4.242 2.743 4.243-4.243-2.743-4.242 2.743 2.742-4.243Zm97.168-6.538 4.243 2.742 4.242-2.742-2.742 4.242 2.742 4.243-4.242-2.743-4.243 2.743 2.743-4.243Z" clip-path="url(#a)"/><path fill="#4a86e8" d="m140.23 240.256 4.244 2.743 4.242-2.743-2.743 4.243 2.743 4.243-4.243-2.743-4.242 2.743 2.743-4.243Zm37.82-12.145 4.242 2.743 4.243-2.743-2.743 4.243 2.743 4.243-4.243-2.743-4.243 2.743 2.743-4.243Zm39.39-25.581 4.242 2.743 4.243-2.743-2.743 4.243 2.743 4.242-4.243-2.742-4.243 2.742 2.743-4.242Zm144.272-13.111 4.243 2.742 4.242-2.742-2.742 4.242 2.742 4.243-4.242-2.743-4.243 2.743 2.743-4.243Z" clip-path="url(#a)"/><path fill="#4a86e8" d="m365.361 190.619 4.243 2.743 4.243-2.743-2.743 4.243 2.743 4.242-4.243-2.743-4.243 2.743 2.743-4.243Zm28.111-9.849 4.243 2.742 4.243-2.742-2.743 4.242 2.743 4.243-4.243-2.743-4.243 2.743 2.743-4.243Zm164.464-6.85 4.243 2.742 4.243-2.742-2.743 4.242 2.743 4.243-4.243-2.743-4.243 2.743 2.743-4.243Z" clip-path="url(#a)"/><path stroke="#fff" stroke-linecap="round" stroke-linejoin="round" stroke-width="3" d="M169.904 183.039v.906q.437-.547.937-.813.5-.265 1.188-.265.734 0 1.343.343.625.329.954.938.343.61.343 1.281 0 1.063-.765 1.813-.75.75-1.86.75-1.328 0-2.14-1.078v2.968h1.187q.188 0 .25.063.078.078.078.187 0 .11-.078.172-.062.078-.25.078h-2.344q-.171 0-.25-.078-.078-.062-.078-.172 0-.11.078-.187.079-.063.25-.063h.657v-6.343h-.657q-.171 0-.25-.063-.078-.078-.078-.187 0-.11.078-.172.079-.078.25-.078h1.157Zm4.265 2.39q0-.86-.625-1.453-.61-.61-1.5-.61-.906 0-1.531.61-.61.61-.61 1.453 0 .844.61 1.453.625.61 1.531.61.875 0 1.5-.594.625-.61.625-1.469Zm6.844-1.594v1.22q0 1.577-.75 2.515-.594.719-1.5.719-.437 0-.828-.172-.375-.172-.64-.485-.173-.187-.376-.61-.203-.437-.281-.796-.14-.5-.14-1.172v-1.219q0-1.593.75-2.515.593-.735 1.5-.735.437 0 .812.172.39.172.656.485.172.203.375.64.203.422.297.766.125.5.125 1.187Zm-.484.063q0-.703-.203-1.297-.204-.61-.438-.953-.156-.219-.39-.36-.329-.203-.75-.203-.829 0-1.297.844-.47.844-.47 1.969v1.078q0 .703.204 1.313.203.593.453.953.14.203.375.343.328.22.75.22.828 0 1.297-.845.469-.859.469-1.984v-1.078Z"/><path fill="#666" d="M169.904 183.039v.906q.437-.547.937-.813.5-.265 1.188-.265.734 0 1.343.343.625.329.954.938.343.61.343 1.281 0 1.063-.765 1.813-.75.75-1.86.75-1.328 0-2.14-1.078v2.968h1.187q.188 0 .25.063.078.078.078.187 0 .11-.078.172-.062.078-.25.078h-2.344q-.171 0-.25-.078-.078-.062-.078-.172 0-.11.078-.187.079-.063.25-.063h.657v-6.343h-.657q-.171 0-.25-.063-.078-.078-.078-.187 0-.11.078-.172.079-.078.25-.078h1.157Zm4.265 2.39q0-.86-.625-1.453-.61-.61-1.5-.61-.906 0-1.531.61-.61.61-.61 1.453 0 .844.61 1.453.625.61 1.531.61.875 0 1.5-.594.625-.61.625-1.469Zm6.844-1.594v1.22q0 1.577-.75 2.515-.594.719-1.5.719-.437 0-.828-.172-.375-.172-.64-.485-.173-.187-.376-.61-.203-.437-.281-.796-.14-.5-.14-1.172v-1.219q0-1.593.75-2.515.593-.735 1.5-.735.437 0 .812.172.39.172.656.485.172.203.375.64.203.422.297.766.125.5.125 1.187Zm-.484.063q0-.703-.203-1.297-.204-.61-.438-.953-.156-.219-.39-.36-.329-.203-.75-.203-.829 0-1.297.844-.47.844-.47 1.969v1.078q0 .703.204 1.313.203.593.453.953.14.203.375.343.328.22.75.22.828 0 1.297-.845.469-.859.469-1.984v-1.078Z"/><path stroke="#fff" stroke-linecap="round" stroke-linejoin="round" stroke-width="3" d="M201.645 178.455v.906q.437-.547.937-.812.5-.266 1.188-.266.734 0 1.343.344.625.328.953.937.344.61.344 1.281 0 1.063-.765 1.813-.75.75-1.86.75-1.328 0-2.14-1.078v2.969h1.187q.188 0 .25.062.078.078.078.188 0 .109-.078.171-.062.079-.25.079h-2.344q-.172 0-.25-.079-.078-.062-.078-.171 0-.11.078-.188.078-.062.25-.062h.657v-6.344h-.657q-.172 0-.25-.063-.078-.078-.078-.187 0-.11.078-.172.078-.078.25-.078h1.157Zm4.265 2.39q0-.859-.625-1.453-.61-.61-1.5-.61-.906 0-1.531.61-.61.61-.61 1.453 0 .844.61 1.454.625.609 1.531.609.875 0 1.5-.594.625-.61.625-1.469Zm2.469 2.188h3.781v-.188q0-.171.063-.25.078-.078.187-.078.11 0 .172.078.078.079.078.25v.688h-4.765v-.734q1.5-1.344 2.921-2.735.657-.656.907-.953.25-.312.328-.531.094-.235.094-.469 0-.64-.516-1.125-.5-.484-1.219-.484-.64 0-1.14.375-.5.36-.641.906-.047.14-.094.187-.062.047-.156.047-.11 0-.172-.062-.062-.063-.062-.156 0-.282.296-.766.313-.484.844-.75.547-.281 1.125-.281.922 0 1.578.64.657.64.657 1.453 0 .329-.11.625-.11.282-.375.625-.265.329-.953 1-1.734 1.72-2.828 2.657v.03Z"/><path fill="#666" d="M201.645 178.455v.906q.437-.547.937-.812.5-.266 1.188-.266.734 0 1.343.344.625.328.953.937.344.61.344 1.281 0 1.063-.765 1.813-.75.75-1.86.75-1.328 0-2.14-1.078v2.969h1.187q.188 0 .25.062.078.078.078.188 0 .109-.078.171-.062.079-.25.079h-2.344q-.172 0-.25-.079-.078-.062-.078-.171 0-.11.078-.188.078-.062.25-.062h.657v-6.344h-.657q-.172 0-.25-.063-.078-.078-.078-.187 0-.11.078-.172.078-.078.25-.078h1.157Zm4.265 2.39q0-.859-.625-1.453-.61-.61-1.5-.61-.906 0-1.531.61-.61.61-.61 1.453 0 .844.61 1.454.625.609 1.531.609.875 0 1.5-.594.625-.61.625-1.469Zm2.469 2.188h3.781v-.188q0-.171.063-.25.078-.078.187-.078.11 0 .172.078.078.079.078.25v.688h-4.765v-.734q1.5-1.344 2.921-2.735.657-.656.907-.953.25-.312.328-.531.094-.235.094-.469 0-.64-.516-1.125-.5-.484-1.219-.484-.64 0-1.14.375-.5.36-.641.906-.047.14-.094.187-.062.047-.156.047-.11 0-.172-.062-.062-.063-.062-.156 0-.282.296-.766.313-.484.844-.75.547-.281 1.125-.281.922 0 1.578.64.657.64.657 1.453 0 .329-.11.625-.11.282-.375.625-.265.329-.953 1-1.734 1.72-2.828 2.657v.03Z"/><path stroke="#fff" stroke-linecap="round" stroke-linejoin="round" stroke-width="3" d="M201.796 180.219v.906q.438-.547.938-.813.5-.265 1.187-.265.735 0 1.344.343.625.329.953.938.344.61.344 1.281 0 1.063-.766 1.813-.75.75-1.86.75-1.327 0-2.14-1.078v2.968h1.188q.187 0 .25.063.078.078.078.187 0 .11-.078.172-.063.078-.25.078h-2.344q-.172 0-.25-.078-.078-.062-.078-.172 0-.109.078-.187.078-.063.25-.063h.656v-6.343h-.656q-.172 0-.25-.063-.078-.078-.078-.187 0-.11.078-.172.078-.078.25-.078h1.156Zm4.266 2.39q0-.86-.625-1.453-.61-.61-1.5-.61-.906 0-1.531.61-.61.61-.61 1.453 0 .844.61 1.453.625.61 1.53.61.876 0 1.5-.594.626-.61.626-1.469Zm4.828-4.765v6.953h1.687q.172 0 .25.078.079.062.079.172 0 .11-.079.187-.078.063-.25.063h-3.859q-.187 0-.266-.063-.062-.078-.062-.187 0-.11.062-.172.079-.078.266-.078h1.688v-6.282l-1.61.516q-.125.031-.172.031-.093 0-.172-.062-.062-.078-.062-.188 0-.078.062-.156.047-.047.188-.11l2.25-.702Z"/><path fill="#666" d="M201.796 180.219v.906q.438-.547.938-.813.5-.265 1.187-.265.735 0 1.344.343.625.329.953.938.344.61.344 1.281 0 1.063-.766 1.813-.75.75-1.86.75-1.327 0-2.14-1.078v2.968h1.188q.187 0 .25.063.078.078.078.187 0 .11-.078.172-.063.078-.25.078h-2.344q-.172 0-.25-.078-.078-.062-.078-.172 0-.109.078-.187.078-.063.25-.063h.656v-6.343h-.656q-.172 0-.25-.063-.078-.078-.078-.187 0-.11.078-.172.078-.078.25-.078h1.156Zm4.266 2.39q0-.86-.625-1.453-.61-.61-1.5-.61-.906 0-1.531.61-.61.61-.61 1.453 0 .844.61 1.453.625.61 1.53.61.876 0 1.5-.594.626-.61.626-1.469Zm4.828-4.765v6.953h1.687q.172 0 .25.078.079.062.079.172 0 .11-.079.187-.078.063-.25.063h-3.859q-.187 0-.266-.063-.062-.078-.062-.187 0-.11.062-.172.079-.078.266-.078h1.688v-6.282l-1.61.516q-.125.031-.172.031-.093 0-.172-.062-.062-.078-.062-.188 0-.078.062-.156.047-.047.188-.11l2.25-.702Z"/><path stroke="#fff" stroke-linecap="round" stroke-linejoin="round" stroke-width="3" d="M85.59 258.57q0-.172.062-.25.078-.078.172-.078.11 0 .172.078.078.078.078.265v.844q0 .172-.078.25-.062.078-.172.078-.094 0-.172-.062-.062-.078-.062-.22-.047-.358-.375-.577-.469-.328-1.266-.328-.828 0-1.281.328-.344.25-.344.562 0 .36.406.594.282.156 1.063.25 1.031.11 1.422.25.578.203.844.578.28.36.28.781 0 .625-.609 1.11-.593.484-1.765.484-1.156 0-1.906-.594 0 .204-.032.266-.015.063-.078.11-.062.03-.14.03-.094 0-.172-.077-.063-.079-.063-.25v-1.016q0-.172.063-.25.062-.078.172-.078.109 0 .187.078.078.062.078.187 0 .282.125.454.203.28.656.468.454.188 1.094.188.969 0 1.438-.36.468-.359.468-.75 0-.468-.484-.734-.469-.281-1.39-.375-.922-.094-1.329-.234-.39-.157-.61-.453-.218-.313-.218-.672 0-.625.61-1 .625-.375 1.484-.375 1.031 0 1.672.5Zm6.281 2.687h-3.266v-.562l2.735-4.735h1.031v4.813h.406q.188 0 .266.062.078.063.078.188 0 .094-.078.172-.078.062-.266.062h-.406v1.563h.406q.188 0 .266.078.078.062.078.172 0 .11-.078.187-.078.063-.266.063H90.95q-.172 0-.25-.063-.078-.078-.078-.187 0-.11.078-.172.078-.078.25-.078h.922v-1.563Zm0-.484v-4.313h-.25l-2.5 4.313h2.75Z"/><path fill="#c061cb" d="M85.59 258.57q0-.172.062-.25.078-.078.172-.078.11 0 .172.078.078.078.078.265v.844q0 .172-.078.25-.062.078-.172.078-.094 0-.172-.062-.062-.078-.062-.22-.047-.358-.375-.577-.469-.328-1.266-.328-.828 0-1.281.328-.344.25-.344.562 0 .36.406.594.282.156 1.063.25 1.031.11 1.422.25.578.203.844.578.28.36.28.781 0 .625-.609 1.11-.593.484-1.765.484-1.156 0-1.906-.594 0 .204-.032.266-.015.063-.078.11-.062.03-.14.03-.094 0-.172-.077-.063-.079-.063-.25v-1.016q0-.172.063-.25.062-.078.172-.078.109 0 .187.078.078.062.078.187 0 .282.125.454.203.28.656.468.454.188 1.094.188.969 0 1.438-.36.468-.359.468-.75 0-.468-.484-.734-.469-.281-1.39-.375-.922-.094-1.329-.234-.39-.157-.61-.453-.218-.313-.218-.672 0-.625.61-1 .625-.375 1.484-.375 1.031 0 1.672.5Zm6.281 2.687h-3.266v-.562l2.735-4.735h1.031v4.813h.406q.188 0 .266.062.078.063.078.188 0 .094-.078.172-.078.062-.266.062h-.406v1.563h.406q.188 0 .266.078.078.062.078.172 0 .11-.078.187-.078.063-.266.063H90.95q-.172 0-.25-.063-.078-.078-.078-.187 0-.11.078-.172.078-.078.25-.078h.922v-1.563Zm0-.484v-4.313h-.25l-2.5 4.313h2.75Z"/><path stroke="#fff" stroke-linecap="round" stroke-linejoin="round" stroke-width="3" d="M121.997 235.705q0-.172.062-.25.078-.078.172-.078.11 0 .172.078.078.078.078.266v.843q0 .172-.078.25-.063.079-.172.079-.094 0-.172-.063-.062-.078-.062-.219-.047-.359-.375-.578-.469-.328-1.266-.328-.828 0-1.281.328-.344.25-.344.563 0 .36.406.593.282.157 1.063.25 1.031.11 1.422.25.578.204.843.579.282.359.282.78 0 .626-.61 1.11-.593.485-1.765.485-1.157 0-1.907-.594 0 .203-.03.265-.016.063-.079.11-.062.031-.14.031-.094 0-.172-.078-.063-.078-.063-.25v-1.016q0-.172.063-.25.062-.078.171-.078.11 0 .188.078.078.063.078.188 0 .281.125.453.203.281.656.469.453.187 1.094.187.969 0 1.438-.36.468-.359.468-.75 0-.468-.484-.734-.469-.28-1.39-.375-.923-.093-1.329-.234-.39-.156-.61-.453-.218-.313-.218-.672 0-.625.61-1 .624-.375 1.484-.375 1.031 0 1.672.5Zm6.375.75q.687.297 1.031.828.36.531.36 1.11 0 .89-.72 1.562-.703.672-1.78.672-.641 0-1.329-.266-.672-.265-.937-.547-.094-.093-.094-.203 0-.093.062-.156.079-.078.172-.078.094 0 .203.094.907.672 1.922.672.86 0 1.438-.532.578-.547.578-1.203 0-.437-.281-.86-.282-.421-.828-.655-.532-.25-1.079-.25-.171 0-.25-.063-.078-.078-.078-.187 0-.11.078-.172.079-.078.22-.078l.421.015q.672 0 1.094-.406.437-.406.437-.938 0-.546-.453-.968-.453-.422-1.187-.422-.5 0-.938.172-.422.172-.672.484-.093.11-.156.14-.047.016-.11.016-.093 0-.171-.062-.063-.063-.063-.156 0-.235.5-.594.72-.5 1.61-.5.937 0 1.531.562.61.563.61 1.328 0 .5-.298.938-.28.437-.843.703Z"/><path fill="#c061cb" d="M121.997 235.705q0-.172.062-.25.078-.078.172-.078.11 0 .172.078.078.078.078.266v.843q0 .172-.078.25-.063.079-.172.079-.094 0-.172-.063-.062-.078-.062-.219-.047-.359-.375-.578-.469-.328-1.266-.328-.828 0-1.281.328-.344.25-.344.563 0 .36.406.593.282.157 1.063.25 1.031.11 1.422.25.578.204.843.579.282.359.282.78 0 .626-.61 1.11-.593.485-1.765.485-1.157 0-1.907-.594 0 .203-.03.265-.016.063-.079.11-.062.031-.14.031-.094 0-.172-.078-.063-.078-.063-.25v-1.016q0-.172.063-.25.062-.078.171-.078.11 0 .188.078.078.063.078.188 0 .281.125.453.203.281.656.469.453.187 1.094.187.969 0 1.438-.36.468-.359.468-.75 0-.468-.484-.734-.469-.28-1.39-.375-.923-.093-1.329-.234-.39-.156-.61-.453-.218-.313-.218-.672 0-.625.61-1 .624-.375 1.484-.375 1.031 0 1.672.5Zm6.375.75q.687.297 1.031.828.36.531.36 1.11 0 .89-.72 1.562-.703.672-1.78.672-.641 0-1.329-.266-.672-.265-.937-.547-.094-.093-.094-.203 0-.093.062-.156.079-.078.172-.078.094 0 .203.094.907.672 1.922.672.86 0 1.438-.532.578-.547.578-1.203 0-.437-.281-.86-.282-.421-.828-.655-.532-.25-1.079-.25-.171 0-.25-.063-.078-.078-.078-.187 0-.11.078-.172.079-.078.22-.078l.421.015q.672 0 1.094-.406.437-.406.437-.938 0-.546-.453-.968-.453-.422-1.187-.422-.5 0-.938.172-.422.172-.672.484-.093.11-.156.14-.047.016-.11.016-.093 0-.171-.062-.063-.063-.063-.156 0-.235.5-.594.72-.5 1.61-.5.937 0 1.531.562.61.563.61 1.328 0 .5-.298.938-.28.437-.843.703Z"/><path stroke="#fff" stroke-linecap="round" stroke-linejoin="round" stroke-width="3" d="M288.046 151.283q0-.172.062-.25.078-.079.172-.079.11 0 .172.079.078.078.078.265v.844q0 .172-.078.25-.062.078-.172.078-.094 0-.172-.062-.062-.079-.062-.22-.047-.359-.375-.577-.469-.328-1.266-.328-.828 0-1.281.328-.344.25-.344.562 0 .36.406.594.282.156 1.063.25 1.031.11 1.422.25.578.203.844.578.28.36.28.781 0 .625-.609 1.11-.593.484-1.765.484-1.156 0-1.906-.594 0 .203-.032.266-.015.062-.078.11-.062.03-.14.03-.094 0-.172-.078-.063-.078-.063-.25v-1.015q0-.172.063-.25.062-.078.172-.078.109 0 .187.078.078.062.078.187 0 .282.125.453.203.282.656.47.454.187 1.094.187.969 0 1.438-.36.468-.359.468-.75 0-.468-.484-.734-.469-.281-1.39-.375-.922-.094-1.329-.234-.39-.157-.61-.454-.218-.312-.218-.671 0-.625.61-1 .625-.375 1.484-.375 1.031 0 1.672.5Zm3.25 4.25h3.781v-.188q0-.172.063-.25.078-.078.187-.078.11 0 .172.078.078.078.078.25v.688h-4.766v-.735q1.5-1.344 2.922-2.734.657-.656.907-.953.25-.313.328-.532.093-.234.093-.468 0-.64-.515-1.125-.5-.485-1.219-.485-.64 0-1.14.375-.5.36-.641.907-.047.14-.094.187-.062.047-.156.047-.11 0-.172-.063-.063-.062-.063-.156 0-.281.297-.765.313-.485.844-.75.547-.282 1.125-.282.922 0 1.578.641.656.64.656 1.453 0 .328-.109.625-.11.281-.375.625-.266.328-.953 1-1.734 1.719-2.828 2.656v.032Z"/><path fill="#c061cb" d="M288.046 151.283q0-.172.062-.25.078-.079.172-.079.11 0 .172.079.078.078.078.265v.844q0 .172-.078.25-.062.078-.172.078-.094 0-.172-.062-.062-.079-.062-.22-.047-.359-.375-.577-.469-.328-1.266-.328-.828 0-1.281.328-.344.25-.344.562 0 .36.406.594.282.156 1.063.25 1.031.11 1.422.25.578.203.844.578.28.36.28.781 0 .625-.609 1.11-.593.484-1.765.484-1.156 0-1.906-.594 0 .203-.032.266-.015.062-.078.11-.062.03-.14.03-.094 0-.172-.078-.063-.078-.063-.25v-1.015q0-.172.063-.25.062-.078.172-.078.109 0 .187.078.078.062.078.187 0 .282.125.453.203.282.656.47.454.187 1.094.187.969 0 1.438-.36.468-.359.468-.75 0-.468-.484-.734-.469-.281-1.39-.375-.922-.094-1.329-.234-.39-.157-.61-.454-.218-.312-.218-.671 0-.625.61-1 .625-.375 1.484-.375 1.031 0 1.672.5Zm3.25 4.25h3.781v-.188q0-.172.063-.25.078-.078.187-.078.11 0 .172.078.078.078.078.25v.688h-4.766v-.735q1.5-1.344 2.922-2.734.657-.656.907-.953.25-.313.328-.532.093-.234.093-.468 0-.64-.515-1.125-.5-.485-1.219-.485-.64 0-1.14.375-.5.36-.641.907-.047.14-.094.187-.062.047-.156.047-.11 0-.172-.063-.063-.062-.063-.156 0-.281.297-.765.313-.485.844-.75.547-.282 1.125-.282.922 0 1.578.641.656.64.656 1.453 0 .328-.109.625-.11.281-.375.625-.266.328-.953 1-1.734 1.719-2.828 2.656v.032Z"/><path stroke="#fff" stroke-linecap="round" stroke-linejoin="round" stroke-width="3" d="M390.466 136.06q0-.171.062-.25.078-.078.172-.078.11 0 .172.078.078.079.078.266v.844q0 .172-.078.25-.062.078-.172.078-.094 0-.172-.063-.062-.078-.062-.218-.047-.36-.375-.578-.469-.329-1.266-.329-.828 0-1.281.329-.344.25-.344.562 0 .36.406.594.282.156 1.063.25 1.031.11 1.422.25.578.203.844.578.28.36.28.781 0 .625-.609 1.11-.593.484-1.765.484-1.156 0-1.906-.594 0 .203-.032.266-.015.062-.078.11-.062.03-.14.03-.094 0-.172-.078-.063-.078-.063-.25v-1.015q0-.172.063-.25.062-.078.172-.078.109 0 .187.078.078.062.078.187 0 .281.125.453.203.282.656.47.454.187 1.094.187.969 0 1.438-.36.468-.36.468-.75 0-.469-.484-.734-.469-.281-1.39-.375-.922-.094-1.329-.235-.39-.156-.61-.453-.218-.312-.218-.672 0-.625.61-1 .625-.375 1.484-.375 1.031 0 1.672.5Zm5.61-2.703v6.953h1.687q.172 0 .25.079.078.062.078.171 0 .11-.078.188-.078.062-.25.062h-3.86q-.187 0-.265-.062-.063-.078-.063-.188 0-.109.063-.171.078-.079.265-.079h1.688v-6.28l-1.61.515q-.125.031-.171.031-.094 0-.172-.062-.063-.079-.063-.188 0-.078.063-.156.047-.047.187-.11l2.25-.703Z"/><path fill="#c061cb" d="M390.466 136.06q0-.171.062-.25.078-.078.172-.078.11 0 .172.078.078.079.078.266v.844q0 .172-.078.25-.062.078-.172.078-.094 0-.172-.063-.062-.078-.062-.218-.047-.36-.375-.578-.469-.329-1.266-.329-.828 0-1.281.329-.344.25-.344.562 0 .36.406.594.282.156 1.063.25 1.031.11 1.422.25.578.203.844.578.28.36.28.781 0 .625-.609 1.11-.593.484-1.765.484-1.156 0-1.906-.594 0 .203-.032.266-.015.062-.078.11-.062.03-.14.03-.094 0-.172-.078-.063-.078-.063-.25v-1.015q0-.172.063-.25.062-.078.172-.078.109 0 .187.078.078.062.078.187 0 .281.125.453.203.282.656.47.454.187 1.094.187.969 0 1.438-.36.468-.36.468-.75 0-.469-.484-.734-.469-.281-1.39-.375-.922-.094-1.329-.235-.39-.156-.61-.453-.218-.312-.218-.672 0-.625.61-1 .625-.375 1.484-.375 1.031 0 1.672.5Zm5.61-2.703v6.953h1.687q.172 0 .25.079.078.062.078.171 0 .11-.078.188-.078.062-.25.062h-3.86q-.187 0-.265-.062-.063-.078-.063-.188 0-.109.063-.171.078-.079.265-.079h1.688v-6.28l-1.61.515q-.125.031-.171.031-.094 0-.172-.062-.063-.079-.063-.188 0-.078.063-.156.047-.047.187-.11l2.25-.703Z"/><path stroke="#fff" stroke-linecap="round" stroke-linejoin="round" stroke-width="3" d="M487.634 129.522q0-.171.062-.25.079-.078.172-.078.11 0 .172.078.078.079.078.266v.844q0 .172-.078.25-.062.078-.172.078-.093 0-.172-.063-.062-.078-.062-.218-.047-.36-.375-.578-.469-.329-1.266-.329-.828 0-1.28.329-.345.25-.345.562 0 .36.407.594.28.156 1.062.25 1.031.11 1.422.25.578.203.844.578.28.36.28.781 0 .625-.608 1.11-.594.484-1.766.484-1.156 0-1.906-.594 0 .203-.032.266-.015.062-.078.11-.062.03-.14.03-.094 0-.172-.078-.063-.078-.063-.25v-1.015q0-.172.063-.25.062-.078.172-.078.11 0 .187.078.078.062.078.187 0 .281.125.453.203.282.657.469.453.188 1.093.188.97 0 1.438-.36.469-.36.469-.75 0-.469-.485-.734-.469-.281-1.39-.375-.922-.094-1.329-.235-.39-.156-.609-.453-.219-.312-.219-.672 0-.625.61-1 .625-.375 1.484-.375 1.031 0 1.672.5Zm7.625.47v1.218q0 1.578-.75 2.516-.594.718-1.5.718-.438 0-.828-.172-.375-.171-.64-.484-.173-.187-.376-.61-.203-.437-.281-.796-.14-.5-.14-1.172v-1.219q0-1.594.75-2.515.593-.735 1.5-.735.437 0 .812.172.39.172.656.484.172.204.375.641.203.422.297.766.125.5.125 1.187Zm-.484.062q0-.703-.204-1.297-.203-.61-.437-.953-.156-.22-.39-.36-.329-.203-.75-.203-.829 0-1.298.844-.468.844-.468 1.969v1.078q0 .703.203 1.312.203.594.453.953.14.204.375.344.328.219.75.219.828 0 1.297-.844.469-.86.469-1.984v-1.078Z"/><path fill="#c061cb" d="M487.634 129.522q0-.171.062-.25.079-.078.172-.078.11 0 .172.078.078.079.078.266v.844q0 .172-.078.25-.062.078-.172.078-.093 0-.172-.063-.062-.078-.062-.218-.047-.36-.375-.578-.469-.329-1.266-.329-.828 0-1.28.329-.345.25-.345.562 0 .36.407.594.28.156 1.062.25 1.031.11 1.422.25.578.203.844.578.28.36.28.781 0 .625-.608 1.11-.594.484-1.766.484-1.156 0-1.906-.594 0 .203-.032.266-.015.062-.078.11-.062.03-.14.03-.094 0-.172-.078-.063-.078-.063-.25v-1.015q0-.172.063-.25.062-.078.172-.078.11 0 .187.078.078.062.078.187 0 .281.125.453.203.282.657.469.453.188 1.093.188.97 0 1.438-.36.469-.36.469-.75 0-.469-.485-.734-.469-.281-1.39-.375-.922-.094-1.329-.235-.39-.156-.609-.453-.219-.312-.219-.672 0-.625.61-1 .625-.375 1.484-.375 1.031 0 1.672.5Zm7.625.47v1.218q0 1.578-.75 2.516-.594.718-1.5.718-.438 0-.828-.172-.375-.171-.64-.484-.173-.187-.376-.61-.203-.437-.281-.796-.14-.5-.14-1.172v-1.219q0-1.594.75-2.515.593-.735 1.5-.735.437 0 .812.172.39.172.656.484.172.204.375.641.203.422.297.766.125.5.125 1.187Zm-.484.062q0-.703-.204-1.297-.203-.61-.437-.953-.156-.22-.39-.36-.329-.203-.75-.203-.829 0-1.298.844-.468.844-.468 1.969v1.078q0 .703.203 1.312.203.594.453.953.14.204.375.344.328.219.75.219.828 0 1.297-.844.469-.86.469-1.984v-1.078Z"/><path stroke="#fff" stroke-linecap="round" stroke-linejoin="round" stroke-width="3" d="M138.833 221.42v.5q.625-.671 1.266-.671.375 0 .656.203.297.203.484.61.328-.407.656-.61.344-.203.688-.203.531 0 .844.344.422.453.422.969v3.437h.421q.172 0 .25.078.078.063.078.172 0 .11-.078.188-.078.062-.25.062h-.906v-3.89q0-.376-.234-.61-.235-.25-.531-.25-.266 0-.563.203-.297.203-.688.797v3.25h.422q.172 0 .25.078.078.063.078.172 0 .11-.078.188-.078.062-.25.062h-.922v-3.844q0-.406-.234-.656-.219-.25-.516-.25-.25 0-.515.172-.36.234-.75.828v3.25h.422q.172 0 .25.078.078.063.078.172 0 .11-.078.188-.078.062-.25.062h-1.328q-.172 0-.25-.062-.078-.079-.078-.188 0-.11.078-.172.078-.078.25-.078h.422v-4.078h-.422q-.172 0-.25-.063-.078-.078-.078-.187 0-.11.078-.172.078-.078.25-.078h.906Zm11.5.798v1.219q0 1.578-.75 2.515-.594.719-1.5.719-.438 0-.828-.172-.375-.172-.64-.484-.173-.188-.376-.61-.203-.437-.281-.797-.14-.5-.14-1.171v-1.22q0-1.593.75-2.515.593-.734 1.5-.734.437 0 .812.172.39.172.656.484.172.203.375.64.203.423.297.766.125.5.125 1.188Zm-.484.062q0-.703-.204-1.297-.203-.609-.437-.953-.156-.218-.39-.36-.329-.202-.75-.202-.829 0-1.298.844-.468.843-.468 1.968v1.078q0 .704.203 1.313.203.594.453.953.14.203.375.344.328.219.75.219.828 0 1.297-.844.469-.86.469-1.985v-1.078Z"/><path fill="#4a86e8" d="M138.833 221.42v.5q.625-.671 1.266-.671.375 0 .656.203.297.203.484.61.328-.407.656-.61.344-.203.688-.203.531 0 .844.344.422.453.422.969v3.437h.421q.172 0 .25.078.078.063.078.172 0 .11-.078.188-.078.062-.25.062h-.906v-3.89q0-.376-.234-.61-.235-.25-.531-.25-.266 0-.563.203-.297.203-.688.797v3.25h.422q.172 0 .25.078.078.063.078.172 0 .11-.078.188-.078.062-.25.062h-.922v-3.844q0-.406-.234-.656-.219-.25-.516-.25-.25 0-.515.172-.36.234-.75.828v3.25h.422q.172 0 .25.078.078.063.078.172 0 .11-.078.188-.078.062-.25.062h-1.328q-.172 0-.25-.062-.078-.079-.078-.188 0-.11.078-.172.078-.078.25-.078h.422v-4.078h-.422q-.172 0-.25-.063-.078-.078-.078-.187 0-.11.078-.172.078-.078.25-.078h.906Zm11.5.798v1.219q0 1.578-.75 2.515-.594.719-1.5.719-.438 0-.828-.172-.375-.172-.64-.484-.173-.188-.376-.61-.203-.437-.281-.797-.14-.5-.14-1.171v-1.22q0-1.593.75-2.515.593-.734 1.5-.734.437 0 .812.172.39.172.656.484.172.203.375.64.203.423.297.766.125.5.125 1.188Zm-.484.062q0-.703-.204-1.297-.203-.609-.437-.953-.156-.218-.39-.36-.329-.202-.75-.202-.829 0-1.298.844-.468.843-.468 1.968v1.078q0 .704.203 1.313.203.594.453.953.14.203.375.344.328.219.75.219.828 0 1.297-.844.469-.86.469-1.985v-1.078Z"/><path stroke="#fff" stroke-linecap="round" stroke-linejoin="round" stroke-width="3" d="M176.652 209.276v.5q.625-.672 1.265-.672.375 0 .656.203.297.203.485.61.328-.407.656-.61.344-.203.688-.203.53 0 .843.344.422.453.422.968v3.438h.422q.172 0 .25.078.078.063.078.172 0 .11-.078.187-.078.063-.25.063h-.906v-3.89q0-.376-.235-.61-.234-.25-.53-.25-.266 0-.563.203-.297.203-.688.797v3.25h.422q.172 0 .25.078.078.063.078.172 0 .11-.078.187-.078.063-.25.063h-.922v-3.844q0-.406-.234-.656-.219-.25-.516-.25-.25 0-.515.172-.36.234-.75.828v3.25h.421q.172 0 .25.078.079.063.079.172 0 .11-.079.187-.078.063-.25.063h-1.328q-.172 0-.25-.063-.078-.078-.078-.187 0-.11.078-.172.078-.078.25-.078h.422v-4.078h-.422q-.172 0-.25-.063-.078-.078-.078-.187 0-.11.078-.172.078-.078.25-.078h.907Zm9.484-2.375v6.953h1.687q.172 0 .25.078.079.063.079.172 0 .11-.079.187-.078.063-.25.063h-3.859q-.187 0-.266-.063-.062-.078-.062-.187 0-.11.062-.172.079-.078.266-.078h1.688v-6.281l-1.61.515q-.125.031-.172.031-.093 0-.172-.062-.062-.078-.062-.188 0-.078.062-.156.047-.047.188-.11l2.25-.702Z"/><path fill="#4a86e8" d="M176.652 209.276v.5q.625-.672 1.265-.672.375 0 .656.203.297.203.485.61.328-.407.656-.61.344-.203.688-.203.53 0 .843.344.422.453.422.968v3.438h.422q.172 0 .25.078.078.063.078.172 0 .11-.078.187-.078.063-.25.063h-.906v-3.89q0-.376-.235-.61-.234-.25-.53-.25-.266 0-.563.203-.297.203-.688.797v3.25h.422q.172 0 .25.078.078.063.078.172 0 .11-.078.187-.078.063-.25.063h-.922v-3.844q0-.406-.234-.656-.219-.25-.516-.25-.25 0-.515.172-.36.234-.75.828v3.25h.421q.172 0 .25.078.079.063.079.172 0 .11-.079.187-.078.063-.25.063h-1.328q-.172 0-.25-.063-.078-.078-.078-.187 0-.11.078-.172.078-.078.25-.078h.422v-4.078h-.422q-.172 0-.25-.063-.078-.078-.078-.187 0-.11.078-.172.078-.078.25-.078h.907Zm9.484-2.375v6.953h1.687q.172 0 .25.078.079.063.079.172 0 .11-.079.187-.078.063-.25.063h-3.859q-.187 0-.266-.063-.062-.078-.062-.187 0-.11.062-.172.079-.078.266-.078h1.688v-6.281l-1.61.515q-.125.031-.172.031-.093 0-.172-.062-.062-.078-.062-.188 0-.078.062-.156.047-.047.188-.11l2.25-.702Z"/><path stroke="#fff" stroke-linecap="round" stroke-linejoin="round" stroke-width="3" d="M216.041 183.695v.5q.625-.672 1.266-.672.375 0 .656.203.297.203.485.61.328-.407.656-.61.344-.203.687-.203.532 0 .844.344.422.453.422.968v3.438h.422q.172 0 .25.078.078.062.078.172 0 .11-.078.187-.078.063-.25.063h-.906v-3.89q0-.376-.235-.61-.234-.25-.531-.25-.266 0-.562.203-.297.203-.688.797v3.25h.422q.172 0 .25.078.078.062.078.172 0 .11-.078.187-.078.063-.25.063h-.922v-3.844q0-.406-.234-.656-.22-.25-.516-.25-.25 0-.516.172-.359.234-.75.828v3.25h.422q.172 0 .25.078.078.062.078.172 0 .11-.078.187-.078.063-.25.063h-1.328q-.172 0-.25-.063-.078-.078-.078-.187 0-.11.078-.172.078-.078.25-.078h.422v-4.078h-.422q-.172 0-.25-.063-.078-.078-.078-.187 0-.11.078-.172.078-.078.25-.078h.906Zm7.125 4.578h3.782v-.188q0-.172.062-.25.078-.078.188-.078.109 0 .172.078.078.078.078.25v.688h-4.766v-.735q1.5-1.343 2.922-2.734.656-.656.906-.953.25-.313.328-.531.094-.235.094-.47 0-.64-.516-1.124-.5-.484-1.218-.484-.641 0-1.141.375-.5.359-.64.906-.047.14-.094.187-.063.047-.157.047-.109 0-.171-.062-.063-.063-.063-.157 0-.28.297-.765.312-.485.844-.75.547-.281 1.125-.281.922 0 1.578.64t.656 1.453q0 .328-.11.625-.109.282-.374.625-.266.328-.953 1-1.735 1.719-2.829 2.657v.03Z"/><path fill="#4a86e8" d="M216.041 183.695v.5q.625-.672 1.266-.672.375 0 .656.203.297.203.485.61.328-.407.656-.61.344-.203.687-.203.532 0 .844.344.422.453.422.968v3.438h.422q.172 0 .25.078.078.062.078.172 0 .11-.078.187-.078.063-.25.063h-.906v-3.89q0-.376-.235-.61-.234-.25-.531-.25-.266 0-.562.203-.297.203-.688.797v3.25h.422q.172 0 .25.078.078.062.078.172 0 .11-.078.187-.078.063-.25.063h-.922v-3.844q0-.406-.234-.656-.22-.25-.516-.25-.25 0-.516.172-.359.234-.75.828v3.25h.422q.172 0 .25.078.078.062.078.172 0 .11-.078.187-.078.063-.25.063h-1.328q-.172 0-.25-.063-.078-.078-.078-.187 0-.11.078-.172.078-.078.25-.078h.422v-4.078h-.422q-.172 0-.25-.063-.078-.078-.078-.187 0-.11.078-.172.078-.078.25-.078h.906Zm7.125 4.578h3.782v-.188q0-.172.062-.25.078-.078.188-.078.109 0 .172.078.078.078.078.25v.688h-4.766v-.735q1.5-1.343 2.922-2.734.656-.656.906-.953.25-.313.328-.531.094-.235.094-.47 0-.64-.516-1.124-.5-.484-1.218-.484-.641 0-1.141.375-.5.359-.64.906-.047.14-.094.187-.063.047-.157.047-.109 0-.171-.062-.063-.063-.063-.157 0-.28.297-.765.312-.485.844-.75.547-.281 1.125-.281.922 0 1.578.64t.656 1.453q0 .328-.11.625-.109.282-.374.625-.266.328-.953 1-1.735 1.719-2.829 2.657v.03Z"/><path stroke="#fff" stroke-linecap="round" stroke-linejoin="round" stroke-width="3" d="M360.314 170.583v.5q.625-.672 1.266-.672.375 0 .656.204.297.203.484.609.328-.406.657-.61.343-.203.687-.203.531 0 .844.344.422.453.422.969v3.437h.422q.171 0 .25.079.078.062.078.171 0 .11-.078.188-.079.062-.25.062h-.907v-3.89q0-.375-.234-.61-.234-.25-.531-.25-.266 0-.563.204-.297.203-.687.796v3.25h.422q.171 0 .25.079.078.062.078.171 0 .11-.078.188-.079.062-.25.062h-.922v-3.843q0-.407-.235-.657-.218-.25-.515-.25-.25 0-.516.172-.36.235-.75.828v3.25h.422q.172 0 .25.079.078.062.078.171 0 .11-.078.188-.078.062-.25.062h-1.328q-.172 0-.25-.062-.078-.078-.078-.188 0-.109.078-.171.078-.079.25-.079h.422v-4.078h-.422q-.172 0-.25-.062-.078-.078-.078-.188t.078-.172q.078-.078.25-.078h.906Zm10.156 3.016h-3.265v-.563l2.734-4.734h1.031v4.813h.407q.187 0 .265.062.078.063.078.188 0 .093-.078.171-.078.063-.265.063h-.407v1.562h.407q.187 0 .265.079.078.062.078.171 0 .11-.078.188-.078.062-.265.062h-1.829q-.171 0-.25-.062-.078-.078-.078-.188 0-.109.078-.171.079-.079.25-.079h.922V173.6Zm0-.484v-4.313h-.25l-2.5 4.313h2.75Z"/><path fill="#4a86e8" d="M360.314 170.583v.5q.625-.672 1.266-.672.375 0 .656.204.297.203.484.609.328-.406.657-.61.343-.203.687-.203.531 0 .844.344.422.453.422.969v3.437h.422q.171 0 .25.079.078.062.078.171 0 .11-.078.188-.079.062-.25.062h-.907v-3.89q0-.375-.234-.61-.234-.25-.531-.25-.266 0-.563.204-.297.203-.687.796v3.25h.422q.171 0 .25.079.078.062.078.171 0 .11-.078.188-.079.062-.25.062h-.922v-3.843q0-.407-.235-.657-.218-.25-.515-.25-.25 0-.516.172-.36.235-.75.828v3.25h.422q.172 0 .25.079.078.062.078.171 0 .11-.078.188-.078.062-.25.062h-1.328q-.172 0-.25-.062-.078-.078-.078-.188 0-.109.078-.171.078-.079.25-.079h.422v-4.078h-.422q-.172 0-.25-.062-.078-.078-.078-.188t.078-.172q.078-.078.25-.078h.906Zm10.156 3.016h-3.265v-.563l2.734-4.734h1.031v4.813h.407q.187 0 .265.062.078.063.078.188 0 .093-.078.171-.078.063-.265.063h-.407v1.562h.407q.187 0 .265.079.078.062.078.171 0 .11-.078.188-.078.062-.265.062h-1.829q-.171 0-.25-.062-.078-.078-.078-.188 0-.109.078-.171.079-.079.25-.079h.922V173.6Zm0-.484v-4.313h-.25l-2.5 4.313h2.75Z"/><path stroke="#fff" stroke-linecap="round" stroke-linejoin="round" stroke-width="3" d="M363.963 171.783v.5q.625-.671 1.266-.671.375 0 .656.203.297.203.485.609.328-.406.656-.61.344-.202.687-.202.532 0 .844.343.422.453.422.969v3.438h.422q.172 0 .25.078.078.062.078.172 0 .109-.078.187-.078.063-.25.063h-.906v-3.891q0-.375-.235-.61-.234-.25-.531-.25-.266 0-.563.204-.296.203-.687.797v3.25h.422q.172 0 .25.078.078.062.078.172 0 .109-.078.187-.078.063-.25.063h-.922v-3.844q0-.406-.234-.656-.22-.25-.516-.25-.25 0-.516.171-.359.235-.75.829v3.25h.422q.172 0 .25.078.078.062.078.172 0 .109-.078.187-.078.063-.25.063h-1.328q-.172 0-.25-.063-.078-.078-.078-.188 0-.109.078-.171.078-.078.25-.078h.422v-4.079h-.422q-.172 0-.25-.062-.078-.078-.078-.188 0-.109.078-.171.078-.079.25-.079h.906Zm10.25 1.079q.688.296 1.032.828.359.53.359 1.109 0 .89-.719 1.563-.703.671-1.781.671-.64 0-1.328-.265-.672-.266-.938-.547-.093-.094-.093-.203 0-.094.062-.156.078-.079.172-.079.094 0 .203.094.906.672 1.922.672.86 0 1.437-.531.579-.547.579-1.203 0-.438-.282-.86-.28-.422-.828-.656-.531-.25-1.078-.25-.172 0-.25-.063-.078-.078-.078-.187 0-.11.078-.172.078-.078.219-.078l.422.016q.672 0 1.093-.407.438-.406.438-.937 0-.547-.453-.969-.453-.422-1.188-.422-.5 0-.937.172-.422.172-.672.484-.094.11-.156.141-.047.016-.11.016-.093 0-.172-.063-.062-.062-.062-.156 0-.234.5-.594.719-.5 1.61-.5.937 0 1.53.563.61.562.61 1.328 0 .5-.297.937-.281.438-.844.704Z"/><path fill="#4a86e8" d="M363.963 171.783v.5q.625-.671 1.266-.671.375 0 .656.203.297.203.485.609.328-.406.656-.61.344-.202.687-.202.532 0 .844.343.422.453.422.969v3.438h.422q.172 0 .25.078.078.062.078.172 0 .109-.078.187-.078.063-.25.063h-.906v-3.891q0-.375-.235-.61-.234-.25-.531-.25-.266 0-.563.204-.296.203-.687.797v3.25h.422q.172 0 .25.078.078.062.078.172 0 .109-.078.187-.078.063-.25.063h-.922v-3.844q0-.406-.234-.656-.22-.25-.516-.25-.25 0-.516.171-.359.235-.75.829v3.25h.422q.172 0 .25.078.078.062.078.172 0 .109-.078.187-.078.063-.25.063h-1.328q-.172 0-.25-.063-.078-.078-.078-.188 0-.109.078-.171.078-.078.25-.078h.422v-4.079h-.422q-.172 0-.25-.062-.078-.078-.078-.188 0-.109.078-.171.078-.079.25-.079h.906Zm10.25 1.079q.688.296 1.032.828.359.53.359 1.109 0 .89-.719 1.563-.703.671-1.781.671-.64 0-1.328-.265-.672-.266-.938-.547-.093-.094-.093-.203 0-.094.062-.156.078-.079.172-.079.094 0 .203.094.906.672 1.922.672.86 0 1.437-.531.579-.547.579-1.203 0-.438-.282-.86-.28-.422-.828-.656-.531-.25-1.078-.25-.172 0-.25-.063-.078-.078-.078-.187 0-.11.078-.172.078-.078.219-.078l.422.016q.672 0 1.093-.407.438-.406.438-.937 0-.547-.453-.969-.453-.422-1.188-.422-.5 0-.937.172-.422.172-.672.484-.094.11-.156.141-.047.016-.11.016-.093 0-.172-.063-.062-.062-.062-.156 0-.234.5-.594.719-.5 1.61-.5.937 0 1.53.563.61.562.61 1.328 0 .5-.297.937-.281.438-.844.704Z"/><path stroke="#fff" stroke-linecap="round" stroke-linejoin="round" stroke-width="3" d="M392.074 161.934v.5q.625-.672 1.266-.672.375 0 .656.204.297.203.485.609.328-.406.656-.61.344-.203.687-.203.532 0 .844.344.422.453.422.969v3.437h.422q.172 0 .25.079.078.062.078.171 0 .11-.078.188-.078.062-.25.062h-.906v-3.89q0-.375-.235-.61-.234-.25-.531-.25-.266 0-.563.204-.296.203-.687.796v3.25h.422q.172 0 .25.079.078.062.078.171 0 .11-.078.188-.078.062-.25.062h-.922v-3.843q0-.407-.234-.657-.22-.25-.516-.25-.25 0-.516.172-.359.235-.75.828v3.25h.422q.172 0 .25.079.078.062.078.171 0 .11-.078.188-.078.062-.25.062h-1.328q-.172 0-.25-.062-.078-.078-.078-.188 0-.109.078-.171.078-.079.25-.079h.422v-4.078h-.422q-.172 0-.25-.062-.078-.078-.078-.188t.078-.172q.078-.078.25-.078h.906Zm7.891-1.781v2.406q.422-.172.812-.265.407-.094.766-.094.938 0 1.547.656.625.64.625 1.703 0 1.172-.703 1.907-.703.718-1.75.718-.703 0-1.344-.312-.453-.219-.828-.531-.219-.204-.219-.329 0-.109.063-.171.078-.079.172-.079.093 0 .203.11.89.828 1.922.828.875 0 1.437-.594.563-.594.563-1.562 0-.844-.5-1.344-.485-.5-1.235-.5-.765 0-1.531.39-.188.094-.266.094-.109 0-.172-.062-.062-.078-.062-.203v-3.266h3.437q.172 0 .25.078.079.063.079.172 0 .11-.079.188-.078.062-.25.062h-2.937Z"/><path fill="#4a86e8" d="M392.074 161.934v.5q.625-.672 1.266-.672.375 0 .656.204.297.203.485.609.328-.406.656-.61.344-.203.687-.203.532 0 .844.344.422.453.422.969v3.437h.422q.172 0 .25.079.078.062.078.171 0 .11-.078.188-.078.062-.25.062h-.906v-3.89q0-.375-.235-.61-.234-.25-.531-.25-.266 0-.563.204-.296.203-.687.796v3.25h.422q.172 0 .25.079.078.062.078.171 0 .11-.078.188-.078.062-.25.062h-.922v-3.843q0-.407-.234-.657-.22-.25-.516-.25-.25 0-.516.172-.359.235-.75.828v3.25h.422q.172 0 .25.079.078.062.078.171 0 .11-.078.188-.078.062-.25.062h-1.328q-.172 0-.25-.062-.078-.078-.078-.188 0-.109.078-.171.078-.079.25-.079h.422v-4.078h-.422q-.172 0-.25-.062-.078-.078-.078-.188t.078-.172q.078-.078.25-.078h.906Zm7.891-1.781v2.406q.422-.172.812-.265.407-.094.766-.094.938 0 1.547.656.625.64.625 1.703 0 1.172-.703 1.907-.703.718-1.75.718-.703 0-1.344-.312-.453-.219-.828-.531-.219-.204-.219-.329 0-.109.063-.171.078-.079.172-.079.093 0 .203.11.89.828 1.922.828.875 0 1.437-.594.563-.594.563-1.562 0-.844-.5-1.344-.485-.5-1.235-.5-.765 0-1.531.39-.188.094-.266.094-.109 0-.172-.062-.062-.078-.062-.203v-3.266h3.437q.172 0 .25.078.079.063.079.172 0 .11-.079.188-.078.062-.25.062h-2.937Z"/><path stroke="#fff" stroke-linecap="round" stroke-linejoin="round" stroke-width="3" d="M556.538 155.084v.5q.625-.672 1.266-.672.375 0 .656.204.297.203.484.609.329-.406.657-.61.343-.203.687-.203.531 0 .844.344.422.453.422.969v3.437h.422q.172 0 .25.079.078.062.078.171 0 .11-.078.188-.078.062-.25.062h-.907v-3.89q0-.375-.234-.61-.234-.25-.531-.25-.266 0-.563.204-.297.203-.687.796v3.25h.422q.172 0 .25.079.078.062.078.171 0 .11-.078.188-.078.062-.25.062h-.922v-3.843q0-.407-.235-.657-.218-.25-.515-.25-.25 0-.516.172-.36.235-.75.828v3.25h.422q.172 0 .25.079.078.062.078.171 0 .11-.078.188-.078.062-.25.062h-1.328q-.172 0-.25-.062-.078-.078-.078-.188 0-.109.078-.171.078-.079.25-.079h.422v-4.078h-.422q-.172 0-.25-.062-.078-.078-.078-.188 0-.109.078-.172.078-.078.25-.078h.906Zm7.781 1.97q.454-.673.938-1 .484-.329 1.078-.329.781 0 1.39.656.61.656.61 1.625 0 .875-.562 1.61-.547.718-1.532.718-.64 0-1.203-.39-.547-.39-.86-1.203-.39-1.016-.39-2.25 0-.922.36-1.72.28-.609.75-1.077.468-.469 1.093-.766.625-.297 1.36-.297.484 0 .812.203.14.078.14.235 0 .11-.062.172-.062.062-.156.062-.078 0-.187-.062-.235-.11-.594-.11-1.14 0-2.094.985-.937.984-.937 2.328 0 .203.046.61Zm.11.812q.219 1.062.687 1.53.485.454 1.141.454t1.11-.516q.468-.515.468-1.328 0-.781-.469-1.281-.468-.5-1.062-.5-.563 0-1.094.484-.344.328-.781 1.157Z"/><path fill="#4a86e8" d="M556.538 155.084v.5q.625-.672 1.266-.672.375 0 .656.204.297.203.484.609.329-.406.657-.61.343-.203.687-.203.531 0 .844.344.422.453.422.969v3.437h.422q.172 0 .25.079.078.062.078.171 0 .11-.078.188-.078.062-.25.062h-.907v-3.89q0-.375-.234-.61-.234-.25-.531-.25-.266 0-.563.204-.297.203-.687.796v3.25h.422q.172 0 .25.079.078.062.078.171 0 .11-.078.188-.078.062-.25.062h-.922v-3.843q0-.407-.235-.657-.218-.25-.515-.25-.25 0-.516.172-.36.235-.75.828v3.25h.422q.172 0 .25.079.078.062.078.171 0 .11-.078.188-.078.062-.25.062h-1.328q-.172 0-.25-.062-.078-.078-.078-.188 0-.109.078-.171.078-.079.25-.079h.422v-4.078h-.422q-.172 0-.25-.062-.078-.078-.078-.188 0-.109.078-.172.078-.078.25-.078h.906Zm7.781 1.97q.454-.673.938-1 .484-.329 1.078-.329.781 0 1.39.656.61.656.61 1.625 0 .875-.562 1.61-.547.718-1.532.718-.64 0-1.203-.39-.547-.39-.86-1.203-.39-1.016-.39-2.25 0-.922.36-1.72.28-.609.75-1.077.468-.469 1.093-.766.625-.297 1.36-.297.484 0 .812.203.14.078.14.235 0 .11-.062.172-.062.062-.156.062-.078 0-.187-.062-.235-.11-.594-.11-1.14 0-2.094.985-.937.984-.937 2.328 0 .203.046.61Zm.11.812q.219 1.062.687 1.53.485.454 1.141.454t1.11-.516q.468-.515.468-1.328 0-.781-.469-1.281-.468-.5-1.062-.5-.563 0-1.094.484-.344.328-.781 1.157Z"/><path fill="#000" d="M271.86 342.09v-.171q0-.172.062-.25.078-.078.187-.078.11 0 .172.078.078.078.078.25v1.25q0 .187-.078.265-.062.063-.172.063-.109 0-.171-.063-.063-.078-.079-.234-.03-.484-.515-.875-.469-.39-1.235-.39-.812 0-1.296.421-.485.406-.485.985 0 .28.125.53.14.235.36.392.234.14.515.234t.875.187q1 .172 1.39.344.5.219.766.625t.266.953q0 .844-.688 1.438-.671.594-1.812.594-1.281 0-2.047-.797v.28q0 .173-.078.25-.063.079-.172.079-.11 0-.187-.078-.063-.078-.063-.25v-1.36q0-.187.063-.25.078-.078.187-.078.11 0 .172.078.078.063.078.22.031.53.578.984.547.437 1.469.437t1.453-.453q.547-.469.547-1.11 0-.39-.203-.687-.203-.297-.61-.484-.28-.11-1.171-.266-1.22-.203-1.766-.625-.531-.422-.531-1.203 0-.781.61-1.328.624-.563 1.64-.563 1.031 0 1.765.657Zm3.39 1.282v.906q.438-.547.938-.812.5-.266 1.187-.266.734 0 1.344.344.625.328.953.937.344.61.344 1.281 0 1.063-.766 1.813-.75.75-1.86.75-1.327 0-2.14-1.078v2.969h1.188q.187 0 .25.062.078.078.078.188 0 .109-.079.171-.062.079-.25.079h-2.343q-.172 0-.25-.079-.078-.062-.078-.171 0-.11.078-.188.078-.062.25-.062h.656v-6.344h-.656q-.172 0-.25-.063-.078-.078-.078-.187 0-.11.078-.172.078-.078.25-.078h1.156Zm4.266 2.39q0-.859-.625-1.453-.61-.609-1.5-.609-.907 0-1.532.61-.609.609-.609 1.452 0 .844.61 1.454.624.609 1.53.609.876 0 1.5-.594.626-.61.626-1.469Zm7.25.266h-5.016q.125.953.797 1.547.672.578 1.656.578.563 0 1.156-.172.61-.187.985-.5.11-.078.203-.078.094 0 .156.078.078.063.078.172 0 .094-.094.188-.28.296-1 .546-.718.25-1.484.25-1.265 0-2.11-.828-.843-.828-.843-2 0-1.078.797-1.843.797-.766 1.969-.766 1.203 0 1.984.797.781.781.766 2.031Zm-.5-.5q-.141-.812-.766-1.312-.625-.516-1.484-.516-.86 0-1.485.5-.625.5-.781 1.328h4.516Zm7.5.5h-5.016q.125.953.797 1.547.672.578 1.656.578.563 0 1.156-.172.61-.187.985-.5.11-.078.203-.078.094 0 .156.078.078.063.078.172 0 .094-.094.188-.28.296-1 .546-.718.25-1.484.25-1.265 0-2.11-.828-.843-.828-.843-2 0-1.078.797-1.843.797-.766 1.969-.766 1.203 0 1.984.797.781.781.766 2.031Zm-.5-.5q-.141-.812-.766-1.312-.625-.516-1.484-.516-.86 0-1.485.5-.625.5-.781 1.328h4.516Zm7.25-4.437v6.859h.656q.172 0 .25.078.078.063.078.172 0 .11-.078.188-.078.062-.25.062h-1.156v-.984q-.86 1.171-2.172 1.171-.672 0-1.281-.343-.61-.36-.97-1.016-.359-.656-.359-1.36 0-.702.36-1.343.36-.656.969-1.016.609-.359 1.28-.359 1.298 0 2.173 1.172v-2.781h-.657q-.187 0-.265-.063-.063-.078-.063-.187 0-.11.063-.172.078-.078.265-.078h1.157Zm-.5 4.828q0-.938-.641-1.578-.625-.641-1.5-.641t-1.516.64q-.625.641-.625 1.579 0 .937.625 1.594.641.64 1.516.64t1.5-.64q.64-.657.64-1.594Zm12.03-.39q0-.673.173-1.423.172-.765.672-1.75.5-.984.734-1.203.063-.062.156-.062.094 0 .172.078.078.062.078.172 0 .046-.047.125-.64 1.187-.921 2.156-.266.953-.266 1.906 0 .969.265 1.938.282.953.922 2.14.047.063.047.125 0 .094-.078.172-.078.078-.172.078-.094 0-.156-.078-.219-.187-.719-1.156-.484-.969-.672-1.703-.187-.75-.187-1.516Zm8.47 2.921v-.703q-1.079.89-2.297.89-.875 0-1.375-.437-.5-.453-.5-1.11 0-.702.656-1.234.656-.547 1.922-.547.328 0 .719.047.406.047.875.14v-.796q0-.406-.375-.703-.375-.297-1.125-.297-.579 0-1.61.328-.187.063-.234.063-.094 0-.172-.063-.063-.078-.063-.187 0-.094.063-.157.078-.093.656-.234.922-.25 1.39-.25.923 0 1.438.469.532.453.532 1.031v3.25h.656q.187 0 .25.078.078.063.078.172 0 .11-.078.188-.063.062-.25.062h-1.156Zm0-2.453q-.344-.094-.735-.14-.39-.048-.812-.048-1.078 0-1.672.453-.453.36-.453.829 0 .453.344.765.343.297 1.015.297.64 0 1.188-.25.546-.266 1.125-.812v-1.094Zm6.015 2.453h-.828l-2.031-4.578h-.5q-.172 0-.25-.063-.078-.078-.078-.187 0-.11.078-.172.078-.078.25-.078h1.844q.187 0 .25.078.078.063.078.172 0 .11-.078.187-.063.063-.25.063h-.813l1.813 4.078h.218l1.766-4.078h-.828q-.172 0-.25-.063-.078-.078-.078-.187 0-.11.078-.172.078-.078.25-.078h1.86q.171 0 .25.078.077.063.077.172 0 .11-.078.187-.078.063-.25.063h-.5l-2 4.578Zm8.219-4.172v-.906h1.156q.188 0 .25.078.078.063.078.172 0 .11-.078.187-.062.063-.25.063h-.656v4.922q0 .484-.219.875-.14.265-.469.531-.328.281-.593.39-.266.126-.719.126h-1.39q-.173 0-.25-.079-.079-.062-.079-.171 0-.11.078-.188.079-.062.25-.062h1.407q.437 0 .78-.22.36-.218.579-.655.125-.235.125-.625v-1.47q-.781 1.079-2.031 1.079-1.016 0-1.75-.75-.735-.75-.735-1.813 0-1.062.735-1.812.734-.75 1.75-.75 1.25 0 2.031 1.078Zm0 1.484q0-.875-.594-1.468-.594-.594-1.422-.594-.812 0-1.406.61-.594.593-.594 1.452 0 .86.594 1.47.594.593 1.406.593.829 0 1.422-.594.594-.61.594-1.469Zm10.11-2.39v.5q.624-.672 1.265-.672.375 0 .656.203.297.203.485.61.328-.407.656-.61.344-.203.687-.203.532 0 .844.344.422.453.422.969v3.437h.422q.172 0 .25.078.078.063.078.172 0 .11-.078.188-.078.062-.25.062h-.906v-3.89q0-.376-.235-.61-.234-.25-.531-.25-.266 0-.563.203-.296.203-.687.797v3.25h.422q.172 0 .25.078.078.063.078.172 0 .11-.078.188-.078.062-.25.062h-.922v-3.844q0-.406-.234-.656-.22-.25-.516-.25-.25 0-.516.172-.359.234-.75.828v3.25h.422q.172 0 .25.078.078.063.078.172 0 .11-.078.188-.078.062-.25.062h-1.328q-.172 0-.25-.063-.078-.078-.078-.187 0-.11.078-.172.078-.078.25-.078h.422v-4.078h-.422q-.172 0-.25-.063-.078-.078-.078-.187 0-.11.078-.172.078-.078.25-.078h.906Zm10.874.328q0-.172.063-.25.078-.078.172-.078.11 0 .172.078.078.078.078.266v.843q0 .172-.078.25-.063.078-.172.078-.094 0-.172-.062-.063-.078-.063-.219-.046-.36-.375-.578-.468-.328-1.265-.328-.828 0-1.281.328-.344.25-.344.563 0 .359.406.593.281.157 1.063.25 1.03.11 1.421.25.579.203.844.578.281.36.281.782 0 .625-.609 1.11-.594.483-1.766.483-1.156 0-1.906-.593 0 .203-.031.265-.016.063-.078.11-.063.031-.14.031-.095 0-.173-.078-.062-.078-.062-.25v-1.016q0-.172.062-.25.063-.078.172-.078.11 0 .188.078.078.063.078.188 0 .281.125.453.203.281.656.469.453.187 1.094.187.969 0 1.437-.36.469-.359.469-.75 0-.468-.484-.734-.47-.28-1.391-.375-.922-.093-1.328-.234-.39-.156-.61-.453-.218-.313-.218-.672 0-.625.61-1 .624-.375 1.483-.375 1.032 0 1.672.5Zm7.579-2.969-3.954 8.5q-.109.203-.265.203-.094 0-.172-.078-.078-.062-.078-.156 0-.063.062-.188l3.953-8.484q.063-.14.125-.172.063-.047.141-.047.094 0 .172.078.078.063.078.157 0 .062-.063.187Zm5.03.125v1.266h-.718v-1.266h.719Zm.016 2.516v4.578h1.938q.187 0 .25.078.078.063.078.172 0 .11-.078.188-.063.062-.25.062h-4.36q-.171 0-.25-.063-.078-.078-.078-.187 0-.11.079-.172.078-.078.25-.078h1.937v-4.078h-1.438q-.171 0-.265-.063-.078-.078-.078-.187 0-.11.078-.172.078-.078.265-.078h1.922Zm4.5 0v.5q.625-.672 1.266-.672.375 0 .656.203.297.203.485.61.328-.407.656-.61.344-.203.687-.203.532 0 .844.344.422.453.422.969v3.437h.422q.172 0 .25.078.078.063.078.172 0 .11-.078.188-.078.062-.25.062h-.906v-3.89q0-.376-.235-.61-.234-.25-.531-.25-.266 0-.563.203-.296.203-.687.797v3.25h.422q.172 0 .25.078.078.063.078.172 0 .11-.078.188-.078.062-.25.062h-.922v-3.844q0-.406-.234-.656-.22-.25-.516-.25-.25 0-.516.172-.359.234-.75.828v3.25h.422q.172 0 .25.078.078.063.078.172 0 .11-.078.188-.078.062-.25.062h-1.328q-.172 0-.25-.063-.078-.078-.078-.187 0-.11.078-.172.078-.078.25-.078h.422v-4.078h-.422q-.172 0-.25-.063-.078-.078-.078-.187 0-.11.078-.172.078-.078.25-.078h.906Zm10.891.906v-.906h1.156q.188 0 .25.078.078.063.078.172 0 .11-.078.187-.062.063-.25.063h-.656v4.922q0 .484-.219.875-.14.265-.469.531-.328.281-.593.39-.266.126-.719.126h-1.39q-.173 0-.25-.079-.079-.062-.079-.171 0-.11.078-.188.079-.062.25-.062h1.407q.437 0 .78-.22.36-.218.579-.655.125-.235.125-.625v-1.47q-.781 1.079-2.031 1.079-1.016 0-1.75-.75-.735-.75-.735-1.813 0-1.062.735-1.812.734-.75 1.75-.75 1.25 0 2.031 1.078Zm0 1.484q0-.875-.594-1.468-.594-.594-1.422-.594-.812 0-1.406.61-.594.593-.594 1.452 0 .86.594 1.47.594.593 1.406.593.829 0 1.422-.594.594-.61.594-1.469Zm5.5-.218q0 .672-.188 1.422-.171.75-.671 1.734-.5 1-.72 1.203-.077.078-.155.078-.11 0-.188-.078-.062-.078-.062-.172 0-.062.046-.125.641-1.187.907-2.14.281-.97.281-1.922 0-.969-.281-1.922-.266-.969-.906-2.156-.047-.079-.047-.125 0-.11.062-.172.078-.078.188-.078.078 0 .156.062.219.203.703 1.172.5.969.688 1.719.187.734.187 1.5Zm-361.2-95.927h-5.86v.656q0 .187-.062.266-.078.062-.187.062-.11 0-.172-.062-.078-.079-.078-.266v-3.094q0-.922.53-1.484.532-.578 1.25-.578.907 0 1.454.953.281-.766.734-1.11.454-.359 1.016-.359.484 0 .89.234.407.235.704.72.281.468.281 1.046v3.672q0 .187-.062.266-.079.062-.188.062-.11 0-.172-.062-.078-.079-.078-.266v-.656Zm-3.312-.5v-1.735q0-.562-.204-1.015-.156-.36-.468-.563-.313-.203-.641-.203-.453 0-.844.438-.39.437-.39 1.14v1.938h2.547Zm3.312 0v-2.485q0-.468-.203-.812-.219-.36-.516-.547-.312-.188-.656-.188-.375 0-.719.266-.36.266-.531.734-.187.454-.187 1.266v1.766h2.812Zm0-6.672h-5.86v.422q0 .172-.062.25-.078.078-.187.078-.11 0-.172-.078-.078-.078-.078-.25v-2.657q0-.625.265-1.125.25-.515.578-.78.563-.47 1.188-.704.437-.172 1.062-.172h.672q.766 0 1.469.328.703.328 1.234 1.11.391.578.391 1.343v2.657q0 .172-.062.25-.079.078-.188.078-.11 0-.172-.078-.078-.078-.078-.25v-.422Zm0-.485v-1.796q0-.625-.39-1.157-.407-.547-.97-.812-.577-.281-1.124-.281h-.891q-.453 0-.812.156-.516.203-.985.594-.265.203-.469.625-.218.406-.218.875v1.796h5.859Zm-3.25-10.953h.703v5.016H24.8v-5.016Zm.688-2.89h2.562v-.907q0-.187.078-.25.063-.078.172-.078.11 0 .188.078.062.063.062.25v2.063q0 .172-.062.25-.079.078-.188.078-.11 0-.172-.078-.078-.078-.078-.25v-.656h-5.86v.656q0 .172-.062.25-.078.078-.187.078-.11 0-.172-.078-.078-.078-.078-.25v-2.984q0-.907.593-1.532.579-.64 1.313-.64.516 0 .984.39.469.39.782 1.297.359-.515.828-.89.453-.375 1.859-1.204v-.375q0-.187.078-.25.063-.078.172-.078.11 0 .188.078.062.063.062.25v.657q-1.64.906-2.187 1.406-.563.5-.875 1.156v1.563Zm-.485 0v-1.344q0-.64-.234-1.156-.235-.532-.547-.766-.328-.25-.656-.25-.485 0-.922.5-.453.5-.453 1.203v1.813h2.812ZM28.55 218.1h-.703q.89 1.078.89 2.297 0 .875-.437 1.375-.453.5-1.11.5-.702 0-1.234-.656-.547-.657-.547-1.922 0-.328.047-.719.047-.406.14-.875H24.8q-.406 0-.703.375-.297.375-.297 1.125 0 .578.328 1.61.063.187.063.234 0 .094-.063.172-.078.062-.187.062-.094 0-.157-.062-.093-.078-.234-.657-.25-.921-.25-1.39 0-.922.469-1.438.453-.531 1.031-.531h3.25v-.656q0-.188.078-.25.063-.078.172-.078.11 0 .188.078.062.062.062.25v1.156Zm-2.453 0q-.094.344-.14.734-.048.391-.048.813 0 1.078.454 1.672.359.453.828.453.453 0 .765-.344.297-.344.297-1.015 0-.641-.25-1.188-.265-.547-.812-1.125h-1.094Zm-2.625-4.578v-2.672q0-.172.078-.25.063-.078.172-.078.11 0 .187.078.063.078.063.25v2.672h3.281q.422 0 .719-.344.281-.344.281-1 0-.5-.14-1.078-.157-.578-.344-.906-.078-.11-.078-.188 0-.093.078-.156.062-.078.172-.078.078 0 .156.078.187.188.422.906.219.719.219 1.39 0 .86-.391 1.376-.406.5-1.094.5h-3.281v.906q0 .172-.063.25-.078.078-.187.078-.11 0-.172-.078-.078-.078-.078-.25v-.906h-1.453q-.172 0-.25-.063-.078-.078-.078-.187 0-.11.078-.172.078-.078.25-.078h1.453Zm2.656-10.672v5.016q.953-.125 1.547-.797.578-.672.578-1.656 0-.563-.172-1.157-.187-.61-.5-.984-.078-.11-.078-.203 0-.094.078-.156.063-.079.172-.079.094 0 .188.094.297.281.547 1 .25.719.25 1.485 0 1.265-.829 2.109-.828.844-2 .844-1.078 0-1.843-.797-.766-.797-.766-1.969 0-1.203.797-1.984.781-.782 2.031-.766Zm-.5.5q-.812.14-1.312.766-.516.625-.516 1.484 0 .86.5 1.484.5.625 1.328.782v-4.516Zm0-11.781q-.672 0-1.422-.172-.765-.172-1.75-.672-.984-.5-1.203-.734-.062-.063-.062-.157 0-.093.078-.171.062-.079.172-.079.047 0 .125.047 1.187.64 2.156.922.953.266 1.906.266.969 0 1.938-.266.953-.281 2.14-.922.063-.047.125-.047.094 0 .172.079.078.078.078.171 0 .094-.078.157-.187.218-1.156.718-.969.485-1.703.672-.75.188-1.516.188Zm-3.031-7.797q.625 0 1.078.437.438.438.438 1.063 0 .61-.438 1.062-.453.438-1.078.438-.64 0-1.078-.438-.438-.453-.438-1.062 0-.625.438-1.063.437-.437 1.078-.437Zm0 .344q-.484 0-.828.343-.344.329-.344.813 0 .469.344.812.344.329.828.329t.828-.329q.344-.343.344-.812 0-.484-.344-.813-.344-.343-.828-.343Zm1.703-1.938 1.484 4.547q.016.094.016.125 0 .063-.047.125-.047.047-.125.047-.062 0-.11-.047-.046-.031-.077-.125l-1.485-4.562q-.015-.079-.015-.125 0-.063.062-.11.047-.062.11-.062.062 0 .125.047.03.03.062.14Zm2.875.078q.625 0 1.078.438.438.437.438 1.062 0 .61-.438 1.063-.453.437-1.078.437-.64 0-1.078-.437-.453-.438-.453-1.063t.453-1.062q.437-.438 1.078-.438Zm0 .344q-.5 0-.828.344-.344.344-.344.812 0 .469.344.813.344.328.828.328t.828-.328q.328-.344.328-.813 0-.468-.328-.812-.344-.344-.828-.344Zm-1.531-5.234q.672 0 1.422.187.75.172 1.734.672 1 .5 1.203.719.078.078.078.156 0 .11-.078.188-.078.062-.172.062-.062 0-.125-.047-1.187-.64-2.14-.906-.97-.281-1.922-.281-.969 0-1.922.28-.969.267-2.156.907-.078.047-.125.047-.11 0-.172-.062-.078-.079-.078-.188 0-.078.062-.156.203-.219 1.172-.703.969-.5 1.719-.688.734-.187 1.5-.187ZM56.66 299.7v.703h-5.016v-.703h5.015Zm5.406 1.688H58.8v-.563l2.734-4.734h1.032v4.812h.406q.187 0 .265.063.079.062.079.187 0 .094-.079.172-.078.063-.265.063h-.406v1.562h.406q.187 0 .265.078.079.063.079.172 0 .11-.079.188-.078.062-.265.062h-1.828q-.172 0-.25-.063-.078-.078-.078-.187 0-.11.078-.172.078-.078.25-.078h.922v-1.563Zm0-.485v-4.312h-.25l-2.5 4.312h2.75Zm8.343-1.734v1.219q0 1.578-.75 2.515-.593.719-1.5.719-.437 0-.828-.172-.375-.172-.64-.484-.172-.188-.375-.61-.204-.437-.282-.797-.14-.5-.14-1.172v-1.218q0-1.594.75-2.516.593-.734 1.5-.734.437 0 .812.172.39.171.656.484.172.203.376.64.203.423.296.766.125.5.125 1.188Zm-.484.062q0-.703-.203-1.297-.203-.609-.438-.953-.156-.219-.39-.36-.328-.202-.75-.202-.828 0-1.297.844-.469.843-.469 1.968v1.078q0 .703.203 1.313.203.594.453.953.141.203.375.344.328.219.75.219.828 0 1.297-.844.469-.86.469-1.985v-1.078ZM56.66 252.533v.703h-5.016v-.703h5.015Zm2.374 3.25h3.782v-.187q0-.172.062-.25.078-.078.188-.078.109 0 .171.078.079.078.079.25v.687H58.55v-.734q1.5-1.344 2.922-2.734.656-.657.906-.954.25-.312.328-.53.094-.235.094-.47 0-.64-.516-1.125-.5-.484-1.218-.484-.641 0-1.141.375-.5.36-.64.906-.047.141-.094.188-.063.047-.157.047-.109 0-.172-.063-.062-.062-.062-.156 0-.281.297-.766.312-.484.844-.75.546-.28 1.125-.28.921 0 1.578.64.656.64.656 1.453 0 .328-.11.625-.109.281-.374.625-.266.328-.954 1-1.734 1.719-2.828 2.656v.031Zm11.375-3.78v1.218q0 1.578-.75 2.515-.593.72-1.5.72-.437 0-.828-.173-.375-.172-.64-.484-.172-.188-.375-.61-.204-.437-.282-.796-.14-.5-.14-1.172v-1.219q0-1.594.75-2.516.593-.734 1.5-.734.437 0 .812.172.39.172.656.484.172.203.376.641.203.422.296.766.125.5.125 1.187Zm-.484.062q0-.704-.203-1.297-.203-.61-.438-.953-.156-.22-.39-.36-.328-.203-.75-.203-.828 0-1.297.844t-.469 1.969v1.078q0 .703.203 1.312.203.594.453.953.141.203.375.344.328.219.75.219.828 0 1.297-.844.469-.86.469-1.984v-1.078Zm.485-47.23v1.22q0 1.577-.75 2.515-.594.719-1.5.719-.438 0-.829-.172-.375-.172-.64-.485-.172-.187-.375-.61-.204-.437-.282-.796-.14-.5-.14-1.172v-1.219q0-1.593.75-2.515.593-.735 1.5-.735.437 0 .812.172.39.172.656.485.172.203.376.64.203.422.296.766.125.5.125 1.187Zm-.485.063q0-.703-.203-1.297-.203-.61-.438-.953-.156-.219-.39-.36-.328-.203-.75-.203-.828 0-1.297.844t-.469 1.969v1.078q0 .703.203 1.313.203.593.453.953.141.203.375.343.328.22.75.22.828 0 1.297-.845.469-.859.469-1.984v-1.078ZM59.034 161.45h3.782v-.188q0-.171.062-.25.078-.078.188-.078.109 0 .171.078.079.079.079.25v.688H58.55v-.734q1.5-1.344 2.922-2.735.656-.656.906-.953.25-.312.328-.531.094-.235.094-.469 0-.64-.516-1.125-.5-.484-1.218-.484-.641 0-1.141.375-.5.36-.64.906-.047.14-.094.188-.063.046-.157.046-.109 0-.172-.062-.062-.063-.062-.156 0-.282.297-.766.312-.484.844-.75.546-.281 1.125-.281.921 0 1.578.64.656.641.656 1.453 0 .329-.11.625-.109.282-.374.625-.266.329-.954 1-1.734 1.72-2.828 2.657v.031Zm11.375-3.781v1.218q0 1.579-.75 2.516-.593.719-1.5.719-.437 0-.828-.172-.375-.172-.64-.484-.172-.188-.375-.61-.204-.437-.282-.797-.14-.5-.14-1.172v-1.218q0-1.594.75-2.516.593-.734 1.5-.734.437 0 .812.172.39.171.656.484.172.203.376.64.203.422.296.766.125.5.125 1.188Zm-.484.062q0-.703-.203-1.297-.203-.609-.438-.953-.156-.219-.39-.36-.328-.202-.75-.202-.828 0-1.297.843-.469.844-.469 1.97v1.077q0 .703.203 1.313.203.594.453.953.141.203.375.344.328.218.75.218.828 0 1.297-.843.469-.86.469-1.985v-1.078Zm-7.859-45.011H58.8v-.562l2.734-4.734h1.032v4.812h.406q.187 0 .265.063.079.062.079.187 0 .094-.079.172-.078.063-.265.063h-.406v1.562h.406q.187 0 .265.078.079.063.079.172 0 .11-.079.188-.078.062-.265.062h-1.828q-.172 0-.25-.062-.078-.078-.078-.188 0-.109.078-.172.078-.078.25-.078h.922v-1.562Zm0-.484v-4.312h-.25l-2.5 4.312h2.75Zm8.343-1.734v1.219q0 1.578-.75 2.515-.593.72-1.5.72-.437 0-.828-.173-.375-.172-.64-.484-.172-.188-.375-.61-.204-.437-.282-.796-.14-.5-.14-1.172v-1.219q0-1.594.75-2.516.593-.734 1.5-.734.437 0 .812.172.39.172.656.484.172.203.376.641.203.422.296.766.125.5.125 1.187Zm-.484.063q0-.704-.203-1.297-.203-.61-.438-.953-.156-.22-.39-.36-.328-.203-.75-.203-.828 0-1.297.844t-.469 1.969v1.078q0 .703.203 1.312.203.594.453.953.141.203.375.344.328.219.75.219.828 0 1.297-.844.469-.86.469-1.984v-1.078ZM172.83 315.95h3.78v-.188q0-.171.063-.25.078-.078.187-.078.11 0 .172.078.078.079.078.25v.688h-4.765v-.734q1.5-1.344 2.922-2.735.656-.656.906-.953.25-.312.328-.531.094-.235.094-.469 0-.64-.516-1.125-.5-.484-1.219-.484-.64 0-1.14.375-.5.36-.64.906-.048.14-.095.188-.062.046-.156.046-.11 0-.172-.062-.062-.063-.062-.156 0-.282.297-.766.312-.484.843-.75.547-.281 1.125-.281.922 0 1.579.64.656.641.656 1.453 0 .329-.11.625-.109.282-.375.625-.265.329-.953 1-1.734 1.72-2.828 2.657v.031Zm11.374-3.781v1.219q0 1.578-.75 2.515-.594.719-1.5.719-.437 0-.828-.172-.375-.172-.64-.484-.172-.188-.376-.61-.203-.437-.28-.797-.141-.5-.141-1.172v-1.218q0-1.594.75-2.516.593-.734 1.5-.734.437 0 .812.172.39.171.656.484.172.203.375.64.203.423.297.766.125.5.125 1.188Zm-.484.062q0-.703-.203-1.297-.203-.609-.438-.953-.156-.219-.39-.36-.329-.202-.75-.202-.829 0-1.297.844-.47.843-.47 1.968v1.078q0 .703.204 1.313.203.594.453.953.14.203.375.344.328.219.75.219.828 0 1.297-.844.469-.86.469-1.985v-1.078Zm148.083 2.156h-3.266v-.562l2.735-4.734h1.03v4.812h.407q.188 0 .266.063.078.062.078.187 0 .094-.078.172-.078.063-.266.063h-.406v1.562h.406q.188 0 .266.078.078.063.078.172 0 .11-.078.188-.078.062-.266.062h-1.828q-.172 0-.25-.063-.078-.078-.078-.187 0-.11.078-.172.078-.078.25-.078h.922v-1.563Zm0-.484v-4.312h-.25l-2.5 4.312h2.75Zm8.344-1.734v1.219q0 1.578-.75 2.515-.594.719-1.5.719-.438 0-.829-.172-.375-.172-.64-.484-.172-.188-.375-.61-.203-.437-.281-.797-.141-.5-.141-1.172v-1.218q0-1.594.75-2.516.594-.734 1.5-.734.437 0 .812.172.391.171.657.484.172.203.375.64.203.423.297.766.125.5.125 1.188Zm-.485.062q0-.703-.203-1.297-.203-.609-.437-.953-.157-.219-.391-.36-.328-.202-.75-.202-.828 0-1.297.844-.469.843-.469 1.968v1.078q0 .703.203 1.313.204.594.454.953.14.203.375.344.328.219.75.219.828 0 1.296-.844.47-.86.47-1.985v-1.078Zm80.986 1.109q.453-.671.938-1 .484-.327 1.078-.327.781 0 1.39.656.61.656.61 1.625 0 .875-.563 1.61-.546.718-1.53.718-.642 0-1.204-.39-.547-.391-.86-1.204-.39-1.016-.39-2.25 0-.922.36-1.719.28-.609.75-1.078.468-.469 1.093-.765.625-.297 1.36-.297.484 0 .812.203.14.078.14.234 0 .11-.062.172-.062.063-.156.063-.078 0-.188-.063-.234-.11-.593-.11-1.141 0-2.094.985-.938.984-.938 2.328 0 .203.047.61Zm.11.813q.218 1.063.687 1.531.485.453 1.14.453.657 0 1.11-.515.469-.516.469-1.328 0-.781-.469-1.281-.469-.5-1.062-.5-.563 0-1.094.484-.344.328-.781 1.156Zm10.609-1.984v1.219q0 1.578-.75 2.515-.594.719-1.5.719-.438 0-.828-.172-.375-.172-.64-.484-.173-.188-.376-.61-.203-.437-.281-.797-.14-.5-.14-1.172v-1.218q0-1.594.75-2.516.593-.734 1.5-.734.437 0 .812.172.39.171.656.484.172.203.375.64.203.423.297.766.125.5.125 1.188Zm-.484.062q0-.703-.203-1.297-.204-.609-.438-.953-.156-.219-.39-.36-.329-.202-.75-.202-.829 0-1.297.844-.47.843-.47 1.968v1.078q0 .703.204 1.313.203.594.453.953.14.203.375.344.328.219.75.219.828 0 1.297-.844.469-.86.469-1.985v-1.078Zm56.956.406q.625.297.937.797.313.485.313 1.047 0 .86-.656 1.5-.657.64-1.594.64-.938 0-1.594-.64-.656-.64-.656-1.5 0-.562.312-1.047.313-.5.938-.797-.547-.312-.797-.64-.328-.485-.328-1.063 0-.797.61-1.406.624-.61 1.515-.61.875 0 1.5.61t.625 1.406q0 .578-.344 1.047-.234.344-.781.656Zm.625-1.671q0-.641-.484-1.094-.47-.453-1.157-.453-.672 0-1.156.453-.469.453-.469 1.078 0 .578.47 1.016.468.421 1.155.421.703 0 1.172-.421.469-.438.469-1Zm.125 3.515q0-.64-.5-1.125-.5-.484-1.25-.484t-1.266.484q-.5.485-.5 1.125 0 .672.5 1.172.516.484 1.266.484.734 0 1.234-.484.516-.5.516-1.172Zm7.5-2.312v1.219q0 1.578-.75 2.515-.594.719-1.5.719-.438 0-.828-.172-.375-.172-.64-.484-.173-.188-.376-.61-.203-.437-.281-.797-.14-.5-.14-1.172v-1.218q0-1.594.75-2.516.593-.734 1.5-.734.437 0 .812.172.39.171.656.484.172.203.375.64.203.423.297.766.125.5.125 1.188Zm-.484.062q0-.703-.204-1.297-.203-.609-.437-.953-.156-.219-.39-.36-.329-.202-.75-.202-.829 0-1.298.844-.468.843-.468 1.968v1.078q0 .703.203 1.313.203.594.453.953.14.203.375.344.328.219.75.219.828 0 1.297-.844.469-.86.469-1.985v-1.078Zm38.17-3.234v6.953h1.688q.172 0 .25.078.078.063.078.172 0 .11-.078.188-.078.062-.25.062h-3.86q-.187 0-.265-.063-.063-.078-.063-.187 0-.11.063-.172.078-.078.266-.078h1.687v-6.281l-1.61.515q-.124.032-.171.032-.094 0-.172-.063-.063-.078-.063-.187 0-.079.063-.157.047-.047.188-.109l2.25-.703Zm9.016 3.172v1.219q0 1.578-.75 2.515-.594.719-1.5.719-.437 0-.828-.172-.375-.172-.64-.484-.173-.188-.376-.61-.203-.437-.28-.797-.142-.5-.142-1.172v-1.218q0-1.594.75-2.516.594-.734 1.5-.734.438 0 .813.172.39.171.656.484.172.203.375.64.203.423.297.766.125.5.125 1.188Zm-.484.062q0-.703-.203-1.297-.204-.609-.438-.953-.156-.219-.39-.36-.329-.202-.75-.202-.829 0-1.297.844-.47.843-.47 1.968v1.078q0 .703.204 1.313.203.594.453.953.14.203.375.344.328.219.75.219.828 0 1.297-.844.469-.86.469-1.985v-1.078Zm7.484-.062v1.219q0 1.578-.75 2.515-.594.719-1.5.719-.437 0-.828-.172-.375-.172-.64-.484-.173-.188-.376-.61-.203-.437-.28-.797-.142-.5-.142-1.172v-1.218q0-1.594.75-2.516.594-.734 1.5-.734.438 0 .813.172.39.171.656.484.172.203.375.64.203.423.297.766.125.5.125 1.188Zm-.484.062q0-.703-.203-1.297-.204-.609-.438-.953-.156-.219-.39-.36-.329-.202-.75-.202-.829 0-1.297.844-.47.843-.47 1.968v1.078q0 .703.204 1.313.203.594.453.953.14.203.375.344.328.219.75.219.828 0 1.297-.844.469-.86.469-1.985v-1.078Z"/><path fill="#666" d="m175.257 81.174 4.243 2.743 4.243-2.743L181 85.417l2.743 4.242-4.243-2.742-4.243 2.742L178 85.417Z"/><path fill="#1a1a1a" d="M199.156 83.839v-.157q0-.187.063-.265.078-.078.187-.078.11 0 .172.078.078.078.078.265v1.11q-.015.172-.078.25-.062.078-.172.078-.11 0-.172-.063-.062-.062-.078-.234-.031-.406-.547-.781-.515-.375-1.375-.375-1.109 0-1.672.687-.562.688-.562 1.563 0 .953.625 1.578.625.625 1.625.625.563 0 1.156-.203.61-.22 1.078-.688.125-.125.22-.125.108 0 .171.078.063.063.063.157 0 .25-.594.64-.953.625-2.125.625-1.188 0-1.953-.75-.766-.765-.766-1.922 0-1.203.781-1.984.781-.781 1.969-.781 1.14 0 1.906.672Zm5.656-3.016v1.266h-.734v-1.266h.734Zm.032 3.016h-2.938q-.172 0-.25-.063-.078-.078-.078-.187 0-.11.078-.172.078-.078.25-.078h3.422v5.421q0 .625-.266 1.047-.25.422-.765.688-.36.187-.844.187h-1.562q-.188 0-.266-.078-.063-.062-.063-.172 0-.11.063-.187.078-.063.266-.063h1.547q.625 0 1.015-.406.39-.406.39-1.016v-4.92Zm4.406-.5v.906q.438-.547.938-.813.5-.265 1.187-.265.734 0 1.344.343.625.329.953.938.344.61.344 1.281 0 1.063-.766 1.813-.75.75-1.86.75-1.327 0-2.14-1.078v2.968h1.188q.187 0 .25.063.078.078.078.187 0 .11-.078.172-.063.078-.25.078h-2.344q-.172 0-.25-.078-.078-.062-.078-.172 0-.11.078-.187.078-.063.25-.063h.656V83.84h-.656q-.172 0-.25-.063-.078-.078-.078-.187 0-.11.078-.172.078-.078.25-.078h1.156Zm4.266 2.39q0-.86-.625-1.453-.61-.61-1.5-.61-.907 0-1.532.61-.609.61-.609 1.453 0 .844.61 1.453.624.61 1.53.61.876 0 1.5-.594.626-.61.626-1.469Zm7.25.266h-5.016q.125.953.797 1.547.672.578 1.656.578.563 0 1.156-.172.61-.188.985-.5.11-.078.203-.078.094 0 .156.078.078.062.078.172 0 .094-.094.187-.28.297-1 .547-.718.25-1.484.25-1.266 0-2.11-.828-.843-.828-.843-2 0-1.078.797-1.844.797-.765 1.969-.765 1.203 0 1.984.797.781.78.766 2.03Zm-.5-.5q-.141-.813-.766-1.313-.625-.515-1.484-.515-.86 0-1.485.5-.625.5-.781 1.328h4.516Zm6.484-1.25v-.906h1.156q.188 0 .25.078.078.062.078.172 0 .109-.078.187-.062.063-.25.063h-.656v4.921q0 .485-.219.875-.14.266-.469.532-.328.28-.593.39-.266.125-.719.125h-1.39q-.173 0-.25-.078-.079-.062-.079-.172 0-.11.078-.187.078-.063.25-.063h1.407q.437 0 .78-.218.36-.22.579-.657.125-.234.125-.625v-1.468q-.781 1.078-2.031 1.078-1.016 0-1.75-.75-.735-.75-.735-1.813 0-1.062.735-1.812.734-.75 1.75-.75 1.25 0 2.031 1.078Zm0 1.484q0-.875-.594-1.469-.594-.593-1.422-.593-.812 0-1.406.609-.594.594-.594 1.453 0 .86.594 1.469.594.594 1.406.594.828 0 1.422-.594.594-.61.594-1.469Zm5.594-4.672v6.86h1.937q.188 0 .266.078.078.062.078.172 0 .109-.078.187-.078.063-.266.063h-4.36q-.171 0-.25-.063-.077-.078-.077-.187 0-.11.078-.172.078-.078.25-.078h1.937v-6.36h-1.422q-.171 0-.25-.062-.078-.078-.078-.188t.078-.172q.079-.078.25-.078h1.907Zm7-.234v1.266h-.719v-1.266h.719Zm.015 2.516v4.578h1.938q.187 0 .25.078.078.062.078.172 0 .109-.078.187-.063.063-.25.063h-4.36q-.171 0-.25-.063-.078-.078-.078-.187 0-.11.078-.172.079-.078.25-.078h1.938v-4.078h-1.438q-.171 0-.265-.063-.078-.078-.078-.187 0-.11.078-.172.078-.078.266-.078h1.921Z"/><path fill="#c061cb" d="m260.257 81.174 4.243 2.743 4.243-2.743L266 85.417l2.743 4.242-4.243-2.742-4.243 2.742L263 85.417Z"/><path fill="#1a1a1a" d="M282.703 82.51v4.704h1.219q.422 0 .61.171.187.157.187.438 0 .266-.188.437-.187.157-.61.157h-3.64q-.422 0-.61-.157-.187-.171-.187-.453 0-.265.188-.422.187-.171.61-.171h1.218V82.51h-1.219q-.422 0-.61-.156-.187-.172-.187-.437 0-.282.188-.438.187-.172.61-.172h3.64q.422 0 .61.172.187.156.187.438 0 .265-.188.437-.187.156-.61.156h-1.218Zm6.156.579v.75q.75-.532 1.188-.72.437-.187.812-.187.594 0 1.141.438.375.297.375.594 0 .265-.188.453-.171.172-.421.172-.22 0-.47-.22-.25-.234-.437-.234-.25 0-.75.329-.5.312-1.25.937v1.813h1.704q.437 0 .609.171.187.157.187.438 0 .266-.187.437-.172.157-.61.157h-3.625q-.437 0-.625-.157-.171-.171-.171-.453 0-.265.171-.422.188-.171.625-.171h.72v-2.922h-.438q-.438 0-.625-.157-.172-.171-.172-.437t.172-.438q.187-.171.625-.171h1.64Zm7.672-2.266v1.266h-1.422v-1.266h1.422Zm.172 2.266v4.125h1.438q.437 0 .609.171.188.157.188.438 0 .266-.188.437-.172.157-.61.157h-4.093q-.422 0-.61-.157-.187-.171-.187-.453 0-.265.188-.422.187-.171.609-.171h1.453v-2.922h-.969q-.437 0-.625-.157-.187-.171-.187-.437t.187-.438q.188-.171.625-.171h2.172Zm7.703 1.406q-.297-.172-.625-.266-.312-.094-.672-.094-.703 0-1.109.235-.172.094-.172.219t.235.265q.187.094.843.172 1.188.172 1.656.328.625.219.954.656.343.422.343.891 0 .64-.578 1.078-.812.625-2.11.625-.53 0-.968-.094-.437-.078-.812-.265-.079.078-.188.125-.094.047-.203.047-.281 0-.453-.188-.156-.187-.156-.625v-.406q0-.422.156-.61.172-.187.437-.187.22 0 .36.125.156.11.234.406.281.235.656.36.391.109.907.109.812 0 1.28-.25.22-.125.22-.266 0-.234-.313-.39-.312-.156-1.281-.266-1.453-.14-1.938-.578-.484-.422-.484-1.062 0-.641.547-1.063.734-.594 1.922-.594.422 0 .797.078.39.079.75.25.109-.078.203-.125.094-.046.172-.046.25 0 .406.187.172.188.172.625v.297q0 .39-.094.531-.188.266-.516.266-.203 0-.375-.125-.156-.14-.203-.375Zm8.219 1.062h-5.016v-1.093h5.016v1.093Zm4.484-.547-1.125 3.407h-1.343l-.72-5.907q-.265-.03-.405-.187-.141-.156-.141-.39 0-.282.172-.454.187-.172.625-.172h1.61q.421 0 .609.172.187.156.187.438 0 .265-.187.437-.188.156-.61.156h-.64l.406 3.36.937-2.797h1.25l.938 2.797.406-3.36h-.625q-.437 0-.625-.156-.187-.172-.187-.437 0-.282.187-.438.188-.172.625-.172h1.594q.422 0 .61.172.187.156.187.438 0 .218-.156.39-.141.157-.407.203l-.703 5.907h-1.312l-1.157-3.407Zm10 1.36h-4.921q.187.469.656.75.484.281 1.297.281.671 0 1.78-.281.454-.11.626-.11.25 0 .406.172.172.157.172.422 0 .235-.172.39-.234.22-1.156.423-.906.187-1.735.187-1.453 0-2.312-.812-.86-.813-.86-2 0-1.266.923-2.063.937-.797 2.156-.797.734 0 1.344.266.625.25.921.547.422.437.688 1.078.187.453.187 1.031v.516Zm-1.328-1.203q-.265-.516-.719-.766-.437-.266-1.062-.266-.61 0-1.063.266-.437.25-.718.766h3.562Zm3.813-4.344v2.687q.437-.28.89-.421.454-.157.907-.157 1.25 0 2.109.875.875.86.875 2.078 0 1.157-.828 1.938-.813.781-2.172.781-.484 0-.938-.125-.437-.11-.843-.36v.298h-1.406q-.438 0-.625-.157-.188-.171-.188-.453 0-.265.188-.422.187-.171.625-.171h.203V82.01h-.204q-.437 0-.625-.156-.187-.172-.187-.437 0-.266.188-.422.187-.172.625-.172h1.406Zm3.578 5.094q0-.75-.516-1.266-.515-.516-1.281-.516-.75 0-1.266.516-.515.516-.515 1.25 0 .656.469 1.078.468.422 1.312.422.86 0 1.328-.422.469-.422.469-1.062Zm4.234.062v1.235h1.219q.422 0 .61.171.187.157.187.438 0 .266-.188.437-.187.157-.609.157h-2.61q-.437 0-.624-.157-.172-.171-.172-.453 0-.265.187-.422.188-.171.61-.171h.187V82.51h-.187q-.438 0-.625-.156-.172-.172-.172-.437 0-.282.172-.438.187-.172.625-.172h2.765q1.219 0 1.922.672.719.672.719 1.625 0 .516-.235.985-.187.359-.609.703-.422.343-.875.515-.437.172-1.156.172h-1.14Zm0-1.203h1.11q.796 0 1.25-.344.453-.36.453-.86 0-.421-.375-.733-.36-.329-1.047-.329h-1.39v2.266Z"/><path fill="#4a86e8" d="m359.257 81.174 4.243 2.743 4.243-2.743L365 85.417l2.743 4.242-4.243-2.742-4.243 2.742L362 85.417Z"/><path fill="#1a1a1a" d="M381.344 81.057v6.86h1.937q.188 0 .266.078.078.062.078.172 0 .109-.078.187-.078.063-.266.063h-4.36q-.171 0-.25-.063-.077-.078-.077-.187 0-.11.078-.172.078-.078.25-.078h1.937v-6.36h-1.421q-.172 0-.25-.062-.079-.078-.079-.188t.079-.172q.078-.078.25-.078h1.906Zm7-.234v1.266h-.719v-1.266h.719Zm.015 2.516v4.578h1.938q.187 0 .25.078.078.062.078.172 0 .109-.078.187-.063.063-.25.063h-4.36q-.171 0-.25-.063-.078-.078-.078-.187 0-.11.079-.172.078-.078.25-.078h1.937v-4.078h-1.438q-.171 0-.265-.063-.078-.078-.078-.187 0-.11.078-.172.078-.078.265-.078h1.922Zm4.891-2.282v3.266q.89-1.156 2.14-1.156 1.079 0 1.844.78.782.782.782 1.923 0 1.14-.782 1.937-.78.797-1.843.797-1.282 0-2.141-1.156v.969h-1.156q-.172 0-.25-.063-.078-.078-.078-.187 0-.11.078-.172.078-.078.25-.078h.656v-6.36h-.656q-.172 0-.25-.062-.078-.078-.078-.188t.078-.172q.078-.078.25-.078h1.156Zm4.266 4.828q0-.921-.641-1.562-.64-.656-1.484-.656-.86 0-1.5.656-.641.64-.641 1.562 0 .938.64 1.594.641.64 1.5.64.844 0 1.485-.64.64-.656.64-1.594Zm6.28 2.532h-.608l-1.079-3.157-1.078 3.157h-.61l-1.03-4.578h-.235q-.172 0-.25-.063-.078-.078-.078-.187 0-.11.078-.172.078-.078.25-.078h1.36q.171 0 .25.078.078.062.078.172 0 .109-.078.187-.079.063-.25.063h-.625l.859 3.906 1.063-3.125h.578l1.078 3.125.844-3.906h-.625q-.172 0-.25-.063-.079-.078-.079-.187 0-.11.063-.172.078-.078.265-.078h1.344q.188 0 .266.078.078.062.078.172 0 .109-.078.187-.078.063-.266.063h-.234l-1 4.578Zm7.97-2.422h-5.016q.125.953.797 1.547.672.578 1.656.578.563 0 1.156-.172.61-.188.985-.5.11-.078.203-.078.094 0 .156.078.078.062.078.172 0 .094-.094.187-.28.297-1 .547-.718.25-1.484.25-1.265 0-2.11-.828-.843-.828-.843-2 0-1.078.797-1.844.797-.765 1.969-.765 1.203 0 1.984.797.781.78.766 2.03Zm-.5-.5q-.141-.813-.766-1.313-.625-.515-1.484-.515-.86 0-1.485.5-.625.5-.781 1.328h4.516Zm2.984-4.438v3.266q.89-1.156 2.14-1.156 1.079 0 1.844.78.782.782.782 1.923 0 1.14-.782 1.937-.78.797-1.843.797-1.282 0-2.141-1.156v.969h-1.156q-.172 0-.25-.063-.078-.078-.078-.187 0-.11.078-.172.078-.078.25-.078h.656v-6.36h-.656q-.172 0-.25-.062-.078-.078-.078-.188t.078-.172q.078-.078.25-.078h1.156Zm4.266 4.828q0-.921-.641-1.562-.64-.656-1.484-.656-.86 0-1.5.656-.641.64-.641 1.562 0 .938.64 1.594.641.64 1.5.64.844 0 1.485-.64.64-.656.64-1.594Zm2.734-2.546v.906q.438-.547.938-.813.5-.265 1.187-.265.734 0 1.344.343.625.329.953.938.344.61.344 1.281 0 1.063-.766 1.813-.75.75-1.86.75-1.327 0-2.14-1.078v2.968h1.188q.187 0 .25.063.078.078.078.187 0 .11-.079.172-.062.078-.25.078h-2.343q-.172 0-.25-.078-.078-.062-.078-.172 0-.11.078-.187.078-.063.25-.063h.656V83.84h-.656q-.172 0-.25-.063-.078-.078-.078-.187 0-.11.078-.172.078-.078.25-.078h1.156Zm4.266 2.39q0-.86-.625-1.453-.61-.61-1.5-.61-.907 0-1.532.61-.609.61-.609 1.453 0 .844.61 1.453.624.61 1.53.61.876 0 1.5-.594.626-.61.626-1.469Z"/><path fill="#666" d="M21.284 58.097v1.547h.516q.5 0 .719.203.219.187.219.5 0 .312-.22.515-.218.188-.718.188h-2.125q-.516 0-.734-.188-.203-.203-.203-.515 0-.313.218-.5.219-.203.719-.203h.219v-5.485h-.219q-.516 0-.734-.187-.203-.203-.203-.516 0-.312.203-.5.218-.203.734-.203l2.125.016q.5 0 .719.187.219.188.219.5 0 .313-.22.516-.218.187-.718.187h-.516v2.078l2.5-2.14q-.218-.156-.312-.281-.078-.141-.078-.344 0-.313.219-.516.218-.203.718-.203l1.438.016q.5 0 .719.187.218.188.218.5 0 .313-.218.516-.22.187-.672.187L23.3 56.362q.703.407 1.313 1.235.625.828 1.109 2.047h.375q.5 0 .703.203.219.187.219.5 0 .312-.219.515-.203.188-.703.188h-1.281q-.438-1.047-.953-2-.422-.766-.813-1.11-.375-.359-.89-.578l-.876.735Zm13.11-.031q0 .796-.453 1.562-.438.75-1.329 1.203-.89.438-1.843.438-.969 0-1.844-.438-.875-.437-1.328-1.187-.453-.766-.453-1.594 0-.844.453-1.656.469-.813 1.344-1.266.875-.469 1.828-.469.953 0 1.828.485.89.468 1.344 1.281.453.797.453 1.64Zm-1.407 0q0-.672-.484-1.235-.656-.765-1.734-.765-.953 0-1.594.609-.64.594-.64 1.406 0 .656.64 1.235.656.562 1.594.562.937 0 1.578-.562.64-.579.64-1.25Zm8.985-5.875v7.453h.234q.5 0 .719.203.219.187.219.5 0 .312-.219.515-.219.188-.719.188h-1.64v-.344q-.485.281-1.016.422-.516.14-1.063.14-1.578 0-2.546-.906-.97-.906-.97-2.265 0-1.422 1.017-2.422 1.015-1.016 2.468-1.016.547 0 1.063.172.531.156 1.047.5v-1.75h-.235q-.515 0-.734-.187-.203-.203-.203-.5 0-.328.203-.516.219-.187.734-.187h1.64Zm-1.406 5.937q0-.86-.61-1.453-.61-.61-1.484-.61-.875 0-1.485.61-.609.594-.609 1.438 0 .765.547 1.265.547.5 1.547.5.984 0 1.531-.5.563-.5.563-1.25Zm7.453 2.922v-.328q-.532.281-1.172.422-.625.14-1.156.14-1.125 0-1.829-.593-.703-.61-.703-1.329 0-.89.891-1.64.906-.75 2.5-.75.625 0 1.469.14v-.343q0-.313-.282-.5-.265-.203-1.03-.203-.61 0-1.61.234-.36.094-.578.094-.266 0-.469-.203-.188-.204-.188-.516 0-.172.063-.297.063-.14.188-.219.124-.078.515-.187.516-.14 1.047-.219.547-.094.984-.094 1.313 0 2.032.563.718.562.718 1.547v2.875h.25q.5 0 .72.203.218.187.218.5 0 .312-.219.515-.219.188-.719.188h-1.64Zm0-2.516q-.844-.156-1.563-.156-.844 0-1.469.422-.375.266-.375.531 0 .203.188.328.328.22.922.22.515 0 1.156-.188.64-.204 1.14-.547v-.61Zm5.578.188v2.328h-1.64q-.5 0-.72-.188-.218-.203-.218-.515 0-.313.218-.5.22-.203.72-.203h.234V53.58h-.235q-.5 0-.719-.187-.218-.203-.218-.516 0-.312.218-.5.22-.187.72-.187h1.64v4.718l1.094-.89q-.172-.282-.172-.469 0-.313.203-.5.219-.203.734-.203h1.594q.5 0 .719.203.218.188.218.5 0 .297-.218.5-.219.188-.719.188h-.39l-1.704 1.39 2.297 2.016h.406q.5 0 .72.203.218.187.218.5 0 .312-.219.515-.219.188-.719.188H56.05q-.516 0-.734-.188-.204-.203-.204-.515 0-.266.235-.531l-1.485-1.313-.265.219Zm16.562-4.563v5.485h3.032v-1.328q0-.5.187-.72.203-.218.516-.218.312 0 .5.219.203.219.203.719v2.734h-6.64q-.516 0-.735-.188-.203-.203-.203-.515 0-.313.203-.5.219-.203.734-.203h.813v-5.485h-.813q-.515 0-.734-.187-.203-.203-.203-.516 0-.312.203-.5.219-.203.734-.203l3.031.016q.5 0 .72.187.218.188.218.5 0 .313-.219.516-.219.187-.719.187h-.828Zm12.235 3.907q0 .796-.453 1.562-.438.75-1.329 1.203-.89.438-1.843.438-.969 0-1.844-.438-.875-.437-1.328-1.187-.453-.766-.453-1.594 0-.844.453-1.656.469-.813 1.344-1.266.875-.469 1.828-.469.953 0 1.828.485.89.468 1.344 1.281.453.797.453 1.64Zm-1.407 0q0-.672-.484-1.235-.656-.765-1.734-.765-.953 0-1.594.609-.64.594-.64 1.406 0 .656.64 1.235.656.562 1.594.562.937 0 1.578-.562.64-.579.64-1.25Zm7.282-1.579q-.344-.218-.719-.312-.375-.11-.781-.11-.828 0-1.297.266-.219.11-.219.25 0 .156.297.313.219.11.969.203 1.39.187 1.937.39.719.25 1.11.75.39.5.39 1.047 0 .75-.656 1.266-.953.719-2.469.719-.61 0-1.125-.11-.515-.093-.953-.297-.094.079-.219.141-.109.047-.234.047-.328 0-.531-.219-.188-.219-.188-.719v-.484q0-.5.188-.719.203-.218.515-.218.25 0 .422.14t.266.485q.328.28.781.421.453.141 1.031.141.97 0 1.5-.312.25-.141.25-.313 0-.266-.359-.453-.36-.172-1.5-.297-1.688-.172-2.25-.687-.563-.485-.563-1.22 0-.75.626-1.25.859-.687 2.265-.687.484 0 .922.094.453.094.86.281.14-.093.25-.14.109-.047.203-.047.296 0 .484.219.187.203.187.718v.344q0 .453-.109.61-.219.312-.594.312-.25 0-.453-.156-.187-.157-.234-.407Zm8 0q-.344-.218-.719-.312-.375-.11-.781-.11-.828 0-1.297.266-.219.11-.219.25 0 .156.297.313.219.11.969.203 1.39.187 1.937.39.719.25 1.11.75.39.5.39 1.047 0 .75-.656 1.266-.953.719-2.469.719-.61 0-1.125-.11-.515-.093-.953-.297-.094.079-.219.141-.109.047-.234.047-.328 0-.531-.219-.188-.219-.188-.719v-.484q0-.5.188-.719.203-.218.515-.218.25 0 .422.14t.266.485q.328.28.781.421.453.141 1.031.141.97 0 1.5-.312.25-.141.25-.313 0-.266-.359-.453-.36-.172-1.5-.297-1.688-.172-2.25-.687-.563-.485-.563-1.22 0-.75.626-1.25.859-.687 2.265-.687.484 0 .922.094.453.094.86.281.14-.093.25-.14.109-.047.203-.047.296 0 .484.219.187.203.187.718v.344q0 .453-.109.61-.219.312-.594.312-.25 0-.453-.156-.187-.157-.234-.407Zm7.187-4.296v7.453h1.672q.516 0 .719.203.219.187.219.5 0 .312-.22.515-.202.188-.718.188h-4.766q-.5 0-.718-.188-.219-.203-.219-.515 0-.313.219-.5.218-.203.718-.203h1.688V53.58h-1.125q-.5 0-.719-.187-.219-.203-.219-.516 0-.312.204-.5.218-.187.734-.187h2.531Zm10.813 6.468h-5.75q.218.547.765.891.563.328 1.516.328.781 0 2.078-.344.531-.125.734-.125.282 0 .47.203.187.188.187.485 0 .281-.203.469-.266.25-1.329.484-1.062.219-2.03.219-1.688 0-2.704-.938-1-.953-1-2.344 0-1.484 1.078-2.406 1.094-.922 2.516-.922.86 0 1.578.297.719.297 1.063.656.484.5.812 1.25.219.516.219 1.204v.593Zm-1.547-1.406q-.328-.594-.844-.89-.516-.297-1.234-.297-.719 0-1.235.296-.515.297-.843.891h4.156Zm7.547-.766q-.344-.218-.719-.312-.375-.11-.781-.11-.828 0-1.297.266-.219.11-.219.25 0 .156.297.313.219.11.969.203 1.39.187 1.937.39.719.25 1.11.75.39.5.39 1.047 0 .75-.656 1.266-.953.719-2.469.719-.61 0-1.125-.11-.515-.093-.953-.297-.094.079-.219.141-.109.047-.234.047-.328 0-.531-.219-.188-.219-.188-.719v-.484q0-.5.188-.719.203-.218.515-.218.25 0 .422.14t.266.485q.328.28.781.421.453.141 1.031.141.97 0 1.5-.312.25-.141.25-.313 0-.266-.359-.453-.36-.172-1.5-.297-1.688-.172-2.25-.687-.563-.485-.563-1.22 0-.75.626-1.25.859-.687 2.265-.687.484 0 .922.094.453.094.86.281.14-.093.25-.14.109-.047.203-.047.296 0 .484.219.187.203.187.718v.344q0 .453-.109.61-.219.312-.594.312-.25 0-.453-.156-.187-.157-.234-.407Zm8 0q-.344-.218-.719-.312-.375-.11-.781-.11-.828 0-1.297.266-.219.11-.219.25 0 .156.297.313.219.11.969.203 1.39.187 1.937.39.719.25 1.11.75.39.5.39 1.047 0 .75-.656 1.266-.953.719-2.469.719-.61 0-1.125-.11-.515-.093-.953-.297-.094.079-.219.141-.109.047-.234.047-.328 0-.531-.219-.188-.219-.188-.719v-.484q0-.5.188-.719.203-.218.515-.218.25 0 .422.14t.266.485q.328.28.781.421.453.141 1.031.141.97 0 1.5-.312.25-.141.25-.313 0-.266-.359-.453-.36-.172-1.5-.297-1.688-.172-2.25-.687-.563-.485-.563-1.22 0-.75.626-1.25.859-.687 2.265-.687.484 0 .922.094.453.094.86.281.14-.093.25-.14.109-.047.203-.047.296 0 .484.219.187.203.187.718v.344q0 .453-.109.61-.219.312-.594.312-.25 0-.453-.156-.187-.157-.234-.407Zm15.156-2.328v5.485h.953q.5 0 .719.203.219.187.219.5 0 .312-.22.515-.218.188-.718.188h-3.281q-.516 0-.734-.188-.204-.203-.204-.515 0-.313.204-.5.218-.203.734-.203h.937v-5.485h-1.515v1.328q0 .516-.203.735-.188.203-.5.203-.313 0-.516-.203-.188-.219-.188-.735v-2.734l7.266.016v2.718q0 .516-.203.735-.188.203-.516.203-.296 0-.5-.203-.187-.219-.187-.735V54.16h-1.547Zm7.031.688v.875q.89-.64 1.39-.844.517-.219.954-.219.688 0 1.328.5.438.344.438.703 0 .297-.203.516-.204.203-.5.203-.266 0-.563-.25-.281-.265-.5-.265-.297 0-.89.375-.579.359-1.454 1.093v2.11h2q.5 0 .719.203.219.187.219.5 0 .312-.219.515-.219.188-.719.188h-4.234q-.5 0-.719-.188-.219-.203-.219-.515 0-.313.22-.5.218-.203.718-.203h.844v-3.407h-.516q-.5 0-.719-.187-.218-.203-.218-.516 0-.297.218-.484.219-.203.719-.203h1.906Zm11.266 0v4.797q.453 0 .656.203.219.203.219.5 0 .312-.219.515-.219.188-.719.188h-1.328v-.328q-.61.281-1.156.406-.547.14-1.031.14-.688 0-1.203-.28-.5-.297-.797-.813-.219-.36-.219-.922v-3.016h-.234q-.5 0-.72-.187-.218-.203-.218-.516 0-.297.219-.484.219-.203.719-.203h1.64v4.172q0 .437.219.656.219.203.656.203.422 0 .907-.172.5-.172 1.218-.61v-2.858h-.515q-.5 0-.72-.188-.218-.203-.218-.516 0-.297.219-.484.219-.203.719-.203h1.906Zm8.547 3.812h-5.75q.219.547.765.891.563.328 1.516.328.781 0 2.078-.344.531-.125.735-.125.28 0 .468.203.188.188.188.485 0 .281-.203.469-.266.25-1.328.484-1.063.219-2.032.219-1.687 0-2.703-.938-1-.953-1-2.344 0-1.484 1.078-2.406 1.094-.922 2.516-.922.86 0 1.578.297.719.297 1.063.656.484.5.812 1.25.219.516.219 1.204v.593Zm-1.547-1.406q-.328-.594-.844-.89-.515-.297-1.234-.297t-1.235.296q-.515.297-.843.891h4.156Zm16.234-4.14q.125-.172.282-.25.156-.094.328-.094.312 0 .5.218.203.204.203.704v1.187q0 .516-.203.734-.188.204-.5.204-.282 0-.453-.157-.172-.156-.25-.578-.047-.297-.188-.453-.281-.312-.797-.484-.5-.188-1-.188-.625 0-1.156.281-.531.266-.938.891-.39.61-.39 1.453v.906q0 1.016.734 1.688.735.672 2.031.672.782 0 1.329-.203.312-.125.671-.485.22-.218.329-.28.125-.079.28-.079.282 0 .5.219.22.218.22.5 0 .281-.297.61-.422.483-1.078.75-.875.374-1.938.374-1.25 0-2.25-.516-.797-.406-1.375-1.28-.563-.891-.563-1.938v-.953q0-1.094.5-2.032.516-.953 1.422-1.468.907-.516 1.907-.516.609 0 1.14.14.532.141 1 .422Zm9.438 4.953q0 .796-.453 1.562-.438.75-1.328 1.203-.891.438-1.844.438-.969 0-1.844-.438-.875-.437-1.328-1.187-.453-.766-.453-1.594 0-.844.453-1.656.469-.813 1.344-1.266.875-.469 1.828-.469.953 0 1.828.485.89.468 1.344 1.281.453.797.453 1.64Zm-1.406 0q0-.672-.485-1.235-.656-.765-1.734-.765-.953 0-1.594.609-.64.594-.64 1.406 0 .656.64 1.235.656.562 1.594.562.937 0 1.578-.562.64-.579.64-1.25Zm6.468-5.875v7.453h1.672q.516 0 .719.203.219.187.219.5 0 .312-.22.515-.202.188-.718.188h-4.765q-.5 0-.72-.188-.218-.203-.218-.515 0-.313.219-.5.219-.203.719-.203h1.687V53.58h-1.125q-.5 0-.719-.187-.218-.203-.218-.516 0-.312.203-.5.218-.187.734-.187h2.531Zm10.938 5.875q0 .796-.453 1.562-.438.75-1.328 1.203-.891.438-1.844.438-.969 0-1.844-.438-.875-.437-1.328-1.187-.453-.766-.453-1.594 0-.844.453-1.656.469-.813 1.344-1.266.875-.469 1.828-.469.953 0 1.828.485.89.468 1.344 1.281.453.797.453 1.64Zm-1.406 0q0-.672-.485-1.235-.656-.765-1.734-.765-.953 0-1.594.609-.64.594-.64 1.406 0 .656.64 1.235.656.562 1.594.562.937 0 1.578-.562.64-.579.64-1.25Zm5.468-3.22v.876q.89-.64 1.39-.844.517-.219.954-.219.688 0 1.328.5.438.344.438.703 0 .297-.203.516-.204.203-.5.203-.266 0-.563-.25-.281-.265-.5-.265-.297 0-.89.375-.579.359-1.454 1.093v2.11h2q.5 0 .719.203.219.187.219.5 0 .312-.219.515-.219.188-.719.188h-4.234q-.5 0-.719-.188-.219-.203-.219-.515 0-.313.22-.5.218-.203.718-.203h.844v-3.407h-.516q-.5 0-.719-.187-.218-.203-.218-.516 0-.297.218-.484.219-.203.719-.203h1.906Zm17-.687v5.485h1.407q.515 0 .718.203.219.187.219.5 0 .312-.219.515-.203.188-.718.188h-4.235q-.5 0-.719-.188-.203-.203-.203-.515 0-.313.203-.5.22-.203.72-.203h1.421v-5.485h-1.422q-.5 0-.719-.187-.203-.203-.203-.516 0-.312.203-.5.22-.203.72-.203l4.234.016q.515 0 .718.187.219.188.219.5 0 .313-.219.516-.203.187-.718.187h-1.407Zm5.125.688v.39q.344-.328.625-.453.282-.14.64-.14.313 0 .61.156t.578.453q.375-.297.735-.437.375-.157.765-.157.782 0 1.266.422.64.547.64 1.422v3.14q.438 0 .641.204.219.203.219.5 0 .312-.219.515-.203.188-.703.188h-1.328v-4.422q0-.328-.125-.437-.11-.125-.36-.125-.218 0-.421.109-.25.172-.61.656v2.813q.438 0 .641.203.219.203.219.5 0 .312-.219.515-.203.188-.719.188h-1.328v-4.422q0-.312-.125-.437-.11-.125-.36-.125t-.484.156q-.234.14-.578.61v2.812q.438 0 .657.203.218.203.218.5 0 .312-.218.515-.22.188-.72.188h-1.265q-.5 0-.719-.188-.218-.203-.218-.515 0-.313.218-.5.204-.203.657-.203v-3.407q-.453 0-.657-.187-.218-.203-.218-.516 0-.297.218-.484.22-.203.72-.203h1.327Zm11.438 6.203v-.328q-.531.281-1.172.422-.625.14-1.156.14-1.125 0-1.828-.593-.704-.61-.704-1.329 0-.89.891-1.64.906-.75 2.5-.75.625 0 1.469.14v-.343q0-.313-.281-.5-.266-.203-1.032-.203-.61 0-1.61.234-.358.094-.577.094-.266 0-.469-.203-.188-.204-.188-.516 0-.172.063-.297.063-.14.188-.219.125-.078.515-.187.516-.14 1.047-.219.547-.094.984-.094 1.313 0 2.032.563.718.562.718 1.547v2.875h.25q.5 0 .72.203.218.187.218.5 0 .312-.219.515-.219.188-.719.188h-1.64Zm0-2.516q-.844-.156-1.563-.156-.843 0-1.468.422-.375.266-.375.531 0 .203.187.328.328.22.922.22.516 0 1.156-.188.64-.204 1.14-.547v-.61Zm8.281-3.28v-.407h1.64q.5 0 .704.203.219.188.219.5 0 .297-.22.5-.202.188-.702.188h-.25v5.109q0 .734-.313 1.281-.312.563-.953.953-.64.39-1.438.39h-1.593q-.5 0-.719-.202-.219-.188-.219-.485 0-.312.219-.515.219-.188.719-.188h1.547q.64 0 1-.36.359-.343.359-.874v-.688q-.469.297-.953.453-.484.157-.984.157-1.438 0-2.407-.953-.953-.97-.953-2.36 0-1.406.953-2.36.969-.952 2.407-.952.53 0 1.015.156.485.14.922.453Zm-.016 2.687q0-.766-.578-1.329-.562-.578-1.36-.578-.796 0-1.374.578-.563.563-.563 1.329 0 .78.563 1.343.578.563 1.375.563t1.36-.563q.577-.562.577-1.343Zm9.985.718h-5.75q.219.547.765.891.563.328 1.516.328.781 0 2.078-.344.531-.125.735-.125.28 0 .468.203.188.188.188.485 0 .281-.203.469-.266.25-1.328.484-1.063.219-2.032.219-1.687 0-2.703-.938-1-.953-1-2.344 0-1.484 1.078-2.406 1.094-.922 2.516-.922.86 0 1.578.297.719.297 1.063.656.484.5.812 1.25.219.516.219 1.204v.593Zm-1.547-1.406q-.328-.594-.844-.89-.515-.297-1.234-.297t-1.235.296q-.515.297-.843.891h4.156Zm11.984 3.438q-.187.218-.297.28-.109.063-.28.063-.313 0-.517-.203-.187-.219-.187-.719v-.953q0-.5.188-.718.203-.22.515-.22.25 0 .406.142.172.124.266.437.094.297.188.406.187.203.687.422.516.219 1.125.219.938 0 1.531-.438.39-.265.39-.656 0-.25-.187-.484-.187-.235-.609-.375-.266-.11-1.219-.282-1.14-.218-1.734-.515-.594-.297-.938-.844-.328-.547-.328-1.187 0-1 .828-1.75.844-.766 2.188-.766.547 0 1 .125.469.11.844.36.28-.266.547-.266.312 0 .5.218.203.22.203.72v1.046q0 .5-.203.719-.188.219-.5.219-.266 0-.454-.157-.14-.125-.218-.468-.078-.344-.203-.5-.188-.25-.594-.422-.39-.188-.906-.188-.766 0-1.204.36-.437.343-.437.718 0 .266.172.516.187.234.531.375.234.094 1.313.313 1.078.203 1.656.453.578.25.953.796.39.547.39 1.282 0 1.047-.734 1.672-.969.812-2.469.812-.578 0-1.14-.14-.547-.141-1.063-.422Zm13.016-5.844v4.797q.453 0 .656.203.219.203.219.5 0 .312-.219.515-.219.188-.719.188h-1.328v-.328q-.61.281-1.156.406-.547.14-1.031.14-.688 0-1.203-.28-.5-.297-.797-.813-.219-.36-.219-.922v-3.016h-.234q-.5 0-.72-.187-.218-.203-.218-.516 0-.297.219-.484.219-.203.719-.203h1.64v4.172q0 .437.219.656.219.203.656.203.422 0 .906-.172.5-.172 1.22-.61v-2.858h-.516q-.5 0-.72-.188-.218-.203-.218-.516 0-.297.219-.484.219-.203.719-.203h1.906Zm5.531-2.656v1.468h-1.672v-1.468h1.672Zm.188 2.656v4.797h1.687q.5 0 .719.203.219.187.219.5 0 .312-.22.515-.218.188-.718.188h-4.765q-.5 0-.72-.188-.218-.203-.218-.515 0-.313.219-.5.219-.203.719-.203h1.687v-3.407h-1.14q-.5 0-.72-.187-.218-.203-.218-.516 0-.297.219-.484.218-.203.718-.203h2.532Zm6.968 1.39v2.813q0 .453.188.594.281.234 1.016.234 1.078 0 1.984-.469.344-.172.547-.172.281 0 .469.204.203.203.203.5 0 .28-.22.468-.327.328-1.312.594-.984.266-1.671.266-1.297 0-1.954-.563-.656-.562-.656-1.375v-3.094h-.5q-.515 0-.734-.187-.203-.203-.203-.516 0-.297.203-.484.219-.203.734-.203h.5V53.58q0-.515.188-.719.203-.218.515-.218.313 0 .5.218.203.204.203.72v1.265h2.594q.5 0 .719.203.219.188.219.5 0 .297-.22.5-.218.188-.718.188h-2.594Zm11.86 2.422h-5.75q.219.547.765.891.563.328 1.516.328.781 0 2.078-.344.531-.125.735-.125.28 0 .468.203.188.188.188.485 0 .281-.203.469-.266.25-1.328.484-1.063.219-2.032.219-1.687 0-2.703-.938-1-.953-1-2.344 0-1.484 1.078-2.406 1.094-.922 2.516-.922.86 0 1.578.297.719.297 1.063.656.484.5.812 1.25.219.516.219 1.204v.593Zm-1.547-1.406q-.328-.594-.844-.89-.515-.297-1.234-.297t-1.235.296q-.515.297-.843.891h4.156Z"/><path fill="#000" d="M27.69 24.222q.188-.25.407-.375.219-.14.469-.14.437 0 .718.312.282.297.282 1.015v1.704q0 .718-.282 1.03-.28.313-.718.313-.391 0-.641-.234-.25-.219-.36-.828-.062-.422-.28-.64-.391-.438-1.11-.704-.719-.266-1.438-.266-.906 0-1.656.391-.75.39-1.328 1.281-.578.875-.578 2.078v1.297q0 1.453 1.047 2.422 1.062.969 2.922.969 1.11 0 1.89-.313.438-.172.954-.687.312-.313.484-.406.172-.094.406-.094.39 0 .688.312.312.297.312.703 0 .407-.406.875-.594.688-1.531 1.079-1.266.53-2.782.53-1.78 0-3.203-.733-1.156-.594-1.968-1.86-.813-1.265-.813-2.75v-1.36q0-1.562.719-2.905.734-1.36 2.015-2.094 1.297-.735 2.75-.735.86 0 1.61.204.765.203 1.422.609Zm8.86 8.406 2.89-6.906h-.453q-.718 0-1.03-.281-.313-.282-.313-.735t.312-.718q.313-.282 1.031-.282h2.688q.719 0 1.031.282.313.265.313.718 0 .547-.469.86-.234.156-.922.156l-4.11 9.828h-1.921l-4.11-9.828q-.703 0-.921-.156-.47-.313-.47-.86 0-.453.313-.718.297-.282 1.016-.282h2.703q.719 0 1.016.282.312.265.312.718 0 .453-.297.735-.297.28-1.03.28h-.47l2.891 6.907Zm12 0 2.89-6.906h-.453q-.718 0-1.03-.281-.313-.282-.313-.735t.312-.718q.313-.282 1.031-.282h2.688q.719 0 1.031.282.313.265.313.718 0 .547-.469.86-.234.156-.922.156l-4.11 9.828h-1.921l-4.11-9.828q-.703 0-.921-.156-.47-.313-.47-.86 0-.453.313-.718.297-.282 1.016-.282h2.703q.719 0 1.016.282.312.265.312.718 0 .453-.297.735-.297.28-1.03.28h-.47l2.891 6.907Zm7.531.922v-7.828q-.64-.016-.953-.297-.297-.281-.297-.719 0-.453.313-.718.312-.282 1.031-.282h4.188q.968 0 1.906.375.937.36 1.5.907.437.421.89 1.156.47.734.703 1.453.235.719.235 1.765v.97q0 1.265-.438 2.25-.422.968-1.125 1.593-.687.625-1.312.922-.969.453-2.531.453h-4.016q-.719 0-1.031-.281-.313-.282-.313-.719 0-.453.313-.734.312-.282.937-.266Zm2 0h2.125q1.188 0 1.797-.344.797-.453 1.188-1.14.406-.704.406-1.797v-.953q0-.938-.36-1.657-.578-1.109-1.28-1.515-.704-.422-1.766-.422h-2.11v7.828Zm13.313-2.062v2.062h2.015q.735 0 1.032.281.312.266.312.719 0 .438-.312.719-.297.281-1.032.281h-4.328q-.719 0-1.031-.281-.313-.282-.313-.719 0-.453.313-.719.313-.281 1.031-.281h.313v-7.828h-.313q-.719 0-1.031-.281-.313-.282-.313-.735t.313-.718q.313-.282 1.031-.282h4.61q2.03 0 3.218 1.11 1.188 1.109 1.188 2.703 0 .875-.406 1.656-.297.594-1.016 1.172-.703.562-1.438.86-.734.28-1.953.28h-1.89Zm0-2h1.86q1.312 0 2.077-.594.766-.594.766-1.422 0-.703-.625-1.219-.625-.531-1.766-.531h-2.312v3.765Z"/></svg>
